<svg width="5671" height="2177" viewBox="0 0 5671 2177" fill="none" xmlns="http://www.w3.org/2000/svg">
<path fill-rule="evenodd" clip-rule="evenodd" d="M1178.8 1645.61C2674.64 977.283 3511.46 1176.19 4125.89 1667.47C4717.43 1567.94 5185.09 1752.37 5670.31 2167.02C5162.2 2279.39 4959.9 1396.8 3584.55 1840.09C3690.87 1769.65 3805.61 1724.91 3927.58 1706.01C3400.71 1281.77 2609.52 1130.26 1178.8 1645.61ZM1457.3 1754C1193.27 1656.1 845.673 1814.39 732.414 1671.75C774.203 1778.51 817.173 1889.26 824.409 2007.24C943.131 1869.03 1126.97 1765.22 1457.3 1754ZM2104.66 1448.33C1560.81 1622.72 2383.3 1613.86 3370.59 1684.74C2077.34 1716.49 1251.75 1642.81 2104.66 1448.33Z" fill="white"/>
<path fill-rule="evenodd" clip-rule="evenodd" d="M2915.48 5.94706C3313.14 -15.9073 3690.43 23.2238 4029.17 110.936L3727.79 413.353C3387.42 303.786 2987.25 256.238 2555.03 286.509L2634.04 31.6407C2727.65 19.9752 2820.68 11.5583 2915.48 5.94706ZM2473.52 293.745C2433.36 298.175 2391.72 302.162 2351.55 306.592C2143.2 332.433 1940.9 375.846 1748.64 431.811L1770.35 242.948C2012.81 150.806 2275.65 83.1756 2552.67 42.8631L2473.52 293.745ZM1669.64 456.323C1300.77 571.502 967.642 740.282 690.771 940.367C939.143 669.699 1283.5 439.047 1689.72 275.287L1669.64 456.323ZM4114.22 133.972C4537.72 256.238 4895.37 455.142 5150.53 708.387L4632.38 1025.27C4454.59 772.03 4168.86 570.32 3808.41 440.671L4114.22 133.972ZM5205.17 764.794C5439.07 1019.66 5574.03 1326.36 5574.03 1660.53C5574.03 1735.39 5566.8 1811.88 5553.95 1885.12C5322.71 1718.12 5086 1598.51 4827.44 1538.11C4810.17 1376.72 4757.3 1225.8 4673.72 1088.92L5205.17 764.794Z" fill="#FF592D"/>
<path fill-rule="evenodd" clip-rule="evenodd" d="M2341.51 377.027C3548.82 222.866 4546.59 705.138 4707.1 1475.8C4460.2 784.433 3492.56 365.805 2337.08 511.107C1227.39 649.173 292.966 1262.72 0 1976.97C221.201 1206.75 1184.42 525.578 2341.51 377.027Z" fill="white"/>
</svg>
