<svg width="600" height="1075" viewBox="0 0 600 1075" fill="none" xmlns="http://www.w3.org/2000/svg">
<g clip-path="url(#clip0_265_672)">
<path d="M580 0H20C8.9543 0 0 8.9543 0 20V1055C0 1066.05 8.9543 1075 20 1075H580C591.046 1075 600 1066.05 600 1055V20C600 8.9543 591.046 0 580 0Z" fill="#262F47"/>
<mask id="mask0_265_672" style="mask-type:alpha" maskUnits="userSpaceOnUse" x="0" y="0" width="600" height="1075">
<path d="M580 0H20C8.9543 0 0 8.9543 0 20V1055C0 1066.05 8.9543 1075 20 1075H580C591.046 1075 600 1066.05 600 1055V20C600 8.9543 591.046 0 580 0Z" fill="#262F47"/>
</mask>
<g mask="url(#mask0_265_672)">
<path d="M88 747C88 747 309.396 747 387.105 747C464.813 747 648.489 841.451 525.567 911.859C402.647 982.268 696.23 1075 632.948 1075C514.092 1075 182.517 1075 -9.91492 1075C-51.6407 1075 -75.6144 917.01 81.9222 868.927C239.459 820.843 88 747 88 747Z" fill="#FF592D"/>
</g>
</g>
<defs>
<clipPath id="clip0_265_672">
<rect width="600" height="1075" fill="white"/>
</clipPath>
</defs>
</svg>
