<svg width="2400" height="1308" viewBox="0 0 2400 1308" fill="none" xmlns="http://www.w3.org/2000/svg">
<path d="M1006.72 1091.49L973.518 1085.92C973.518 1085.92 945.77 908.188 962.431 841.594C979.093 774.938 1012.29 658.415 1095.41 669.504C1178.59 680.592 1250.63 763.912 1272.8 830.506C1294.91 897.162 1289.4 969.331 1289.4 969.331L1006.72 1091.49Z" fill="#262F47"/>
<path d="M70.0337 924.916C70.0337 924.916 75.6085 947.155 81.1206 958.244C86.6954 969.332 374.829 1013.75 374.829 1013.75C374.829 1013.75 330.545 974.845 330.545 947.093C330.545 919.34 302.796 713.922 275.11 675.018C247.424 636.177 203.076 586.185 147.642 602.849C92.2075 619.513 75.6085 719.497 64.5216 774.939C53.4347 830.445 70.0337 924.916 70.0337 924.916Z" fill="#262F47"/>
<path d="M430.259 958.243C430.259 1036.43 413.347 1106.21 374.825 1152.57C344.633 1188.91 303.668 1202.5 261.262 1202.5C210.776 1202.5 157.346 1191.04 125.463 1141.42C96.462 1096.38 81.1157 1013.56 81.1157 947.155C81.1157 807.64 123.271 697.257 219.733 697.257C316.133 697.257 430.259 818.729 430.259 958.243Z" fill="#262F47"/>
<path d="M319.392 955.49C319.392 1091.94 268.843 1202.51 203.011 1202.51C142.002 1202.51 81.0552 1091.94 81.0552 955.49C81.0552 819.046 125.403 702.836 197.499 702.836C263.331 702.836 319.392 819.046 319.392 955.49Z" fill="#262F47"/>
<mask id="mask0_287_806" style="mask-type:luminance" maskUnits="userSpaceOnUse" x="991" y="737" width="418" height="571">
<path d="M991.621 737.288H1408.54V1308H991.621V737.288Z" fill="white"/>
</mask>
<g mask="url(#mask0_287_806)">
<path d="M1405.78 1036.86C1405.78 1123.63 1385.93 1201.12 1340.7 1252.56C1305.19 1292.9 1257.02 1308 1207.22 1308C1147.9 1308 1085.14 1295.22 1047.75 1240.21C1013.61 1190.16 995.63 1098.32 995.63 1024.52C995.63 869.659 1056.58 752.76 1158.36 747.247C1271.49 741.045 1405.78 882 1405.78 1036.86Z" fill="#262F47"/>
</g>
<mask id="mask1_287_806" style="mask-type:luminance" maskUnits="userSpaceOnUse" x="991" y="737" width="290" height="571">
<path d="M991.621 737.288H1280.26V1308H991.621V737.288Z" fill="white"/>
</mask>
<g mask="url(#mask1_287_806)">
<path d="M1278.31 1035.99C1278.31 1184.59 1205.4 1297.79 1139.76 1302.49C1062.15 1308.07 995.691 1179.02 995.691 1030.42C995.691 869.415 1073.3 752.829 1139.76 752.829C1239.67 752.829 1278.31 887.394 1278.31 1035.99Z" fill="#262F47"/>
</g>
<path d="M269.593 960.996C269.593 971.395 269.029 981.669 268.027 991.881C266.962 1002.03 265.459 1011.93 263.455 1021.58C261.45 1031.16 258.945 1040.24 256.001 1048.89C253.057 1057.53 249.737 1065.55 246.041 1072.88C242.283 1080.21 238.212 1086.79 233.827 1092.55C229.442 1098.32 224.807 1103.2 219.921 1107.21C215.098 1111.16 210.025 1114.17 204.888 1116.23C199.689 1118.24 194.49 1119.24 189.166 1119.24C183.905 1119.24 178.706 1118.24 173.507 1116.23C168.308 1114.17 163.297 1111.16 158.411 1107.21C153.588 1103.2 148.953 1098.32 144.568 1092.55C140.183 1086.79 136.112 1080.21 132.354 1072.88C128.658 1065.55 125.276 1057.53 122.394 1048.89C119.45 1040.24 116.945 1031.16 114.94 1021.58C112.936 1011.93 111.37 1002.03 110.368 991.881C109.365 981.669 108.802 971.395 108.802 960.996C108.802 950.596 109.365 940.322 110.368 930.111C111.37 919.899 112.936 910.001 114.94 900.416C116.945 890.831 119.45 881.685 122.394 873.04C125.276 864.457 128.658 856.438 132.354 849.109C136.112 841.716 140.183 835.201 144.568 829.375C148.953 823.611 153.588 818.788 158.411 814.778C163.297 810.831 168.308 807.824 173.507 805.757C178.706 803.752 183.905 802.75 189.166 802.75C194.49 802.75 199.689 803.752 204.888 805.757C210.025 807.824 215.098 810.831 219.921 814.778C224.807 818.788 229.442 823.611 233.827 829.375C238.212 835.201 242.283 841.716 246.041 849.109C249.737 856.438 253.057 864.457 256.001 873.04C258.945 881.685 261.45 890.831 263.455 900.416C265.459 910.001 266.962 919.899 268.027 930.111C269.029 940.322 269.593 950.596 269.593 960.996Z" fill="white"/>
<path d="M1222.88 1033.17C1222.88 1045.02 1222.25 1056.73 1221 1068.38C1219.81 1079.97 1217.93 1091.31 1215.49 1102.21C1213.04 1113.17 1210.1 1123.57 1206.53 1133.41C1203.02 1143.31 1198.95 1152.39 1194.44 1160.79C1189.99 1169.18 1185.04 1176.64 1179.78 1183.21C1174.46 1189.79 1168.88 1195.37 1163 1199.88C1157.11 1204.45 1151.03 1207.83 1144.77 1210.15C1138.57 1212.47 1132.24 1213.6 1125.85 1213.6C1119.53 1213.6 1113.2 1212.47 1106.94 1210.15C1100.67 1207.83 1094.66 1204.45 1088.77 1199.88C1082.88 1195.37 1077.24 1189.79 1071.98 1183.21C1066.66 1176.64 1061.77 1169.18 1057.26 1160.79C1052.75 1152.39 1048.74 1143.31 1045.17 1133.41C1041.67 1123.57 1038.66 1113.17 1036.22 1102.21C1033.77 1091.31 1031.96 1079.97 1030.71 1068.38C1029.45 1056.73 1028.83 1045.02 1028.83 1033.17C1028.83 1021.33 1029.45 1009.62 1030.71 997.967C1031.96 986.315 1033.77 975.039 1036.22 964.138C1038.66 953.175 1041.67 942.776 1045.17 932.94C1048.74 923.042 1052.75 913.958 1057.26 905.563C1061.77 897.169 1066.66 889.714 1071.98 883.136C1077.24 876.558 1082.88 870.982 1088.77 866.472C1094.66 861.899 1100.67 858.516 1106.94 856.198C1113.2 853.88 1119.53 852.689 1125.85 852.689C1132.24 852.689 1138.57 853.88 1144.77 856.198C1151.03 858.516 1157.11 861.899 1163 866.472C1168.88 870.982 1174.46 876.558 1179.78 883.136C1185.04 889.714 1189.99 897.169 1194.44 905.563C1198.95 913.958 1203.02 923.042 1206.53 932.94C1210.1 942.776 1213.04 953.175 1215.49 964.138C1217.93 975.039 1219.81 986.315 1221 997.967C1222.25 1009.62 1222.88 1021.33 1222.88 1033.17Z" fill="white"/>
<path d="M1161.93 902.732C1155.36 892.834 1143.39 881.495 1112.01 897.156C1100.92 902.732 1114.14 974.337 1117.59 991.502C1123.16 1019.32 1139.76 1019.32 1161.93 1008.23C1184.11 997.078 1189.62 991.502 1189.62 969.325C1189.62 952.661 1173.02 919.333 1161.93 902.732Z" fill="#262F47"/>
<path d="M1067.72 1074.83C1065.22 1079.84 1073.3 1152.57 1106.5 1163.72C1139.76 1174.81 1167.51 1158.15 1167.51 1135.91C1167.51 1113.73 1150.84 1063.74 1134.24 1052.65C1117.58 1041.5 1073.24 1063.67 1067.72 1074.83Z" fill="#262F47"/>
<path d="M208.523 836.083C225.185 847.171 230.697 863.835 236.272 897.163C241.846 930.429 214.098 936.004 191.924 936.004C169.813 936.004 153.151 908.252 158.726 874.986C164.238 841.595 185.472 820.671 208.523 836.083Z" fill="#262F47"/>
<path d="M130.976 997.084C128.533 1002.1 136.55 1074.83 169.811 1085.98C203.009 1097.07 230.758 1080.4 230.758 1058.16C230.758 1035.99 214.096 985.995 197.497 974.907C180.898 963.818 136.488 985.995 130.976 997.084Z" fill="#262F47"/>
<path d="M1372.52 1163.66C1372.52 1163.66 1450.13 1163.66 1477.82 1163.66C1505.57 1163.66 1533.25 1135.85 1544.4 1124.76C1555.43 1113.67 1344.84 1091.49 1344.84 1091.49L1372.52 1163.66Z" fill="#262F47"/>
<path d="M1932.31 1113.67C1932.31 1113.67 1954.49 1235.83 2104.13 1235.83C2253.83 1235.83 2287.03 1113.67 2287.03 1097C2287.03 1080.34 1932.31 1113.67 1932.31 1113.67Z" fill="#262F47"/>
<path d="M255.687 117.076L254.935 120.584C254.622 119.018 254.81 117.891 255.687 117.076Z" fill="#FF592D"/>
<mask id="mask2_287_806" style="mask-type:luminance" maskUnits="userSpaceOnUse" x="0" y="0" width="2400" height="1139">
<path d="M0 0H2399.59V1138.23H0V0Z" fill="white"/>
</mask>
<g mask="url(#mask2_287_806)">
<path d="M2398.84 967.141C2398.65 947.156 2397.71 923.288 2396.4 898.041C2393.02 831.573 2387 755.144 2384.06 711.166C2381.18 667.752 2375.29 628.911 2367.15 596.898C2364.58 586.812 2361.82 577.415 2358.88 568.832C2354.31 555.551 2349.23 544.024 2343.78 534.502C2342.47 532.184 2341.15 530.054 2339.77 527.987C2317.6 494.659 2267.68 455.818 2212.24 428.002C2156.87 400.25 2034.85 378.073 2034.85 378.073L2032.28 375.755C2022.39 366.546 1984.68 332.027 1937.33 290.054L1936.95 289.741C1890.03 248.269 1833.66 199.592 1785.43 161.503C1680.13 78.1827 1619.19 50.4302 1475.06 22.6777C1330.87 -5.13751 870.854 0.438059 870.854 0.438059C870.854 0.438059 649.178 6.01363 488.387 33.7661C327.721 61.5187 261.262 111.511 255.688 117.086L288.948 155.927L255.688 200.344L238.024 202.035C214.722 228.598 185.095 259.921 166.992 278.089C146.948 298.198 114.752 326.389 89.9479 350.446C73.662 366.358 60.5081 380.391 56.1234 389.161C48.6695 404.071 43.7212 451.558 41.2783 489.521C40.0882 508.128 39.4618 524.416 39.4618 533.5C39.4618 561.252 0.688965 744.494 0.688965 805.575C0.688965 824.744 2.38019 841.283 5.13625 855.692C11.1495 887.078 22.4869 908.629 33.9497 927.673C50.5487 955.488 78.2346 949.913 78.2346 949.913C78.2346 949.913 72.6598 933.249 72.6598 899.921C72.6598 866.655 61.5729 633.421 172.442 638.934C283.374 644.51 305.547 844.416 311.122 888.832C316.697 933.249 322.209 972.09 355.47 1005.42C388.668 1038.75 455.252 1027.66 494.025 1027.66C532.86 1027.66 976.273 1088.74 976.273 1088.74C976.273 1088.74 970.698 955.488 981.848 894.408C992.872 833.327 1015.05 661.236 1137 711.166C1258.96 761.158 1281.07 983.241 1292.16 1038.75C1303.24 1094.25 1319.9 1116.49 1397.45 1122C1475.06 1127.58 1818.75 1133.09 1968.39 1122C2118.04 1110.91 2306.51 1105.34 2334.2 1094.25C2349.8 1087.99 2363.7 1074.64 2374.79 1059.23C2383.31 1047.33 2390.32 1034.17 2395.15 1022.08C2395.9 1020.33 2396.46 1017.95 2396.9 1014.88C2396.96 1014.44 2397.02 1014 2397.15 1013.5C2397.71 1009.11 2398.15 1003.79 2398.4 997.462C2398.9 988.879 2399.03 978.605 2398.84 967.141ZM998.447 483.507L984.479 482.756C988.049 474.173 991.745 465.966 995.253 458.449L998.447 483.507ZM782.221 472.419L735.368 388.973C740.755 389.475 746.204 390.101 751.654 390.602C779.465 415.661 861.959 411.965 876.491 416.851C893.153 422.427 904.24 444.666 915.264 455.755C926.351 466.843 943.013 466.843 965.186 450.179C973.204 444.103 975.647 429.882 975.083 413.28C980.094 413.782 985.043 414.283 989.803 414.721L992.371 435.207C986.671 445.794 979.343 460.453 973.455 475.113C972.578 477.368 971.638 479.686 970.636 482.004L782.221 472.419ZM219.671 602.912C219.671 602.912 203.009 619.576 207.832 586.373C212.53 588.002 217.291 589.819 222.239 592.012C220.61 598.778 219.671 602.912 219.671 602.912ZM951.281 886.076L934.619 1008.24C934.431 1008.24 934.243 1001.28 934.181 989.318C934.181 989.255 934.181 989.255 934.181 989.192C939.004 969.083 943.764 895.347 948.525 866.655C949.339 861.706 950.279 855.191 951.406 847.485C951.281 871.103 951.281 886.076 951.281 886.076ZM1499.17 1053.84C1499.24 1053.84 1499.24 1053.84 1499.24 1053.84C1504.31 1054.28 1509.51 1054.78 1514.83 1055.28C1512.33 1057.16 1511.14 1058.17 1511.14 1058.17H1494.48C1494.48 1058.17 1496.17 1056.6 1499.17 1053.84Z" fill="#FF592D"/>
</g>
<path d="M288.948 155.917L255.687 200.334L238.023 202.025V201.963C257.379 179.848 272.349 160.992 272.349 155.917C272.349 146.52 256.314 128.979 254.998 120.647V120.584L255.75 117.076L288.948 155.917Z" fill="#FF592D"/>
<path d="M272.349 155.922C272.349 160.997 257.379 179.854 238.023 201.968L254.936 120.652C256.314 128.984 272.349 146.463 272.349 155.922Z" fill="#262F47"/>
<path d="M1940.65 289.176C1940.65 289.176 1979.48 272.512 2001.66 294.752C2023.77 316.991 2034.85 328.08 2034.85 344.744C2034.85 361.408 2034.85 378.072 2034.85 378.072L1936.95 289.803L1940.65 289.176Z" fill="#262F47"/>
<path d="M1076 422.427C1071.61 422.427 1049.5 420.548 1016.43 417.29C1008.16 416.538 999.266 415.661 989.808 414.722C985.048 414.283 980.099 413.782 975.088 413.281C912.513 407.079 829.706 398.684 751.659 390.603C746.209 390.101 740.76 389.475 735.373 388.974C693.782 384.651 654.069 380.579 620.119 377.071L609.408 375.943C566.126 371.433 533.867 368.05 521.715 366.922C484.634 363.226 378.212 350.195 334.303 339.545C328.916 338.23 324.469 336.977 321.212 335.724L321.086 335.661C319.145 334.91 317.641 334.22 316.639 333.531C299.977 322.443 266.779 272.451 261.267 261.362C255.692 250.274 244.606 233.61 272.354 205.857C300.04 178.105 377.648 100.423 516.203 72.6075C654.758 44.855 832.086 39.3421 870.921 67.0319C909.757 94.8471 937.443 128.113 970.703 178.105C1003.96 228.097 1092.66 355.771 1098.17 378.011C1103.68 400.25 1098.17 422.427 1076 422.427Z" fill="#262F47"/>
<path d="M965.125 450.241C942.951 466.905 926.352 466.905 915.265 455.816C904.178 444.665 893.091 422.488 876.43 416.912C861.898 412.026 779.404 415.659 751.592 390.663C749.4 388.721 747.584 386.591 746.205 384.211C744.953 382.331 744.013 380.264 743.449 378.071C732.363 339.168 737.875 305.84 771.135 294.751C804.396 283.663 909.753 266.999 926.352 283.663C942.951 300.327 954.038 316.991 959.55 333.655C963.183 344.555 970.136 369.677 973.33 394.109C974.27 400.687 974.834 407.14 975.022 413.342C975.648 429.943 973.205 444.164 965.125 450.241Z" fill="#FF592D"/>
<path d="M2012.68 378.072C2027.21 391.854 1210.98 372.747 1210.98 372.747C1202.77 372.621 1195 368.737 1189.99 362.159C1158.11 320.499 1031.64 155.926 976.21 67.0931C969.633 56.5684 1552.67 50.4291 1630.27 83.7571C1701.24 114.203 1896.36 266.999 2012.68 378.072Z" fill="#262F47"/>
<path d="M117.071 372.492C117.071 378.068 94.9594 422.422 83.8725 444.661C73.1615 466.024 57.3141 492.711 41.2788 489.454C43.7843 451.49 48.7327 404.066 56.1866 389.093C60.5713 380.26 73.7252 366.227 90.0111 350.44C104.042 360.151 117.071 369.924 117.071 372.492Z" fill="#E33E36"/>
<mask id="mask3_287_806" style="mask-type:luminance" maskUnits="userSpaceOnUse" x="1504" y="881" width="896" height="242">
<path d="M1504.75 881.629H2399.59V1122.19H1504.75V881.629Z" fill="white"/>
</mask>
<g mask="url(#mask3_287_806)">
<path d="M2397.65 1014.38C2397.4 1014.5 2397.21 1014.69 2396.9 1014.88C2396.46 1017.95 2395.9 1020.33 2395.15 1022.08C2390.32 1034.17 2383.31 1047.33 2374.79 1059.23L2137.46 1108.16L1505.56 1074.83C1505.56 1074.83 1515.15 1067.81 1530.24 1056.73C1583.61 1017.7 1706.95 929.303 1732.81 924.917C1766.08 919.342 2298.18 886.076 2309.27 897.165C2320.36 908.253 2375.79 980.423 2386.88 997.087C2389.82 1001.53 2393.46 1007.3 2397.15 1013.5C2397.34 1013.75 2397.53 1014.06 2397.65 1014.38Z" fill="#262F47"/>
</g>
<path d="M1502.81 544.591C1553.42 557.245 1674.62 594.583 1702.37 605.671C1730.06 616.76 1724.54 638.937 1680.2 638.937C1635.85 638.937 1597.08 633.361 1591.5 638.937C1585.93 644.512 1569.33 661.176 1569.33 683.353C1569.33 705.53 1574.9 761.098 1569.33 772.186C1563.75 783.275 1441.86 938.764 1430.77 949.915C1419.68 961.004 1408.6 966.579 1408.6 911.012C1408.6 855.507 1403.02 750.009 1403.02 727.833C1403.02 705.593 1397.45 683.416 1364.25 644.512C1330.99 605.671 1314.33 589.007 1292.15 561.255C1281.88 548.412 1277.81 522.915 1286.58 511.263C1296.79 497.919 1322.78 499.673 1353.16 505.687C1408.54 516.838 1462.65 534.505 1502.81 544.591Z" fill="#262F47"/>
<path d="M1364.25 572.334C1377.22 582.107 1408.54 600.149 1419.31 606.79C1427.08 611.551 1509.57 613.242 1541.77 613.242C1573.96 613.242 1619.19 612.115 1619.19 605.662C1619.19 599.209 1580.41 593.884 1548.22 587.369C1529.05 583.548 1492.03 580.917 1453.45 571.958C1428.39 566.132 1408.54 555.67 1380.85 544.581C1370.26 540.321 1314.27 516.829 1308.75 522.404C1300.05 531.175 1342.08 555.67 1364.25 572.334Z" fill="#FF592D"/>
<path d="M1458.46 633.416C1458.46 633.416 1547.16 633.416 1558.18 633.416C1569.27 633.416 1552.67 644.505 1552.67 661.231C1552.67 666.807 1552.67 683.408 1547.1 683.408C1536.01 683.408 1458.4 683.408 1452.89 683.408C1447.38 683.408 1447.38 633.416 1458.46 633.416Z" fill="#FF592D"/>
<path d="M1546.46 738.914H1453.63C1453.2 738.914 1452.95 738.601 1452.95 738.225V706.275C1452.95 705.899 1453.2 705.586 1453.63 705.586H1546.46C1546.84 705.586 1547.15 705.899 1547.15 706.275V738.225C1547.15 738.601 1546.84 738.914 1546.46 738.914Z" fill="#FF592D"/>
<path d="M1538.82 783.335H1453.38C1453.13 783.335 1452.95 783.147 1452.95 782.896V750.821C1452.95 750.32 1453.26 750.007 1453.7 750.007H1541.58V780.516C1541.58 782.145 1540.39 783.335 1538.82 783.335Z" fill="#FF592D"/>
<path d="M1463.97 849.932C1463.97 833.268 1463.97 816.667 1463.97 811.091C1463.97 811.091 1512.27 807.144 1508.32 811.091C1497.23 822.242 1463.97 855.508 1463.97 849.932Z" fill="#FF592D"/>
<mask id="mask4_287_806" style="mask-type:luminance" maskUnits="userSpaceOnUse" x="2210" y="528" width="190" height="386">
<path d="M2210.3 528.796H2399.59V913.698H2210.3V528.796Z" fill="white"/>
</mask>
<g mask="url(#mask4_287_806)">
<path d="M2396.4 898.036C2381.24 846.666 2359.82 773.181 2356.37 755.578C2350.8 727.825 2356.37 716.674 2361.88 688.921C2367.46 661.169 2356.37 633.416 2350.86 633.416H2278.76C2190.07 633.416 2223.39 600.151 2278.76 577.911C2304.26 567.7 2331.32 545.46 2343.78 534.497C2349.23 543.957 2354.3 555.546 2358.88 568.828C2361.82 577.41 2364.58 586.87 2367.14 596.893C2375.29 628.906 2381.24 667.747 2384.06 711.161C2387 755.139 2393.01 831.568 2396.4 898.036Z" fill="#262F47"/>
</g>
<path d="M2367.15 596.837C2360.38 598.341 2354.31 599.594 2349.48 600.659C2317.92 607.299 2273.44 615.506 2272.13 609.179C2270.81 602.789 2307.64 589.695 2337.9 576.727C2343.35 574.41 2350.55 571.778 2358.94 568.834C2361.82 577.417 2364.58 586.751 2367.15 596.837Z" fill="#FF592D"/>
<mask id="mask5_287_806" style="mask-type:luminance" maskUnits="userSpaceOnUse" x="0" y="576" width="2400" height="563">
<path d="M0 576.914H2399.59V1138.23H0V576.914Z" fill="white"/>
</mask>
<g mask="url(#mask5_287_806)">
<path d="M2396.9 1014.88C2396.46 1017.95 2395.9 1020.33 2395.15 1022.08C2390.32 1034.17 2383.31 1047.33 2374.79 1059.23C2363.7 1074.64 2349.86 1087.98 2334.2 1094.25C2306.45 1105.34 2118.04 1110.91 1968.4 1122C1818.75 1133.09 1475.06 1127.58 1397.45 1122C1319.84 1116.43 1303.24 1094.25 1292.16 1038.74C1281.07 983.239 1258.96 761.156 1137 711.164C1015.05 661.234 992.873 833.325 981.849 894.406C970.762 955.486 976.274 1088.74 976.274 1088.74C976.274 1088.74 532.861 1027.66 494.025 1027.66C455.253 1027.66 388.731 1038.74 355.471 1005.42C322.21 972.15 316.635 933.247 311.123 888.83C305.548 844.414 283.374 644.508 172.568 638.932C61.699 633.357 72.7859 866.653 72.7859 899.919C72.7859 933.247 78.3607 949.911 78.3607 949.911C78.3607 949.911 50.6121 955.486 34.0131 927.671C22.613 908.627 11.2129 887.076 5.19971 855.69C15.4723 849.864 30.4428 840.404 34.0131 833.263C39.5879 822.174 45.1 727.828 61.7617 666.747C77.1706 610.177 125.84 558.306 207.896 586.309C203.073 619.512 219.734 602.848 219.734 602.848C219.734 602.848 220.674 598.776 222.302 591.885C224.182 592.762 226.123 593.639 228.065 594.516C322.273 638.932 344.446 905.432 344.446 916.52C344.446 926.606 453.875 932.119 540.44 941.328C546.265 942.017 552.091 942.644 557.728 943.333L562.489 943.897C563.741 944.022 564.994 944.147 566.184 944.335C654.879 955.424 926.477 994.265 931.989 994.265C932.804 994.265 933.555 992.511 934.244 989.316C934.37 1001.28 934.557 1008.23 934.745 1008.23L951.407 886.074C951.407 886.074 951.407 871.101 951.47 847.483C951.532 847.421 951.532 847.358 951.532 847.358C958.36 803.004 972.641 719.559 1015.11 672.323C1065.03 616.818 1170.26 622.331 1236.85 716.677C1303.37 811.086 1308.88 949.911 1314.46 994.265C1320.03 1038.68 1331.06 1027.59 1425.26 1044.26C1444.62 1047.7 1469.99 1050.9 1499.24 1053.84C1496.23 1056.6 1494.54 1058.16 1494.54 1058.16H1511.2C1511.2 1058.16 1512.45 1057.16 1514.9 1055.28C1519.97 1055.78 1525.04 1056.22 1530.31 1056.66C1641.11 1066.25 1788.31 1072.01 1868.68 1072.01C1979.54 1072.01 2245.57 1049.83 2323.18 1038.74C2362.39 1033.11 2384.56 1023.27 2396.9 1014.88Z" fill="#262F47"/>
</g>
<path d="M992.376 435.269C986.676 445.856 979.347 460.515 973.459 475.175C972.582 477.367 971.643 479.685 970.64 482.066L782.226 472.418L735.373 388.973C740.759 389.474 746.209 390.1 751.658 390.601C779.47 415.66 861.964 411.964 876.496 416.85C893.157 422.426 904.244 444.666 915.268 455.754C926.355 466.843 943.017 466.843 965.191 450.179C973.208 444.102 975.651 429.881 975.088 413.28C980.099 413.781 985.047 414.282 989.807 414.72L992.376 435.269Z" fill="#FF592D"/>
<path d="M975.086 413.282C975.65 429.947 973.207 444.167 965.189 450.181C943.015 466.845 926.354 466.845 915.267 455.757C904.242 444.668 893.156 422.429 876.494 416.853C861.962 411.967 779.468 415.663 751.657 390.604C746.207 390.103 740.758 389.477 735.371 388.976L732.364 383.588L746.207 384.152L973.332 394.05L987.3 394.614L989.806 414.723C985.045 414.285 980.097 413.784 975.086 413.282Z" fill="#262F47"/>
<path d="M998.447 483.512L984.478 482.76C988.049 474.177 991.744 465.971 995.252 458.453L998.447 483.512Z" fill="#FF592D"/>
<path d="M995.317 458.45C991.747 465.968 988.114 474.174 984.543 482.757L970.7 482.005C971.703 479.687 972.642 477.369 973.519 475.114C979.344 460.455 986.736 445.795 992.436 435.208L995.317 458.45Z" fill="#262F47"/>
<path d="M1998.9 625.086H2065.42L2059.84 697.255L1998.9 625.086Z" fill="white"/>
<path d="M667.282 527.987L578.775 522.161L581.468 480.877C581.531 479.248 582.972 477.995 584.663 478.058L668.911 483.571C669.6 483.633 670.164 484.197 670.101 484.886L667.282 527.987Z" fill="white"/>
<path d="M344.444 493.476L268.714 484.079L272.974 449.999C273.162 448.37 274.665 447.243 276.294 447.431L347.889 456.264C348.578 456.389 349.016 456.953 348.953 457.642L344.444 493.476Z" fill="white"/>
<path d="M620.116 377.063C620.116 377.063 579.903 430.751 568.816 486.256C557.729 541.761 563.304 630.594 563.304 680.586C563.304 730.579 562.364 943.891 562.364 943.891L540.253 941.385C540.253 941.385 536.996 563.75 541.067 525.16C552.154 419.663 602.014 375.246 602.014 375.246L620.116 377.063Z" fill="white"/>
<path d="M222.179 591.948C220.55 598.776 219.61 602.911 219.61 602.911C219.61 602.911 203.011 619.575 207.835 586.372C212.47 587.938 217.293 589.755 222.179 591.948Z" fill="#262F47"/>
<path d="M334.299 339.546C334.299 339.546 267.715 420.611 247.357 491.84C238.964 521.472 227.313 570.274 222.177 591.95C217.291 589.757 212.468 587.941 207.833 586.312C212.593 553.172 236.208 464.088 252.87 430.76C269.531 397.369 321.082 335.725 321.082 335.725L321.207 335.787L334.299 339.546Z" fill="white"/>
<path d="M951.409 847.492C951.284 871.11 951.284 886.083 951.284 886.083L934.623 1008.24C934.435 1008.24 934.247 1001.29 934.184 989.325C934.184 989.262 934.184 989.262 934.184 989.199C939.007 969.09 943.768 895.354 948.528 866.662C949.342 861.713 950.282 855.198 951.409 847.492Z" fill="#262F47"/>
<path d="M1016.43 417.293C1016.43 417.293 1006.72 434.208 995.316 458.452C991.746 465.97 988.113 474.176 984.543 482.759C975.335 504.936 966.566 529.869 962.431 552.923C953.975 599.72 951.908 769.869 951.47 847.3C951.47 847.363 951.47 847.363 951.407 847.426C950.28 855.131 949.34 861.647 948.526 866.596C943.765 895.288 939.005 969.023 934.182 989.133C933.555 917.966 934.933 660.3 940.195 597.277C944.956 541.396 959.738 508.507 970.637 482.007C971.639 479.689 972.579 477.309 973.456 475.053C979.281 460.457 986.672 445.797 992.372 435.147C997.509 425.75 1001.2 419.611 1001.2 419.611L1016.43 417.293Z" fill="white"/>
<path d="M1514.84 1055.28C1512.33 1057.16 1511.14 1058.16 1511.14 1058.16H1494.48C1494.48 1058.16 1496.17 1056.6 1499.18 1053.84C1499.24 1053.84 1499.24 1053.84 1499.24 1053.84C1504.31 1054.28 1509.51 1054.78 1514.84 1055.28Z" fill="#262F47"/>
<mask id="mask6_287_806" style="mask-type:luminance" maskUnits="userSpaceOnUse" x="1488" y="849" width="912" height="210">
<path d="M1488.71 849.544H2399.59V1058.03H1488.71V849.544Z" fill="white"/>
</mask>
<g mask="url(#mask6_287_806)">
<path d="M2398.46 997.459C2377.29 967.952 2316.35 885.071 2298.18 880.56C2276.01 874.985 1743.9 908.313 1721.73 913.826C1688.78 922.095 1540.45 1035.61 1514.9 1055.34C1509.57 1054.84 1504.31 1054.34 1499.24 1053.9C1527.55 1027.4 1675.12 891.085 1705.19 886.136C1738.39 880.56 1882.52 880.56 1882.52 880.56C1882.52 880.56 2270.5 858.321 2298.24 863.833C2319.98 868.219 2375.79 937.443 2398.9 967.138C2399.03 978.602 2398.9 988.876 2398.46 997.459Z" fill="white"/>
</g>
<path d="M1294 1114C1294 1088 1210 634 1092 720C997.6 788.8 991.333 896 988 926V1048L370 970H302C312.667 892.667 314 721.2 234 654C154 586.8 96.6667 670 78 720V900M1316.5 1110L1465.5 1122L1593 1081L1654 1096H1766.5L2306 1048M1003 759C985.5 829.28 952 977.372 958 1007.5" stroke="#262F47" stroke-width="58"/>
<path d="M1350 1115C1358 1112 2291 1124 2329 1079C2359.4 1043 2337.33 994.333 2329 972" stroke="#262F47" stroke-width="58"/>
<path d="M418 1020L1008 1086" stroke="#262F47" stroke-width="58"/>
<path d="M78.0002 944C74.0002 833.333 86.4002 624.4 168 674C249.6 723.6 284.667 796 292 826L312 964" stroke="#262F47" stroke-width="58"/>
<path d="M320 980C350 996 436.4 1026.4 542 1020" stroke="#262F47" stroke-width="58"/>
</svg>
