<svg width="381" height="383" viewBox="0 0 381 383" fill="none" xmlns="http://www.w3.org/2000/svg">
<path d="M220.55 209.155H82.127V44.5862H220.55V209.155Z" fill="#FF592D" fill-opacity="0.25"/>
<path d="M356.157 210.983H337.416V46.438H356.157V210.983Z" fill="#FF592D" fill-opacity="0.25"/>
<path d="M357.787 215.353H66.0029V203.03H357.787V215.353Z" fill="#FF592D"/>
<path d="M86.4971 216.045H80.7192C80.3488 216.045 80.0278 215.724 80.0278 215.354V203.031C80.0278 202.661 80.3488 202.34 80.7192 202.34C81.1143 202.34 81.4106 202.661 81.4106 203.031V214.663H86.4971C86.8675 214.663 87.1885 214.959 87.1885 215.354C87.1885 215.724 86.8675 216.045 86.4971 216.045Z" fill="black"/>
<path d="M161.363 158.654H211.882V106.053H161.363V158.654ZM213.265 160.036H159.98V104.645H213.265V160.036Z" fill="#FF592D"/>
<path d="M167.635 153.516C167.412 153.516 167.215 153.418 167.067 153.22C166.844 152.924 166.919 152.479 167.24 152.257L181.388 142.181C181.709 141.959 182.129 142.033 182.351 142.329C182.573 142.65 182.499 143.07 182.203 143.293L168.03 153.393C167.906 153.467 167.783 153.516 167.635 153.516Z" fill="white"/>
<path d="M168.746 144.675C168.524 144.675 168.301 144.577 168.178 144.379C167.956 144.083 168.03 143.638 168.326 143.416L180.993 134.254C181.314 134.032 181.734 134.081 181.956 134.402C182.178 134.699 182.129 135.143 181.808 135.365L169.141 144.552C169.018 144.626 168.869 144.675 168.746 144.675Z" fill="white"/>
<path d="M191.66 128.994C191.463 128.994 191.24 128.895 191.117 128.698C190.895 128.377 190.969 127.957 191.265 127.735L205.414 117.634C205.735 117.412 206.154 117.486 206.377 117.807C206.599 118.128 206.525 118.548 206.228 118.77L192.08 128.871C191.957 128.945 191.808 128.994 191.66 128.994Z" fill="white"/>
<path d="M192.771 120.153C192.549 120.153 192.351 120.054 192.203 119.857C191.981 119.56 192.055 119.116 192.351 118.893L205.018 109.707C205.339 109.485 205.783 109.559 206.006 109.88C206.228 110.176 206.154 110.621 205.833 110.843L193.166 120.005C193.042 120.104 192.919 120.153 192.771 120.153Z" fill="white"/>
<path d="M187.314 159.344H185.932V105.361H187.314V159.344Z" fill="#FF592D"/>
<path d="M354.256 80.3197H84.5713V55.822H354.256V80.3197Z" fill="#FF592D" fill-opacity="0.25"/>
<path d="M360.626 67.6016H76.8423C74.0768 67.6016 71.8545 64.7864 71.8299 61.3043L71.6076 20.2608C71.5829 16.7541 73.8299 13.8894 76.6201 13.8894L360.651 12.7288C363.441 12.7288 365.688 15.5687 365.688 19.0754L365.663 61.2549C365.639 64.7617 363.392 67.6016 360.626 67.6016Z" fill="#FF592D"/>
<path d="M129.115 26.3114C126.449 26.3114 124.276 28.4846 124.276 31.1517V49.1545C124.276 51.8216 126.449 53.9948 129.115 53.9948H308.181C310.848 53.9948 313.021 51.8216 313.021 49.1545V31.1517C313.021 28.4846 310.848 26.3114 308.181 26.3114H129.115ZM308.181 55.3777H129.115C125.683 55.3777 122.893 52.5872 122.893 49.1545V31.1517C122.893 27.719 125.683 24.9285 129.115 24.9285H308.181C311.613 24.9285 314.403 27.719 314.403 31.1517V49.1545C314.403 52.5872 311.613 55.3777 308.181 55.3777Z" fill="white"/>
<path d="M336.305 203.03H221.414V84.2708H336.305V203.03Z" fill="white"/>
<path d="M336.651 90.7411H221.29C219.241 90.7411 217.586 89.0618 217.586 87.0121V81.5298C217.586 79.4801 219.241 77.8008 221.29 77.8008H336.651C338.676 77.8008 340.355 79.4801 340.355 81.5298V87.0121C340.355 89.0618 338.676 90.7411 336.651 90.7411Z" fill="#FF592D"/>
<path d="M102.72 213.575H149.782C151.313 213.575 152.548 212.34 152.548 210.809V107.904C152.548 106.373 151.313 105.114 149.782 105.114H102.72C101.189 105.114 99.9541 106.373 99.9541 107.904V210.809C99.9541 212.34 101.189 213.575 102.72 213.575Z" fill="white"/>
<path d="M154.128 216.34H93.3369C92.2504 216.34 91.3862 215.476 91.3862 214.39V207.45C91.3862 206.364 92.2504 205.499 93.3369 205.499L135.609 205.573C135.98 205.573 136.301 205.894 136.276 206.265C136.276 206.635 135.98 206.956 135.585 206.956L93.3369 206.882C93.0159 206.882 92.769 207.129 92.769 207.45V214.39C92.769 214.711 93.0159 214.958 93.3369 214.958H154.128C154.499 214.958 154.82 215.279 154.82 215.649C154.82 216.044 154.499 216.34 154.128 216.34Z" fill="black"/>
<path d="M112.053 140.971C111.806 140.971 111.584 140.848 111.461 140.65C111.263 140.329 111.362 139.885 111.683 139.687L142.177 120.079C142.498 119.882 142.918 119.98 143.116 120.302C143.338 120.623 143.239 121.042 142.918 121.24L112.424 140.848C112.3 140.922 112.177 140.971 112.053 140.971Z" fill="white"/>
<path d="M357.787 216.045H334.009C333.638 216.045 333.317 215.724 333.317 215.354C333.317 214.959 333.638 214.663 334.009 214.663H357.096V203.723H346.281C345.91 203.723 345.589 203.401 345.589 203.031C345.589 202.636 345.91 202.34 346.281 202.34H357.787C358.182 202.34 358.478 202.636 358.478 203.031V215.354C358.478 215.724 358.182 216.045 357.787 216.045Z" fill="black"/>
<path d="M159.807 309.467L217.562 308.479L217.981 232.442L116.695 231.01L125.56 281.166C128.498 297.761 143.017 309.763 159.807 309.467Z" fill="black"/>
<path d="M34.496 272.894L49.7803 272.622L65.7313 235.06L27.1625 229.652L25.4341 265.386C26.1995 269.782 30.0515 272.968 34.496 272.894Z" fill="black"/>
<path d="M73.1879 269.585C71.8298 252.421 64.8173 241.21 57.5826 241.802C57.5085 241.802 42.1996 241.951 42.1749 241.951C34.9648 242.519 30.1993 256.891 31.5573 274.054C32.9154 291.218 39.8785 304.677 47.0885 304.109C47.1379 304.109 62.6444 302.824 62.6691 302.824C69.9779 301.713 74.5459 286.649 73.1879 269.585Z" fill="#FF592D"/>
<path d="M57.7061 271.98C59.0641 289.143 54.3233 303.516 47.0885 304.108C39.8785 304.676 32.9154 291.218 31.5573 274.054C30.1993 256.891 34.9648 242.518 42.1749 241.95C49.3849 241.358 56.348 254.817 57.7061 271.98Z" fill="#FF592D"/>
<path d="M42.6195 242.617C42.4714 242.617 42.3479 242.617 42.2244 242.642C35.5082 243.161 30.9402 257.533 32.2489 274.005C32.9156 282.229 34.8663 289.835 37.7552 295.416C40.496 300.75 43.8788 303.664 47.0394 303.417C53.7556 302.874 58.3236 288.501 57.0149 272.029C56.3729 263.831 54.4222 256.224 51.5333 250.619C48.8666 245.507 45.6566 242.617 42.6195 242.617ZM46.6443 304.8C43.0393 304.8 39.4589 301.738 36.5206 296.058C33.5329 290.304 31.5328 282.5 30.8662 274.129C29.4587 256.299 34.3971 241.877 42.1257 241.259C45.9035 240.938 49.6814 244.05 52.7432 250.001C55.7309 255.755 57.731 263.534 58.3976 271.931C59.8051 289.736 54.8667 304.183 47.1628 304.8C46.99 304.8 46.8171 304.8 46.6443 304.8Z" fill="black"/>
<path d="M54.0026 272.276C54.9903 284.575 51.5828 294.897 46.3975 295.292C41.2369 295.712 36.2491 286.081 35.2615 273.758C34.2985 261.46 37.706 251.162 42.8666 250.742C48.0519 250.322 53.0396 259.978 54.0026 272.276Z" fill="#FF592D" fill-opacity="0.25"/>
<path d="M228.599 300.478C223.982 276.351 209.611 261.978 194.154 263.312C194.03 263.312 175.339 263.534 175.339 263.534C175.339 263.534 175.166 263.584 175.092 263.584C160.696 266.349 152.77 288.155 157.388 312.283C161.882 335.891 176.721 352.956 190.821 351.104C191.142 351.079 210.796 347.35 210.944 347.325C225.34 344.559 233.192 324.606 228.599 300.478Z" fill="#FF592D"/>
<path d="M209.488 302.256C214.105 326.383 206.179 348.189 191.784 350.955C177.388 353.721 161.98 336.41 157.388 312.282C152.77 288.155 160.696 266.349 175.092 263.583C189.487 260.817 204.87 278.129 209.488 302.256Z" fill="#FF592D"/>
<path d="M178.129 264.003C177.141 264.003 176.178 264.077 175.215 264.275C161.239 266.966 153.535 288.427 158.054 312.159C160.943 327.272 168.449 340.558 177.659 346.806C182.301 349.943 187.116 351.153 191.635 350.288C205.635 347.597 213.339 326.112 208.821 302.404C205.907 287.266 198.401 273.98 189.215 267.732C185.561 265.263 181.783 264.003 178.129 264.003ZM188.746 351.943C184.82 351.943 180.771 350.585 176.894 347.942C167.239 341.398 159.708 328.112 156.696 312.406C152.029 287.957 160.227 265.732 174.968 262.916C179.857 261.978 185.042 263.238 189.981 266.596C199.61 273.14 207.166 286.426 210.154 302.133C214.845 326.606 206.648 348.807 191.907 351.647C190.87 351.844 189.808 351.943 188.746 351.943Z" fill="black"/>
<path d="M202.598 303.59C205.981 321.321 200.154 337.373 189.561 339.398C178.993 341.423 167.659 328.705 164.277 310.949C160.894 293.218 166.721 277.19 177.289 275.141C187.882 273.116 199.216 285.858 202.598 303.59Z" fill="#FF592D" fill-opacity="0.25"/>
<path d="M340.972 287.365C336.355 263.237 321.984 248.84 306.527 250.174C306.453 250.198 298.502 250.297 292.946 250.346C291.242 250.1 289.514 250.124 287.786 250.421C287.761 250.421 287.736 250.421 287.736 250.421C287.736 250.421 287.563 250.445 287.465 250.47C287.02 250.544 286.576 250.668 286.131 250.791C284.403 251.26 282.748 252.05 281.218 253.088C279.316 254.397 277.588 256.1 276.057 258.126C275.143 259.336 274.304 260.694 273.538 262.151C273.045 263.114 272.551 264.126 272.131 265.188C271.464 266.769 270.896 268.448 270.402 270.226C270.23 270.819 270.081 271.412 269.958 272.029C269.662 273.239 269.415 274.498 269.217 275.783C268.081 282.845 268.18 290.871 269.76 299.169C269.909 299.91 270.057 300.651 270.23 301.367C270.279 301.614 270.328 301.861 270.378 302.083C270.501 302.577 270.625 303.071 270.748 303.565C270.822 303.836 270.896 304.133 270.97 304.429C271.094 304.849 271.193 305.269 271.316 305.689C271.39 305.985 271.489 306.306 271.588 306.602C271.711 306.997 271.835 307.393 271.958 307.763C272.032 308.084 272.156 308.38 272.254 308.677C272.378 309.072 272.501 309.442 272.625 309.813C272.748 310.109 272.847 310.405 272.97 310.702C273.094 311.072 273.217 311.443 273.366 311.788C273.489 312.109 273.612 312.406 273.736 312.702C273.859 313.048 274.007 313.393 274.156 313.739C274.279 314.036 274.403 314.307 274.551 314.604C274.674 314.949 274.822 315.27 274.97 315.616C275.119 315.888 275.267 316.184 275.39 316.456C275.563 316.801 275.711 317.122 275.859 317.419C276.008 317.715 276.156 317.987 276.304 318.258C276.452 318.579 276.625 318.876 276.773 319.197C276.921 319.469 277.094 319.74 277.242 320.012C277.415 320.308 277.563 320.605 277.736 320.876C277.909 321.148 278.057 321.419 278.23 321.666C278.403 321.963 278.576 322.234 278.748 322.506C278.896 322.778 279.069 323.025 279.242 323.272C279.415 323.543 279.613 323.815 279.785 324.087C279.958 324.333 280.131 324.556 280.304 324.803C280.477 325.074 280.674 325.321 280.847 325.568C281.02 325.815 281.218 326.037 281.39 326.26C281.563 326.507 281.761 326.754 281.958 327.001C282.131 327.223 282.329 327.445 282.502 327.667C282.699 327.89 282.897 328.112 283.094 328.359C283.267 328.556 283.464 328.754 283.662 328.976C283.86 329.198 284.057 329.421 284.255 329.618C284.452 329.816 284.65 330.013 284.823 330.211C285.045 330.409 285.242 330.606 285.44 330.804C285.637 331.001 285.835 331.174 286.032 331.372C286.23 331.545 286.452 331.742 286.65 331.915C286.847 332.112 287.07 332.261 287.267 332.434C287.465 332.606 287.687 332.779 287.909 332.952C288.107 333.125 288.304 333.273 288.502 333.421C288.724 333.594 288.946 333.742 289.144 333.891C289.366 334.039 289.563 334.187 289.761 334.31C289.983 334.459 290.205 334.607 290.428 334.755C290.625 334.878 290.847 335.002 291.045 335.125C291.267 335.273 291.489 335.397 291.712 335.52C291.934 335.619 292.131 335.743 292.354 335.841C292.576 335.965 292.798 336.088 293.02 336.187C293.242 336.286 293.44 336.385 293.662 336.484C293.884 336.582 294.107 336.656 294.329 336.755C294.551 336.854 294.773 336.928 294.971 337.002C295.193 337.076 295.44 337.15 295.662 337.224C295.885 337.299 296.082 337.373 296.304 337.422C296.527 337.496 296.773 337.545 296.996 337.62C297.218 337.669 297.415 337.718 297.638 337.768C297.86 337.817 298.107 337.842 298.329 337.891C298.551 337.916 298.773 337.965 298.971 337.99C299.218 338.015 299.44 338.039 299.687 338.064C299.885 338.064 300.107 338.089 300.329 338.089C300.551 338.113 300.774 338.113 301.02 338.113C301.243 338.113 301.44 338.113 301.662 338.113C301.909 338.089 302.132 338.089 302.354 338.064C302.576 338.039 302.798 338.039 302.996 338.015C303.07 337.99 303.144 337.99 303.218 337.99C303.243 337.99 303.391 337.965 303.613 337.916C303.786 337.891 303.983 337.867 304.156 337.842C304.304 337.817 304.428 337.768 304.576 337.743C309.07 336.903 323.194 334.212 323.317 334.187C337.713 331.421 345.589 311.492 340.972 287.365Z" fill="#FF592D"/>
<path d="M314.971 290.476C318.354 308.207 312.527 324.235 301.959 326.284C291.366 328.309 280.057 315.567 276.649 297.835C273.267 280.104 279.094 264.052 289.687 262.027C300.255 260.002 311.588 272.72 314.971 290.476Z" fill="#FF592D" fill-opacity="0.25"/>
<path d="M291.909 262.497C291.193 262.497 290.502 262.572 289.81 262.72C279.613 264.671 274.032 280.377 277.341 297.713C279.44 308.776 284.946 318.506 291.662 323.075C295.045 325.347 298.551 326.236 301.811 325.594C312.008 323.643 317.613 307.937 314.305 290.601C312.181 279.512 306.675 269.807 299.959 265.239C297.292 263.436 294.551 262.497 291.909 262.497ZM299.712 327.174C296.798 327.174 293.786 326.162 290.897 324.211C283.761 319.371 278.18 309.567 275.983 297.96C272.526 279.883 278.6 263.461 289.539 261.337C293.193 260.645 297.07 261.608 300.724 264.078C307.86 268.918 313.441 278.747 315.663 290.329C319.095 308.431 313.021 324.853 302.082 326.952C301.292 327.1 300.502 327.174 299.712 327.174Z" fill="black"/>
<path d="M374.331 301.664C373.417 298.083 378.109 281.982 373.664 266.769C373.541 266.374 373.417 265.979 373.294 265.584C369.861 254.817 362.528 245.754 352.898 239.901C330.206 226.146 306.354 220.96 298.107 219.503C296.181 219.157 294.452 218.12 293.218 216.613C250.501 164.803 123.461 165.939 92.0776 169.89C60.2497 173.915 44.2247 203.846 41.311 206.587C39.8295 207.995 36.4714 209.353 33.5578 210.341C30.175 211.501 27.3354 213.823 25.5082 216.885C24.1501 219.182 23.4341 221.799 23.4094 224.466L23.2612 261.633C23.2612 263.559 23.6563 265.485 24.4464 267.263C25.4094 269.387 27.286 270.968 29.5083 271.61L29.7305 271.684C27.4095 253.878 30.7923 239.135 37.7801 237.901C45.3111 236.592 54.1508 251.36 57.5583 270.893C57.8546 272.523 58.0768 274.104 58.2743 275.66C58.62 278.524 60.6448 280.87 63.3856 281.661L148.276 306.874C149.486 307.22 150.671 306.232 150.573 304.973C148.103 279.142 157.486 257.212 173.289 254.175C190.771 250.816 209.512 271.857 215.117 301.195C216.772 309.887 217.093 318.333 216.253 325.989C216.204 326.581 216.549 327.125 217.117 327.297C217.117 327.297 256.402 334.508 305.86 329.915C355.343 325.322 367.145 317.024 371.615 313.443C376.109 309.863 375.244 305.245 374.331 301.664Z" fill="white"/>
<path d="M101.312 169.074C125.19 169.42 144.573 185.793 162.104 214.983C165.462 220.588 171.117 224.392 177.536 225.602C203.586 230.467 271.983 244.963 296.379 266.472C298.675 268.473 299.169 271.831 297.588 274.424C288.527 289.217 253.069 333.026 217.118 327.297C217.118 327.297 256.402 334.508 305.86 329.914C355.343 325.321 367.146 317.023 371.615 313.443C376.109 309.862 375.244 305.244 374.331 301.663C373.417 298.082 378.109 281.981 373.664 266.769C373.541 266.349 373.417 265.929 373.269 265.509C369.837 254.742 362.454 245.704 352.8 239.851C330.132 226.12 306.329 220.959 298.107 219.502C296.206 219.156 294.477 218.144 293.243 216.637C257.415 173.124 162.129 166.926 113.881 168.407L101.312 169.074Z" fill="#FF592D" fill-opacity="0.25"/>
<path d="M75.608 285.981C75.534 285.981 75.4599 285.981 75.4105 285.957L63.188 282.326C60.1509 281.437 57.9533 278.844 57.5829 275.757C57.3854 274.177 57.1632 272.596 56.8916 271.016C55.2619 261.656 52.3236 253.087 48.6198 246.938C45.0888 241.061 41.1875 237.998 37.9035 238.591C31.4342 239.727 28.1502 254.223 30.4218 271.584C30.4465 271.831 30.3478 272.053 30.1749 272.201C30.0021 272.374 29.7552 272.424 29.5329 272.35L29.3107 272.275C26.8415 271.559 24.8415 269.831 23.8291 267.559C22.9896 265.682 22.5698 263.682 22.5698 261.607L22.718 224.465C22.7427 221.675 23.4834 218.934 24.9156 216.538C26.8168 213.328 29.8046 210.883 33.3355 209.698C37.1134 208.414 39.706 207.179 40.8418 206.092C41.2369 205.722 42.027 204.61 43.0147 203.203C48.9655 194.856 64.7436 172.63 92.0035 169.197C94.8183 168.852 98.2258 168.531 102.127 168.284C102.498 168.234 102.843 168.531 102.868 168.926C102.893 169.296 102.596 169.617 102.201 169.642C98.3493 169.914 94.9665 170.21 92.1763 170.58C65.509 173.939 49.9778 195.77 44.1505 203.993C43.0147 205.574 42.274 206.635 41.7801 207.105C40.4961 208.315 37.8047 209.648 33.7799 211.007C30.57 212.093 27.8292 214.316 26.1008 217.254C24.8168 219.428 24.1254 221.922 24.1007 224.465L23.9526 261.632C23.9526 263.484 24.3229 265.287 25.0884 266.991C25.8292 268.645 27.1872 269.954 28.9156 270.67C27.928 262.348 28.1502 254.47 29.5823 248.42C31.1379 241.851 34.0022 237.875 37.6566 237.233C41.6073 236.541 45.9284 239.727 49.805 246.222C53.5829 252.519 56.5953 261.261 58.2496 270.794C58.5212 272.374 58.7682 274.004 58.9657 275.585C59.262 278.153 61.0892 280.277 63.5831 281.018L75.8056 284.648C76.1513 284.747 76.3735 285.142 76.2747 285.487C76.1759 285.808 75.9043 285.981 75.608 285.981Z" fill="black"/>
<path d="M272.378 332.137C240.056 332.137 217.29 328.038 216.994 327.989C216.969 327.989 216.944 327.989 216.92 327.964C216.031 327.717 215.463 326.853 215.562 325.914C216.426 318.036 216.031 309.739 214.426 301.318C210.895 282.895 201.759 266.72 190.549 259.089C184.869 255.261 178.968 253.779 173.412 254.841C166.054 256.274 159.782 262.102 155.708 271.288C151.659 280.5 150.054 292.427 151.264 304.898C151.338 305.738 150.992 306.553 150.35 307.072C149.708 307.59 148.869 307.763 148.079 307.541C147.708 307.417 147.486 307.047 147.609 306.677C147.708 306.306 148.103 306.084 148.474 306.207C148.819 306.306 149.19 306.232 149.461 306.01C149.758 305.763 149.906 305.417 149.881 305.022C148.671 292.329 150.276 280.154 154.449 270.745C158.696 261.114 165.338 254.989 173.166 253.483C179.067 252.347 185.339 253.903 191.314 257.953C202.993 265.88 212.129 281.981 215.784 301.046C217.413 309.615 217.808 318.036 216.944 326.062C216.92 326.309 217.068 326.556 217.29 326.63C218.821 326.902 257.711 333.693 305.81 329.223C356.7 324.507 367.614 315.764 371.195 312.9C375.244 309.665 374.627 305.664 373.664 301.836C373.343 300.577 373.614 298.181 373.985 294.872C374.8 287.859 376.009 277.24 372.997 266.967C372.874 266.571 372.75 266.176 372.627 265.781C369.293 255.335 362.157 246.346 352.527 240.493C330.206 226.96 306.946 221.774 297.983 220.169C295.909 219.799 294.032 218.687 292.674 217.057C278.402 199.721 253.34 186.756 218.204 178.508C183.684 170.408 147.832 169.025 129.51 168.926C129.14 168.902 128.819 168.605 128.819 168.21C128.844 167.84 129.14 167.543 129.51 167.543C129.535 167.543 129.535 167.543 129.535 167.543C147.881 167.642 183.857 169.05 218.5 177.175C253.957 185.497 279.267 198.61 293.736 216.168C294.897 217.551 296.477 218.49 298.23 218.811C307.267 220.416 330.725 225.651 353.244 239.308C363.17 245.334 370.528 254.594 373.96 265.361C374.084 265.757 374.207 266.176 374.33 266.571C377.417 277.116 376.182 287.908 375.367 295.02C375.022 298.083 374.75 300.503 374.997 301.491C375.738 304.454 377.145 309.912 372.059 313.986C368.38 316.925 357.244 325.84 305.934 330.606C294.032 331.718 282.723 332.137 272.378 332.137Z" fill="black"/>
<path d="M369.244 307.886C369.491 309.344 368.824 310.825 367.54 311.566C360.478 315.665 344.848 321.543 305.983 325.148C300.576 325.667 295.267 326.013 290.131 326.26C289.069 326.309 288.501 325.025 289.292 324.259L292.551 321.074C296.724 317.024 302.329 314.727 308.156 314.702C321.687 314.628 347.663 313.369 364.355 305.392C366.404 304.404 368.824 305.639 369.244 307.886Z" fill="#FF592D"/>
<path d="M210.253 251.73L214.648 257.706C219.611 264.472 227.265 268.745 235.636 269.411L260.674 271.412C270.921 272.227 281.193 270.226 290.403 265.608L291.217 265.188C291.217 265.188 253.982 247.68 210.993 250.149C210.203 250.198 209.784 251.087 210.253 251.73Z" fill="white"/>
<path d="M210.796 251.335L215.191 257.286C220.055 263.904 227.537 268.053 235.685 268.72L260.723 270.72C270.674 271.511 280.625 269.609 289.588 265.238C282.575 262.201 248.846 248.668 211.018 250.841C210.87 250.841 210.796 250.939 210.771 251.014C210.747 251.063 210.697 251.186 210.796 251.335ZM265.167 272.276C263.661 272.276 262.13 272.202 260.624 272.103L235.587 270.078C227.018 269.412 219.191 265.04 214.08 258.101L209.685 252.15C209.314 251.631 209.265 250.989 209.537 250.421C209.784 249.853 210.327 249.482 210.944 249.458C253.636 247.013 291.119 264.398 291.514 264.571C291.736 264.695 291.909 264.917 291.909 265.189C291.909 265.46 291.761 265.707 291.514 265.806L290.699 266.226C282.748 270.202 274.007 272.276 265.167 272.276Z" fill="#FF592D"/>
<path d="M261.834 267.436L244.599 265.658C236.228 264.991 228.574 260.719 223.586 253.952L220.747 249.927C250.303 250.174 275.785 258.941 286.18 263.065C286.18 263.065 275.982 267.806 261.834 267.436Z" fill="#FF592D"/>
<path d="M367.12 268.028C367.54 267.855 367.762 267.362 367.59 266.942C366.898 265.411 364.281 263.657 359.589 263.484C318.996 261.904 306.946 268.621 303.983 271.016C303.613 271.288 303.786 271.881 304.255 271.93C317.218 273.338 328.083 273.535 336.972 273.116C337.861 273.066 347.318 272.301 348.034 272.202C358.972 270.893 365.219 268.745 367.12 268.028Z" fill="#FF592D"/>
<path d="M66.7684 211.279C66.719 211.279 66.6696 211.279 66.6202 211.255C61.83 210.168 58.1015 209.155 55.5583 208.266C53.5829 207.575 52.1014 205.945 51.5582 203.895C51.0643 202.019 51.4841 199.944 52.694 198.388C55.3114 195.03 60.9411 188.56 69.361 183.102C79.7069 176.385 90.9171 173.249 102.72 173.767C103.831 173.817 104.942 173.891 106.029 174.014C106.399 174.063 106.671 174.409 106.621 174.78C106.596 175.15 106.226 175.422 105.856 175.397C104.819 175.274 103.732 175.199 102.67 175.15C75.5834 173.965 58.3978 193.301 53.7805 199.253C52.8422 200.463 52.5212 202.068 52.9162 203.55C53.3113 205.155 54.4965 206.414 56.0274 206.958C58.5213 207.822 62.1757 208.834 66.9165 209.921C67.2869 209.995 67.5338 210.366 67.4351 210.736C67.361 211.057 67.0894 211.279 66.7684 211.279Z" fill="#FF592D"/>
<path d="M237.043 297.786C235.908 297.44 234.821 298.502 235.167 299.638L239.809 314.998C241.019 319.048 244.624 321.962 248.846 322.283C249.686 322.357 251.118 322.481 252.525 322.604C254.451 322.777 256.007 321.049 255.636 319.147C255.093 316.48 254.747 312.356 253.933 306.775C253.562 304.132 252.007 301.836 249.414 301.194C246.007 300.354 241.513 299.119 237.043 297.786Z" fill="#FF592D"/>
<path d="M236.674 298.428C236.402 298.428 236.155 298.527 235.982 298.725C235.883 298.848 235.735 299.095 235.834 299.441L240.451 314.801C241.587 318.555 244.995 321.296 248.896 321.593C249.736 321.667 251.168 321.79 252.6 321.914C253.415 321.988 256.748 321.938 261.933 321.741C266.452 321.593 270.329 318.827 271.859 314.752C272.378 313.394 272.551 312.134 272.378 310.998C271.193 308.751 245.439 300.182 236.896 298.453C236.822 298.428 236.748 298.428 236.674 298.428ZM253.884 323.321C253.217 323.321 252.748 323.321 252.476 323.296C251.069 323.173 249.637 323.05 248.797 322.975C244.303 322.63 240.427 319.493 239.143 315.196L234.501 299.861C234.278 299.12 234.451 298.354 234.97 297.786C235.513 297.194 236.353 296.922 237.167 297.095C241.019 297.885 250.131 300.577 257.909 303.219C273.415 308.553 273.637 310.085 273.736 310.751C273.958 312.134 273.761 313.665 273.168 315.221C271.44 319.839 267.045 322.951 261.983 323.124C258.18 323.272 255.464 323.321 253.884 323.321Z" fill="#FF592D"/>
<path d="M148.819 217.749L146.967 213.748C145.264 210.093 141.387 207.97 137.412 208.562L124.695 210.414C122.918 210.686 121.461 211.921 120.893 213.625L119.51 217.749C119.115 218.91 119.634 220.169 120.695 220.737L121.189 220.984C123.263 222.095 125.56 222.762 127.905 222.96L160.35 225.923C161.931 223.923 160.671 220.959 158.153 220.737L152.301 220.218C150.795 220.07 149.461 219.132 148.819 217.749Z" fill="#FF592D"/>
<path d="M201.759 188.436C201.413 187.819 201.882 187.053 202.598 187.152C216.376 189.103 230.895 192.14 242.574 196.832C259.167 203.525 268.723 210.76 275.662 217.354C276.279 217.947 275.834 219.009 274.97 218.984C268.427 218.811 248.451 218.416 213.932 218.811V218.786C212.45 213.699 209.388 202.809 201.759 188.436Z" fill="white"/>
<path d="M220.451 210.167C215.858 212.661 212.253 215.822 210.204 218.909C211.957 218.885 213.685 218.885 215.364 218.86C216.994 216.983 219.512 215.032 222.574 213.378C228.821 209.994 234.97 209.229 236.303 211.698C237.192 213.402 235.612 216.143 232.5 218.811C234.13 218.811 235.735 218.811 237.291 218.811C240.352 215.353 241.612 211.822 240.278 209.303C238.007 205.08 229.142 205.475 220.451 210.167Z" fill="#FF592D" fill-opacity="0.25"/>
<path d="M282.008 219.7C281.983 219.7 281.983 219.7 281.958 219.7C273.39 219.477 240.945 218.786 183.685 219.65C174.968 219.774 169.61 216.761 162.548 207.673C162.326 207.377 162.375 206.957 162.672 206.71C162.968 206.488 163.412 206.537 163.635 206.833C170.474 215.6 175.339 218.391 183.66 218.267C240.945 217.403 273.415 218.094 281.983 218.317C282.304 218.317 282.452 218.07 282.477 217.996C282.526 217.922 282.6 217.65 282.353 217.428C274.575 209.994 262.748 200.314 240.229 191.226C228.081 186.312 212.253 182.336 193.24 179.422C192.87 179.348 192.598 179.002 192.648 178.631C192.722 178.236 193.067 177.989 193.438 178.039C212.574 180.977 228.5 184.978 240.748 189.942C263.489 199.128 275.44 208.908 283.316 216.415C283.884 216.958 284.057 217.798 283.761 218.514C283.465 219.23 282.773 219.7 282.008 219.7Z" fill="black"/>
<path d="M147.215 187.201C147.042 187.201 146.869 187.126 146.721 186.978C140.029 180.236 133.56 176.261 131.091 174.853C130.671 174.631 130.473 174.137 130.597 173.668C130.72 173.198 131.14 172.877 131.634 172.902C135.659 172.951 146.523 173.223 160.647 174.334C161.042 174.359 161.314 174.68 161.289 175.075C161.264 175.446 160.919 175.742 160.548 175.717C147.758 174.705 137.634 174.408 132.869 174.31C135.93 176.112 141.733 179.99 147.708 186.015C147.98 186.287 147.98 186.731 147.708 186.978C147.56 187.126 147.387 187.201 147.215 187.201Z" fill="black"/>
<path d="M88.9168 226.096C88.5217 225.478 89.0402 224.688 89.7563 224.812L107.757 228.195C110.769 228.985 112.868 231.208 114.004 232.739C114.423 233.307 113.954 234.097 113.238 233.974L95.2626 230.59C92.7687 230.121 90.5217 228.516 88.9168 226.096Z" fill="#FF592D"/>
<path d="M92.6698 194.93C90.25 196.93 88.645 188.238 88.645 188.238L98.744 180.953L105.238 173.643C105.905 172.902 107.04 172.828 107.806 173.47C108.596 174.137 108.67 175.322 108.003 176.088L105.09 179.347C104.695 179.817 104.917 180.533 105.485 180.681C106.398 180.928 107.337 181.027 108.275 180.928C109.979 180.755 112.892 180.409 115.757 179.693C117.09 179.347 118.177 180.607 117.337 181.694L109.633 186.237C107.682 187.373 104.374 187.522 102.201 186.929C102.201 186.929 100.226 189.25 98.0773 191.078C96.3242 192.559 94.5711 193.399 92.6698 194.93Z" fill="white"/>
<path d="M89.4104 188.534C89.9536 191.251 91.0154 194.214 91.8796 194.535C91.929 194.56 92.0278 194.585 92.25 194.412C93.1883 193.621 94.1019 193.029 94.9908 192.436C95.9044 191.843 96.7686 191.275 97.6328 190.535C99.7069 188.781 101.658 186.509 101.658 186.485C101.83 186.262 102.127 186.188 102.374 186.262C104.349 186.781 107.46 186.707 109.287 185.645L116.868 181.175C116.967 181.002 116.967 180.805 116.868 180.656C116.72 180.434 116.374 180.261 115.93 180.36C113.115 181.076 110.25 181.447 108.349 181.62C107.337 181.718 106.3 181.62 105.312 181.348C104.818 181.224 104.423 180.829 104.275 180.335C104.127 179.817 104.226 179.298 104.571 178.903L107.485 175.619C107.682 175.396 107.781 175.1 107.756 174.804C107.732 174.483 107.608 174.211 107.361 173.989C106.892 173.594 106.176 173.643 105.756 174.112L99.2625 181.397C99.2378 181.447 99.1884 181.471 99.1637 181.496L89.4104 188.534ZM91.9537 195.943C91.7561 195.943 91.5586 195.893 91.4105 195.819C89.287 195.054 88.1758 189.473 87.9783 188.361C87.9289 188.09 88.0277 187.818 88.2499 187.67L98.2748 180.434L104.719 173.174C105.633 172.161 107.213 172.062 108.275 172.952C108.794 173.396 109.09 174.013 109.139 174.705C109.189 175.372 108.966 176.038 108.522 176.557L105.608 179.817C105.584 179.841 105.584 179.891 105.584 179.94C105.608 179.99 105.633 180.014 105.682 180.014C106.522 180.261 107.361 180.335 108.201 180.237C109.732 180.088 112.72 179.743 115.584 179.027C116.547 178.78 117.534 179.125 118.028 179.891C118.473 180.582 118.423 181.447 117.88 182.113C117.831 182.188 117.757 182.262 117.683 182.286L109.979 186.83C107.905 188.04 104.67 188.188 102.448 187.695C101.806 188.411 100.225 190.139 98.5217 191.596C97.5834 192.387 96.6451 193.004 95.7562 193.597C94.892 194.165 94.0031 194.733 93.1142 195.474C92.6944 195.819 92.2994 195.943 91.9537 195.943Z" fill="black"/>
<path d="M61.0648 144.403C54.0029 146.033 49.0151 149.515 49.0151 149.515C49.0151 149.515 38.2494 156.38 38.4964 169.518C38.6939 179.693 46.2743 191.818 46.2002 192.683C45.5336 202.412 44.7928 202.067 45.8052 205.524C48.2497 213.945 82.8183 210.463 83.4109 206.611C83.9789 203.129 82.3739 197.276 83.1887 189.423C83.8801 182.483 86.4234 173.914 86.4234 173.914C97.6582 180.36 109.313 179.52 119.93 172.013C132.449 163.122 141.955 143.391 141.955 143.391L135.042 139.39C135.042 139.39 120.152 156.529 107.634 157.887C100.177 158.677 93.7075 154.331 89.9543 150.972C86.1517 147.589 81.5344 145.243 76.5466 144.304C72.1514 143.465 66.6945 143.119 61.0648 144.403Z" fill="#FF592D"/>
<path d="M53.0645 210.71C57.4843 190.806 57.6818 163.962 57.6818 163.962C57.6818 162.925 58.5214 162.11 59.5337 162.11H81.4848C82.5219 162.11 83.3367 162.925 83.3614 163.962L83.2873 211.13L53.0645 210.71Z" fill="black"/>
<path d="M62.1755 166.086C62.1508 166.086 62.1015 166.086 62.0768 166.086C61.015 166.037 60.2002 165.246 60.2743 164.308C60.8175 154.899 58.4471 150.726 56.3729 148.873C55.1136 147.737 53.0148 146.799 51.8049 146.33C51.4839 146.206 51.5086 145.737 51.8296 145.638C52.4963 145.367 53.3852 145.07 53.9284 144.897C54.3482 144.774 56.3976 143.984 59.089 146.478C62.8669 149.935 64.5953 155.936 64.1015 164.481C64.0274 165.37 63.1879 166.086 62.1755 166.086Z" fill="black"/>
<path d="M79.4352 166.753C79.4105 166.753 79.3858 166.728 79.3611 166.728C78.5216 166.407 77.4599 165.246 77.7809 164.382C82.6205 151.787 81.1636 146.478 79.9784 144.478C79.8056 144.181 80.1019 143.836 80.4229 143.984C80.9908 144.206 82.2748 144.675 82.6452 144.848C83.8798 145.416 87.3366 148.207 81.4353 165.79C81.1636 166.605 80.2501 167.024 79.4352 166.753Z" fill="black"/>
<path d="M162.597 183.966C173.289 180.533 189.265 162.259 189.265 162.259L187.215 160.802L153.782 169.075L131.041 157.443L147.683 133.168L178.128 127.858C170.178 118.968 153.19 113.733 141.14 117.61C126.671 122.302 117.362 135.539 117.016 149.911L8.00129 185.151C1.92708 187.102 -1.40633 193.622 0.569027 199.697C2.51968 205.772 9.11242 211.896 15.1866 209.945L124.127 171.915C132.819 183.373 148.128 188.658 162.597 183.966Z" fill="#FF592D" fill-opacity="0.25"/>
<path d="M166.029 187.399C178.079 183.522 186.524 173.717 189.264 162.259L162.227 170.976L139.486 159.345L151.116 136.601L178.128 127.858C169.215 120.153 156.622 117.165 144.597 121.042C130.127 125.735 120.794 138.971 120.448 153.344L11.4334 188.584C5.35921 190.535 2.0258 197.055 4.00116 203.13C5.95181 209.205 12.4705 212.538 18.5447 210.563L127.559 175.347C136.276 186.806 151.56 192.091 166.029 187.399Z" fill="white"/>
<path d="M155.413 120.03C151.857 120.03 148.301 120.574 144.795 121.71C131.017 126.179 121.511 138.897 121.14 153.369C121.14 153.665 120.943 153.912 120.646 154.011L11.6563 189.251C8.8908 190.14 6.64383 192.042 5.31047 194.635C4.0018 197.203 3.75488 200.166 4.64379 202.908C6.49569 208.612 12.644 211.748 18.3478 209.921L127.338 174.681C127.609 174.607 127.93 174.706 128.103 174.928C136.869 186.461 152.03 191.202 165.833 186.757C176.895 183.176 185.216 174.459 188.277 163.296L162.45 171.643C162.252 171.693 162.079 171.693 161.907 171.594L139.165 159.963C139.017 159.888 138.869 159.74 138.82 159.567C138.77 159.395 138.795 159.197 138.869 159.024L150.499 136.28C150.573 136.132 150.721 136.008 150.894 135.934L176.722 127.587C170.549 122.623 163.067 120.03 155.413 120.03ZM15.0144 211.823C9.82909 211.823 5.01417 208.513 3.33512 203.352C2.32275 200.24 2.59437 196.907 4.10057 193.993C5.58209 191.079 8.12535 188.93 11.2365 187.918L119.757 152.85C120.35 137.984 130.177 124.994 144.375 120.401C156.301 116.548 169.092 119.141 178.598 127.34C178.771 127.513 178.87 127.76 178.82 128.007C178.771 128.254 178.598 128.451 178.351 128.525L151.585 137.169L140.425 159.049L162.277 170.236L189.043 161.592C189.29 161.518 189.537 161.568 189.734 161.741C189.907 161.913 189.981 162.16 189.932 162.407C187.018 174.631 178.178 184.213 166.252 188.066C152.054 192.659 136.474 187.868 127.313 176.163L18.7676 211.23C17.5083 211.625 16.249 211.823 15.0144 211.823Z" fill="black"/>
<path d="M54.2 150.455C54.2 150.455 46.5208 153.714 42.4466 167C40.2243 174.31 40.9651 184.509 51.6567 198.66C62.2248 212.613 93.5342 195.598 93.5342 195.598L92.8428 185.151C92.8428 185.151 75.6078 194.659 63.9533 189.177C60.5952 187.621 55.4593 170.779 54.9407 162.382L54.2 150.455Z" fill="#FF592D"/>
<path d="M65.6569 204.833C59.3851 204.833 54.4715 202.907 51.138 199.104C50.0516 197.869 49.1133 196.536 48.2244 195.276L47.7059 194.56C47.4836 194.239 47.5577 193.819 47.854 193.597C48.175 193.375 48.5948 193.449 48.817 193.745L49.3355 194.461C50.2245 195.721 51.1381 197.005 52.1751 198.19C63.163 210.735 89.3611 197.079 92.818 195.202L92.2254 186.238C88.2006 188.213 72.62 195.202 63.5828 189.769C60.7926 188.09 56.8419 177.347 55.1628 168.852C55.0888 168.482 55.3357 168.111 55.7061 168.037C56.0764 167.963 56.4468 168.21 56.5209 168.581C58.2493 177.347 62.1013 187.275 64.2988 188.584C73.8546 194.338 92.3241 184.633 92.5217 184.534C92.7192 184.435 92.9661 184.435 93.1884 184.534C93.3859 184.657 93.5094 184.855 93.534 185.102L94.2254 195.548C94.2501 195.819 94.102 196.066 93.8797 196.215C93.8057 196.239 86.2746 200.536 77.3609 203.03C73.0645 204.216 69.1631 204.833 65.6569 204.833Z" fill="black"/>
<path d="M57.237 307.936L54.7925 319.79L61.1877 321.617L64.7433 310.084L57.237 307.936Z" fill="white"/>
<path d="M55.6073 319.295L60.7433 320.752L63.8791 310.553L57.7555 308.8L55.6073 319.295ZM61.1877 322.308C61.1383 322.308 61.0643 322.284 61.0149 322.284L54.595 320.456C54.2493 320.357 54.0518 319.987 54.1258 319.641L56.5703 307.812C56.595 307.615 56.7185 307.442 56.8913 307.343C57.0395 307.244 57.237 307.219 57.4345 307.269L64.9162 309.417C65.1137 309.467 65.2619 309.59 65.336 309.763C65.4347 309.911 65.4594 310.109 65.41 310.282L61.8544 321.814C61.7556 322.111 61.484 322.308 61.1877 322.308Z" fill="black"/>
<path d="M52.6695 329.766C52.7436 330.902 54.1263 331.816 55.2375 331.989C59.1388 332.582 68.2501 332.335 70.744 332.508C73.9539 332.73 80.0034 332.483 80.2257 330.409C80.522 327.89 77.8059 324.21 71.3613 322.185C68.0279 321.148 64.4969 315.962 62.9413 315.888C61.361 315.789 58.5956 319.864 58.5956 319.864L54.151 318.333C54.151 318.333 52.3238 323.988 52.6695 329.766Z" fill="#FF592D"/>
<path d="M54.6198 319.247C54.1507 320.877 53.0889 325.297 53.3606 329.718C53.4099 330.434 54.4717 331.175 55.3606 331.298C57.8545 331.669 62.7188 331.718 66.2744 331.718C68.2251 331.743 69.9041 331.743 70.793 331.817C75.1635 332.113 79.4105 331.397 79.534 330.335C79.8056 327.989 77.0154 324.68 71.1634 322.853C69.1387 322.211 67.1386 320.284 65.5337 318.728C64.5954 317.815 63.3361 316.605 62.8916 316.58C62.2249 316.531 60.3731 318.482 59.1878 320.26C58.9903 320.531 58.6693 320.63 58.373 320.531L54.6198 319.247ZM72.9165 333.274C71.8054 333.274 70.9659 333.2 70.6943 333.2C69.8547 333.126 68.2004 333.126 66.2744 333.101C62.4719 333.101 57.731 333.076 55.1384 332.681C53.7062 332.459 52.0766 331.298 51.9778 329.817C51.6074 323.964 53.4099 318.358 53.5087 318.136C53.5581 317.963 53.6815 317.815 53.8544 317.716C54.0025 317.642 54.2001 317.642 54.3729 317.691L58.3236 319.05C59.2866 317.716 61.3854 315.098 62.9657 315.197C63.9287 315.246 64.9904 316.284 66.4966 317.716C68.0029 319.173 69.8794 321 71.5585 321.519C78.4475 323.668 81.2377 327.668 80.9167 330.483C80.6451 332.879 75.8796 333.274 72.9165 333.274Z" fill="black"/>
<path d="M74.4227 330.162C73.5832 330.162 72.6449 330.112 71.6572 330.063C70.2004 329.989 68.6942 329.915 67.2127 329.989C63.8052 330.137 60.9163 329.989 59.0644 329.865C55.484 329.594 55.3606 329.371 55.1877 329.124C55.0643 328.927 55.0643 328.655 55.163 328.433C55.3359 328.112 55.731 327.988 56.052 328.112C56.768 328.285 61.4348 328.853 67.1633 328.606C68.6942 328.532 70.2251 328.606 71.7066 328.68C73.9042 328.803 75.9783 328.902 77.1388 328.408C77.4845 328.26 77.8796 328.433 78.0278 328.779C78.1759 329.124 78.0277 329.544 77.6821 329.692C76.8178 330.063 75.7067 330.162 74.4227 330.162Z" fill="black"/>
<path d="M66.1511 326.112C65.9783 326.112 65.8054 326.038 65.682 325.914C65.3857 325.643 65.3857 325.198 65.6573 324.926L68.003 322.506C68.2746 322.235 68.6944 322.235 68.966 322.506C69.2376 322.753 69.2623 323.198 68.9907 323.469L66.6449 325.889C66.5215 326.038 66.3239 326.112 66.1511 326.112Z" fill="black"/>
<path d="M22.5202 307.368L22.1992 315.641L27.903 317.024L28.9401 307.442L22.5202 307.368Z" fill="white"/>
<path d="M22.9152 315.097L27.3103 316.159L28.1499 308.133L23.1868 308.084L22.9152 315.097ZM27.9029 317.715C27.8535 317.715 27.8042 317.715 27.7548 317.69L22.0263 316.307C21.7053 316.233 21.483 315.937 21.5077 315.616L21.8287 307.343C21.8534 306.973 22.1497 306.676 22.5201 306.676L28.94 306.75C29.1375 306.75 29.3104 306.824 29.4585 306.973C29.582 307.121 29.6314 307.318 29.6067 307.516L28.5943 317.098C28.5696 317.295 28.4708 317.493 28.298 317.592C28.1992 317.69 28.0511 317.715 27.9029 317.715Z" fill="black"/>
<path d="M28.7924 332.039C26.4961 332.36 22.7676 332.508 18.3231 332.039C16.3477 331.841 15.5823 329.051 15.9279 327.618C16.8909 323.618 18.57 317.197 21.4589 313.69L22.496 315.814L23.5084 313.739C23.6318 313.492 23.8787 313.32 24.1504 313.295L26.2985 313.32C26.743 313.246 27.1628 313.542 27.2615 314.011L27.6072 315.666L29.4344 313.517L30.8665 329.273C31.0394 330.606 30.1258 331.866 28.7924 332.039Z" fill="#FF592D"/>
<path d="M21.3353 314.999C18.792 318.777 17.2611 325.001 16.5945 327.791C16.4216 328.483 16.5945 329.717 17.1871 330.557C17.5328 331.026 17.9278 331.298 18.397 331.347C22.1255 331.742 25.9527 331.742 28.6935 331.372C29.6318 331.224 30.2985 330.335 30.175 329.347L28.891 315.221L28.1256 316.11C27.9527 316.308 27.6811 316.382 27.4342 316.333C27.1873 316.258 26.9897 316.061 26.9157 315.789L26.5947 314.135C26.57 314.036 26.4712 313.986 26.3971 313.986C26.3478 314.011 26.3231 314.011 26.2984 314.011L24.1996 313.986C24.1749 313.986 24.1255 314.036 24.1008 314.061L23.1378 316.11C23.0144 316.357 22.7674 316.505 22.4958 316.505C22.2489 316.505 22.002 316.357 21.8785 316.135L21.3353 314.999ZM23.9033 333.026C22.323 333.026 20.4217 332.952 18.2488 332.73C17.3846 332.631 16.6191 332.162 16.0512 331.372C15.3105 330.285 14.9648 328.631 15.2611 327.445C16.4216 322.63 18.1254 316.654 20.9155 313.246C21.0637 313.073 21.2859 312.974 21.5328 312.999C21.7551 313.023 21.9773 313.172 22.0761 313.369L22.4958 314.233L22.8662 313.443C23.1378 312.974 23.5823 312.653 24.0514 312.604C24.1008 312.604 24.1255 312.604 24.1502 312.604L26.2737 312.628C27.0638 312.554 27.7799 313.073 27.928 313.863L28.0021 314.135L28.9157 313.073C29.0886 312.85 29.3849 312.776 29.6565 312.85C29.9034 312.949 30.1009 313.172 30.1256 313.468L31.5578 329.199C31.78 330.903 30.5701 332.483 28.891 332.73C28.0515 332.854 26.3478 333.026 23.9033 333.026Z" fill="black"/>
<path d="M22.4216 330.459C20.9154 330.459 19.3104 330.31 17.7054 329.94C17.3351 329.866 17.0881 329.495 17.1869 329.125C17.261 328.755 17.6314 328.508 18.0017 328.606C23.2858 329.816 28.8415 328.261 28.8909 328.236C29.2612 328.137 29.6563 328.335 29.7551 328.705C29.8538 329.076 29.6563 329.446 29.2859 329.57C29.1131 329.619 26.1501 330.459 22.4216 330.459Z" fill="black"/>
<path d="M21.1127 324.333C20.7424 324.333 20.4214 324.037 20.4214 323.667C20.3967 323.296 20.693 322.975 21.088 322.95L26.224 322.778C26.5943 322.778 26.94 323.074 26.94 323.444C26.9647 323.839 26.6684 324.161 26.2733 324.161L21.1374 324.333C21.1127 324.333 21.1127 324.333 21.1127 324.333Z" fill="black"/>
<path d="M80.4724 276.252C73.1389 296.478 67.9042 306.578 65.9042 310.233C65.3609 311.221 64.2498 311.789 63.1387 311.641L57.9287 310.974C56.3731 310.776 55.2866 309.319 55.5336 307.763C57.4595 295.712 65.0152 237.086 62.9905 231.653L30.5947 308.504C30.2244 309.319 29.4342 309.862 28.57 309.838L23.0884 309.788C21.8538 309.764 20.8908 308.751 20.9155 307.516C22.5452 245.309 40.5949 235.283 45.879 205.55C45.9037 205.476 74.4722 209.748 83.3613 205.031C83.4848 204.957 88.9664 252.718 80.4724 276.252Z" fill="black"/>
<path d="M46.4713 220.095C46.175 220.095 46.0268 220.07 46.0022 220.07C45.6318 220.046 45.3602 219.7 45.3849 219.305C45.4342 218.934 45.7552 218.663 46.1503 218.687C46.4219 218.712 53.1875 219.255 55.1135 211.699C55.2122 211.328 55.5826 211.106 55.953 211.205C56.3234 211.303 56.5456 211.674 56.4715 212.044C54.5456 219.552 48.2491 220.095 46.4713 220.095Z" fill="#FF592D" fill-opacity="0.25"/>
<path d="M81.9537 220.095C80.6697 220.095 76.2252 219.527 74.9165 211.995C74.8424 211.599 75.1141 211.254 75.4844 211.18C75.8548 211.13 76.2252 211.377 76.2746 211.748C77.5832 219.255 82.0772 218.712 82.1266 218.687C82.4969 218.638 82.8426 218.909 82.892 219.28C82.9414 219.675 82.6945 220.021 82.2994 220.07C82.2994 220.07 82.1759 220.095 81.9537 220.095Z" fill="#FF592D" fill-opacity="0.25"/>
<path d="M73.1879 148.873L74.6694 141.119C74.7929 140.6 75.2126 140.205 75.7312 140.156L78.7436 139.81C79.3856 139.736 79.9041 139.242 80.0029 138.575L80.6942 134.254L82.1264 133.463C82.4227 133.315 82.5214 132.945 82.3733 132.673L80.8671 129.685C80.5708 129.117 80.1757 125.833 79.5337 125.857C79.5337 125.857 68.694 122.054 65.5087 126.598C64.6445 127.808 64.5704 129.389 65.1383 130.747L65.8544 132.476C66.6199 134.278 66.7927 136.303 66.2001 138.156C66.0026 138.822 65.7063 139.464 65.3359 140.082L61.2617 146.478C64.2247 147.984 67.4841 148.775 70.7928 148.849L73.1879 148.873Z" fill="white"/>
<path d="M62.2747 146.206C64.9414 147.441 67.8797 148.108 70.7934 148.157L72.6206 148.182L74.0033 140.996C74.1762 140.156 74.8429 139.563 75.6577 139.464L78.6701 139.119C78.9911 139.069 79.2627 138.822 79.3121 138.477L80.0035 134.155C80.0281 133.933 80.1763 133.735 80.3738 133.636L81.7319 132.896L80.2504 130.006C80.1269 129.735 80.0281 129.315 79.8553 128.574C79.7318 128.006 79.4849 126.87 79.2627 126.499C76.3737 125.512 68.423 123.635 66.0772 126.993C65.3859 127.956 65.2624 129.29 65.7809 130.475L66.497 132.204C67.3365 134.229 67.4847 136.402 66.8674 138.378C66.6451 139.094 66.3241 139.786 65.9291 140.428L62.2747 146.206ZM73.1885 149.565C73.1638 149.565 73.1638 149.565 73.1638 149.565L70.7934 149.515C67.3859 149.466 64.0031 148.626 60.966 147.095C60.7932 147.021 60.645 146.848 60.5956 146.675C60.5462 146.478 60.5709 146.28 60.6944 146.108L64.7686 139.711C65.0895 139.168 65.3612 138.575 65.5587 137.958C66.0525 136.303 65.9538 134.451 65.2377 132.747L64.4969 131.019C63.8056 129.389 63.9784 127.561 64.9414 126.203C68.2501 121.486 78.4972 124.795 79.6578 125.191C80.5467 125.289 80.843 126.623 81.2134 128.278C81.2874 128.673 81.4109 129.241 81.485 129.364L82.9912 132.352C83.3122 132.97 83.0653 133.735 82.448 134.081L81.3121 134.698L80.6948 138.699C80.5467 139.637 79.7812 140.378 78.8182 140.502L75.8058 140.847C75.5836 140.872 75.4108 141.045 75.3614 141.267L73.8552 148.997C73.8058 149.318 73.5095 149.565 73.1885 149.565Z" fill="black"/>
<path d="M71.0645 130.699C70.5213 129.291 69.6571 128.773 69.8052 127.982C69.904 127.513 70.3238 127.192 70.546 127.019C71.7065 126.18 73.2374 126.698 76.2992 127.291C80.1018 128.007 80.5462 128.106 81.2623 127.834C83.0648 127.118 84.1018 124.846 84.2006 122.969C84.2253 122.451 84.25 119.685 81.929 118.252C80.2499 117.215 77.9783 117.289 76.1757 118.45C76.0029 117.907 75.6819 117.141 74.9412 116.771C73.2374 115.882 70.6694 117.882 69.7805 118.573C68.941 119.215 67.4595 120.549 66.4224 122.92C66.0768 122.722 64.7928 122.055 63.41 122.5C61.3606 123.167 60.8668 125.71 60.8174 125.933C60.2989 128.748 62.5705 131.193 64.2989 133.045C65.2619 134.057 65.7558 134.452 66.3237 134.823C66.6447 135.045 67.0644 135.045 67.4101 134.872C67.4348 134.848 67.4348 134.848 67.4348 134.848C67.904 134.601 68.0521 134.008 67.7805 133.563L67.6817 133.415C67.3607 132.872 67.1385 132.279 67.0644 131.662C67.0151 131.168 67.0397 130.625 67.3607 130.353C67.8793 129.933 68.7435 130.205 68.8669 130.254C69.5089 130.477 69.9287 130.946 70.1756 131.39C70.4225 131.884 71.3114 131.316 71.0645 130.699Z" fill="black"/>
<path d="M79.1635 117.931L88.3983 115.931C90.0773 115.56 91.6082 117.709 90.9909 119.684C90.5958 121.018 89.2872 122.475 86.176 123.66C77.9783 126.772 72.793 128.056 72.793 128.056L79.1635 117.931Z" fill="#FF592D"/>
<path d="M79.5834 118.548L74.324 126.92C76.4722 126.302 80.571 125.043 85.9292 122.993C88.4231 122.055 89.9046 120.869 90.349 119.487C90.596 118.647 90.3984 117.733 89.8058 117.091C89.5836 116.869 89.1391 116.474 88.5465 116.597L79.5834 118.548ZM72.7931 128.747C72.5709 128.747 72.3486 128.624 72.2252 128.451C72.0523 128.229 72.0523 127.908 72.2005 127.685L78.571 117.56C78.6698 117.387 78.8179 117.289 79.0155 117.239L88.2502 115.239C89.1638 115.041 90.1268 115.387 90.8429 116.153C91.7318 117.141 92.0528 118.598 91.6577 119.882C91.1145 121.709 89.3367 123.191 86.423 124.302C78.2994 127.389 72.9906 128.698 72.9412 128.723C72.8919 128.723 72.8425 128.747 72.7931 128.747Z" fill="black"/>
<path d="M64.2246 131.538C64.2246 131.538 56.1256 123.487 63.0641 117.56C72.0766 109.905 77.5335 114.696 79.8792 118.03C80.8175 119.338 80.8916 120.993 80.0768 122.376L80.0521 122.425C78.62 124.821 76.3236 126.747 73.5581 127.834L64.2246 131.538Z" fill="#FF592D"/>
<path d="M72.0768 114.152C69.4594 114.152 66.5951 115.461 63.5087 118.079C61.879 119.462 61.0148 121.116 60.9407 122.944C60.8172 126.376 63.484 129.686 64.4223 130.723L73.3113 127.191C75.9287 126.154 78.1016 124.327 79.4596 122.079L79.4843 122.03C80.151 120.894 80.1016 119.511 79.3115 118.424C78.1016 116.696 76.0028 114.572 73.015 114.202C72.7187 114.152 72.3977 114.152 72.0768 114.152ZM64.2247 132.229C64.0519 132.229 63.879 132.155 63.7309 132.007C63.558 131.834 59.3851 127.636 59.558 122.894C59.6567 120.647 60.6938 118.671 62.6198 117.017C66.3729 113.831 69.9286 112.424 73.1879 112.819C76.6694 113.263 79.0646 115.683 80.4473 117.61C81.5584 119.165 81.6325 121.116 80.6695 122.746L80.6448 122.796C79.1386 125.314 76.7188 127.315 73.8052 128.475L64.4716 132.18C64.3976 132.204 64.3235 132.229 64.2247 132.229Z" fill="black"/>
<path d="M63.6817 131.784L66.0768 130.796C66.0027 130.549 65.7558 129.759 65.6323 129.488C63.9039 125.462 62.0273 126.154 60.9902 126.919C61.9779 129.463 63.6817 131.784 63.6817 131.784Z" fill="black"/>
<path d="M93.4106 185.201L100.497 179.077L105.411 173.545C106.078 172.804 107.238 172.73 107.979 173.372C108.769 174.064 108.843 175.224 108.176 175.99L105.287 179.274C104.868 179.719 105.09 180.435 105.683 180.608C106.571 180.855 107.51 180.929 108.448 180.83C110.152 180.682 113.09 180.311 115.93 179.595C117.263 179.274 118.374 180.509 117.51 181.596L109.806 186.14C108.275 187.053 106.522 187.424 104.769 187.276C104.028 187.201 103.139 187.103 102.176 186.979C101.707 186.93 100.991 188.362 99.3861 189.893C97.2379 191.918 94.0033 193.425 94.0033 193.425L93.4106 185.201Z" fill="white"/>
<path d="M93.7316 194.832C93.46 194.832 93.2131 194.683 93.0896 194.412C92.9415 194.066 93.0896 193.671 93.4353 193.498C97.3366 191.72 101.806 186.435 101.831 186.386C102.003 186.188 102.25 186.089 102.497 186.163L104.275 186.509C106.053 186.806 107.88 186.46 109.46 185.546L117.041 181.076C117.14 180.903 117.164 180.731 117.041 180.558C116.917 180.335 116.547 180.163 116.102 180.261C113.288 180.977 110.423 181.348 108.522 181.521C107.51 181.62 106.473 181.545 105.485 181.274C104.991 181.126 104.596 180.731 104.448 180.237C104.3 179.743 104.399 179.199 104.769 178.804L107.658 175.545C107.855 175.298 107.954 175.001 107.929 174.705C107.905 174.384 107.781 174.112 107.534 173.915C107.065 173.495 106.349 173.544 105.929 174.013L100.003 180.681C99.8552 180.829 96.744 183.892 93.781 185.768C93.46 185.991 93.0402 185.892 92.818 185.571C92.6205 185.25 92.7192 184.805 93.0402 184.608C95.8798 182.805 98.9663 179.743 98.991 179.718L104.892 173.1C105.806 172.062 107.411 171.964 108.448 172.853C108.967 173.297 109.263 173.915 109.312 174.606C109.362 175.298 109.139 175.94 108.695 176.458L105.806 179.718C105.757 179.767 105.757 179.792 105.757 179.841C105.781 179.891 105.806 179.916 105.855 179.916C106.695 180.163 107.534 180.237 108.399 180.138C109.905 180.014 112.893 179.644 115.757 178.928C116.72 178.681 117.707 179.051 118.201 179.817C118.646 180.484 118.596 181.348 118.053 182.039C118.004 182.089 117.954 182.163 117.88 182.212L110.152 186.731C108.325 187.818 106.152 188.213 104.028 187.867L102.621 187.596C101.584 188.806 97.6576 193.103 94.0279 194.757C93.9291 194.807 93.8304 194.832 93.7316 194.832Z" fill="black"/>
<path d="M163.783 362.833H102.029C99.3618 362.833 97.1396 360.784 96.8433 358.092L96.868 323.469H168.944L168.968 358.092C168.672 360.784 166.45 362.833 163.783 362.833Z" fill="white"/>
<path d="M97.5341 358.042C97.8057 360.388 99.7317 362.142 102.028 362.142H163.782C166.079 362.142 168.005 360.388 168.276 358.042L168.252 324.161H97.5588L97.5341 358.042ZM163.782 363.525H102.028C98.9909 363.525 96.4724 361.228 96.1514 358.166C96.1514 358.141 96.1514 358.117 96.1514 358.092L96.1761 323.469C96.1761 323.099 96.4971 322.778 96.8674 322.778H168.943C169.313 322.778 169.634 323.099 169.634 323.469L169.659 358.092C169.659 358.117 169.659 358.141 169.659 358.166C169.338 361.228 166.82 363.525 163.782 363.525Z" fill="black"/>
<path d="M119.683 299.119V308.652H125.214V301.219C125.214 299.243 126.819 297.638 128.794 297.638H138.128C140.079 297.638 141.684 299.243 141.684 301.219V308.652H147.215V299.119C147.215 295.489 144.301 292.575 140.671 292.575H126.226C122.621 292.575 119.683 295.489 119.683 299.119Z" fill="white"/>
<path d="M142.375 307.961H146.523V299.12C146.523 295.885 143.906 293.267 140.671 293.267H126.226C122.992 293.267 120.374 295.885 120.374 299.12V307.961H124.523V301.219C124.523 298.873 126.449 296.947 128.794 296.947H138.128C140.474 296.947 142.375 298.873 142.375 301.219V307.961ZM147.215 309.344H141.684C141.313 309.344 140.992 309.047 140.992 308.652V301.219C140.992 299.638 139.708 298.329 138.128 298.329H128.794C127.189 298.329 125.905 299.638 125.905 301.219V308.652C125.905 309.047 125.609 309.344 125.214 309.344H119.683C119.288 309.344 118.992 309.047 118.992 308.652V299.12C118.992 295.119 122.251 291.884 126.226 291.884H140.671C144.671 291.884 147.906 295.119 147.906 299.12V308.652C147.906 309.047 147.61 309.344 147.215 309.344Z" fill="black"/>
<path d="M170.771 324.606H95.0405C92.4726 324.606 90.3984 322.531 90.3984 319.963V309.69C90.3984 307.121 92.4726 305.047 95.0405 305.047H170.771C173.339 305.047 175.413 307.121 175.413 309.69V319.963C175.413 322.531 173.339 324.606 170.771 324.606Z" fill="white"/>
<path d="M95.0405 305.738C92.8676 305.738 91.0898 307.516 91.0898 309.689V319.962C91.0898 322.135 92.8676 323.913 95.0405 323.913H170.771C172.943 323.913 174.721 322.135 174.721 319.962V309.689C174.721 307.516 172.943 305.738 170.771 305.738H95.0405ZM170.771 325.296H95.0405C92.1022 325.296 89.707 322.901 89.707 319.962V309.689C89.707 306.75 92.1022 304.355 95.0405 304.355H170.771C173.709 304.355 176.104 306.75 176.104 309.689V319.962C176.104 322.901 173.709 325.296 170.771 325.296Z" fill="black"/>
<path d="M141.239 332.285H124.572V314.604H141.239V332.285Z" fill="white"/>
<path d="M125.264 331.594H140.548V315.295H125.264V331.594ZM141.239 332.977H124.572C124.202 332.977 123.881 332.681 123.881 332.286V314.604C123.881 314.233 124.202 313.912 124.572 313.912H141.239C141.61 313.912 141.931 314.233 141.931 314.604V332.286C141.931 332.681 141.61 332.977 141.239 332.977Z" fill="black"/>
<path d="M136.128 327.075H129.683V320.729H136.128V327.075Z" fill="#FF592D" fill-opacity="0.25"/>
<path d="M137.757 344.855C139.338 347.374 138.473 350.708 135.831 352.115C133.486 353.35 130.547 352.56 129.14 350.312C127.56 347.794 128.449 344.46 131.066 343.052C133.412 341.817 136.35 342.608 137.757 344.855ZM128.695 338.459L127.732 339.051C127.51 339.175 127.411 339.422 127.486 339.669L127.93 341.002C127.979 341.2 127.93 341.398 127.782 341.546C127.609 341.719 127.436 341.891 127.288 342.064C127.14 342.212 126.942 342.287 126.745 342.212L125.337 341.817C125.14 341.743 124.918 341.842 124.819 342.015L124.202 343.126C124.103 343.299 124.152 343.546 124.3 343.694L125.411 344.707C125.56 344.805 125.609 345.003 125.56 345.151C125.486 345.423 125.411 345.694 125.362 345.966C125.313 346.139 125.189 346.262 125.016 346.312L123.56 346.658C123.337 346.707 123.214 346.88 123.214 347.102V348.362C123.239 348.584 123.387 348.757 123.584 348.806L125.066 349.127C125.214 349.152 125.362 349.275 125.411 349.448C125.461 349.72 125.535 349.991 125.634 350.238C125.683 350.411 125.634 350.584 125.51 350.708L124.424 351.77C124.251 351.893 124.226 352.14 124.35 352.313L124.992 353.399C125.09 353.597 125.313 353.671 125.51 353.597L126.942 353.128C127.115 353.078 127.288 353.128 127.411 353.251C127.609 353.449 127.782 353.646 128.004 353.819C128.128 353.943 128.177 354.116 128.128 354.288L127.708 355.696C127.634 355.918 127.757 356.165 127.955 356.289L128.967 356.857C129.189 356.98 129.436 356.931 129.609 356.758L130.547 355.696C130.671 355.548 130.893 355.474 131.066 355.548C131.313 355.597 131.56 355.671 131.807 355.721C131.979 355.77 132.128 355.918 132.177 356.091L132.523 357.499C132.572 357.721 132.77 357.894 133.017 357.894L134.177 357.869C134.424 357.869 134.622 357.696 134.671 357.474L134.967 356.091C135.017 355.894 135.165 355.721 135.362 355.671C135.585 355.622 135.807 355.548 136.029 355.474C136.251 355.4 136.473 355.474 136.597 355.622L137.535 356.61C137.733 356.807 138.004 356.832 138.227 356.709L139.165 356.141C139.387 356.017 139.486 355.745 139.412 355.499L138.992 354.19C138.918 353.992 138.967 353.77 139.14 353.622C139.313 353.449 139.461 353.301 139.609 353.128C139.757 352.955 139.98 352.905 140.177 352.955L141.486 353.35C141.733 353.424 142.004 353.301 142.128 353.078L142.646 352.115C142.795 351.893 142.745 351.621 142.548 351.448L141.535 350.535C141.362 350.387 141.313 350.164 141.362 349.967C141.436 349.745 141.486 349.522 141.535 349.275C141.585 349.078 141.733 348.905 141.955 348.855L143.288 348.534C143.535 348.485 143.708 348.263 143.708 347.991L143.683 346.88C143.683 346.633 143.486 346.411 143.239 346.361L141.906 346.065C141.708 346.04 141.535 345.867 141.486 345.67C141.436 345.448 141.362 345.225 141.288 345.003C141.239 344.781 141.288 344.559 141.436 344.41L142.424 343.472C142.622 343.299 142.646 343.003 142.523 342.78L141.955 341.842C141.832 341.62 141.56 341.521 141.313 341.595L140.029 342.04C139.832 342.089 139.609 342.04 139.461 341.891C139.288 341.719 139.14 341.546 138.967 341.398C138.794 341.249 138.745 341.027 138.794 340.83L139.19 339.496C139.264 339.249 139.165 339.002 138.943 338.879L137.955 338.335C137.733 338.212 137.461 338.261 137.288 338.434L136.375 339.471C136.226 339.644 136.029 339.694 135.831 339.644C135.585 339.57 135.362 339.496 135.115 339.471C134.918 339.422 134.77 339.274 134.72 339.051L134.399 337.693C134.325 337.471 134.128 337.298 133.881 337.298H132.745C132.498 337.323 132.276 337.496 132.226 337.743L131.93 339.101C131.905 339.298 131.757 339.471 131.56 339.496C131.313 339.57 131.091 339.619 130.868 339.718C130.671 339.768 130.449 339.718 130.3 339.57L129.337 338.558C129.189 338.36 128.893 338.335 128.695 338.459Z" fill="#FF592D"/>
<path d="M203.166 364.217C202.845 364.217 202.549 363.994 202.499 363.673C202.425 363.303 202.648 362.932 203.043 362.858C217.537 359.944 231.414 354.931 244.303 347.942C244.649 347.769 245.068 347.893 245.241 348.239C245.439 348.56 245.315 348.98 244.97 349.177C231.957 356.215 217.932 361.253 203.314 364.217C203.265 364.217 203.216 364.217 203.166 364.217Z" fill="black"/>
<path d="M261.217 349.843C260.995 349.843 260.748 349.72 260.624 349.522C260.427 349.201 260.525 348.781 260.846 348.559C262.624 347.423 264.427 346.213 266.205 344.978C266.501 344.756 266.945 344.83 267.168 345.151C267.365 345.472 267.291 345.892 266.995 346.114C265.217 347.349 263.39 348.559 261.587 349.745C261.464 349.794 261.34 349.843 261.217 349.843Z" fill="black"/>
<path d="M183.437 376.44C183.092 376.44 182.796 376.169 182.746 375.823C182.697 375.453 182.993 375.107 183.363 375.057C215.191 371.724 244.994 358.709 260.847 348.559C261.168 348.362 261.587 348.461 261.785 348.782C262.007 349.103 261.908 349.523 261.587 349.745C245.612 359.969 215.562 373.082 183.512 376.44C183.487 376.44 183.462 376.44 183.437 376.44Z" fill="black"/>
<path d="M46.2739 76.6897C45.9282 76.6897 45.6072 76.7637 45.2862 76.8872C44.0516 77.4552 43.4837 78.9369 44.027 80.2211C44.2986 80.8385 44.7924 81.3077 45.4097 81.5546C46.0023 81.8016 46.669 81.7769 47.2616 81.5052C48.4962 80.9619 49.0641 79.4555 48.5209 78.1714C48.2493 77.554 47.7554 77.0848 47.1381 76.8378C46.8665 76.739 46.5702 76.6897 46.2739 76.6897ZM46.2739 83.1104C45.8048 83.1104 45.3603 83.0116 44.8912 82.8388C43.9282 82.4683 43.1627 81.7275 42.7677 80.7644C41.9034 78.8134 42.7924 76.4921 44.7183 75.6278C45.6566 75.2079 46.6937 75.1832 47.6567 75.5537C48.6196 75.9241 49.3851 76.665 49.7802 77.6281C50.6444 79.6037 49.7555 81.9004 47.8295 82.7647C47.3357 82.9869 46.7924 83.1104 46.2739 83.1104Z" fill="black"/>
<path d="M47.3604 107.979C47.1876 107.979 47.0147 107.929 46.8666 107.781C46.595 107.534 46.595 107.09 46.8419 106.818L49.0148 104.546C49.2864 104.274 49.7308 104.25 50.0024 104.521C50.2741 104.793 50.2987 105.213 50.0271 105.509L47.8542 107.781C47.7061 107.905 47.5333 107.979 47.3604 107.979Z" fill="black"/>
<path d="M39.7549 115.93C39.5821 115.93 39.4093 115.856 39.2611 115.732C38.9895 115.486 38.9895 115.041 39.2364 114.769L41.4093 112.497C41.6809 112.201 42.1254 112.201 42.397 112.473C42.6686 112.72 42.6933 113.164 42.4217 113.436L40.2488 115.708C40.1006 115.856 39.9278 115.93 39.7549 115.93Z" fill="black"/>
<path d="M41.879 108.102C41.7062 108.102 41.5333 108.028 41.3852 107.904L39.1876 105.731C38.916 105.459 38.916 105.015 39.1876 104.743C39.4592 104.471 39.879 104.471 40.1506 104.743L42.3729 106.916C42.6445 107.188 42.6445 107.632 42.3729 107.904C42.2494 108.028 42.0519 108.102 41.879 108.102Z" fill="black"/>
<path d="M49.6073 115.708C49.4345 115.708 49.2369 115.634 49.1135 115.51L46.9159 113.337C46.6443 113.066 46.6443 112.621 46.8912 112.349C47.1628 112.078 47.6073 112.078 47.8789 112.349L50.0765 114.523C50.3481 114.794 50.3481 115.239 50.1011 115.51C49.953 115.634 49.7802 115.708 49.6073 115.708Z" fill="black"/>
<path d="M369.293 157.271C368.898 157.271 368.602 156.974 368.602 156.579V153.023C368.602 152.653 368.898 152.356 369.293 152.356C369.664 152.356 369.985 152.653 369.985 153.023V156.579C369.985 156.974 369.664 157.271 369.293 157.271Z" fill="black"/>
<path d="M369.293 165.543C368.898 165.543 368.602 165.246 368.602 164.851V161.295C368.602 160.925 368.898 160.604 369.293 160.604C369.664 160.604 369.985 160.925 369.985 161.295V164.851C369.985 165.246 369.664 165.543 369.293 165.543Z" fill="black"/>
<path d="M366.923 159.641H363.367C362.997 159.641 362.676 159.32 362.676 158.95C362.676 158.555 362.997 158.258 363.367 158.258H366.923C367.318 158.258 367.614 158.555 367.614 158.95C367.614 159.32 367.318 159.641 366.923 159.641Z" fill="black"/>
<path d="M375.195 159.641H371.664C371.269 159.641 370.948 159.32 370.948 158.95C370.948 158.555 371.269 158.258 371.664 158.258H375.195C375.59 158.258 375.886 158.555 375.886 158.95C375.886 159.32 375.59 159.641 375.195 159.641Z" fill="black"/>
</svg>
