<svg width="2367" height="2375" viewBox="0 0 2367 2375" fill="none" xmlns="http://www.w3.org/2000/svg">
<path d="M1370.06 1299.28H510.176V276.973H1370.06V1299.28Z" fill="#FF592D" fill-opacity="0.25"/>
<path d="M2212.46 1310.63H2096.04V288.475H2212.46V1310.63Z" fill="#FF592D" fill-opacity="0.25"/>
<path d="M2222.59 1337.78H410.013V1261.23H2222.59V1337.78Z" fill="#FF592D"/>
<path d="M537.327 1342.08H501.434C499.134 1342.08 497.14 1340.09 497.14 1337.79V1261.24C497.14 1258.94 499.134 1256.94 501.434 1256.94C503.889 1256.94 505.729 1258.94 505.729 1261.24V1333.49H537.327C539.628 1333.49 541.622 1335.33 541.622 1337.79C541.622 1340.09 539.628 1342.08 537.327 1342.08Z" fill="black"/>
<path d="M1002.4 985.562H1316.23V658.803H1002.4V985.562ZM1324.82 994.153H993.806V650.059H1324.82V994.153Z" fill="#FF592D"/>
<path d="M1041.36 953.652C1039.98 953.652 1038.75 953.038 1037.83 951.811C1036.45 949.97 1036.91 947.208 1038.9 945.828L1126.79 883.237C1128.79 881.857 1131.39 882.317 1132.78 884.158C1134.16 886.152 1133.7 888.76 1131.85 890.141L1043.81 952.885C1043.04 953.345 1042.28 953.652 1041.36 953.652Z" fill="white"/>
<path d="M1048.26 898.73C1046.88 898.73 1045.5 898.116 1044.73 896.889C1043.35 895.048 1043.81 892.287 1045.65 890.906L1124.34 833.992C1126.33 832.611 1128.94 832.918 1130.32 834.912C1131.7 836.753 1131.39 839.514 1129.4 840.895L1050.71 897.963C1049.94 898.423 1049.02 898.73 1048.26 898.73Z" fill="white"/>
<path d="M1190.6 801.319C1189.37 801.319 1187.99 800.705 1187.22 799.478C1185.84 797.484 1186.3 794.876 1188.14 793.495L1276.03 730.751C1278.03 729.37 1280.64 729.831 1282.02 731.825C1283.4 733.819 1282.94 736.427 1281.1 737.808L1193.21 800.552C1192.44 801.012 1191.52 801.319 1190.6 801.319Z" fill="white"/>
<path d="M1197.5 746.395C1196.12 746.395 1194.9 745.782 1193.98 744.554C1192.6 742.713 1193.06 739.952 1194.9 738.571L1273.58 681.504C1275.58 680.123 1278.34 680.583 1279.72 682.577C1281.1 684.418 1280.64 687.18 1278.65 688.56L1199.96 745.475C1199.19 746.088 1198.42 746.395 1197.5 746.395Z" fill="white"/>
<path d="M1163.6 989.856H1155.01V654.506H1163.6V989.856Z" fill="#FF592D"/>
<path d="M2200.65 498.951H525.36V346.77H2200.65V498.951Z" fill="#FF592D" fill-opacity="0.25"/>
<path d="M2240.23 419.946H477.347C460.168 419.946 446.363 402.457 446.21 380.827L444.829 125.863C444.676 104.079 458.634 86.2834 475.967 86.2834L2240.38 79.0732C2257.71 79.0732 2271.67 96.7152 2271.67 118.499L2271.52 380.52C2271.36 402.304 2257.4 419.946 2240.23 419.946Z" fill="#FF592D"/>
<path d="M802.068 163.446C785.502 163.446 772.004 176.946 772.004 193.514V305.348C772.004 321.916 785.502 335.416 802.068 335.416H1914.43C1931 335.416 1944.5 321.916 1944.5 305.348V193.514C1944.5 176.946 1931 163.446 1914.43 163.446H802.068ZM1914.43 344.007H802.068C780.747 344.007 763.414 326.672 763.414 305.348V193.514C763.414 172.19 780.747 154.855 802.068 154.855H1914.43C1935.75 154.855 1953.08 172.19 1953.08 193.514V305.348C1953.08 326.672 1935.75 344.007 1914.43 344.007Z" fill="white"/>
<path d="M2089.14 1261.23H1375.43V523.492H2089.14V1261.23Z" fill="white"/>
<path d="M2091.29 563.688H1374.66C1361.93 563.688 1351.65 553.256 1351.65 540.523V506.466C1351.65 493.733 1361.93 483.302 1374.66 483.302H2091.29C2103.86 483.302 2114.29 493.733 2114.29 506.466V540.523C2114.29 553.256 2103.86 563.688 2091.29 563.688Z" fill="#FF592D"/>
<path d="M638.098 1326.74H930.454C939.964 1326.74 947.633 1319.07 947.633 1309.56V670.306C947.633 660.795 939.964 652.971 930.454 652.971H638.098C628.588 652.971 620.919 660.795 620.919 670.306V1309.56C620.919 1319.07 628.588 1326.74 638.098 1326.74Z" fill="white"/>
<path d="M957.449 1343.92H579.81C573.061 1343.92 567.692 1338.55 567.692 1331.8V1288.69C567.692 1281.94 573.061 1276.57 579.81 1276.57L842.409 1277.03C844.71 1277.03 846.704 1279.03 846.55 1281.33C846.55 1283.63 844.71 1285.62 842.255 1285.62L579.81 1285.16C577.816 1285.16 576.282 1286.7 576.282 1288.69V1331.8C576.282 1333.79 577.816 1335.33 579.81 1335.33H957.449C959.75 1335.33 961.744 1337.32 961.744 1339.62C961.744 1342.08 959.75 1343.92 957.449 1343.92Z" fill="black"/>
<path d="M696.076 875.721C694.542 875.721 693.161 874.954 692.394 873.726C691.167 871.732 691.781 868.971 693.775 867.743L883.208 745.938C885.202 744.71 887.81 745.324 889.037 747.318C890.417 749.313 889.804 751.92 887.81 753.148L698.377 874.954C697.61 875.414 696.843 875.721 696.076 875.721Z" fill="white"/>
<path d="M2222.59 1342.08H2074.88C2072.58 1342.08 2070.58 1340.09 2070.58 1337.79C2070.58 1335.33 2072.58 1333.49 2074.88 1333.49H2218.29V1265.53H2151.11C2148.81 1265.53 2146.81 1263.54 2146.81 1261.24C2146.81 1258.78 2148.81 1256.94 2151.11 1256.94H2222.59C2225.04 1256.94 2226.88 1258.78 2226.88 1261.24V1337.79C2226.88 1340.09 2225.04 1342.08 2222.59 1342.08Z" fill="black"/>
<path d="M992.73 1922.42L1351.5 1916.29L1354.11 1443.94L724.916 1435.05L779.982 1746.62C798.235 1849.71 888.427 1924.26 992.73 1922.42Z" fill="black"/>
<path d="M214.287 1695.23L309.234 1693.54L408.322 1460.21L168.731 1426.61L157.994 1648.59C162.749 1675.9 186.678 1695.69 214.287 1695.23Z" fill="black"/>
<path d="M454.646 1674.67C446.21 1568.05 402.648 1498.4 357.706 1502.09C357.246 1502.09 262.145 1503.01 261.992 1503.01C217.203 1506.53 187.599 1595.82 196.036 1702.44C204.472 1809.05 247.727 1892.66 292.516 1889.13C292.823 1889.13 389.15 1881.16 389.303 1881.16C434.706 1874.25 463.083 1780.67 454.646 1674.67Z" fill="#FF592D"/>
<path d="M358.473 1689.55C366.909 1796.17 337.459 1885.45 292.516 1889.13C247.727 1892.66 204.472 1809.06 196.036 1702.44C187.599 1595.82 217.203 1506.54 261.992 1503.01C306.781 1499.32 350.036 1582.93 358.473 1689.55Z" fill="#FF592D"/>
<path d="M264.754 1507.15C263.834 1507.15 263.067 1507.15 262.3 1507.3C220.579 1510.53 192.202 1599.81 200.332 1702.13C204.473 1753.22 216.591 1800.47 234.537 1835.14C251.563 1868.27 272.577 1886.38 292.21 1884.84C333.932 1881.47 362.308 1792.18 354.179 1689.86C350.191 1638.93 338.073 1591.68 320.127 1556.86C303.561 1525.1 283.621 1507.15 264.754 1507.15ZM289.756 1893.43C267.362 1893.43 245.121 1874.41 226.867 1839.13C208.308 1803.38 195.883 1754.9 191.742 1702.9C182.999 1592.14 213.676 1502.55 261.686 1498.71C285.155 1496.72 308.623 1516.05 327.643 1553.02C346.203 1588.76 358.627 1637.09 362.768 1689.25C371.512 1799.85 340.834 1889.6 292.977 1893.43C291.904 1893.43 290.83 1893.43 289.756 1893.43Z" fill="black"/>
<path d="M335.466 1691.39C341.602 1767.79 320.435 1831.91 288.223 1834.37C256.165 1836.98 225.181 1777.15 219.046 1700.6C213.064 1624.2 234.231 1560.23 266.289 1557.62C298.5 1555.01 329.484 1615 335.466 1691.39Z" fill="#FF592D" fill-opacity="0.25"/>
<path d="M1420.07 1866.58C1391.38 1716.7 1302.11 1627.42 1206.09 1635.7C1205.33 1635.7 1089.21 1637.09 1089.21 1637.09C1089.21 1637.09 1088.14 1637.39 1087.68 1637.39C998.253 1654.57 949.016 1790.03 977.699 1939.91C1005.62 2086.57 1097.8 2192.58 1185.39 2181.07C1187.38 2180.92 1309.48 2157.75 1310.4 2157.6C1399.82 2140.42 1448.6 2016.46 1420.07 1866.58Z" fill="#FF592D"/>
<path d="M1301.35 1877.63C1330.03 2027.51 1280.79 2162.97 1191.37 2180.15C1101.94 2197.33 1006.23 2089.79 977.699 1939.91C949.016 1790.03 998.253 1654.57 1087.68 1637.39C1177.1 1620.21 1272.66 1727.75 1301.35 1877.63Z" fill="#FF592D"/>
<path d="M1106.54 1640C1100.41 1640 1094.42 1640.46 1088.44 1641.69C1001.62 1658.41 953.768 1791.72 981.838 1939.15C999.784 2033.03 1046.41 2115.56 1103.63 2154.38C1132.46 2173.86 1162.37 2181.38 1190.44 2176.01C1277.41 2159.29 1325.27 2025.82 1297.2 1878.55C1279.1 1784.51 1232.47 1701.98 1175.41 1663.16C1152.71 1647.82 1129.24 1640 1106.54 1640ZM1172.5 2186.29C1148.11 2186.29 1122.95 2177.85 1098.87 2161.43C1038.9 2120.78 992.115 2038.25 973.402 1940.68C944.411 1788.81 995.336 1650.74 1086.91 1633.25C1117.28 1627.42 1149.49 1635.24 1180.17 1656.11C1239.99 1696.76 1286.92 1779.29 1305.48 1876.86C1334.63 2028.89 1283.7 2166.8 1192.13 2184.44C1185.69 2185.67 1179.09 2186.29 1172.5 2186.29Z" fill="black"/>
<path d="M1258.55 1885.91C1279.56 1996.06 1243.36 2095.77 1177.56 2108.35C1111.91 2120.93 1041.5 2041.93 1020.49 1931.63C999.475 1821.48 1035.67 1721.92 1101.32 1709.19C1167.13 1696.61 1237.53 1775.76 1258.55 1885.91Z" fill="#FF592D" fill-opacity="0.25"/>
<path d="M2118.13 1785.12C2089.45 1635.24 2000.18 1545.81 1904.16 1554.09C1903.7 1554.24 1854.31 1554.86 1819.79 1555.16C1809.21 1553.63 1798.47 1553.78 1787.74 1555.62C1787.58 1555.62 1787.43 1555.62 1787.43 1555.62C1787.43 1555.62 1786.36 1555.78 1785.74 1555.93C1782.98 1556.39 1780.22 1557.16 1777.46 1557.92C1766.72 1560.84 1756.44 1565.75 1746.93 1572.19C1735.12 1580.32 1724.39 1590.91 1714.88 1603.49C1709.2 1611 1703.99 1619.44 1699.23 1628.49C1696.16 1634.47 1693.1 1640.76 1690.49 1647.36C1686.35 1657.18 1682.82 1667.61 1679.75 1678.66C1678.68 1682.34 1677.76 1686.02 1676.99 1689.86C1675.15 1697.37 1673.62 1705.2 1672.39 1713.17C1665.33 1757.05 1665.95 1806.91 1675.76 1858.45C1676.68 1863.05 1677.6 1867.66 1678.68 1872.1C1678.98 1873.64 1679.29 1875.17 1679.6 1876.55C1680.36 1879.62 1681.13 1882.69 1681.9 1885.76C1682.36 1887.44 1682.82 1889.29 1683.28 1891.13C1684.05 1893.73 1684.66 1896.34 1685.43 1898.95C1685.89 1900.79 1686.5 1902.79 1687.11 1904.63C1687.88 1907.08 1688.65 1909.54 1689.41 1911.84C1689.87 1913.83 1690.64 1915.67 1691.26 1917.51C1692.02 1919.97 1692.79 1922.27 1693.56 1924.57C1694.32 1926.41 1694.94 1928.25 1695.7 1930.09C1696.47 1932.39 1697.24 1934.69 1698.16 1936.84C1698.92 1938.84 1699.69 1940.68 1700.46 1942.52C1701.23 1944.67 1702.15 1946.81 1703.07 1948.96C1703.83 1950.8 1704.6 1952.49 1705.52 1954.33C1706.29 1956.48 1707.21 1958.47 1708.13 1960.62C1709.05 1962.31 1709.97 1964.15 1710.74 1965.84C1711.81 1967.98 1712.73 1969.98 1713.65 1971.82C1714.57 1973.66 1715.49 1975.35 1716.41 1977.03C1717.33 1979.03 1718.4 1980.87 1719.33 1982.86C1720.25 1984.55 1721.32 1986.24 1722.24 1987.93C1723.31 1989.77 1724.23 1991.61 1725.31 1993.3C1726.38 1994.98 1727.3 1996.67 1728.38 1998.21C1729.45 2000.05 1730.52 2001.73 1731.6 2003.42C1732.52 2005.11 1733.59 2006.64 1734.66 2008.18C1735.74 2009.86 1736.96 2011.55 1738.04 2013.24C1739.11 2014.77 1740.19 2016.15 1741.26 2017.69C1742.33 2019.38 1743.56 2020.91 1744.63 2022.44C1745.71 2023.98 1746.93 2025.36 1748.01 2026.74C1749.08 2028.27 1750.31 2029.81 1751.54 2031.34C1752.61 2032.72 1753.84 2034.1 1754.91 2035.48C1756.14 2036.86 1757.37 2038.24 1758.59 2039.78C1759.67 2041.01 1760.89 2042.23 1762.12 2043.61C1763.35 2044.99 1764.57 2046.38 1765.8 2047.6C1767.03 2048.83 1768.26 2050.06 1769.33 2051.28C1770.71 2052.51 1771.94 2053.74 1773.16 2054.97C1774.39 2056.19 1775.62 2057.27 1776.85 2058.49C1778.07 2059.57 1779.45 2060.8 1780.68 2061.87C1781.91 2063.1 1783.29 2064.02 1784.51 2065.09C1785.74 2066.16 1787.12 2067.24 1788.5 2068.31C1789.73 2069.39 1790.96 2070.31 1792.18 2071.23C1793.56 2072.3 1794.95 2073.22 1796.17 2074.14C1797.55 2075.06 1798.78 2075.98 1800.01 2076.75C1801.39 2077.67 1802.77 2078.59 1804.15 2079.51C1805.38 2080.28 1806.76 2081.05 1807.98 2081.81C1809.36 2082.73 1810.74 2083.5 1812.12 2084.27C1813.51 2084.88 1814.73 2085.65 1816.11 2086.26C1817.49 2087.03 1818.87 2087.8 1820.25 2088.41C1821.63 2089.02 1822.86 2089.64 1824.24 2090.25C1825.62 2090.86 1827 2091.32 1828.38 2091.94C1829.76 2092.55 1831.14 2093.01 1832.37 2093.47C1833.75 2093.93 1835.29 2094.39 1836.67 2094.85C1838.05 2095.31 1839.27 2095.77 1840.65 2096.08C1842.03 2096.54 1843.57 2096.85 1844.95 2097.31C1846.33 2097.61 1847.56 2097.92 1848.94 2098.23C1850.32 2098.53 1851.85 2098.69 1853.23 2098.99C1854.61 2099.15 1855.99 2099.45 1857.22 2099.61C1858.75 2099.76 1860.13 2099.91 1861.67 2100.07C1862.9 2100.07 1864.28 2100.22 1865.66 2100.22C1867.04 2100.37 1868.42 2100.37 1869.95 2100.37C1871.33 2100.37 1872.56 2100.37 1873.94 2100.37C1875.47 2100.22 1876.85 2100.22 1878.23 2100.07C1879.61 2099.91 1881 2099.91 1882.22 2099.76C1882.68 2099.61 1883.14 2099.61 1883.6 2099.61C1883.76 2099.61 1884.68 2099.45 1886.06 2099.15C1887.13 2098.99 1888.36 2098.84 1889.43 2098.69C1890.35 2098.53 1891.12 2098.23 1892.04 2098.07C1919.96 2092.86 2007.69 2076.14 2008.46 2075.98C2097.88 2058.8 2146.82 1935 2118.13 1785.12Z" fill="#FF592D"/>
<path d="M1956.62 1804.45C1977.63 1914.6 1941.43 2014.16 1875.78 2026.89C1809.98 2039.47 1739.73 1960.31 1718.56 1850.17C1697.55 1740.02 1733.75 1640.3 1799.55 1627.72C1865.2 1615.14 1935.6 1694.15 1956.62 1804.45Z" fill="#FF592D" fill-opacity="0.25"/>
<path d="M1813.35 1630.65C1808.9 1630.65 1804.61 1631.11 1800.31 1632.03C1736.97 1644.15 1702.3 1741.71 1722.85 1849.4C1735.89 1918.13 1770.1 1978.57 1811.82 2006.95C1832.83 2021.07 1854.61 2026.59 1874.86 2022.6C1938.21 2010.48 1973.03 1912.92 1952.47 1805.22C1939.28 1736.34 1905.08 1676.05 1863.36 1647.67C1846.79 1636.47 1829.76 1630.65 1813.35 1630.65ZM1861.82 2032.42C1843.72 2032.42 1825.01 2026.13 1807.06 2014.01C1762.73 1983.94 1728.07 1923.04 1714.42 1850.94C1692.94 1738.64 1730.68 1636.63 1798.63 1623.43C1821.33 1619.14 1845.41 1625.12 1868.11 1640.46C1912.44 1670.53 1947.11 1731.59 1960.91 1803.54C1982.23 1915.98 1944.5 2018 1876.55 2031.04C1871.64 2031.96 1866.73 2032.42 1861.82 2032.42Z" fill="black"/>
<path d="M2325.36 1873.95C2319.68 1851.7 2348.82 1751.68 2321.21 1657.18C2320.45 1654.73 2319.68 1652.27 2318.91 1649.82C2297.59 1582.93 2252.04 1526.63 2192.22 1490.27C2051.25 1404.83 1903.08 1372.61 1851.85 1363.56C1839.88 1361.41 1829.15 1354.97 1821.48 1345.61C1556.12 1023.76 766.942 1030.82 571.987 1055.36C374.271 1080.37 274.723 1266.3 256.623 1283.33C247.42 1292.07 226.559 1300.51 208.459 1306.65C187.445 1313.86 169.806 1328.28 158.455 1347.3C150.019 1361.57 145.571 1377.83 145.417 1394.39L144.497 1625.27C144.497 1637.24 146.951 1649.21 151.86 1660.25C157.842 1673.44 169.499 1683.26 183.304 1687.25L184.684 1687.71C170.266 1577.1 191.28 1485.52 234.689 1477.85C281.472 1469.72 336.384 1561.46 357.552 1682.8C359.392 1692.93 360.773 1702.74 362 1712.41C364.147 1730.2 376.725 1744.78 393.751 1749.69L921.096 1906.32C928.612 1908.46 935.975 1902.33 935.361 1894.5C920.022 1734.04 978.309 1597.81 1076.48 1578.94C1185.08 1558.08 1301.5 1688.78 1336.31 1871.03C1346.59 1925.03 1348.59 1977.5 1343.37 2025.06C1343.06 2028.74 1345.21 2032.11 1348.74 2033.19C1348.74 2033.19 1592.78 2077.98 1900.01 2049.45C2207.4 2020.91 2280.72 1969.37 2308.48 1947.12C2336.4 1924.88 2331.03 1896.19 2325.36 1873.95Z" fill="white"/>
<path d="M629.357 1050.29C777.683 1052.44 898.092 1154.15 1007 1335.48C1027.86 1370.3 1062.98 1393.93 1102.86 1401.45C1264.69 1431.67 1689.57 1521.72 1841.12 1655.34C1855.38 1667.76 1858.45 1688.63 1848.63 1704.73C1792.34 1796.62 1572.07 2068.77 1348.74 2033.18C1348.74 2033.18 1592.78 2077.97 1900.02 2049.44C2207.4 2020.91 2280.72 1969.36 2308.49 1947.12C2336.4 1924.87 2331.03 1896.19 2325.36 1873.94C2319.68 1851.7 2348.83 1751.68 2321.22 1657.18C2320.45 1654.57 2319.68 1651.96 2318.76 1649.35C2297.44 1582.47 2251.58 1526.32 2191.61 1489.96C2050.8 1404.67 1902.93 1372.6 1851.85 1363.55C1840.04 1361.41 1829.3 1355.12 1821.64 1345.76C1599.07 1075.45 1007.15 1036.95 707.431 1046.15L629.357 1050.29Z" fill="#FF592D" fill-opacity="0.25"/>
<path d="M469.677 1776.53C469.217 1776.53 468.756 1776.53 468.45 1776.37L392.523 1753.82C373.656 1748.3 360.005 1732.19 357.704 1713.02C356.477 1703.2 355.097 1693.38 353.409 1683.56C343.286 1625.42 325.033 1572.19 302.025 1533.99C280.09 1497.48 255.855 1478.46 235.455 1482.14C195.267 1489.19 174.867 1579.25 188.978 1687.09C189.132 1688.63 188.518 1690.01 187.444 1690.93C186.371 1692 184.837 1692.31 183.456 1691.85L182.076 1691.39C166.737 1686.94 154.313 1676.2 148.024 1662.09C142.809 1650.43 140.201 1638 140.201 1625.11L141.121 1394.39C141.275 1377.05 145.877 1360.03 154.773 1345.14C166.584 1325.2 185.144 1310.01 207.078 1302.65C230.546 1294.67 246.652 1287 253.708 1280.25C256.162 1277.95 261.07 1271.05 267.206 1262.3C304.172 1210.45 402.186 1072.39 571.526 1051.06C589.012 1048.91 610.179 1046.92 634.415 1045.39C636.715 1045.08 638.863 1046.92 639.016 1049.37C639.17 1051.68 637.329 1053.67 634.875 1053.82C610.946 1055.51 589.932 1057.35 572.599 1059.65C406.941 1080.52 310.461 1216.13 274.262 1267.21C267.206 1277.03 262.604 1283.63 259.536 1286.54C251.56 1294.06 234.841 1302.34 209.839 1310.78C189.899 1317.53 172.873 1331.34 162.136 1349.59C154.159 1363.09 149.865 1378.59 149.711 1394.39L148.791 1625.27C148.791 1636.77 151.092 1647.97 155.847 1658.56C160.448 1668.84 168.885 1676.97 179.622 1681.42C173.486 1629.72 174.867 1580.78 183.763 1543.19C193.427 1502.39 211.219 1477.69 233.921 1473.7C258.463 1469.41 285.305 1489.19 309.387 1529.54C332.855 1568.66 351.569 1622.97 361.846 1682.18C363.533 1692 365.067 1702.13 366.294 1711.94C368.134 1727.9 379.485 1741.09 394.977 1745.69L470.904 1768.24C473.051 1768.86 474.432 1771.31 473.818 1773.46C473.205 1775.45 471.517 1776.53 469.677 1776.53Z" fill="black"/>
<path d="M1692.02 2063.25C1491.23 2063.25 1349.81 2037.79 1347.97 2037.48C1347.82 2037.48 1347.66 2037.48 1347.51 2037.33C1341.99 2035.79 1338.46 2030.42 1339.07 2024.59C1344.44 1975.66 1341.99 1924.11 1332.02 1871.8C1310.08 1757.36 1253.33 1656.87 1183.69 1609.47C1148.41 1585.69 1111.75 1576.49 1077.24 1583.08C1031.53 1591.98 992.572 1628.19 967.263 1685.25C942.108 1742.48 932.138 1816.57 939.653 1894.04C940.114 1899.26 937.966 1904.32 933.978 1907.54C929.99 1910.76 924.775 1911.84 919.867 1910.46C917.566 1909.69 916.185 1907.39 916.952 1905.09C917.566 1902.79 920.02 1901.41 922.321 1902.17C924.468 1902.79 926.769 1902.33 928.456 1900.95C930.297 1899.41 931.217 1897.26 931.064 1894.81C923.548 1815.96 933.518 1740.33 959.44 1681.88C985.823 1622.05 1027.08 1584 1075.71 1574.65C1112.37 1567.59 1151.33 1577.25 1188.45 1602.41C1261 1651.66 1317.75 1751.68 1340.45 1870.11C1350.58 1923.34 1353.03 1975.66 1347.66 2025.51C1347.51 2027.05 1348.43 2028.58 1349.81 2029.04C1359.32 2030.73 1600.91 2072.92 1899.7 2045.15C2215.83 2015.85 2283.63 1961.54 2305.87 1943.75C2331.03 1923.65 2327.19 1898.8 2321.21 1875.02C2319.22 1867.2 2320.9 1852.32 2323.21 1831.76C2328.27 1788.19 2335.78 1722.23 2317.07 1658.41C2316.3 1655.95 2315.54 1653.5 2314.77 1651.04C2294.06 1586.15 2249.73 1530.31 2189.91 1493.95C2051.25 1409.89 1906.76 1377.67 1851.08 1367.7C1838.2 1365.4 1826.54 1358.5 1818.1 1348.37C1729.44 1240.68 1573.76 1160.14 1355.49 1108.9C1141.05 1058.58 918.333 1049.99 804.519 1049.38C802.219 1049.22 800.225 1047.38 800.225 1044.93C800.378 1042.63 802.219 1040.79 804.519 1040.79C804.673 1040.79 804.673 1040.79 804.673 1040.79C918.639 1041.4 1142.12 1050.15 1357.33 1100.62C1577.59 1152.31 1734.81 1233.77 1824.7 1342.85C1831.91 1351.44 1841.72 1357.27 1852.61 1359.26C1908.75 1369.23 2054.47 1401.76 2194.36 1486.59C2256.02 1524.02 2301.73 1581.55 2323.05 1648.44C2323.82 1650.89 2324.59 1653.5 2325.35 1655.95C2344.53 1721.46 2336.86 1788.5 2331.79 1832.68C2329.65 1851.7 2327.96 1866.74 2329.49 1872.87C2334.1 1891.28 2342.84 1925.18 2311.24 1950.5C2288.39 1968.75 2219.21 2024.13 1900.47 2053.74C1826.54 2060.64 1756.29 2063.25 1692.02 2063.25Z" fill="black"/>
<path d="M2293.76 1912.6C2295.29 1921.65 2291.15 1930.86 2283.18 1935.46C2239.31 1960.93 2142.21 1997.44 1900.78 2019.84C1867.19 2023.06 1834.21 2025.2 1802.31 2026.74C1795.71 2027.05 1792.18 2019.07 1797.09 2014.31L1817.34 1994.52C1843.26 1969.36 1878.08 1955.1 1914.28 1954.94C1998.34 1954.48 2159.7 1946.66 2263.39 1897.11C2276.12 1890.97 2291.15 1898.64 2293.76 1912.6Z" fill="#FF592D"/>
<path d="M1306.1 1563.75L1333.4 1600.88C1364.24 1642.91 1411.79 1669.45 1463.78 1673.59L1619.32 1686.02C1682.97 1691.08 1746.78 1678.66 1804 1649.97L1809.06 1647.36C1809.06 1647.36 1577.75 1538.59 1310.7 1553.93C1305.8 1554.24 1303.19 1559.76 1306.1 1563.75Z" fill="white"/>
<path d="M1309.47 1561.3L1336.78 1598.27C1366.99 1639.39 1413.47 1665.16 1464.09 1669.3L1619.62 1681.73C1681.44 1686.64 1743.25 1674.82 1798.93 1647.67C1755.37 1628.8 1545.84 1544.73 1310.85 1558.23C1309.93 1558.23 1309.47 1558.85 1309.32 1559.31C1309.17 1559.61 1308.86 1560.38 1309.47 1561.3ZM1647.23 1691.39C1637.87 1691.39 1628.36 1690.93 1619.01 1690.32L1463.47 1677.74C1410.25 1673.6 1361.62 1646.44 1329.87 1603.33L1302.57 1566.36C1300.27 1563.14 1299.96 1559.15 1301.65 1555.62C1303.18 1552.1 1306.56 1549.8 1310.39 1549.64C1575.6 1534.45 1808.44 1642.45 1810.9 1643.53C1812.28 1644.29 1813.35 1645.68 1813.35 1647.36C1813.35 1649.05 1812.43 1650.58 1810.9 1651.2L1805.83 1653.81C1756.44 1678.5 1702.14 1691.39 1647.23 1691.39Z" fill="#FF592D"/>
<path d="M1626.53 1661.32L1519.46 1650.28C1467.46 1646.13 1419.91 1619.59 1388.93 1577.56L1371.29 1552.56C1554.89 1554.09 1713.19 1608.55 1777.77 1634.17C1777.77 1634.17 1714.42 1663.62 1626.53 1661.32Z" fill="#FF592D"/>
<path d="M2280.57 1665C2283.18 1663.93 2284.56 1660.86 2283.48 1658.25C2279.19 1648.74 2262.93 1637.85 2233.79 1636.77C1981.62 1626.96 1906.77 1668.68 1888.36 1683.56C1886.06 1685.25 1887.13 1688.93 1890.05 1689.24C1970.57 1697.98 2038.06 1699.21 2093.28 1696.6C2098.81 1696.3 2157.55 1691.54 2162 1690.93C2229.95 1682.8 2268.76 1669.45 2280.57 1665Z" fill="#FF592D"/>
<path d="M414.768 1312.48C414.461 1312.48 414.155 1312.48 413.848 1312.32C384.091 1305.57 360.929 1299.28 345.13 1293.76C332.859 1289.46 323.656 1279.34 320.282 1266.61C317.214 1254.95 319.822 1242.06 327.338 1232.4C343.597 1211.53 378.569 1171.34 430.874 1137.44C495.143 1095.71 564.781 1076.23 638.1 1079.45C645.002 1079.76 651.905 1080.22 658.654 1080.98C660.955 1081.29 662.642 1083.44 662.335 1085.74C662.182 1088.04 659.881 1089.73 657.58 1089.57C651.138 1088.81 644.389 1088.35 637.793 1088.04C469.527 1080.68 362.77 1200.79 334.087 1237.77C328.258 1245.28 326.264 1255.25 328.718 1264.46C331.172 1274.43 338.535 1282.25 348.045 1285.63C363.537 1291 386.238 1297.29 415.688 1304.04C417.989 1304.5 419.523 1306.8 418.91 1309.1C418.449 1311.09 416.762 1312.48 414.768 1312.48Z" fill="#FF592D"/>
<path d="M1472.52 1849.86C1465.47 1847.71 1458.72 1854.31 1460.87 1861.36L1489.7 1956.78C1497.22 1981.94 1519.61 2000.04 1545.84 2002.04C1551.06 2002.5 1559.95 2003.26 1568.7 2004.03C1580.66 2005.11 1590.33 1994.37 1588.02 1982.55C1584.65 1965.99 1582.5 1940.37 1577.44 1905.7C1575.14 1889.28 1565.48 1875.02 1549.37 1871.03C1528.2 1865.81 1500.29 1858.14 1472.52 1849.86Z" fill="#FF592D"/>
<path d="M1470.22 1853.85C1468.53 1853.85 1467 1854.46 1465.93 1855.69C1465.31 1856.46 1464.39 1857.99 1465.01 1860.14L1493.69 1955.56C1500.75 1978.88 1521.91 1995.91 1546.15 1997.75C1551.36 1998.21 1560.26 1998.97 1569.16 1999.74C1574.22 2000.2 1594.93 1999.89 1627.14 1998.67C1655.21 1997.75 1679.29 1980.56 1688.8 1955.25C1692.02 1946.81 1693.09 1938.99 1692.02 1931.93C1684.66 1917.97 1524.67 1864.74 1471.6 1854C1471.14 1853.85 1470.68 1853.85 1470.22 1853.85ZM1577.13 2008.48C1572.99 2008.48 1570.08 2008.48 1568.39 2008.33C1559.65 2007.56 1550.75 2006.8 1545.54 2006.34C1517.62 2004.19 1493.54 1984.71 1485.56 1958.01L1456.72 1862.75C1455.34 1858.14 1456.42 1853.39 1459.64 1849.86C1463.01 1846.18 1468.23 1844.49 1473.29 1845.57C1497.22 1850.47 1553.82 1867.2 1602.14 1883.61C1698.46 1916.75 1699.84 1926.26 1700.46 1930.4C1701.84 1938.99 1700.61 1948.5 1696.93 1958.17C1686.19 1986.85 1658.89 2006.18 1627.44 2007.26C1603.82 2008.18 1586.95 2008.48 1577.13 2008.48Z" fill="#FF592D"/>
<path d="M924.472 1352.66L912.968 1327.81C902.385 1305.11 878.303 1291.91 853.608 1295.6L774.613 1307.1C763.569 1308.79 754.52 1316.46 750.992 1327.04L742.402 1352.66C739.948 1359.87 743.169 1367.7 749.765 1371.23L752.832 1372.76C765.717 1379.66 779.982 1383.81 794.554 1385.03L996.104 1403.44C1005.92 1391.02 998.098 1372.61 982.453 1371.23L946.1 1368C936.743 1367.08 928.461 1361.25 924.472 1352.66Z" fill="#FF592D"/>
<path d="M1253.33 1170.57C1251.19 1166.74 1254.1 1161.98 1258.55 1162.59C1344.14 1174.71 1434.33 1193.58 1506.88 1222.73C1609.96 1264.3 1669.32 1309.25 1712.42 1350.21C1716.26 1353.89 1713.49 1360.49 1708.13 1360.34C1667.48 1359.26 1543.39 1356.81 1328.95 1359.26V1359.11C1319.75 1327.51 1300.73 1259.86 1253.33 1170.57Z" fill="white"/>
<path d="M1369.45 1305.57C1340.92 1321.06 1318.53 1340.7 1305.8 1359.87C1316.69 1359.72 1327.42 1359.72 1337.85 1359.57C1347.98 1347.91 1363.62 1335.79 1382.64 1325.51C1421.45 1304.49 1459.64 1299.74 1467.93 1315.08C1473.45 1325.66 1463.63 1342.69 1444.31 1359.26C1454.43 1359.26 1464.4 1359.26 1474.06 1359.26C1493.08 1337.78 1500.91 1315.84 1492.62 1300.2C1478.51 1273.96 1423.44 1276.42 1369.45 1305.57Z" fill="#FF592D" fill-opacity="0.25"/>
<path d="M1751.84 1364.78C1751.69 1364.78 1751.69 1364.78 1751.54 1364.78C1698.31 1363.4 1496.76 1359.11 1141.06 1364.48C1086.91 1365.24 1053.63 1346.53 1009.76 1290.07C1008.38 1288.23 1008.68 1285.63 1010.52 1284.09C1012.36 1282.71 1015.12 1283.02 1016.51 1284.86C1058.99 1339.32 1089.21 1356.65 1140.9 1355.89C1496.76 1350.52 1698.46 1354.81 1751.69 1356.19C1753.68 1356.19 1754.6 1354.66 1754.76 1354.2C1755.06 1353.74 1755.52 1352.05 1753.99 1350.67C1705.67 1304.5 1632.2 1244.36 1492.31 1187.91C1416.85 1157.38 1318.52 1132.68 1200.42 1114.58C1198.12 1114.12 1196.43 1111.97 1196.74 1109.67C1197.2 1107.21 1199.34 1105.68 1201.64 1105.99C1320.52 1124.24 1419.45 1149.09 1495.53 1179.93C1636.8 1237 1711.04 1297.75 1759.97 1344.38C1763.5 1347.76 1764.57 1352.97 1762.73 1357.42C1760.89 1361.87 1756.6 1364.78 1751.84 1364.78Z" fill="black"/>
<path d="M914.503 1162.9C913.429 1162.9 912.356 1162.44 911.435 1161.52C869.868 1119.63 829.68 1094.94 814.341 1086.19C811.734 1084.81 810.507 1081.74 811.274 1078.83C812.041 1075.91 814.648 1073.92 817.716 1074.07C842.718 1074.38 910.208 1076.07 997.946 1082.97C1000.4 1083.12 1002.09 1085.12 1001.93 1087.57C1001.78 1089.87 999.633 1091.71 997.332 1091.56C917.878 1085.27 854.989 1083.43 825.385 1082.82C844.405 1094.02 880.451 1118.1 917.571 1155.53C919.258 1157.22 919.258 1159.98 917.571 1161.52C916.651 1162.44 915.577 1162.9 914.503 1162.9Z" fill="black"/>
<path d="M552.355 1404.52C549.9 1400.68 553.122 1395.77 557.57 1396.54L669.389 1417.56C688.102 1422.47 701.14 1436.27 708.196 1445.78C710.804 1449.31 707.889 1454.22 703.441 1453.45L591.775 1432.44C576.283 1429.52 562.325 1419.55 552.355 1404.52Z" fill="#FF592D"/>
<path d="M575.672 1210.91C560.64 1223.34 550.67 1169.34 550.67 1169.34L613.405 1124.09L653.746 1078.68C657.888 1074.07 664.943 1073.61 669.698 1077.6C674.607 1081.74 675.067 1089.11 670.925 1093.86L652.826 1114.11C650.372 1117.03 651.752 1121.48 655.28 1122.4C660.955 1123.93 666.784 1124.55 672.613 1123.93C683.196 1122.86 701.296 1120.71 719.089 1116.26C727.372 1114.11 734.121 1121.94 728.906 1128.69L681.049 1156.91C668.931 1163.97 648.378 1164.89 634.879 1161.21C634.879 1161.21 622.608 1175.63 609.264 1186.98C598.373 1196.19 587.483 1201.4 575.672 1210.91Z" fill="white"/>
<path d="M555.421 1171.18C558.796 1188.06 565.391 1206.47 570.76 1208.46C571.067 1208.62 571.68 1208.77 573.061 1207.69C578.889 1202.79 584.565 1199.1 590.087 1195.42C595.762 1191.74 601.13 1188.21 606.499 1183.61C619.384 1172.72 631.501 1158.6 631.501 1158.45C632.575 1157.07 634.415 1156.61 635.949 1157.07C648.22 1160.29 667.547 1159.83 678.898 1153.23L725.988 1125.47C726.601 1124.39 726.601 1123.17 725.988 1122.25C725.067 1120.87 722.92 1119.79 720.159 1120.41C702.673 1124.85 684.88 1127.16 673.069 1128.23C666.78 1128.84 660.338 1128.23 654.202 1126.54C651.135 1125.77 648.68 1123.32 647.76 1120.25C646.84 1117.03 647.453 1113.81 649.601 1111.35L667.701 1090.95C668.928 1089.57 669.541 1087.73 669.388 1085.89C669.234 1083.89 668.467 1082.21 666.934 1080.83C664.019 1078.37 659.571 1078.68 656.963 1081.59L616.623 1126.85C616.469 1127.16 616.162 1127.31 616.009 1127.46L555.421 1171.18ZM571.22 1217.21C569.993 1217.21 568.766 1216.9 567.846 1216.44C554.654 1211.68 547.752 1177.01 546.525 1170.11C546.218 1168.42 546.831 1166.73 548.212 1165.81L610.487 1120.87L650.521 1075.76C656.196 1069.47 666.013 1068.86 672.609 1074.38C675.83 1077.14 677.671 1080.98 677.977 1085.28C678.284 1089.42 676.904 1093.56 674.143 1096.78L656.043 1117.03C655.89 1117.18 655.89 1117.49 655.89 1117.8C656.043 1118.1 656.196 1118.26 656.503 1118.26C661.718 1119.79 666.934 1120.25 672.149 1119.64C681.659 1118.72 700.219 1116.57 718.011 1112.12C723.994 1110.59 730.129 1112.74 733.197 1117.49C735.958 1121.79 735.651 1127.16 732.277 1131.3C731.97 1131.76 731.51 1132.22 731.049 1132.37L683.193 1160.6C670.308 1168.12 650.214 1169.04 636.41 1165.97C632.422 1170.42 622.605 1181.16 612.021 1190.21C606.192 1195.12 600.364 1198.95 594.842 1202.63C589.473 1206.16 583.951 1209.69 578.429 1214.29C575.822 1216.44 573.367 1217.21 571.22 1217.21Z" fill="black"/>
<path d="M379.337 897.039C335.468 907.164 304.484 928.795 304.484 928.795C304.484 928.795 237.607 971.442 239.141 1053.06C240.368 1116.26 287.458 1191.58 286.998 1196.95C282.857 1257.39 278.255 1255.25 284.544 1276.72C299.729 1329.04 514.471 1307.41 518.152 1283.47C521.68 1261.84 511.71 1225.49 516.772 1176.7C521.067 1133.59 536.866 1080.36 536.866 1080.36C606.657 1120.4 679.056 1115.19 745.012 1068.55C822.779 1013.32 881.833 890.75 881.833 890.75L838.885 865.897C838.885 865.897 746.392 972.363 668.625 980.8C622.302 985.709 582.115 958.709 558.8 937.846C535.178 916.829 506.495 902.255 475.511 896.426C448.208 891.21 414.309 889.062 379.337 897.039Z" fill="#FF592D"/>
<path d="M329.639 1308.94C357.095 1185.3 358.322 1018.54 358.322 1018.54C358.322 1012.1 363.537 1007.04 369.826 1007.04H506.187C512.629 1007.04 517.691 1012.1 517.845 1018.54L517.384 1311.55L329.639 1308.94Z" fill="black"/>
<path d="M386.237 1031.73C386.084 1031.73 385.777 1031.73 385.624 1031.73C379.028 1031.43 373.966 1026.52 374.426 1020.69C377.801 962.24 363.076 936.314 350.191 924.808C342.368 917.751 329.331 911.922 321.815 909.007C319.821 908.24 319.974 905.325 321.968 904.712C326.109 903.024 331.631 901.183 335.006 900.109C337.613 899.342 350.345 894.433 367.064 909.927C390.532 931.405 401.269 968.683 398.201 1021.76C397.741 1027.28 392.526 1031.73 386.237 1031.73Z" fill="black"/>
<path d="M493.458 1035.87C493.305 1035.87 493.151 1035.72 492.998 1035.72C487.783 1033.73 481.187 1026.52 483.181 1021.15C513.245 942.91 504.195 909.927 496.832 897.501C495.759 895.66 497.599 893.512 499.593 894.433C503.121 895.813 511.097 898.728 513.398 899.802C521.068 903.33 542.542 920.665 505.882 1029.89C504.195 1034.95 498.52 1037.56 493.458 1035.87Z" fill="black"/>
<path d="M1010.06 1142.81C1076.48 1121.48 1175.72 1007.96 1175.72 1007.96L1162.99 998.909L955.302 1050.3L814.032 978.045L917.415 827.245L1106.54 794.263C1057.15 739.036 951.621 706.513 876.768 730.598C786.883 759.746 729.056 841.972 726.908 931.256L49.7043 1150.17C11.9711 1162.29 -8.73615 1202.79 3.53482 1240.53C15.6524 1278.26 56.6067 1316.31 94.34 1304.19L771.084 1067.94C825.076 1139.12 920.176 1171.95 1010.06 1142.81Z" fill="#FF592D" fill-opacity="0.25"/>
<path d="M1031.38 1164.13C1106.24 1140.04 1158.7 1079.14 1175.72 1007.96L1007.76 1062.11L866.493 989.858L938.738 848.569L1106.54 794.263C1051.17 746.4 972.944 727.837 898.244 751.922C808.359 781.07 750.379 863.296 748.232 952.58L71.0276 1171.49C33.2943 1183.61 12.5871 1224.11 24.8581 1261.85C36.9756 1299.59 77.4698 1320.3 115.203 1308.03L792.407 1089.27C846.553 1160.45 941.499 1193.28 1031.38 1164.13Z" fill="white"/>
<path d="M965.43 745.631C943.342 745.631 921.254 749.006 899.473 756.063C813.883 783.83 754.829 862.835 752.528 952.732C752.528 954.573 751.301 956.107 749.461 956.721L72.4098 1175.63C55.2305 1181.16 41.2722 1192.97 32.9894 1209.08C24.8599 1225.03 23.326 1243.44 28.8479 1260.47C40.352 1295.91 78.5453 1315.39 113.978 1304.04L791.028 1085.12C792.716 1084.66 794.71 1085.28 795.783 1086.66C850.236 1158.3 944.416 1187.75 1030.16 1160.14C1098.88 1137.9 1150.57 1083.74 1169.59 1014.4L1009.14 1066.25C1007.92 1066.56 1006.84 1066.56 1005.77 1065.95L864.501 993.692C863.581 993.232 862.66 992.311 862.353 991.238C862.047 990.164 862.2 988.936 862.66 987.863L934.906 846.574C935.366 845.653 936.286 844.886 937.36 844.426L1097.8 792.574C1059.46 761.739 1012.98 745.631 965.43 745.631ZM93.2705 1315.85C61.0592 1315.85 31.1487 1295.29 20.7184 1263.23C14.4295 1243.9 16.1168 1223.19 25.4734 1205.09C34.6767 1186.99 50.4755 1173.64 69.8023 1167.35L743.939 949.511C747.62 857.159 808.668 776.466 896.866 747.932C970.952 724.001 1050.41 740.109 1109.46 791.04C1110.53 792.114 1111.15 793.648 1110.84 795.182C1110.53 796.716 1109.46 797.943 1107.93 798.404L941.655 852.096L872.324 988.016L1008.07 1057.51L1174.34 1003.82C1175.88 1003.36 1177.41 1003.66 1178.64 1004.74C1179.71 1005.81 1180.17 1007.35 1179.86 1008.88C1161.77 1084.82 1106.85 1144.34 1032.77 1168.27C944.569 1196.8 847.782 1167.04 790.875 1094.33L116.585 1312.17C108.763 1314.62 100.94 1315.85 93.2705 1315.85Z" fill="black"/>
<path d="M336.696 934.63C336.696 934.63 288.992 954.88 263.683 1037.41C249.878 1082.82 254.48 1146.18 320.897 1234.08C386.546 1320.76 581.041 1215.06 581.041 1215.06L576.746 1150.17C576.746 1150.17 469.682 1209.23 397.284 1175.17C376.423 1165.51 344.518 1060.88 341.297 1008.73L336.696 934.63Z" fill="#FF592D"/>
<path d="M407.866 1272.43C368.906 1272.43 338.382 1260.47 317.674 1236.84C310.925 1229.17 305.097 1220.89 299.575 1213.07L296.353 1208.62C294.973 1206.62 295.433 1204.01 297.274 1202.63C299.268 1201.25 301.875 1201.71 303.256 1203.55L306.477 1208C311.999 1215.83 317.674 1223.8 324.117 1231.17C392.374 1309.1 555.118 1224.26 576.592 1212.6L572.91 1156.92C547.908 1169.19 451.121 1212.6 394.981 1178.86C377.649 1168.42 353.107 1101.69 342.676 1048.92C342.216 1046.62 343.75 1044.32 346.051 1043.86C348.352 1043.4 350.652 1044.93 351.113 1047.23C361.85 1101.69 385.778 1163.36 399.43 1171.49C458.79 1207.24 573.524 1146.95 574.751 1146.33C575.978 1145.72 577.512 1145.72 578.893 1146.33C580.12 1147.1 580.887 1148.33 581.04 1149.86L585.335 1214.75C585.488 1216.44 584.568 1217.97 583.187 1218.89C582.727 1219.05 535.944 1245.74 480.571 1261.24C453.882 1268.6 429.647 1272.43 407.866 1272.43Z" fill="black"/>
<path d="M355.561 1912.91L340.376 1986.54L380.103 1997.9L402.191 1926.25L355.561 1912.91Z" fill="white"/>
<path d="M345.435 1983.48L377.34 1992.53L396.82 1929.17L358.78 1918.28L345.435 1983.48ZM380.101 2002.19C379.794 2002.19 379.334 2002.04 379.027 2002.04L339.146 1990.69C336.999 1990.07 335.772 1987.77 336.232 1985.62L351.417 1912.14C351.571 1910.91 352.338 1909.84 353.411 1909.23C354.332 1908.61 355.559 1908.46 356.786 1908.77L403.262 1922.11C404.489 1922.42 405.41 1923.19 405.87 1924.26C406.483 1925.18 406.637 1926.41 406.33 1927.48L384.242 1999.12C383.629 2000.96 381.941 2002.19 380.101 2002.19Z" fill="black"/>
<path d="M327.185 2048.52C327.646 2055.58 336.235 2061.26 343.138 2062.33C367.373 2066.01 423.973 2064.48 439.465 2065.55C459.405 2066.93 496.985 2065.4 498.365 2052.51C500.206 2036.87 483.333 2014.01 443.299 2001.43C422.592 1994.99 400.658 1962.77 390.994 1962.31C381.178 1961.7 363.998 1987.01 363.998 1987.01L336.389 1977.5C336.389 1977.5 325.038 2012.63 327.185 2048.52Z" fill="#FF592D"/>
<path d="M339.301 1983.18C336.386 1993.3 329.791 2020.76 331.478 2048.22C331.785 2052.67 338.38 2057.27 343.902 2058.04C359.394 2060.34 389.612 2060.65 411.699 2060.65C423.817 2060.8 434.247 2060.8 439.769 2061.26C466.919 2063.1 493.301 2058.65 494.068 2052.06C495.755 2037.48 478.423 2016.93 442.07 2005.57C429.492 2001.58 417.068 1989.62 407.098 1979.95C401.269 1974.28 393.446 1966.76 390.685 1966.61C386.544 1966.3 375.04 1978.42 367.677 1989.47C366.45 1991.15 364.456 1991.77 362.615 1991.15L339.301 1983.18ZM452.96 2070.31C446.058 2070.31 440.843 2069.85 439.156 2069.85C433.94 2069.39 423.664 2069.39 411.699 2069.24C388.078 2069.24 358.627 2069.08 342.522 2066.63C333.625 2065.25 323.502 2058.04 322.888 2048.83C320.587 2012.48 331.785 1977.65 332.398 1976.27C332.705 1975.2 333.472 1974.28 334.546 1973.66C335.466 1973.2 336.693 1973.2 337.767 1973.51L362.309 1981.95C368.291 1973.66 381.329 1957.4 391.145 1958.02C397.128 1958.32 403.723 1964.77 413.08 1973.66C422.436 1982.72 434.094 1994.07 444.524 1997.29C487.319 2010.64 504.652 2035.49 502.658 2052.98C500.971 2067.86 471.367 2070.31 452.96 2070.31Z" fill="black"/>
<path d="M462.317 2050.98C457.102 2050.98 451.273 2050.67 445.138 2050.36C436.088 2049.9 426.731 2049.44 417.528 2049.9C396.361 2050.83 378.414 2049.9 366.91 2049.14C344.669 2047.45 343.902 2046.07 342.828 2044.54C342.061 2043.31 342.061 2041.62 342.675 2040.24C343.749 2038.25 346.203 2037.48 348.197 2038.25C352.645 2039.32 381.635 2042.85 417.221 2041.31C426.731 2040.85 436.241 2041.31 445.444 2041.77C459.096 2042.54 471.98 2043.15 479.19 2040.09C481.337 2039.17 483.791 2040.24 484.712 2042.39C485.632 2044.54 484.711 2047.14 482.564 2048.06C477.196 2050.36 470.293 2050.98 462.317 2050.98Z" fill="black"/>
<path d="M410.93 2025.82C409.856 2025.82 408.782 2025.36 408.016 2024.59C406.175 2022.91 406.175 2020.15 407.862 2018.46L422.434 2003.42C424.121 2001.74 426.729 2001.74 428.416 2003.42C430.103 2004.96 430.257 2007.72 428.569 2009.41L413.998 2024.44C413.231 2025.36 412.004 2025.82 410.93 2025.82Z" fill="black"/>
<path d="M139.896 1909.38L137.902 1960.77L173.335 1969.36L179.777 1909.84L139.896 1909.38Z" fill="white"/>
<path d="M142.35 1957.4L169.653 1963.99L174.868 1914.14L144.038 1913.83L142.35 1957.4ZM173.335 1973.66C173.028 1973.66 172.721 1973.66 172.414 1973.51L136.828 1964.92C134.834 1964.45 133.454 1962.61 133.607 1960.62L135.601 1909.23C135.755 1906.93 137.595 1905.09 139.896 1905.09L179.777 1905.55C181.004 1905.55 182.078 1906.01 182.998 1906.93C183.765 1907.85 184.072 1909.07 183.918 1910.3L177.629 1969.82C177.476 1971.05 176.862 1972.28 175.789 1972.89C175.175 1973.51 174.255 1973.66 173.335 1973.66Z" fill="black"/>
<path d="M178.86 2062.64C164.595 2064.63 141.433 2065.55 113.824 2062.64C101.553 2061.41 96.7977 2044.08 98.9451 2035.18C104.927 2010.33 115.357 1970.44 133.304 1948.66L139.746 1961.85L146.035 1948.96C146.802 1947.43 148.336 1946.35 150.023 1946.2L163.368 1946.35C166.129 1945.89 168.736 1947.74 169.35 1950.65L171.497 1960.93L182.848 1947.58L191.744 2045.46C192.818 2053.74 187.143 2061.56 178.86 2062.64Z" fill="#FF592D"/>
<path d="M132.536 1956.79C116.737 1980.26 107.227 2018.92 103.086 2036.25C102.012 2040.55 103.086 2048.22 106.767 2053.43C108.914 2056.35 111.369 2058.04 114.283 2058.34C137.445 2060.8 161.22 2060.8 178.245 2058.5C184.074 2057.58 188.216 2052.05 187.449 2045.92L179.473 1958.17L174.718 1963.69C173.644 1964.92 171.957 1965.38 170.423 1965.07C168.889 1964.61 167.662 1963.38 167.202 1961.7L165.208 1951.42C165.054 1950.8 164.441 1950.5 163.98 1950.5C163.674 1950.65 163.52 1950.65 163.367 1950.65L150.329 1950.5C150.176 1950.5 149.869 1950.8 149.715 1950.96L143.733 1963.69C142.966 1965.22 141.433 1966.14 139.745 1966.14C138.211 1966.14 136.678 1965.22 135.911 1963.84L132.536 1956.79ZM148.488 2068.77C138.672 2068.77 126.861 2068.31 113.363 2066.93C107.994 2066.32 103.239 2063.41 99.7113 2058.5C95.1097 2051.75 92.9622 2041.47 94.8029 2034.1C102.012 2004.19 112.596 1967.07 129.929 1945.89C130.849 1944.82 132.229 1944.21 133.763 1944.36C135.144 1944.51 136.524 1945.43 137.138 1946.66L139.745 1952.03L142.046 1947.12C143.733 1944.21 146.494 1942.21 149.409 1941.91C149.716 1941.91 149.869 1941.91 150.022 1941.91L163.214 1942.06C168.122 1941.6 172.57 1944.82 173.49 1949.73L173.951 1951.42L179.626 1944.82C180.7 1943.44 182.54 1942.98 184.228 1943.44C185.761 1944.05 186.989 1945.43 187.142 1947.28L196.038 2045C197.419 2055.58 189.903 2065.4 179.473 2066.93C174.257 2067.7 163.674 2068.77 148.488 2068.77Z" fill="black"/>
<path d="M139.284 2052.82C129.927 2052.82 119.957 2051.9 109.987 2049.6C107.686 2049.14 106.152 2046.84 106.766 2044.54C107.226 2042.24 109.527 2040.7 111.827 2041.32C144.652 2048.83 179.164 2039.17 179.471 2039.01C181.772 2038.4 184.226 2039.63 184.84 2041.93C185.453 2044.23 184.226 2046.53 181.925 2047.3C180.852 2047.6 162.445 2052.82 139.284 2052.82Z" fill="black"/>
<path d="M131.153 2014.77C128.853 2014.77 126.859 2012.93 126.859 2010.63C126.705 2008.33 128.546 2006.34 131 2006.18L162.905 2005.11C165.205 2005.11 167.353 2006.95 167.353 2009.25C167.506 2011.71 165.665 2013.7 163.211 2013.7L131.307 2014.77C131.153 2014.77 131.153 2014.77 131.153 2014.77Z" fill="black"/>
<path d="M499.897 1716.09C454.342 1841.73 421.823 1904.47 409.399 1927.18C406.025 1933.31 399.122 1936.84 392.22 1935.92L359.855 1931.78C350.192 1930.55 343.443 1921.5 344.976 1911.84C356.941 1836.97 403.877 1472.78 391.299 1439.03L190.055 1916.44C187.755 1921.5 182.846 1924.88 177.478 1924.72L143.426 1924.42C135.756 1924.26 129.774 1917.97 129.928 1910.3C140.051 1523.87 252.177 1461.59 285.002 1276.88C285.155 1276.42 462.624 1302.96 517.844 1273.66C518.611 1273.2 552.663 1569.89 499.897 1716.09Z" fill="black"/>
<path d="M288.684 1367.24C286.844 1367.24 285.924 1367.09 285.77 1367.09C283.469 1366.93 281.782 1364.78 281.935 1362.33C282.242 1360.03 284.236 1358.34 286.69 1358.49C288.378 1358.65 330.406 1362.02 342.37 1315.08C342.984 1312.78 345.284 1311.4 347.585 1312.01C349.886 1312.63 351.266 1314.93 350.806 1317.23C338.842 1363.86 299.728 1367.24 288.684 1367.24Z" fill="#FF592D" fill-opacity="0.25"/>
<path d="M509.1 1367.24C501.124 1367.24 473.514 1363.71 465.385 1316.92C464.924 1314.46 466.612 1312.32 468.912 1311.86C471.213 1311.55 473.514 1313.08 473.821 1315.38C481.95 1362.02 509.867 1358.65 510.174 1358.49C512.474 1358.19 514.622 1359.87 514.929 1362.17C515.235 1364.63 513.701 1366.78 511.247 1367.08C511.247 1367.08 510.48 1367.24 509.1 1367.24Z" fill="#FF592D" fill-opacity="0.25"/>
<path d="M454.647 924.809L463.85 876.639C464.617 873.417 467.224 870.963 470.445 870.656L489.159 868.508C493.147 868.048 496.368 864.98 496.981 860.838L501.276 833.991L510.173 829.082C512.013 828.162 512.627 825.861 511.707 824.173L502.35 805.611C500.509 802.083 498.055 781.679 494.067 781.833C494.067 781.833 426.73 758.208 406.943 786.435C401.575 793.952 401.114 803.77 404.642 812.207L409.091 822.946C413.846 834.145 414.919 846.724 411.238 858.23C410.011 862.372 408.17 866.361 405.869 870.196L380.561 909.928C398.967 919.286 419.214 924.195 439.768 924.656L454.647 924.809Z" fill="white"/>
<path d="M386.85 908.24C403.416 915.91 421.669 920.052 439.768 920.359L451.119 920.512L459.709 875.871C460.783 870.655 464.924 866.973 469.986 866.359L488.699 864.212C490.693 863.905 492.38 862.371 492.687 860.223L496.982 833.377C497.135 831.996 498.056 830.769 499.283 830.155L507.719 825.553L498.516 807.604C497.749 805.916 497.135 803.309 496.062 798.706C495.295 795.178 493.761 788.121 492.38 785.82C474.434 779.684 425.043 768.025 410.472 788.888C406.177 794.871 405.41 803.155 408.631 810.519L413.079 821.257C418.294 833.837 419.215 847.337 415.38 859.609C413.999 864.058 412.005 868.354 409.551 872.342L386.85 908.24ZM454.647 929.103C454.494 929.103 454.494 929.103 454.494 929.103L439.768 928.796C418.601 928.489 397.587 923.274 378.72 913.762C377.647 913.302 376.726 912.228 376.42 911.154C376.113 909.927 376.266 908.7 377.033 907.626L402.342 867.893C404.336 864.518 406.023 860.837 407.25 857.001C410.318 846.723 409.705 835.217 405.256 824.632L400.655 813.894C396.36 803.769 397.434 792.417 403.416 783.979C423.97 754.678 487.625 775.235 494.834 777.689C500.356 778.303 502.197 786.587 504.498 796.865C504.958 799.32 505.725 802.848 506.185 803.615L515.542 822.178C517.536 826.013 516.002 830.769 512.167 832.916L505.111 836.751L501.277 861.604C500.356 867.433 495.601 872.035 489.619 872.802L470.906 874.95C469.526 875.103 468.452 876.177 468.145 877.558L458.788 925.575C458.482 927.569 456.641 929.103 454.647 929.103Z" fill="black"/>
<path d="M441.456 811.906C438.081 803.162 432.713 799.941 433.633 795.032C434.247 792.117 436.854 790.123 438.235 789.049C445.444 783.833 454.954 787.054 473.974 790.736C497.595 795.185 500.356 795.799 504.805 794.111C516.002 789.662 522.444 775.549 523.058 763.89C523.211 760.668 523.365 743.486 508.946 734.589C498.516 728.146 484.404 728.606 473.207 735.816C472.133 732.441 470.139 727.685 465.538 725.384C454.954 719.862 439.002 732.288 433.48 736.583C428.264 740.572 419.061 748.856 412.619 763.583C410.472 762.356 402.495 758.214 393.906 760.975C381.175 765.117 378.107 780.918 377.8 782.299C374.579 799.787 388.691 814.975 399.428 826.48C405.41 832.77 408.478 835.224 412.005 837.526C414 838.906 416.607 838.906 418.755 837.832C418.908 837.679 418.908 837.679 418.908 837.679C421.822 836.145 422.743 832.463 421.055 829.702L420.442 828.781C418.448 825.406 417.067 821.725 416.607 817.889C416.3 814.821 416.454 811.446 418.448 809.759C421.669 807.151 427.037 808.838 427.804 809.145C431.792 810.526 434.4 813.441 435.934 816.202C437.468 819.27 442.99 815.742 441.456 811.906Z" fill="black"/>
<path d="M491.767 732.592L549.134 720.166C559.564 717.865 569.074 731.212 565.24 743.484C562.785 751.768 554.656 760.819 535.329 768.183C484.405 787.512 452.193 795.489 452.193 795.489L491.767 732.592Z" fill="#FF592D"/>
<path d="M494.379 736.427L461.707 788.433C475.052 784.598 500.514 776.774 533.799 764.041C549.291 758.211 558.494 750.848 561.255 742.257C562.789 737.041 561.562 731.365 557.881 727.376C556.5 725.996 553.74 723.541 550.058 724.308L494.379 736.427ZM452.197 799.785C450.817 799.785 449.436 799.018 448.669 797.944C447.596 796.563 447.596 794.569 448.516 793.188L488.09 730.291C488.703 729.217 489.624 728.604 490.851 728.297L548.218 715.871C553.893 714.643 559.875 716.791 564.323 721.547C569.845 727.683 571.839 736.734 569.385 744.711C566.01 756.064 554.967 765.268 536.867 772.171C486.403 791.347 453.424 799.478 453.118 799.631C452.811 799.631 452.504 799.785 452.197 799.785Z" fill="black"/>
<path d="M398.966 817.119C398.966 817.119 348.655 767.108 391.756 730.29C447.743 682.733 481.641 712.494 496.213 733.204C502.042 741.335 502.502 751.613 497.44 760.204L497.287 760.511C488.39 775.392 474.125 787.357 456.946 794.107L398.966 817.119Z" fill="#FF592D"/>
<path d="M447.744 709.12C431.485 709.12 413.692 717.25 394.519 733.512C384.395 742.103 379.027 752.381 378.566 763.733C377.8 785.057 394.365 805.613 400.194 812.057L455.413 790.119C471.672 783.676 485.17 772.324 493.607 758.364L493.76 758.057C497.902 751 497.595 742.409 492.686 735.659C485.171 724.921 472.133 711.728 453.573 709.427C451.732 709.12 449.738 709.12 447.744 709.12ZM398.967 821.415C397.893 821.415 396.82 820.954 395.899 820.034C394.825 818.96 368.903 792.881 369.977 763.426C370.59 749.466 377.033 737.194 388.997 726.915C412.312 707.126 434.399 698.381 454.646 700.836C476.274 703.597 491.153 718.631 499.742 730.597C506.645 740.262 507.105 752.381 501.123 762.506L500.969 762.813C491.613 778.46 476.581 790.886 458.481 798.096L400.501 821.108C400.041 821.261 399.58 821.415 398.967 821.415Z" fill="black"/>
<path d="M395.593 818.651L410.472 812.514C410.012 810.98 408.478 806.071 407.711 804.384C396.974 779.378 385.316 783.674 378.874 788.429C385.01 804.23 395.593 818.651 395.593 818.651Z" fill="black"/>
<path d="M580.273 1150.48L624.296 1112.43L654.82 1078.07C658.961 1073.46 666.17 1073 670.772 1076.99C675.68 1081.29 676.14 1088.5 671.999 1093.25L654.053 1113.66C651.445 1116.42 652.826 1120.87 656.507 1121.94C662.029 1123.48 667.857 1123.94 673.686 1123.32C684.27 1122.4 702.523 1120.1 720.162 1115.65C728.445 1113.66 735.348 1121.33 729.979 1128.08L682.122 1156.3C672.612 1161.98 661.722 1164.28 650.832 1163.36C646.23 1162.9 640.708 1162.29 634.726 1161.52C631.811 1161.21 627.363 1170.11 617.393 1179.62C604.048 1192.2 583.955 1201.56 583.955 1201.56L580.273 1150.48Z" fill="white"/>
<path d="M582.268 1210.3C580.581 1210.3 579.047 1209.38 578.28 1207.69C577.36 1205.55 578.28 1203.09 580.427 1202.02C604.663 1190.97 632.426 1158.14 632.579 1157.84C633.653 1156.61 635.187 1155.99 636.72 1156.45L647.764 1158.6C658.808 1160.44 670.159 1158.3 679.976 1152.62L727.065 1124.85C727.679 1123.78 727.832 1122.71 727.065 1121.63C726.299 1120.25 723.998 1119.18 721.237 1119.79C703.751 1124.24 685.958 1126.54 674.147 1127.61C667.858 1128.23 661.416 1127.77 655.28 1126.08C652.213 1125.16 649.758 1122.71 648.838 1119.64C647.918 1116.57 648.531 1113.19 650.832 1110.74L668.778 1090.49C670.005 1088.96 670.619 1087.11 670.466 1085.27C670.312 1083.28 669.545 1081.59 668.011 1080.36C665.097 1077.76 660.649 1078.06 658.041 1080.98L621.228 1122.4C620.308 1123.32 600.981 1142.34 582.575 1154C580.581 1155.38 577.973 1154.77 576.593 1152.77C575.366 1150.78 575.979 1148.02 577.973 1146.79C595.613 1135.59 614.786 1116.57 614.939 1116.42L651.599 1075.3C657.274 1068.86 667.244 1068.25 673.687 1073.77C676.908 1076.53 678.748 1080.36 679.055 1084.66C679.362 1088.96 677.982 1092.94 675.221 1096.17L657.274 1116.42C656.968 1116.72 656.968 1116.88 656.968 1117.18C657.121 1117.49 657.274 1117.64 657.581 1117.64C662.796 1119.18 668.011 1119.64 673.38 1119.02C682.737 1118.26 701.296 1115.96 719.089 1111.51C725.071 1109.97 731.207 1112.27 734.275 1117.03C737.036 1121.17 736.729 1126.54 733.354 1130.84C733.048 1131.14 732.741 1131.6 732.281 1131.91L684.27 1159.98C672.92 1166.73 659.422 1169.19 646.23 1167.04L637.487 1165.35C631.045 1172.87 606.657 1199.56 584.109 1209.84C583.495 1210.15 582.882 1210.3 582.268 1210.3Z" fill="black"/>
<path d="M1017.42 2253.93H633.803C617.237 2253.93 603.432 2241.2 601.592 2224.48L601.745 2009.4H1049.48L1049.64 2224.48C1047.79 2241.2 1033.99 2253.93 1017.42 2253.93Z" fill="white"/>
<path d="M605.886 2224.18C607.573 2238.75 619.537 2249.64 633.802 2249.64H1017.42C1031.69 2249.64 1043.65 2238.75 1045.34 2224.18L1045.19 2013.7H606.039L605.886 2224.18ZM1017.42 2258.23H633.802C614.935 2258.23 599.29 2243.97 597.296 2224.94C597.296 2224.79 597.296 2224.64 597.296 2224.48L597.449 2009.4C597.449 2007.1 599.443 2005.11 601.744 2005.11H1049.48C1051.78 2005.11 1053.78 2007.1 1053.78 2009.4L1053.93 2224.48C1053.93 2224.64 1053.93 2224.79 1053.93 2224.94C1051.94 2243.97 1036.29 2258.23 1017.42 2258.23Z" fill="black"/>
<path d="M743.479 1858.14V1917.36H777.838V1871.18C777.838 1858.91 787.808 1848.94 800.079 1848.94H858.06C870.177 1848.94 880.147 1858.91 880.147 1871.18V1917.36H914.506V1858.14C914.506 1835.59 896.406 1817.49 873.859 1817.49H784.127C761.733 1817.49 743.479 1835.59 743.479 1858.14Z" fill="white"/>
<path d="M884.442 1913.06H910.211V1858.14C910.211 1838.05 893.952 1821.79 873.858 1821.79H784.127C764.033 1821.79 747.774 1838.05 747.774 1858.14V1913.06H773.543V1871.18C773.543 1856.61 785.507 1844.64 800.079 1844.64H858.06C872.631 1844.64 884.442 1856.61 884.442 1871.18V1913.06ZM914.506 1921.65H880.147C877.847 1921.65 875.852 1919.81 875.852 1917.36V1871.18C875.852 1861.36 867.876 1853.23 858.06 1853.23H800.079C790.109 1853.23 782.133 1861.36 782.133 1871.18V1917.36C782.133 1919.81 780.292 1921.65 777.838 1921.65H743.479C741.025 1921.65 739.185 1919.81 739.185 1917.36V1858.14C739.185 1833.29 759.432 1813.19 784.127 1813.19H873.858C898.707 1813.19 918.801 1833.29 918.801 1858.14V1917.36C918.801 1919.81 916.96 1921.65 914.506 1921.65Z" fill="black"/>
<path d="M1060.83 2016.46H590.395C574.443 2016.46 561.559 2003.58 561.559 1987.62V1923.8C561.559 1907.85 574.443 1894.96 590.395 1894.96H1060.83C1076.79 1894.96 1089.67 1907.85 1089.67 1923.8V1987.62C1089.67 2003.58 1076.79 2016.46 1060.83 2016.46Z" fill="white"/>
<path d="M590.395 1899.25C576.897 1899.25 565.853 1910.3 565.853 1923.8V1987.62C565.853 2001.12 576.897 2012.16 590.395 2012.16H1060.83C1074.33 2012.16 1085.38 2001.12 1085.38 1987.62V1923.8C1085.38 1910.3 1074.33 1899.25 1060.83 1899.25H590.395ZM1060.83 2020.75H590.395C572.142 2020.75 557.264 2005.87 557.264 1987.62V1923.8C557.264 1905.54 572.142 1890.66 590.395 1890.66H1060.83C1079.09 1890.66 1093.97 1905.54 1093.97 1923.8V1987.62C1093.97 2005.87 1079.09 2020.75 1060.83 2020.75Z" fill="black"/>
<path d="M877.384 2064.17H773.848V1954.33H877.384V2064.17Z" fill="white"/>
<path d="M778.142 2059.88H873.089V1958.63H778.142V2059.88ZM877.384 2068.47H773.848C771.547 2068.47 769.553 2066.63 769.553 2064.17V1954.33C769.553 1952.03 771.547 1950.04 773.848 1950.04H877.384C879.685 1950.04 881.679 1952.03 881.679 1954.33V2064.17C881.679 2066.63 879.685 2068.47 877.384 2068.47Z" fill="black"/>
<path d="M845.634 2031.8H805.6V1992.38H845.634V2031.8Z" fill="#FF592D" fill-opacity="0.25"/>
<path d="M855.754 2142.25C865.571 2157.9 860.202 2178.61 843.79 2187.36C829.218 2195.03 810.965 2190.12 802.222 2176.16C792.405 2160.51 797.927 2139.8 814.186 2131.06C828.758 2123.39 847.011 2128.29 855.754 2142.25ZM799.461 2102.52L793.479 2106.2C792.099 2106.97 791.485 2108.5 791.945 2110.04L794.706 2118.32C795.013 2119.55 794.706 2120.78 793.786 2121.7C792.712 2122.77 791.638 2123.85 790.718 2124.92C789.798 2125.84 788.571 2126.3 787.344 2125.84L778.6 2123.39C777.373 2122.92 775.993 2123.54 775.379 2124.61L771.545 2131.52C770.931 2132.59 771.238 2134.12 772.158 2135.04L779.061 2141.33C779.981 2141.95 780.288 2143.17 779.981 2144.1C779.521 2145.78 779.061 2147.47 778.754 2149.16C778.447 2150.23 777.68 2151 776.606 2151.31L767.557 2153.45C766.176 2153.76 765.409 2154.83 765.409 2156.21V2164.04C765.563 2165.42 766.483 2166.49 767.71 2166.8L776.913 2168.79C777.834 2168.95 778.754 2169.71 779.061 2170.79C779.367 2172.48 779.828 2174.16 780.441 2175.7C780.748 2176.77 780.441 2177.85 779.674 2178.61L772.925 2185.21C771.851 2185.98 771.698 2187.51 772.465 2188.58L776.453 2195.33C777.067 2196.56 778.447 2197.02 779.674 2196.56L788.571 2193.65C789.644 2193.34 790.718 2193.65 791.485 2194.41C792.712 2195.64 793.786 2196.87 795.166 2197.94C795.933 2198.71 796.24 2199.78 795.933 2200.86L793.326 2209.6C792.865 2210.98 793.632 2212.52 794.86 2213.28L801.148 2216.81C802.529 2217.58 804.063 2217.27 805.136 2216.2L810.965 2209.6C811.732 2208.68 813.113 2208.22 814.186 2208.68C815.72 2208.99 817.254 2209.45 818.788 2209.75C819.862 2210.06 820.782 2210.98 821.089 2212.06L823.236 2220.8C823.543 2222.18 824.77 2223.25 826.304 2223.25L833.513 2223.1C835.047 2223.1 836.274 2222.03 836.581 2220.65L838.421 2212.06C838.728 2210.83 839.649 2209.75 840.876 2209.45C842.256 2209.14 843.637 2208.68 845.017 2208.22C846.398 2207.76 847.778 2208.22 848.545 2209.14L854.374 2215.28C855.601 2216.5 857.288 2216.66 858.669 2215.89L864.497 2212.36C865.878 2211.59 866.491 2209.91 866.031 2208.37L863.424 2200.24C862.963 2199.02 863.27 2197.63 864.344 2196.71C865.418 2195.64 866.338 2194.72 867.258 2193.65C868.179 2192.57 869.559 2192.27 870.786 2192.57L878.916 2195.03C880.449 2195.49 882.137 2194.72 882.904 2193.34L886.125 2187.36C887.045 2185.98 886.738 2184.29 885.511 2183.21L879.222 2177.54C878.149 2176.62 877.842 2175.24 878.149 2174.01C878.609 2172.63 878.916 2171.25 879.222 2169.71C879.529 2168.49 880.45 2167.41 881.83 2167.11L890.113 2165.11C891.647 2164.81 892.72 2163.42 892.72 2161.74L892.567 2154.83C892.567 2153.3 891.34 2151.92 889.806 2151.61L881.523 2149.77C880.296 2149.62 879.222 2148.54 878.916 2147.32C878.609 2145.94 878.149 2144.56 877.689 2143.17C877.382 2141.79 877.689 2140.41 878.609 2139.49L884.744 2133.66C885.971 2132.59 886.125 2130.75 885.358 2129.37L881.83 2123.54C881.063 2122.16 879.376 2121.54 877.842 2122L869.866 2124.77C868.639 2125.07 867.258 2124.77 866.338 2123.85C865.264 2122.77 864.344 2121.7 863.27 2120.78C862.196 2119.86 861.89 2118.48 862.196 2117.25L864.651 2108.96C865.111 2107.43 864.497 2105.9 863.117 2105.13L856.981 2101.75C855.601 2100.99 853.914 2101.29 852.84 2102.37L847.165 2108.81C846.244 2109.89 845.017 2110.19 843.79 2109.89C842.256 2109.43 840.876 2108.96 839.342 2108.81C838.115 2108.5 837.194 2107.58 836.888 2106.2L834.894 2097.77C834.433 2096.39 833.206 2095.31 831.672 2095.31H824.617C823.083 2095.46 821.702 2096.54 821.395 2098.07L819.555 2106.51C819.401 2107.74 818.481 2108.81 817.254 2108.96C815.72 2109.43 814.34 2109.73 812.959 2110.35C811.732 2110.65 810.352 2110.35 809.431 2109.43L803.449 2103.14C802.529 2101.91 800.688 2101.75 799.461 2102.52Z" fill="#FF592D"/>
<path d="M1262.08 2262.53C1260.08 2262.53 1258.24 2261.15 1257.94 2259.15C1257.48 2256.85 1258.86 2254.55 1261.31 2254.09C1351.35 2235.99 1437.55 2204.85 1517.62 2161.43C1519.77 2160.36 1522.37 2161.13 1523.45 2163.27C1524.68 2165.27 1523.91 2167.88 1521.76 2169.1C1440.93 2212.82 1353.8 2244.12 1263 2262.53C1262.69 2262.53 1262.38 2262.53 1262.08 2262.53Z" fill="black"/>
<path d="M1622.69 2173.24C1621.31 2173.24 1619.77 2172.47 1619.01 2171.25C1617.78 2169.25 1618.39 2166.64 1620.39 2165.26C1631.43 2158.21 1642.63 2150.69 1653.67 2143.02C1655.51 2141.64 1658.27 2142.1 1659.66 2144.09C1660.88 2146.09 1660.42 2148.7 1658.58 2150.08C1647.54 2157.75 1636.19 2165.26 1624.99 2172.63C1624.22 2172.93 1623.46 2173.24 1622.69 2173.24Z" fill="black"/>
<path d="M1139.52 2338.47C1137.38 2338.47 1135.54 2336.78 1135.23 2334.63C1134.92 2332.33 1136.76 2330.18 1139.06 2329.87C1336.78 2309.16 1521.92 2228.32 1620.39 2165.27C1622.39 2164.04 1624.99 2164.65 1626.22 2166.65C1627.6 2168.64 1626.99 2171.25 1624.99 2172.63C1525.75 2236.14 1339.08 2317.6 1139.98 2338.47C1139.83 2338.47 1139.68 2338.47 1139.52 2338.47Z" fill="black"/>
<path d="M287.455 476.398C285.308 476.398 283.314 476.858 281.32 477.625C273.65 481.153 270.122 490.358 273.497 498.335C275.184 502.17 278.252 505.085 282.087 506.619C285.768 508.153 289.909 508 293.591 506.312C301.26 502.937 304.788 493.58 301.413 485.602C299.726 481.767 296.658 478.852 292.824 477.318C291.137 476.705 289.296 476.398 287.455 476.398ZM287.455 516.284C284.541 516.284 281.78 515.67 278.866 514.596C272.883 512.295 268.128 507.693 265.674 501.71C260.306 489.591 265.828 475.171 277.792 469.801C283.621 467.193 290.063 467.04 296.045 469.341C302.027 471.642 306.782 476.244 309.236 482.227C314.605 494.5 309.083 508.767 297.119 514.136C294.051 515.517 290.676 516.284 287.455 516.284Z" fill="black"/>
<path d="M294.202 670.768C293.128 670.768 292.054 670.461 291.134 669.541C289.447 668.007 289.447 665.246 290.981 663.558L304.479 649.445C306.166 647.757 308.927 647.604 310.614 649.291C312.301 650.979 312.455 653.587 310.767 655.427L297.269 669.541C296.349 670.308 295.275 670.768 294.202 670.768Z" fill="black"/>
<path d="M246.962 720.162C245.889 720.162 244.815 719.702 243.895 718.935C242.207 717.401 242.207 714.639 243.741 712.952L257.239 698.838C258.927 696.998 261.688 696.998 263.375 698.685C265.062 700.219 265.215 702.98 263.528 704.668L250.03 718.782C249.11 719.702 248.036 720.162 246.962 720.162Z" fill="black"/>
<path d="M260.151 671.533C259.077 671.533 258.003 671.073 257.083 670.306L243.431 656.806C241.744 655.118 241.744 652.357 243.431 650.669C245.119 648.982 247.726 648.982 249.414 650.669L263.218 664.169C264.906 665.857 264.906 668.618 263.218 670.306C262.451 671.073 261.224 671.533 260.151 671.533Z" fill="black"/>
<path d="M308.163 718.785C307.089 718.785 305.862 718.325 305.095 717.558L291.444 704.058C289.756 702.37 289.756 699.609 291.29 697.921C292.977 696.234 295.738 696.234 297.426 697.921L311.077 711.421C312.764 713.109 312.764 715.87 311.23 717.558C310.31 718.325 309.236 718.785 308.163 718.785Z" fill="black"/>
<path d="M2294.07 976.973C2291.62 976.973 2289.77 975.132 2289.77 972.677V950.586C2289.77 948.285 2291.62 946.444 2294.07 946.444C2296.37 946.444 2298.36 948.285 2298.36 950.586V972.677C2298.36 975.132 2296.37 976.973 2294.07 976.973Z" fill="black"/>
<path d="M2294.07 1028.36C2291.62 1028.36 2289.77 1026.52 2289.77 1024.06V1001.97C2289.77 999.67 2291.62 997.676 2294.07 997.676C2296.37 997.676 2298.36 999.67 2298.36 1001.97V1024.06C2298.36 1026.52 2296.37 1028.36 2294.07 1028.36Z" fill="black"/>
<path d="M2279.34 991.698H2257.25C2254.95 991.698 2252.96 989.703 2252.96 987.402C2252.96 984.948 2254.95 983.107 2257.25 983.107H2279.34C2281.79 983.107 2283.63 984.948 2283.63 987.402C2283.63 989.703 2281.79 991.698 2279.34 991.698Z" fill="black"/>
<path d="M2330.73 991.698H2308.79C2306.34 991.698 2304.35 989.703 2304.35 987.402C2304.35 984.948 2306.34 983.107 2308.79 983.107H2330.73C2333.18 983.107 2335.02 984.948 2335.02 987.402C2335.02 989.703 2333.18 991.698 2330.73 991.698Z" fill="black"/>
</svg>
