<svg width="2300" height="2937" viewBox="0 0 2300 2937" fill="none" xmlns="http://www.w3.org/2000/svg">
<path d="M1930.36 2724.42C1930.36 2724.42 1907.63 2649.62 1842.14 2629.34C1804.04 2617.46 1755.34 2627.28 1708.59 2538.15C1675.26 2474.59 1633.28 2252.41 1575.68 2050.39C1395.75 1418.72 1181.59 1079.51 1181.59 1079.51L1040.93 1209.07H696.581C644.011 1550.61 90.9277 2675.85 90.9277 2675.85L563.154 2923.86C563.154 2923.86 597.382 2853.59 563.154 2794.3C528.925 2735.14 428.693 2701.81 721.897 2290.91C849.899 2111.61 944.577 1882.72 1010.58 1681.72C1198.13 2139.39 1414.74 2861.99 1414.74 2861.99L1930.36 2724.42Z" fill="white"/>
<mask id="mask0_94_639" style="mask-type:luminance" maskUnits="userSpaceOnUse" x="77" y="1043" width="1886" height="1894">
<path d="M77.6299 1043.85H1962.4V2936.51H77.6299V1043.85Z" fill="white"/>
</mask>
<g mask="url(#mask0_94_639)">
<path d="M102.946 2671.96L558.51 2911.19C565.872 2891.43 579.951 2841.44 555.28 2798.81C551.664 2792.61 547.143 2786.54 542.493 2780.21C501.419 2724.67 450.399 2655.69 714.541 2285.6C822.91 2133.82 919.525 1929.73 1001.93 1678.87L1009.55 1655.36L1018.98 1678.23C1193.74 2104.63 1396.01 2768.46 1420.94 2851L1918.36 2718.21C1910.22 2698.7 1886.58 2652.59 1839.56 2637.99C1832.59 2635.79 1825.23 2634.37 1817.35 2632.95C1782.99 2626.37 1740.24 2618.23 1700.45 2542.4C1680.18 2503.65 1657.83 2412.19 1629.67 2296.33C1611.2 2220.5 1590.28 2134.6 1566.9 2052.83C1405.57 1486.66 1214.8 1152.62 1179.66 1093.71L1044.56 1218.24H704.337C647.892 1550.47 152.028 2571.34 102.946 2671.96ZM567.293 2936.25L78.792 2679.84L82.6669 2671.83C88.221 2660.6 635.75 1544.02 687.674 1207.77L688.837 1200.02H1037.45L1183.54 1065.42L1189.35 1074.6C1191.42 1077.95 1406.22 1422.2 1584.46 2047.92C1607.84 2129.95 1628.9 2216.11 1647.37 2292.06C1674.23 2402.12 1697.35 2497.19 1716.6 2534.01C1752.38 2602.08 1787.12 2608.67 1820.84 2615.13C1829.1 2616.68 1837.11 2618.23 1844.86 2620.68C1914.22 2642.12 1938.12 2718.6 1939.15 2721.82L1941.86 2730.74L1408.54 2873.09L1406.09 2864.56C1403.89 2857.46 1194.65 2160.95 1011.36 1707.94C930.246 1949.88 835.309 2147.65 729.394 2296.2C472.873 2655.56 521.569 2721.31 557.089 2769.36C562.126 2776.21 566.905 2782.67 571.039 2789.77C607.334 2852.42 572.847 2924.76 571.297 2927.86L567.293 2936.25Z" fill="black"/>
</g>
<path d="M527.117 2637.09C413.323 2584.26 296.816 2537.24 183.797 2482.6C127.998 2600.4 90.9277 2675.84 90.9277 2675.84L563.154 2923.86C563.154 2923.86 597.382 2853.58 563.154 2794.29C543.133 2759.8 500.896 2733.97 527.117 2637.09Z" fill="black"/>
<path d="M1007.74 1667.12C1006.71 1667.12 1005.55 1666.86 1004.51 1666.48C999.865 1664.67 997.54 1659.37 999.348 1654.72C1044.04 1540.79 1058.76 1460.44 1058.89 1459.67L1059.93 1454.24L1143.75 1429.06C1148.53 1427.63 1153.57 1430.35 1155.12 1435.13C1156.54 1439.91 1153.83 1445.07 1148.92 1446.49L1075.68 1468.45C1071.55 1488.6 1055.02 1562.88 1016.27 1661.31C1014.85 1664.93 1011.49 1667.12 1007.74 1667.12Z" fill="black"/>
<path d="M1257.68 84.7416C1227.2 56.4525 1188.32 39.4015 1146.85 43.1476C1060.06 51.0272 996.894 135.636 1005.68 232.129C1005.68 232.517 1005.68 232.646 1005.81 233.034C1006.71 243.109 1008.65 252.797 1011.1 262.098C977.003 285.995 982.945 336.631 1010.46 362.337C1034.87 385.071 1068.32 392.047 1101.26 373.962C1125.16 386.105 1151.63 392.822 1178.63 392.564C1302.11 391.918 1347.06 300.333 1319.94 203.711C1307.92 160.825 1291.13 115.485 1257.68 84.7416Z" fill="white"/>
<path d="M1101 363.755L1105.39 365.951C1128.38 377.577 1153.31 383.131 1178.63 383.519C1230.29 383.261 1270.33 366.339 1294.23 334.562C1318.77 302.139 1324.97 255.378 1311.15 206.163C1300.04 166.248 1284.15 121.425 1251.48 91.4562C1220.61 62.9087 1183.79 48.9579 1147.76 52.1873C1111.33 55.4166 1077.75 73.501 1053.08 103.082C1024.4 137.313 1010.45 184.074 1014.72 231.352L1014.85 232.902C1015.62 240.911 1017.3 250.082 1019.88 259.77L1021.56 265.97L1016.4 269.587C1001.67 279.792 997.667 294.518 996.892 304.981C995.6 323.324 1003.35 343.217 1016.65 355.746C1040.03 377.448 1069.22 381.194 1096.87 366.08L1101 363.755ZM1177.72 401.732C1151.76 401.732 1125.41 395.661 1101.26 384.165C1067.93 400.441 1032.02 394.886 1004.25 369.051C986.817 352.646 977 327.587 978.68 303.689C979.971 285.476 987.85 269.717 1000.9 258.608C998.829 250.082 997.408 241.944 996.634 233.935L996.504 232.256C991.854 180.974 1007.35 129.433 1039.13 91.4562C1066.9 58.1293 1104.87 37.8489 1146.08 34.1029C1187.41 30.3568 1229.26 45.9869 1263.88 78.1513C1300.17 111.349 1317.61 161.469 1328.72 201.254C1344.09 256.024 1336.72 308.598 1308.82 345.542C1281.31 381.969 1236.36 401.345 1178.76 401.732H1177.72Z" fill="black"/>
<path d="M1206.91 219.08C1204.97 225.409 1198.13 229.026 1191.67 226.959C1185.34 225.022 1181.73 218.175 1183.79 211.846C1185.86 205.387 1192.58 201.899 1199.03 203.966C1205.36 205.904 1208.98 212.75 1206.91 219.08Z" fill="black"/>
<path d="M1287.64 258.734C1281.57 232.382 1271.88 207.193 1258.58 183.425C1254.7 176.708 1243.98 182.262 1247.73 189.109C1260.65 211.843 1269.95 235.999 1275.89 261.446C1277.57 269.068 1289.45 266.355 1287.64 258.734Z" fill="black"/>
<path d="M1095.31 306.145C1074.78 286.253 1043.13 282.377 1018.85 298.007C1012.39 302.141 1017.94 312.862 1024.4 308.729C1044.04 296.199 1069.35 297.878 1086.27 314.154C1091.83 319.579 1100.87 311.441 1095.31 306.145Z" fill="black"/>
<path d="M1073.75 247.495C1100.1 265.45 1098.16 217.268 1145.82 158.882C1167 133.047 1305.34 81.3771 1291.91 30.7408C1272.27 -43.4051 1188.31 39.3955 1146.98 43.1415C1060.05 50.892 964.731 147.773 1009.94 272.167C1009.94 272.426 1059.67 246.074 1073.75 247.495Z" fill="black"/>
<path d="M1018.46 184.198C1039.65 157.072 1036.42 153.067 1065.74 134.854C1040.42 43.14 889.427 -52.0614 786.999 59.8034C740.5 110.569 752.512 196.986 752.641 203.316C688.834 195.695 615.468 220.625 581.369 273.07C531.511 349.799 583.694 446.551 664.163 474.323C752.125 504.679 855.198 468.123 923.139 404.698C1030.99 304.201 957.884 157.976 968.992 152.292C983.329 145.058 1007.1 170.893 1018.46 184.198Z" fill="black"/>
<path d="M2016.77 736.939C1994.17 906.158 1796.42 1128.21 1562.89 1104.05C1365.4 1083.64 1245.4 924.371 1253.8 877.223C1276.27 749.469 1213.63 660.856 1211.82 554.546C1210.79 492.284 1211.56 451.077 1211.56 451.077C1250.57 457.536 1284.67 473.295 1314.38 495.255C1439.02 587.356 1520.52 795.843 1614.43 808.631C1744.88 826.328 1823.8 643.159 1878.31 529.098L2016.77 736.939Z" fill="white"/>
<path d="M1598.67 1115.03C1586.53 1115.03 1574.39 1114.39 1561.99 1113.1C1429.59 1099.4 1328.84 1023.71 1278.6 957.312C1253.8 924.502 1241.4 894.662 1244.76 875.674C1257.8 801.915 1241.4 740.816 1225.64 681.654C1214.79 641.094 1203.55 599.112 1202.78 554.676C1201.75 493.06 1202.39 451.337 1202.52 450.82L1202.65 440.357L1212.98 442.036C1251.22 448.366 1287.12 463.867 1319.8 487.893C1377.28 530.391 1426.36 597.949 1469.63 657.499C1520.27 727.382 1568.06 793.261 1615.72 799.719C1732.48 815.608 1806.62 658.92 1860.87 544.73L1870.17 525.224L1886.58 533.104L1877.41 552.48C1820.7 671.837 1743.08 835.242 1613.26 817.675C1557.85 810.183 1510.19 744.304 1454.91 668.22C1410.35 606.862 1364.24 543.309 1308.95 502.49C1281.7 482.339 1251.99 468.775 1220.47 461.929C1220.35 478.076 1220.22 511.403 1220.99 554.418C1221.64 596.528 1232.1 635.668 1243.21 677.004C1259.61 737.974 1276.4 801.011 1262.71 878.774C1260.9 888.979 1267.75 912.876 1293.19 946.332C1341.11 1009.63 1437.34 1081.96 1563.79 1095.01C1798.62 1119.43 1986.55 894.921 2007.86 735.778L2025.82 738.233C2004.76 895.825 1826.64 1115.03 1598.67 1115.03Z" fill="black"/>
<path d="M1660.28 806.564C1645.82 809.923 1630.44 810.827 1614.43 808.631C1520.53 795.843 1439.02 587.356 1314.38 495.255C1284.54 473.295 1250.57 457.536 1211.56 451.077C1211.56 451.077 1210.79 492.284 1211.95 554.546C1213.63 660.856 1276.28 749.469 1253.8 877.223C1245.4 924.371 1350.67 1110.77 1548.04 1131.18C1596.73 1136.22 1642.72 1133.37 1685.47 1124.33C1681.85 1088.29 1669.06 868.051 1660.28 806.564Z" fill="black"/>
<path d="M1220.47 461.929C1220.35 478.076 1220.22 511.403 1220.99 554.418C1221.64 596.528 1232.1 635.668 1243.21 677.004C1259.61 737.974 1276.4 801.011 1262.71 878.774C1259.74 895.437 1275.11 937.419 1309.34 982.63C1337.63 1020.09 1417.71 1108.57 1549.07 1122.14C1592.08 1126.66 1634.58 1124.85 1675.78 1116.97C1674.49 1101.6 1672.55 1073.96 1670.23 1040.5C1665.06 965.191 1658.21 863.79 1652.53 817.287C1639.61 819.354 1626.44 819.483 1613.26 817.675C1557.85 810.182 1510.19 744.304 1454.91 668.22C1410.35 606.862 1364.24 543.309 1308.95 502.49C1281.7 482.339 1251.99 468.775 1220.47 461.929ZM1595.18 1142.68C1579.29 1142.68 1563.28 1141.9 1547.13 1140.22C1408.8 1125.88 1324.58 1032.88 1294.74 993.481C1261.03 948.915 1240.37 900.346 1244.76 875.674C1257.8 801.915 1241.53 740.816 1225.64 681.654C1214.79 641.094 1203.55 599.112 1202.78 554.676C1201.62 493.06 1202.39 451.337 1202.39 450.82L1202.65 440.357L1212.98 442.036C1251.22 448.366 1287.12 463.867 1319.8 487.893C1377.28 530.391 1426.36 597.949 1469.63 657.499C1520.27 727.382 1568.06 793.261 1615.72 799.719C1630.06 801.657 1644.39 801.011 1658.21 797.653L1667.9 795.457L1669.32 805.274C1675.26 846.61 1682.88 957.958 1688.44 1039.21C1691.15 1079.64 1693.35 1111.55 1694.51 1123.43L1695.41 1131.44L1687.41 1133.12C1657.31 1139.58 1626.44 1142.68 1595.18 1142.68Z" fill="black"/>
<path d="M1861 688.594C1912.97 749.646 1887.94 781.409 1935.04 846.414C2145 728.003 2262.45 569.283 2190.02 525.678C2190.02 525.678 2191.98 494.148 2146.74 472.577C2146.74 472.577 2139.49 445.94 2115.64 435.222C2107.1 431.39 2099.17 430.946 2091.03 432.972C2090.92 432.539 2090.98 432.097 2090.96 431.747C2087.55 398.229 2007.47 420.171 1975.28 447.74C1936.71 480.749 1925.78 524.883 1927.68 562.697C1889.34 595.079 1919.72 658.167 1861 688.594Z" fill="white"/>
<path d="M2119.15 427.216C2125.09 429.875 2130.02 433.292 2134.26 437.096C2145.62 447.271 2151.49 460.027 2153.77 466.397C2189.98 484.864 2197.05 509.843 2198.35 520.831C2212.88 531.183 2220.39 546.57 2220.2 565.539C2219.26 641.427 2101.26 762.698 1939.4 853.985L1932.59 857.869L1927.94 851.541C1895.37 806.542 1857.84 763.922 1821.45 722.819C1814.04 714.418 1806.66 706.035 1799.29 697.626L1863 679.095C1876.41 694.774 1820.95 695.901 1834.6 711.303C1869.42 750.824 1905.53 791.679 1937.48 834.956C2102.83 740.142 2202.06 623.849 2202.72 565.356C2202.98 550.772 2197.31 540.198 2185.51 533.121L2180.89 530.477L2181.21 525.106C2181.24 524.138 2181.71 498.922 2142.96 480.506L2139.35 478.773L2138.26 474.795C2138.25 474.62 2131.74 451.98 2112.04 443.142C2105.65 440.244 2099.82 439.686 2093.16 441.367L2083.03 443.941L2082.22 432.399C2082 430.041 2081.07 427.372 2076.31 425.438C2057.1 417.713 2005.39 433.449 1980.99 454.359C1939.32 490.083 1935.15 537.271 1936.34 562.308L1936.49 566.601L1933.31 569.408C1902.43 595.501 1922.86 647.026 1863 679.095L1799.29 697.626C1847 675.595 1855.55 685.596 1847 675.595L1879 682.595L1906 675.595C1966.69 644.27 1886.71 585.566 1918.77 558.707C1918.14 529.688 1924.62 479.566 1969.56 441.117C1996.64 417.954 2055.42 398.232 2082.8 409.283C2089.89 412.143 2095.07 416.95 2097.69 423.126C2104.95 422.64 2112.04 424.007 2119.15 427.216Z" fill="black"/>
<path d="M2073.25 553.841C2102.98 535.886 2127.15 512.443 2146.55 483.556C2150.69 477.449 2140.23 472.229 2136.18 478.42C2117.99 505.397 2094.78 527.207 2066.91 544.006C2060.46 547.871 2066.87 557.614 2073.25 553.841Z" fill="black"/>
<path d="M2121.29 599.393C2115.49 604.012 2121.72 613.764 2127.53 609.145C2149.48 591.704 2166.83 570.303 2183.79 548.22C2188.39 542.351 2179.71 534.576 2175.12 540.445C2158.81 561.614 2142.31 582.617 2121.29 599.393Z" fill="black"/>
<path d="M1985.78 480.955C1995.99 492.596 2010.07 490.069 2022.73 484.109C2044.21 474.067 2063.54 459.93 2081.02 444.139C2086.54 439.097 2077.86 431.321 2072.34 436.363C2059.8 447.759 2010.7 491.966 1993.47 472.37C1988.6 466.669 1980.91 475.428 1985.78 480.955Z" fill="black"/>
<path d="M1878.44 529.098C1924.94 423.434 2058.37 358.847 2078.65 419.429C2098.8 479.883 2003.22 497.838 2003.22 497.838C2003.22 497.838 2009.8 630.888 1965.37 658.272L1878.44 529.098Z" fill="white"/>
<path d="M1965.37 667.315C1962.27 667.315 1959.3 665.765 1957.62 663.052C1955.04 658.789 1956.33 653.106 1960.59 650.522C1993.27 630.371 1995.85 533.878 1994.17 498.355L1993.79 490.475L2001.54 488.925C2002.05 488.796 2051.91 479.108 2067.8 452.24C2072.97 443.327 2073.74 433.509 2069.99 422.271C2066.38 411.421 2058.11 405.866 2044.68 405.22C1998.7 403.154 1919.52 458.44 1886.71 532.844C1884.77 537.366 1879.35 539.432 1874.7 537.495C1870.18 535.428 1867.98 530.132 1870.05 525.481C1906.21 443.327 1992.37 384.94 2045.45 387.007C2066.38 388.04 2081.23 398.503 2087.3 416.458C2092.73 432.734 2091.44 447.848 2083.43 461.411C2067.54 488.408 2029.18 500.809 2012.65 505.072C2013.42 536.203 2012.9 639.671 1970.15 666.023C1968.6 666.927 1967.05 667.315 1965.37 667.315Z" fill="black"/>
<path d="M1211.56 451.077C940.705 481.562 823.682 713.947 729.133 979.658C634.585 1245.24 647.501 1228.58 647.501 1228.58L1294.75 1247.31C1294.75 1247.31 1194.77 1035.85 1253.41 939.614C1311.92 843.379 1501.02 569.53 1211.56 451.077Z" fill="black"/>
<path d="M657.835 1219.79L1280.54 1237.75C1259.35 1188.92 1193.22 1020.99 1245.66 934.963C1248.63 929.925 1251.99 924.629 1255.48 918.816C1301.59 844.412 1387.36 705.937 1350.03 591.618C1331.82 535.428 1284.8 491.25 1210.27 460.377C934.247 492.8 821.616 746.886 737.788 982.629C679.018 1147.58 662.485 1201.97 657.835 1219.79ZM1309.34 1256.74L651.893 1237.88L649.956 1240.33L642.852 1236.84C634.068 1231.93 630.323 1230 720.609 976.557C806.503 735.002 922.364 474.457 1210.53 442.035L1212.86 441.776L1215.05 442.681C1295.91 475.749 1347.19 523.931 1367.34 586.064C1407.25 708.263 1318.64 851.388 1270.98 928.375C1267.49 934.059 1264.13 939.484 1261.16 944.264C1205.88 1035.33 1301.98 1241.36 1303.01 1243.43L1309.34 1256.74Z" fill="black"/>
<path d="M1260.39 917.268C1258.06 917.268 1255.87 916.493 1254.06 914.684C1250.44 911.197 1250.31 905.513 1253.93 901.896C1311.92 842.734 1362.3 713.431 1346.54 580.898C1345.9 575.99 1349.51 571.469 1354.55 570.823C1359.46 570.306 1363.98 573.794 1364.62 578.831C1381.03 716.919 1327.94 852.293 1266.98 914.555C1265.17 916.363 1262.71 917.268 1260.39 917.268Z" fill="white"/>
<path d="M0 693.274H1182.12V1387.71H0V693.274Z" fill="#FF592D"/>
<path d="M145.309 1244.85C140.272 1244.85 136.139 1240.85 136.139 1235.81V894.661C136.139 889.623 140.272 885.619 145.309 885.619C150.347 885.619 154.351 889.623 154.351 894.661V1235.81C154.351 1240.85 150.347 1244.85 145.309 1244.85Z" fill="black"/>
<path d="M264.143 1244.85C259.106 1244.85 255.102 1240.85 255.102 1235.81V1022.16C255.102 1017.12 259.106 1013.11 264.143 1013.11C269.181 1013.11 273.314 1017.12 273.314 1022.16V1235.81C273.314 1240.85 269.181 1244.85 264.143 1244.85Z" fill="black"/>
<path d="M1001.03 1055.35C998.573 1055.35 996.248 1054.32 994.44 1052.51C990.953 1048.9 991.082 1043.21 994.698 1039.72L1081.88 956.019L944.195 867.147C939.933 864.434 938.77 858.88 941.483 854.617C944.195 850.354 949.878 849.192 954.012 851.905L1111.08 953.306L1007.36 1052.77C1005.55 1054.45 1003.22 1055.35 1001.03 1055.35Z" fill="black"/>
<path d="M635.619 756.96L339.832 962.476L133.814 667.701L429.472 462.185L635.619 756.96Z" fill="white"/>
<path d="M146.474 669.899L342.159 949.948L622.963 754.766L427.149 474.717L146.474 669.899ZM337.638 975.137L121.158 665.378L431.67 449.528L648.279 759.287L337.638 975.137Z" fill="black"/>
<path d="M374.447 633.345L546.365 400.057C546.365 400.057 636.652 491.383 596.74 588.909C546.365 712.27 374.447 633.345 374.447 633.345Z" fill="#FF592D"/>
<path d="M145.311 477.3C145.311 497.322 129.036 513.598 108.886 513.598C88.7367 513.598 72.4619 497.322 72.4619 477.3C72.4619 457.278 88.7367 441.002 108.886 441.002C129.036 441.002 145.311 457.278 145.311 477.3Z" fill="#FF592D"/>
<path d="M666.358 1050.19C583.563 1038.95 499.865 1032.62 418.103 1014.92C337.505 1252.86 356.75 1457.73 443.291 1441.2C443.291 1441.2 463.699 1467.03 513.815 1452.3C513.815 1452.3 537.968 1467.93 563.93 1459.67C573.23 1456.7 579.689 1451.53 584.597 1444.3C584.984 1444.55 585.243 1444.94 585.501 1445.2C611.463 1468.84 658.35 1396.11 664.162 1352.32C671.137 1299.88 648.921 1258.03 621.15 1230C628.384 1178.2 641.946 1114.64 666.358 1050.19Z" fill="white"/>
<path d="M515.238 1442.36L518.855 1444.68C518.984 1444.81 539.779 1457.86 561.221 1451.01C568.196 1448.82 573.104 1445.2 577.108 1439.26L583.179 1430.22L591.833 1438.61C593.641 1440.29 596.224 1441.71 601.262 1439.9C621.541 1432.54 650.732 1384.36 655.124 1351.16C662.615 1294.45 633.036 1254.93 614.695 1236.33L611.595 1233.1L612.112 1228.7C617.924 1186.98 629.807 1124.2 653.961 1057.68C632.649 1054.84 611.337 1052.38 590.025 1049.93C535.517 1043.47 479.072 1036.88 424.177 1025.51C361.791 1214.11 365.665 1373.38 405.836 1419.24C415.781 1430.73 427.535 1435 441.614 1432.28L447.039 1431.12L450.527 1435.51C451.172 1436.29 468.351 1456.18 511.234 1443.52L515.238 1442.36ZM548.175 1471.16C532.288 1471.16 518.855 1465.35 512.655 1461.99C471.71 1472.84 448.847 1458.38 440.193 1450.75C421.723 1452.82 405.19 1446.1 392.144 1431.25C340.091 1371.7 347.324 1195.51 409.452 1012.08L412.036 1004.33L420.044 1006.01C476.618 1018.28 535.388 1025.26 592.22 1031.84C617.407 1034.81 642.465 1037.79 667.653 1041.14L678.89 1042.69L674.886 1053.42C649.569 1119.94 637.04 1183.75 630.841 1226.9C651.507 1248.98 681.344 1292.39 673.207 1353.49C668.298 1390.3 636.395 1446.49 607.462 1456.96C599.97 1459.67 592.608 1459.54 586.279 1456.57C580.983 1461.99 574.525 1465.87 566.775 1468.32C560.317 1470.39 554.117 1471.16 548.175 1471.16Z" fill="black"/>
<path d="M1211.57 451.077C1211.57 451.077 1197.62 492.801 1159.77 549.766C1113.79 619.004 889.299 744.044 768.401 875.544C711.956 937.03 677.082 1013.89 653.832 1085.97C575.3 1061.81 429.99 1042.95 349.778 1025C359.595 995.159 370.961 964.803 384.007 934.189C517.951 620.295 809.605 453.661 1068.19 441.26C1117.53 438.806 1165.84 442.164 1211.57 451.077Z" fill="black"/>
<path d="M361.662 1018.28C390.595 1024.48 426.761 1030.68 464.735 1037.4C530.868 1048.89 599.196 1060.78 648.02 1074.73C676.695 988.57 714.023 921.27 761.814 869.342C825.621 799.976 917.07 733.063 997.669 674.16C1069.23 621.715 1131.23 576.375 1152.15 544.728C1178.37 505.329 1192.97 473.294 1199.17 458.052C1157.19 450.689 1113.4 448.105 1068.71 450.301C848.096 460.894 538.747 594.976 392.403 937.675C381.424 963.51 371.22 989.991 361.662 1018.28ZM659.774 1097.33L651.249 1094.62C603.2 1079.9 528.026 1066.85 461.635 1055.22C419.011 1047.86 378.712 1040.76 347.712 1033.91L337.896 1031.71L341.125 1022.16C351.845 989.732 363.212 959.764 375.741 930.571C525.313 580.121 842.025 443.068 1067.81 432.217C1117.79 429.763 1166.75 433.121 1213.24 442.163L1223.45 444.101L1220.22 453.918C1219.57 455.597 1205.49 497.45 1167.39 554.803C1144.53 589.163 1081.5 635.279 1008.39 688.757C928.436 747.273 837.892 813.539 775.118 881.614C727.715 933.283 690.903 1000.97 662.486 1088.68L659.774 1097.33Z" fill="black"/>
<path d="M514.332 1338.12C503.741 1372.74 501.287 1407.74 506.324 1443.65C507.357 1451.27 519.111 1448.04 517.949 1440.42C513.299 1406.84 516.141 1373.77 526.086 1341.35C528.411 1333.85 516.657 1330.75 514.332 1338.12Z" fill="black"/>
<path d="M445.362 1336.18C446.653 1328.56 435.028 1325.33 433.737 1332.95C428.829 1361.76 430.249 1390.43 432.445 1419.37C432.962 1427.12 445.103 1427.12 444.587 1419.37C442.52 1391.6 440.712 1363.82 445.362 1336.18Z" fill="black"/>
<path d="M632.908 1333.85C616.891 1331.91 607.72 1343.67 602.037 1357.1C592.35 1379.84 587.183 1404.25 584.6 1428.66C583.825 1436.41 595.966 1436.41 596.741 1428.66C598.55 1411.1 605.912 1342.63 632.908 1345.86C640.657 1346.9 640.528 1334.75 632.908 1333.85Z" fill="black"/>
<path d="M1314.38 495.255C1313.99 496.159 1313.47 496.934 1312.96 497.838C1310.89 501.455 1308.44 505.072 1305.72 508.172C1283.77 536.978 1247.6 551.575 1211.82 554.546C1210.27 554.804 1208.72 554.804 1207.17 554.933C1190.64 555.967 1174.62 554.029 1159.77 549.766C1124.38 539.691 1095.44 516.181 1080.07 485.954C1072.97 472.262 1068.84 457.149 1068.19 441.26C1117.53 438.806 1165.84 442.164 1211.56 451.077C1250.57 457.536 1284.54 473.295 1314.38 495.255Z" fill="white"/>
<path d="M1313.86 495.9H1313.99L1313.86 495.771V495.9ZM1078.13 449.914C1079.56 461.023 1082.91 471.744 1088.08 481.82C1102.55 510.109 1129.54 531.681 1162.22 540.982C1176.56 545.244 1191.41 546.794 1206.65 545.89C1207.94 545.761 1209.24 545.761 1210.53 545.503C1248.24 542.402 1280.02 526.772 1298.49 502.746C1299.91 501.067 1301.07 499.387 1302.24 497.708C1273.82 478.074 1242.82 465.415 1210.01 459.989C1167.65 451.722 1123.34 448.364 1078.13 449.914ZM1198.52 564.362C1184.31 564.362 1170.49 562.295 1157.18 558.42C1119.6 547.699 1088.47 522.768 1071.93 489.958C1064.18 474.844 1059.79 458.568 1059.15 441.647L1058.76 432.604L1067.8 432.217C1117.79 429.763 1166.74 433.121 1213.24 442.163C1251.22 448.364 1287.12 463.865 1319.8 487.891L1325.23 492.025L1322.9 498.354C1322.51 499.387 1322 500.421 1321.35 501.325C1318.51 506.492 1315.67 510.496 1312.83 513.984C1291.39 541.886 1254.83 559.97 1212.59 563.587C1211.43 563.716 1209.62 563.845 1207.82 563.974C1204.72 564.233 1201.62 564.362 1198.52 564.362Z" fill="black"/>
<path d="M1708 2531.59L1352 2631.59L1376 2709.59L1422 2853.59L1806 2753.59L1930 2721.59L1858 2631.59L1756 2607.59L1708 2531.59Z" fill="black" stroke="black"/>
<path d="M2020 776.095L1956 870.595L1852 814.595C1816.67 798.928 1749 764.995 1761 754.595C1773 744.195 1826.67 655.595 1852 612.595L1882 540.595L1892 524.595L1948 531.595V646.595L2020 776.095Z" fill="white"/>
</svg>
