<svg width="2110" height="2751" viewBox="0 0 2110 2751" fill="none" xmlns="http://www.w3.org/2000/svg">
<mask id="mask0_189_428" style="mask-type:alpha" maskUnits="userSpaceOnUse" x="0" y="0" width="2110" height="2751">
<rect width="1447.67" height="2750.57" transform="matrix(-1 0 0 1 1447.67 0)" fill="#D9D9D9"/>
<rect width="1433.47" height="1013.37" transform="matrix(-1 0 0 1 2110 149.594)" fill="#D9D9D9"/>
</mask>
<g mask="url(#mask0_189_428)">
<mask id="mask1_189_428" style="mask-type:luminance" maskUnits="userSpaceOnUse" x="506" y="323" width="2113" height="2286">
<path d="M2618.95 323.157H506.211V2608.91H2618.95V323.157Z" fill="white"/>
</mask>
<g mask="url(#mask1_189_428)">
<path d="M1722.34 957.292L1726.38 960.628L1726.66 955.427C1726.76 954.348 1726.76 953.661 1726.76 952.974C1726.76 952.288 1726.86 950.816 1725.7 949.54L1725.13 948.952C1724.74 948.559 1724.36 948.068 1723.88 947.676C1723.11 946.891 1722.34 946.106 1721.57 945.321C1719.64 943.751 1718.78 943.064 1716.66 941.593C1714.84 940.415 1712.91 939.336 1710.99 938.355C1710.41 938.06 1709.84 937.766 1709.26 937.57L1706.95 936.491L1706.76 936.687C1706.76 936.687 1706.66 936.687 1706.57 936.687L1705.8 936.294L1705.22 936.392L1704.45 935.509L1702.43 937.177C1702.34 937.177 1702.24 937.276 1702.05 937.472C1701.47 937.962 1701.09 938.257 1700.8 938.551L1700.41 938.845L1700.51 938.944L1700.22 939.238C1699.65 939.925 1699.45 940.317 1699.16 940.612C1698.68 941.396 1698.3 942.181 1697.82 942.966L1695.9 946.499L1699.84 946.989C1704.07 947.578 1708.49 949.344 1711.86 950.914C1715.7 952.582 1719.26 954.839 1722.34 957.292ZM1710.8 970.047C1707.63 968.869 1704.16 968.379 1700.99 967.986C1697.82 967.594 1695.03 967.692 1692.43 968.183L1685.9 969.458L1689.74 963.964C1689.93 963.669 1690.13 963.375 1690.22 963.08C1690.99 960.824 1691.86 958.567 1692.82 956.31L1685.41 953.171L1694.84 952.386L1695.13 951.797L1698.2 951.895L1698.4 952.288C1698.59 952.288 1698.59 952.288 1698.78 952.386C1699.36 952.484 1700.03 952.582 1700.61 952.68C1701.86 952.974 1703.01 953.269 1704.26 953.661C1706.66 954.446 1708.49 955.133 1710.51 956.212C1715.32 958.567 1718.97 961.118 1721.76 964.062L1722.91 963.669L1723.2 965.828L1724.45 967.201L1723.49 967.79C1723.49 968.869 1723.39 969.851 1723.3 970.734L1722.63 978.485L1718.59 974.855C1716.47 972.892 1713.88 971.224 1710.8 970.047ZM1717.53 935.804C1712.82 932.86 1707.24 930.113 1702.53 931.29L1697.05 933.155L1698.3 928.347C1698.68 926.777 1699.07 925.501 1699.65 924.52C1700.22 923.343 1700.99 922.067 1702.15 921.086L1702.05 920.694L1704.36 919.811L1705.32 922.362L1704.93 919.811L1705.61 921.969L1705.41 919.614C1705.41 919.614 1705.41 919.614 1705.51 919.614L1708.01 919.516V919.811C1708.78 920.007 1709.55 920.203 1710.51 920.497C1712.63 921.184 1714.65 922.067 1716.76 922.852C1720.8 924.618 1725.32 926.679 1728.39 929.72C1729.74 931.094 1730.61 932.37 1731.18 933.841H1731.47L1731.86 936.294V936.392L1729.93 936.687H1731.86V938.355L1731.47 939.63L1730.03 939.238L1731.47 939.925C1731.28 940.317 1731.18 940.71 1731.09 941.102L1730.32 946.302L1726.57 942.672C1723.97 940.121 1720.99 937.864 1717.53 935.804ZM1689.55 989.18L1692.82 988.493L1692.91 989.376L1691.38 1005.47L1687.63 990.161L1687.53 989.67V989.278L1689.55 989.18ZM1797.82 709.348L1798.68 704.737L1802.14 707.876C1803.01 708.661 1803.87 709.446 1804.55 710.427C1807.62 714.254 1808.1 719.356 1805.89 724.949L1804.74 727.991L1802.05 726.323C1800.03 725.145 1798.1 723.968 1796.09 722.888L1793.87 721.809L1794.84 719.552C1796.18 716.02 1797.14 712.684 1797.82 709.348ZM1830.03 613.978L1831.85 626.242C1833.01 634.288 1834.64 641.647 1836.76 648.319L1838.97 655.187L1832.91 651.557C1829.35 649.496 1825.6 647.436 1821.37 645.474L1818.68 644.296L1820.22 641.647C1822.72 637.428 1824.64 632.522 1826.66 625.85L1830.03 613.978ZM1847.05 669.414L1849.45 673.045L1845.03 674.32C1844.45 674.418 1843.78 674.615 1843.2 674.811C1841.95 675.301 1840.6 675.89 1839.35 676.577L1837.62 677.46L1836.28 676.086C1834.93 674.811 1833.39 673.633 1831.85 672.554L1830.8 671.769C1827.62 669.316 1824.35 666.961 1820.99 664.901C1815.8 661.565 1810.6 658.425 1805.22 656.463L1802.53 655.482L1803.68 652.832C1804.45 651.164 1805.03 649.398 1805.6 647.632L1806.47 645.081L1809.07 645.964C1826.66 652.538 1838.78 660.093 1847.05 669.414ZM1859.06 721.613L1858.58 725.439C1858.49 726.421 1858.3 727.402 1858.1 728.285L1857.05 731.817L1842.43 727.206L1839.64 726.911L1839.45 724.753C1839.16 720.926 1838.3 717.099 1836.85 713.665L1833.39 705.227L1835.12 706.405L1835.8 703.559L1834.45 703.854L1835.6 699.536C1836.28 697.182 1837.14 694.827 1838.01 692.57C1838.68 690.804 1839.26 689.038 1839.83 687.272L1840.99 682.66L1841.18 681.679L1841.28 681.581L1841.57 680.305L1844.83 679.619L1845.22 680.109L1849.74 678.343L1843.39 700.223L1844.35 700.91L1843.78 701.499L1843.2 700.812L1842.82 701.989L1841.37 702.382C1840.6 702.578 1839.83 702.774 1838.68 702.971L1836.85 703.363L1835.32 706.503L1840.8 710.329C1841.18 710.624 1841.28 710.722 1841.37 710.722L1859.83 714.352L1859.55 716.903C1859.35 718.473 1859.16 720.043 1859.06 721.613ZM1768.68 712.292L1767.91 713.96L1766.09 713.763C1761.66 713.273 1757.24 713.175 1752.91 713.567L1748.3 713.862L1750.41 709.643C1753.39 703.461 1759.84 699.733 1768.97 698.751L1773.59 698.261L1771.66 702.578L1771.28 703.167C1771.18 703.363 1771.18 703.559 1771.18 703.854C1771.18 703.952 1771.18 704.05 1771.18 704.246C1770.8 706.405 1770.22 708.759 1769.26 711.114C1769.07 711.507 1768.87 711.899 1768.68 712.292ZM1821.95 743.689C1818.68 739.47 1814.93 735.742 1810.7 732.308L1809.07 730.934L1809.93 729.07C1811.57 725.439 1814.93 716.315 1809.74 708.465C1804.84 701.106 1795.51 697.182 1788.59 695.121C1778.59 692.276 1763.97 691.981 1753.87 698.065C1748.59 701.303 1745.13 706.012 1743.88 711.997V712.488L1743.78 714.745L1741.76 715.137C1740.51 715.431 1739.36 715.726 1738.2 716.02L1736.28 716.511L1734.93 714.352C1729.84 708.858 1734.16 699.536 1737.14 695.415C1740.89 690.117 1746.76 686.094 1754.16 683.936C1761.37 681.875 1769.36 681.385 1777.43 682.366L1780.7 677.362C1773.01 676.184 1765.41 676.086 1758.49 677.362L1753.2 678.343L1755.61 673.437C1757.72 669.12 1759.36 664.705 1760.41 660.093L1760.89 657.836L1762.05 657.248C1763.39 656.561 1763.78 656.365 1765.32 655.874C1766.09 655.678 1766.76 655.482 1767.53 655.285L1769.07 654.991C1770.51 654.795 1771.95 654.795 1773.3 654.893C1775.03 654.893 1775.51 654.991 1776.95 655.285C1779.55 655.776 1782.14 656.463 1785.12 657.444L1785.6 657.542C1786.66 657.934 1787.72 658.229 1789.07 658.719L1790.7 659.701C1790.99 659.995 1791.18 660.191 1791.28 660.289L1793.49 661.957L1791.95 665.391C1791.66 666.078 1791.28 666.863 1790.99 667.648C1790.51 668.924 1790.03 670.199 1789.64 671.475C1789.45 672.162 1789.26 672.848 1789.16 673.437L1787.62 673.143L1788.3 673.731L1788.97 674.026V674.222L1789.07 674.418L1788.87 674.614V674.713L1788.39 675.203C1788.1 675.498 1788.01 675.792 1787.91 676.184L1787.24 678.637L1785.03 678.147L1780.22 682.758C1785.41 683.543 1790.6 685.015 1795.8 687.075C1811.66 693.453 1822.43 700.91 1828.78 709.937C1833.39 716.609 1835.41 725.538 1833.78 732.602C1832.62 737.802 1829.74 741.825 1825.32 744.376L1823.3 745.455L1821.95 743.689ZM1773.68 698.261L1778.78 698.751C1781.28 699.046 1783.87 699.536 1786.09 700.125C1787.91 700.616 1789.84 701.204 1791.76 701.891L1794.35 702.971L1793.2 705.62C1792.62 709.348 1791.57 713.077 1790.12 717.099L1789.16 719.651L1786.66 718.669C1783.2 717.394 1780.32 716.413 1777.24 715.628L1773.68 714.352L1774.84 711.409C1775.03 711.016 1775.12 710.526 1775.32 710.035C1775.8 708.269 1776.18 706.306 1776.47 703.755C1776.47 703.657 1776.47 703.363 1776.18 702.774L1773.68 698.261ZM1338.5 479.753C1337.54 479.851 1336.67 479.949 1335.81 480.047C1328.02 481.225 1321.19 485.247 1315.71 492.214C1311.29 497.61 1308.4 504.38 1305.33 511.445C1300.42 522.826 1295.33 534.601 1283.6 540.88C1261.19 553.145 1236.58 540.782 1223.89 532.246C1207.64 521.355 1191.68 506.735 1173.79 486.327C1172.54 484.855 1171.2 485.64 1170.62 486.229C1169.75 486.915 1168.7 488.682 1170.23 490.349C1184.66 506.833 1204.18 527.438 1226.87 540.488L1228.79 541.567L1228.12 543.627C1217.73 577.38 1209.66 611.721 1204.08 645.572C1203.6 648.417 1203.12 651.361 1202.64 654.304C1201.1 664.116 1199.56 674.418 1196.77 684.23C1194.66 691.491 1192.16 697.574 1189.18 702.774C1183.02 713.077 1177.73 718.179 1172.83 718.179C1172.64 718.179 1172.45 718.179 1172.25 718.081C1167.83 717.786 1165.04 712.88 1163.12 709.25C1162.73 708.563 1162.45 707.975 1162.06 707.484C1160.14 704.246 1158.12 701.008 1156.2 697.672C1152.45 691.589 1148.89 685.309 1145.33 679.128C1137.93 665.98 1130.52 652.146 1122.64 636.643C1108.99 609.857 1096.1 582.58 1081.97 552.262L1081.49 551.182C1069.28 524.985 1055.53 495.353 1066.58 466.311L1066.97 465.231L1068.03 464.741C1084.95 458.069 1099.47 449.336 1111.2 438.936L1111.58 438.641C1113.7 437.268 1115.81 436.09 1118.02 434.913C1122.64 432.46 1127.06 430.105 1130.72 426.475L1134.47 422.55L1135.62 427.358C1136.77 432.362 1138.31 436.287 1140.43 439.721C1142.83 443.645 1148.12 450.317 1156.2 450.514C1159.08 450.612 1162.06 449.827 1165.72 448.159C1167.64 447.276 1169.37 446.098 1171.2 444.921L1173.31 443.547L1173.98 443.449C1175.43 443.351 1176.2 442.762 1176.77 441.193C1176.97 440.604 1176.87 439.819 1176.29 438.641C1176 438.053 1175.04 437.562 1173.98 437.464C1172.35 437.464 1170.62 438.74 1168.79 440.015C1167.93 440.604 1167.16 441.193 1166.29 441.683C1163.7 443.253 1160.81 444.725 1157.64 445.019C1153.89 445.412 1148.31 443.842 1143.6 434.422C1139.75 426.769 1138.89 418.233 1138.02 410.089L1137.83 407.44C1137.83 406.165 1137.83 404.889 1137.83 403.613C1137.64 392.526 1141.68 366.133 1155.04 355.634C1160.43 351.513 1166.48 350.434 1173.12 352.298C1184.27 355.536 1188.98 364.661 1193.6 373.491L1194.08 374.571C1197.06 380.261 1202.45 386.933 1210.81 386.148C1217.06 385.56 1220.71 379.182 1224.27 372.903C1224.94 371.627 1225.71 370.45 1226.39 369.272C1232.16 360.049 1237.54 350.041 1242.93 338.856L1244.08 336.501L1246.39 337.58C1263.12 345.135 1278.98 355.045 1294.37 364.661C1307.35 372.706 1320.71 381.145 1334.46 387.915C1336.48 388.896 1338.5 389.877 1340.52 390.858L1342.35 391.643L1342.06 393.605C1339.37 413.621 1340.42 433.245 1345.33 452.084C1346 454.34 1346.77 456.597 1347.63 458.952C1348.79 461.895 1349.85 465.035 1350.52 468.175C1351.19 471.217 1350.81 473.669 1349.46 475.632C1347.06 478.87 1342.54 479.36 1338.5 479.753ZM1712.05 993.693C1711.66 993.301 1711.18 993.006 1710.7 992.712L1709.36 991.927V990.357C1709.36 989.376 1708.78 988.395 1707.91 987.806C1703.4 984.666 1698.01 983.489 1693.2 984.568C1692.63 984.666 1692.24 984.961 1691.76 985.157L1687.24 986.825L1687.53 982.41L1687.82 980.447C1687.91 979.957 1687.91 979.368 1687.72 978.779L1687.91 976.523L1688.88 975.64L1688.78 975.345L1691.66 973.677L1691.86 973.972C1692.15 973.873 1692.34 973.775 1692.53 973.677C1693.2 973.481 1693.97 973.285 1694.74 973.187C1696.47 972.99 1699.84 973.187 1701.57 973.481C1703.3 973.677 1706.09 974.266 1708.49 975.051C1710.22 975.64 1712.82 976.719 1714.45 978.191C1714.65 978.289 1714.84 978.485 1715.03 978.681L1715.32 978.485L1716.76 980.644H1716.66L1717.15 980.545L1718.11 982.998C1718.39 983.587 1718.49 984.274 1718.68 984.961C1718.78 985.157 1718.78 985.451 1718.88 986.04C1718.88 986.531 1718.88 987.021 1718.88 987.414V987.904L1718.68 988.787L1718.78 989.768L1716.66 992.908L1716.47 992.81L1715.7 993.791L1715.41 993.595L1713.78 995.067L1712.05 993.693ZM1719.16 918.143C1715.7 916.671 1712.24 915.101 1708.78 914.512L1705.41 914.022L1706.76 910.784C1706.95 910.293 1707.05 909.803 1707.05 909.41L1706.95 908.625L1707.34 907.84C1708.68 905.289 1711.09 903.327 1713.59 902.542C1714.07 902.444 1714.55 902.346 1715.22 902.149C1715.51 902.149 1715.8 902.051 1716.09 902.051C1717.34 902.051 1718.11 902.051 1719.07 902.346C1720.8 902.836 1723.2 903.621 1725.41 904.602C1727.72 905.682 1730.03 906.957 1732.14 908.331C1732.63 908.625 1733.11 909.018 1733.59 909.312L1735.89 910.882L1735.8 910.98C1736.09 911.372 1736.38 911.667 1736.57 911.961L1737.53 912.256L1737.72 913.335L1738.59 913.531L1738.2 916.082L1736.18 915.984L1738.01 916.867C1737.91 917.26 1737.82 917.554 1737.82 917.652C1737.34 919.32 1736.47 921.086 1735.61 922.754L1733.39 926.973L1730.89 924.716C1727.53 921.871 1723.2 919.909 1719.16 918.143ZM1723.97 626.929C1726.95 626.242 1729.93 625.556 1733.01 624.967C1741.76 623.103 1750.89 621.239 1758.39 616.431C1763.87 613.095 1769.16 609.17 1774.36 605.343C1776.18 604.068 1778.11 602.694 1779.93 601.321L1780.89 600.732C1784.45 598.181 1788.01 595.63 1791.57 593.177C1792.72 592.392 1793.78 591.607 1794.93 590.92L1798.49 588.565L1798.97 592.981C1798.97 593.079 1799.16 593.667 1799.26 593.962C1799.55 594.943 1799.93 596.12 1800.03 597.396C1800.03 598.868 1799.74 600.241 1799.55 601.615C1798.87 604.755 1797.72 608.091 1795.89 611.721C1792.05 619.57 1786.85 625.556 1780.51 629.382C1779.93 629.775 1779.55 630.167 1779.36 630.854L1778.78 633.013L1776.66 632.816C1759.64 631.541 1728.97 633.896 1715.51 663.429C1715.32 663.822 1715.22 664.214 1715.32 664.803L1715.13 666.373L1714.07 667.256C1713.88 667.354 1713.78 667.452 1713.59 667.55C1712.34 668.826 1711.47 670.395 1710.9 672.162L1717.43 671.082L1718.11 670.003L1720.22 670.788C1720.51 670.788 1720.8 670.788 1720.99 670.886L1723.49 671.18V671.475C1723.78 671.573 1724.16 671.671 1724.45 671.867C1726.28 672.456 1728.01 673.143 1729.84 673.83L1734.07 675.596L1733.49 677.951C1732.72 680.796 1731.95 683.641 1731.38 686.585C1731.09 687.664 1731.47 688.743 1732.14 689.43L1733.88 691.098L1732.53 692.963C1731.76 694.042 1731.09 695.219 1730.41 696.397L1729.36 698.457L1711.18 691.785L1712.15 689.234C1713.3 686.29 1714.07 683.641 1714.55 680.992C1714.65 680.305 1714.74 679.619 1714.93 678.932C1715.03 677.951 1715.22 676.871 1715.41 675.89C1715.41 675.792 1715.51 675.694 1715.51 675.596L1710.22 675.007C1710.13 675.694 1709.93 676.381 1709.84 677.067C1709.45 679.815 1708.88 682.268 1708.2 684.524C1707.82 685.898 1707.34 687.272 1706.76 688.645L1705.32 691.981H1705.22C1704.84 692.766 1704.74 693.551 1705.03 694.238C1705.32 695.023 1705.99 695.71 1706.95 696.004L1727.63 703.559L1727.34 705.718C1726.95 709.446 1727.63 712.782 1729.36 715.628L1730.99 718.375L1728.11 719.552C1724.45 721.22 1721.47 722.692 1718.78 724.36C1718.11 724.753 1717.72 725.243 1717.53 725.832C1717.43 726.519 1717.63 727.402 1718.11 728.187L1718.78 729.266L1718.49 730.443C1715.22 742.414 1711.66 754.875 1707.63 768.415L1707.34 769.494L1706.47 769.985C1706.18 770.181 1705.9 770.377 1705.8 770.574C1682.43 799.715 1663.78 831.21 1642.82 869.574C1623.88 904.112 1606.96 932.566 1586.09 958.96C1576.09 971.519 1563.59 987.217 1545.13 989.376C1543.3 989.572 1541.57 989.67 1539.84 989.67C1523.3 989.67 1507.73 980.84 1493.78 972.99L1467.73 958.175C1442.25 943.751 1416 928.936 1390.04 914.61C1371.77 904.7 1355.42 895.87 1339.75 887.726C1330.62 883.016 1321.48 878.307 1312.35 873.793L1309.46 872.322L1311.29 869.771C1328.12 845.732 1345.42 822.772 1362.73 801.481C1379.17 781.17 1397.06 760.664 1415.71 740.55L1417.34 738.685L1419.27 740.255C1425.61 745.455 1431.96 750.656 1438.31 755.856C1469.46 781.759 1502.73 810.017 1543.11 844.849C1544.07 845.634 1545.51 846.32 1547.15 844.849C1575.42 819.927 1600.61 797.163 1623.11 771.849C1646.19 745.946 1662.92 721.122 1674.45 696.004C1677.63 689.234 1680.13 681.973 1682.63 675.007C1684.93 668.629 1687.24 662.055 1690.03 655.678C1696.95 639.979 1707.43 631.05 1723.97 626.929ZM1784.45 633.503L1788.68 629.971C1789.93 628.892 1791.09 627.812 1792.24 626.635L1800.12 618.295L1794.74 635.76L1784.45 633.503ZM1753.68 826.403C1742.91 822.576 1730.99 820.515 1719.07 820.417C1713.01 820.417 1706.28 820.614 1700.8 823.753L1694.74 827.286L1696.95 820.515C1701.66 806.583 1706.18 792.061 1710.9 776.363L1716.09 777.442C1715.22 785.88 1714.36 795.986 1714.55 806.092C1714.65 806.877 1714.84 807.564 1715.41 807.956C1715.9 808.447 1716.66 808.643 1717.43 808.643C1718.2 808.643 1718.88 808.349 1719.26 807.956C1719.74 807.564 1719.93 806.975 1719.93 806.19C1719.64 793.141 1721.09 779.993 1722.53 767.336C1723.88 754.973 1725.32 742.119 1725.03 729.855L1724.64 727.206L1726.38 726.323C1743.11 717.884 1762.24 716.413 1780.32 722.202C1789.16 724.949 1797.62 729.462 1805.32 735.447C1813.1 741.335 1821.37 748.791 1823.87 758.309C1826.66 769.102 1822.33 781.268 1818.87 791.08L1807.72 822.674L1811.09 797.458C1812.91 782.74 1814.26 768.023 1814.84 753.795C1814.93 751.833 1813.49 751.441 1812.53 751.343C1811.47 751.343 1809.64 751.833 1809.55 753.992C1808.1 787.646 1803.2 821.202 1794.93 853.974C1794.74 854.759 1794.84 855.445 1795.32 856.034L1795.89 857.506L1793.39 867.023L1790.51 858.978C1785.51 844.751 1772.05 832.878 1753.68 826.403ZM1735.41 903.719L1737.34 901.266C1737.82 900.678 1738.11 899.991 1738.2 899.304L1740.22 894.006V893.908L1737.82 885.273C1737.53 886.156 1737.24 887.039 1736.86 888.02C1736.47 889.296 1735.99 890.572 1735.41 891.749L1735.22 892.338C1735.13 892.534 1735.03 892.73 1734.93 893.024C1734.84 893.221 1734.74 893.417 1734.74 893.613L1734.45 894.3C1733.78 895.772 1733.11 897.342 1732.53 898.912L1731.28 901.463L1728.78 900.285C1727.82 899.893 1726.86 899.402 1725.89 899.01C1724.84 898.617 1723.78 898.127 1722.63 897.832L1720.32 897.047L1720.8 894.692C1720.99 893.908 1720.99 893.024 1721.09 892.24C1721.09 891.651 1721.09 891.16 1721.18 890.572L1721.38 889.002C1721.47 888.315 1721.57 887.726 1721.66 887.137C1721.95 885.371 1722.43 883.703 1722.91 881.937C1723.11 881.152 1723.39 880.367 1723.68 879.582L1724.26 878.209C1724.93 876.737 1725.7 875.363 1726.76 873.793L1727.34 873.107C1727.72 872.616 1728.2 872.125 1728.88 871.537L1731.47 870.065C1732.05 869.869 1732.63 869.672 1733.2 869.574L1734.64 869.476V864.178C1733.78 864.178 1732.91 864.178 1732.05 864.276C1718.68 866.336 1716.18 886.058 1715.7 892.043L1715.32 893.319C1715.22 893.515 1715.22 893.908 1715.22 894.3L1715.32 896.557L1713.2 897.047C1711.95 897.342 1710.8 897.832 1709.36 898.617C1709.07 898.813 1708.88 898.912 1708.68 899.108L1706.86 899.893L1705.41 898.617C1696.38 892.141 1690.41 884.979 1687.53 877.522C1685.32 871.635 1685.51 865.748 1685.9 861.332L1685.99 859.468C1686.28 855.445 1686.57 850.539 1689.45 847.4C1689.84 847.007 1690.03 846.517 1690.13 845.83V844.947L1690.8 844.162C1692.63 842.199 1694.16 839.845 1695.7 837.392C1696.57 836.116 1697.43 834.841 1698.4 833.565C1703.88 825.716 1712.34 825.814 1719.07 825.814C1729.45 825.912 1739.74 827.58 1749.64 830.72C1775.12 838.864 1788.87 855.74 1787.43 877.031L1787.34 878.307L1786.37 878.994C1786.09 879.19 1785.99 879.386 1785.89 879.582C1781.86 888.02 1777.62 894.202 1772.05 899.402C1769.07 902.248 1766.18 904.308 1762.34 906.368C1758.78 908.331 1754.55 910.097 1749.64 909.018C1748.39 908.723 1747.14 909.214 1746.57 910.293L1744.16 914.022L1741.86 910.097C1741.57 909.606 1741.38 909.214 1741.09 908.821C1740.22 907.742 1739.07 906.663 1737.53 905.387L1735.41 903.719ZM1838.68 734.761L1839.35 732.013L1852.14 735.938C1852.72 736.134 1853.3 736.331 1853.97 736.625C1855.41 737.115 1856.85 737.606 1858.01 737.704C1859.06 737.704 1859.93 737.41 1860.89 735.84L1862.62 733.093L1863.49 728.579C1863.68 727.5 1863.78 726.421 1863.97 725.341L1864.16 723.085L1866.37 722.987C1867.14 722.888 1867.53 722.594 1867.91 721.809C1869.93 717.688 1870.99 713.273 1871.08 708.858L1871.37 704.344L1870.03 698.653C1867.91 690.313 1863.2 681.581 1855.22 671.082C1853.68 669.022 1851.85 666.961 1849.74 664.803L1849.16 664.116L1848.97 663.429C1848.97 663.037 1848.87 662.84 1848.78 662.644C1839.07 646.357 1836.47 624.771 1835.32 607.796L1835.12 606.128C1834.74 601.124 1834.07 593.471 1839.35 590.331C1840.89 589.448 1842.53 589.252 1844.07 589.645C1847.43 590.626 1849.55 594.55 1851.08 597.396L1851.56 598.377C1856.85 607.796 1861.95 617.902 1867.33 629.186C1876.76 649.3 1887.53 672.162 1876.95 694.532C1876.28 696.004 1875.6 697.476 1875.12 698.85L1873.58 703.167L1876.37 707.975C1877.43 709.839 1878.68 711.997 1878.97 714.745C1879.64 721.613 1875.31 724.949 1871.85 727.5C1870.41 728.677 1869.06 729.659 1868.1 730.934L1866.85 732.308L1865.8 737.802C1865.41 739.863 1864.45 742.512 1861.47 744.082C1859.55 745.063 1857.43 745.455 1855.51 745.848C1853.97 746.142 1852.53 746.339 1851.28 746.927C1850.41 747.32 1849.26 748.105 1848.1 748.988C1845.8 750.656 1843.01 752.618 1839.93 752.618C1839.35 752.618 1838.68 752.52 1838.1 752.422C1836.57 752.029 1834.93 751.146 1833.01 749.773L1830.41 747.81L1832.72 745.554C1835.6 742.708 1837.62 739.078 1838.68 734.761ZM520.538 2451.43L523.038 2446.13C525.153 2441.62 527.268 2436.91 528.999 2432.1C534.288 2417.48 540.249 2405.7 547.845 2395.21C550.826 2391.09 553.999 2387.16 557.172 2383.14C562.556 2376.27 568.133 2369.2 572.748 2361.45C574.287 2359 575.729 2356.35 577.267 2353.8L580.44 2348.31L582.748 2349.97C585.44 2351.84 588.709 2353.21 591.882 2354.59L693.226 2397.76L693.418 2399.43C694.957 2413.36 698.226 2426.7 702.938 2439.26C715.437 2471.93 731.591 2491.17 753.802 2499.8C758.129 2501.57 762.648 2502.94 766.974 2504.31C774.667 2506.86 782.647 2509.42 790.051 2513.44C800.628 2519.13 810.147 2526.88 818.319 2536.4C826.396 2545.91 832.838 2557.1 836.877 2568.78C838.896 2574.66 840.338 2580.55 841.204 2586.34C841.492 2588.2 841.78 2590.07 841.877 2591.93L841.973 2592.82C842.165 2594.88 841.973 2595.95 840.05 2597.23L839.377 2597.72C837.261 2599.19 833.896 2599.49 830.819 2599.78C829.858 2599.88 828.992 2599.98 828.319 2600.08C806.589 2603.9 784.859 2604.88 761.686 2604.88C753.225 2604.88 744.571 2604.69 735.629 2604.59C725.533 2604.39 715.341 2604.2 705.149 2603.9L687.553 2603.61C680.919 2603.51 674.092 2603.41 667.554 2600.08C662.842 2597.52 658.515 2594.19 654.285 2590.95C652.842 2589.77 651.4 2588.69 649.958 2587.61L573.71 2531.2C571.402 2529.53 569.191 2527.86 566.883 2526.19C557.46 2519.42 547.653 2512.26 539.191 2503.82C534.384 2499.01 530.057 2494.01 526.307 2488.81C525.634 2487.93 524.961 2487.04 524.288 2486.16C521.019 2481.75 517.365 2476.84 515.73 2471.93C513.711 2465.65 517.653 2457.41 520.538 2451.43ZM1813.01 601.419L1814.64 601.124L1814.74 601.321C1815.12 601.419 1815.51 601.419 1815.99 601.517L1817.34 601.713C1818.3 601.909 1819.35 602.106 1820.41 602.4C1821.76 602.694 1823.01 603.185 1824.35 603.577L1826.47 604.362L1826.18 606.619C1826.08 607.11 1825.99 607.502 1825.89 607.698L1823.1 618.491C1821.37 625.065 1819.35 632.62 1815.51 639.194L1814.26 642.334L1811.85 641.353C1810.03 640.666 1808.2 639.979 1806.37 639.292C1805.32 638.9 1804.26 638.507 1803.1 638.213L1799.84 637.134L1807.72 611.623L1809.64 605.54C1809.93 604.46 1810.22 603.381 1811.09 602.4L1811.85 601.419L1812.82 601.517V601.419C1812.91 601.419 1812.91 601.419 1813.01 601.419ZM1035.81 893.123C1056.1 849.068 1077.06 816.885 1101.68 791.767L1103.99 789.412L1105.81 792.159C1111.01 800.205 1117.45 807.662 1123.7 814.825L1126.77 818.553C1133.31 826.108 1139.56 834.252 1145.52 842.101C1147.74 845.045 1149.95 847.89 1152.16 850.834C1170.23 874.088 1188.41 897.342 1206.58 920.596L1231.96 952.974C1238.02 960.824 1243.89 968.281 1252.64 972.205C1260.71 975.836 1269.37 976.523 1278.6 977.209C1280.23 977.308 1281.87 977.504 1283.5 977.602C1293.69 978.485 1303.79 980.447 1313.6 982.312L1320.42 983.587C1330.81 985.549 1341.29 987.217 1351.67 988.885C1366.48 991.338 1381.86 993.791 1396.86 996.931C1411.38 999.973 1425.9 1003.31 1440.42 1006.55C1451 1008.9 1461.48 1011.35 1472.05 1013.61C1486.28 1016.65 1498.02 1019.11 1508.98 1021.17L1513.21 1021.95C1523.21 1023.82 1533.4 1025.68 1543.69 1025.78C1560.42 1025.68 1575.13 1019.6 1590.71 1013.12C1595.42 1011.16 1600.22 1009.2 1605.03 1007.33C1618.69 1002.23 1630.61 998.992 1641.28 997.422C1650.51 996.146 1660.51 992.614 1669.36 987.512C1669.84 987.217 1670.42 986.825 1670.99 986.432C1672.92 985.059 1675.32 983.293 1677.82 984.078C1679.36 984.568 1680.51 985.746 1681.28 987.61C1683.01 992.025 1680.7 996.833 1679.26 999.973C1676.67 1005.37 1672.92 1009.29 1666.95 1012.43C1658.4 1017.05 1649.45 1020.38 1638.88 1022.74L1638.4 1022.93L1637.82 1022.83C1637.24 1022.74 1636.76 1022.83 1636.19 1023.23L1634.07 1023.82C1633.4 1023.91 1632.72 1024.11 1631.95 1024.21C1631.19 1024.4 1630.42 1024.7 1630.32 1026.07V1027.35L1629.36 1028.13C1622.44 1034.02 1615.42 1043.05 1621.67 1052.66C1629.45 1064.63 1645.13 1059.82 1659.17 1054.43C1671.18 1049.72 1683.4 1044.03 1690.61 1033.63C1694.93 1027.45 1695.9 1020.58 1696.38 1014.1C1696.38 1013.51 1696.38 1012.83 1696.47 1012.04C1696.57 1007.53 1696.86 1001.35 1701.47 998.207C1704.36 996.342 1706.66 996.637 1708.2 997.324C1713.11 999.58 1714.45 1007.43 1714.65 1008.31C1715.8 1015.77 1714.36 1023.82 1713.01 1030.98L1712.53 1033.53C1711.18 1041.08 1709.16 1049.91 1704.65 1057.67C1697.53 1069.64 1686.95 1079.06 1676.67 1088.28L1672.15 1092.3C1666.86 1097.11 1660.7 1102.7 1655.13 1108.59L1654.65 1109.08C1648.88 1115.16 1643.01 1121.44 1634.26 1123.8C1630.9 1124.68 1627.44 1125.17 1623.97 1125.17C1610.32 1125.17 1596.28 1118.79 1584.65 1113.49L1579.84 1111.34C1565.61 1104.86 1552.15 1098.68 1537.25 1096.03C1520.51 1092.99 1503.59 1093.09 1484.84 1093.48C1451.57 1094.26 1417.73 1097.01 1385.13 1099.66L1374.94 1100.45C1333.5 1103.78 1299.08 1105.94 1266.58 1107.12C1251.96 1107.61 1236.48 1107.41 1221.77 1102.51C1219.37 1101.33 1216.39 1099.95 1213.02 1098.38L1206 1095.15C1193.6 1088.18 1182.25 1079.84 1172.83 1072.58C1147.83 1053.25 1122.93 1030.78 1094.27 1001.64C1088.41 995.754 1082.74 989.768 1076.97 983.685C1059.56 965.533 1041.58 946.793 1021.68 930.898L1020.14 929.524L1020.91 927.562C1024.85 918.044 1030.14 905.584 1035.81 893.123ZM1032.16 2509.42C1036.97 2489.6 1044.28 2470.17 1053.89 2451.72L1054.47 2450.64L1116 2437.59C1123.41 2436.12 1130.91 2434.65 1138.41 2433.18C1153.41 2430.14 1168.98 2427.09 1183.98 2423.27C1186.39 2422.68 1188.6 2421.8 1190.62 2420.81L1192.25 2420.03L1193.6 2421.31C1211.87 2439.36 1231.1 2456.24 1250.91 2471.64C1263.12 2481.16 1275.81 2491.07 1289.56 2498.52C1301.29 2504.8 1314.37 2508.63 1331.87 2510.89C1357.63 2514.32 1386.77 2518.15 1409.27 2539.34C1419.84 2549.25 1427.34 2561.52 1430.9 2574.76C1433.11 2582.91 1433.79 2589.68 1433.02 2595.37C1432.06 2602.63 1426.57 2604 1421.38 2604C1419.56 2604 1417.73 2603.8 1416.09 2603.71C1414.75 2603.61 1413.5 2603.41 1412.44 2603.41L1053.79 2593.99C1051.39 2593.89 1048.79 2593.99 1046.2 2594.09C1040.53 2594.29 1034.66 2594.39 1029.37 2593.31C1028.89 2593.21 1028.41 2593.11 1028.12 2593.11C1024.56 2592.62 1024.85 2589.87 1024.95 2588.69C1024.95 2588.3 1025.05 2587.71 1025.05 2587.03C1025.14 2586.14 1025.05 2585.26 1024.95 2584.38C1024.95 2583.79 1024.85 2583.2 1024.85 2582.61C1024.76 2579.47 1024.66 2576.33 1024.56 2573.19C1024.56 2566.23 1024.76 2559.16 1025.33 2552.1C1026.39 2537.97 1028.7 2523.64 1032.16 2509.42ZM1855.03 679.03L1858.2 684.132C1863.2 692.276 1865.8 699.831 1865.99 706.797L1866.08 710.133L1850.03 706.895L1847.24 706.012L1855.03 679.03ZM1787.62 652.538C1784.26 651.459 1781.28 650.576 1778.2 649.987C1771.95 649.006 1766.28 649.594 1760.7 652.047L1758.97 652.832L1748.2 640.96L1752.62 639.881C1766.18 636.447 1782.53 637.33 1798.87 642.432L1801.47 643.217L1800.51 646.357C1800.32 646.749 1800.22 647.142 1800.12 647.534C1799.84 648.221 1799.55 649.006 1799.16 649.987L1798.78 650.968C1798.39 651.655 1798.1 652.342 1797.72 653.029L1795.89 656.757L1793.39 655.089C1791.66 653.912 1789.55 653.127 1787.62 652.538ZM1830.6 697.77L1829.35 701.989L1826.28 698.948C1818.68 691.981 1808.2 685.898 1795.03 680.992L1792.14 679.913L1793.59 677.166C1793.78 676.773 1793.97 676.283 1794.07 675.792L1794.35 674.713C1794.64 673.437 1795.03 672.26 1795.41 670.984C1795.7 670.199 1795.99 669.414 1796.47 668.139L1796.95 666.961C1797.62 665.49 1798.3 664.116 1798.87 663.037L1799.64 660.486L1802.14 661.27C1807.53 662.938 1812.34 665.784 1817.24 668.826C1820.32 670.788 1823.39 672.848 1826.37 675.007C1827.72 676.086 1829.07 677.067 1830.7 678.343C1831.28 678.834 1831.95 679.324 1832.43 679.815C1832.72 680.109 1833.01 680.403 1833.3 680.6L1833.87 681.581C1833.97 681.875 1834.07 682.17 1834.35 682.366L1835.32 683.543L1834.93 685.015C1834.26 687.075 1833.49 689.234 1832.72 691.295C1831.95 693.453 1831.18 695.514 1830.6 697.77ZM1736.66 687.174L1738.39 680.305C1740.7 671.18 1743.68 662.154 1747.14 653.421L1748.78 649.496L1754.64 655.972L1755.41 657.542L1755.12 658.916C1754.93 659.897 1754.74 660.878 1754.64 660.976C1753.2 666.569 1750.7 672.063 1747.43 677.166C1747.14 677.558 1747.14 678.049 1747.24 678.735L1747.53 680.698L1744.74 682.071C1743.97 682.366 1743.2 682.758 1742.53 683.151L1741.28 681.09L1742.43 683.249L1736.66 687.174ZM1736.28 669.218L1733.39 669.61L1730.61 668.433C1728.39 667.55 1726.09 666.667 1723.88 665.98L1720.51 665.097L1722.34 662.055C1726.66 654.598 1732.63 648.711 1739.93 644.689L1746.76 640.96L1743.68 648.123C1740.89 654.697 1738.49 661.172 1736.47 667.648L1736.28 669.218ZM1711.18 2154.62C1728.11 2134.61 1755.61 2121.75 1781.09 2121.75H1781.28V2124.5L1781.37 2121.75L2293.38 2123.13C2293.29 2122.64 2293.29 2122.14 2293.29 2121.65L2294.54 1983.8C2294.54 1979.38 2298.19 1975.75 2302.52 1975.65C2309.44 1975.56 2316.46 1975.46 2323.48 1975.26L2328.86 1608.2L1975.22 1609.38L1969.45 1816.31C1977.52 1816.61 1986.66 1817.1 1995.41 1818.57C2002.52 1819.75 2005.89 1824.85 2009.16 1829.85C2009.83 1830.83 2010.41 1831.81 2011.08 1832.7L2064.35 1908.05C2064.73 1908.54 2065.21 1909.13 2065.6 1909.72C2067.04 1911.49 2068.77 1913.55 2069.35 1915.9C2070.41 1920.12 2067.91 1925.03 2065.89 1929.05C2065.31 1930.23 2064.73 1931.31 2064.35 1932.19L2062.91 1935.82C2061.37 1939.74 2059.73 1943.77 2058.1 1947.59C2050.12 1966.53 2040.79 1985.66 2022.62 1993.71C2013.87 1997.63 2003.87 1998.32 1992.81 1995.77L1991.56 1995.47C1986.66 1994.3 1979.16 1992.63 1975.99 1988.51C1973.39 1985.07 1973.87 1980.76 1974.64 1977.42C1976.08 1970.75 1978.97 1964.47 1981.75 1958.29C1982.52 1956.42 1983.39 1954.56 1984.16 1952.79L1984.64 1951.81C1986.18 1947.99 1987.91 1944.16 1989.25 1940.23C1989.45 1939.65 1989.64 1938.96 1989.73 1938.37C1990.02 1937.49 1990.31 1936.6 1990.6 1935.72C1990.6 1935.62 1990.6 1935.62 1990.6 1935.62C1990.02 1934.25 1989.06 1932.88 1988.1 1931.6C1987.72 1931.01 1987.23 1930.42 1986.85 1929.83C1984.35 1926.01 1981.75 1922.28 1979.06 1918.65C1978 1917.18 1976.95 1915.71 1975.99 1914.14C1972.62 1909.33 1969.16 1904.23 1965.02 1900.69L1964.64 1900.4C1964.16 1900.2 1963.49 1900.1 1962.91 1899.91L1962.33 1899.81C1959.25 1899.12 1956.08 1898.83 1952.81 1898.53C1944.74 1897.85 1935.89 1897.55 1925.12 1897.85C1914.35 1898.04 1905.6 1898.53 1897.53 1899.61L1895.6 1899.81C1891.28 1900.3 1886.08 1900.89 1882.81 1902.75C1882.43 1903.24 1881.76 1903.83 1881.08 1904.32L1879.74 1905.7C1878.68 1906.78 1877.53 1907.95 1876.47 1909.13C1873.78 1912.17 1871.76 1914.63 1870.03 1917.08C1866.66 1921.89 1864.64 1926.01 1863.58 1930.13C1861.37 1938.47 1864.06 1947.1 1866.95 1954.36C1869.26 1960.35 1871.95 1966.33 1874.64 1972.02C1876.66 1976.54 1878.68 1980.95 1880.31 1985.07C1880.8 1985.76 1881.08 1986.55 1881.28 1987.23C1882.43 1989.88 1881.85 1991.94 1881.28 1993.22C1880.41 1995.18 1878.58 1996.55 1876.76 1997.04C1875.12 1997.83 1873.39 1998.03 1871.76 1997.63C1866.47 1996.46 1860.12 1996.75 1853.39 1997.04C1840.22 1997.63 1825.22 1998.32 1816.47 1987.04C1806.76 1974.58 1798.97 1960.25 1791.47 1946.32L1788.1 1940.23C1785.41 1935.43 1782.62 1930.52 1781.09 1925.22C1779.74 1920.22 1781.37 1916.49 1783.49 1912.57C1789.55 1900.99 1797.34 1890.1 1804.74 1879.5L1808.49 1874.2C1817.72 1861.05 1828.68 1845.65 1840.6 1830.93L1841.66 1829.56C1847.05 1822.79 1851.66 1817 1861.47 1816.02C1866.76 1815.53 1872.53 1815.13 1878.97 1814.84L1880.99 1611.34C1873.3 1607.32 1866.18 1602.12 1859.83 1595.84C1833.39 1569.64 1823.68 1530.3 1835.6 1497.82C1849.64 1459.36 1891.37 1433.06 1930.41 1437.77C1938.49 1438.75 1946.56 1441.11 1954.35 1444.54H2367.61C2369.34 1444.54 2370.88 1445.03 2372.13 1446.02C2375.88 1444.25 2379.73 1442.78 2383.57 1441.6C2418.86 1430.71 2457.9 1440.82 2480.49 1466.91C2506.55 1496.74 2509.63 1545.8 2487.8 1579.06C2488.09 1579.85 2488.28 1580.73 2488.28 1581.52L2496.45 1975.95C2501.74 1976.24 2507.03 1976.64 2512.32 1977.03C2516.74 1977.42 2520.01 1980.76 2520.11 1985.07L2522.51 2121.65C2522.51 2122.34 2522.51 2123.13 2522.32 2123.71L2538.57 2123.81C2539.15 2123.81 2539.63 2123.91 2539.53 2124.01H2540.59C2584.05 2134.51 2613.66 2172.48 2612.61 2216.63C2612.12 2237.73 2604.43 2258.33 2591.07 2274.52C2585.88 2280.8 2571.93 2296.01 2554.72 2300.92C2539.63 2305.23 2522.99 2305.72 2506.93 2306.21C2503.47 2306.31 2499.92 2306.41 2496.55 2306.61C2460.78 2308.08 2424.63 2308.47 2390.69 2308.67C2371.65 2308.76 2352.42 2308.76 2333.28 2308.76C2273 2308.76 2212.42 2308.37 2153.48 2307.88L2084.64 2307.39C1990.98 2306.7 1894.16 2306.02 1798.97 2307.39C1796.57 2307.39 1794.16 2307.49 1791.66 2307.59C1783.3 2307.88 1774.64 2308.18 1766.09 2306.51C1755.61 2304.35 1745.7 2300.82 1736.66 2295.91C1719.64 2286.79 1705.8 2272.46 1697.82 2255.39C1682.43 2222.62 1687.72 2182.19 1711.18 2154.62Z" fill="white"/>
</g>
<mask id="mask2_189_428" style="mask-type:luminance" maskUnits="userSpaceOnUse" x="674" y="149" width="2118" height="2385">
<path d="M2791.26 149.589H674.38V2533.55H2791.26V149.589Z" fill="white"/>
</mask>
<g mask="url(#mask2_189_428)">
<path d="M681.976 1365.56C710.148 1375.57 739.474 1381.26 768.993 1384.99C784.185 1386.85 799.473 1386.07 814.761 1386.17C830.049 1386.26 844.953 1388.72 860.145 1390.39C915.24 1396.08 970.623 1395.19 1025.72 1389.7C1053.12 1387.05 1080.43 1383.42 1107.64 1379.4C1124.08 1376.94 1140.72 1377.14 1157.06 1374C1171.58 1371.25 1188.31 1365.17 1193.21 1349.37C1197.06 1336.81 1197.54 1322.39 1199.46 1309.34C1201.58 1294.92 1203.69 1280.4 1205.81 1265.97C1214.18 1209.36 1221.29 1160.79 1229.56 1104.18C1230.04 1101.13 1177.73 1083.08 1153.7 1060.71C1134.85 1043.15 1109.18 1022.44 1092.25 1003.41C1074.95 983.884 1033.89 951.996 1017.93 931.195C1017.93 931.195 1057.83 819.537 1108.89 785.98C1124.75 814.434 1187.06 893.321 1204.85 914.122C1213.69 924.424 1229.37 945.422 1241.58 958.471C1250.14 967.498 1257.64 971.227 1257.64 971.227C1257.64 971.227 1264.85 944.44 1266.77 937.18C1271 921.285 1275.23 905.39 1279.56 889.494C1280.14 887.238 1284.08 876.347 1284.08 876.347L1303.98 885.275C1303.98 885.275 1305.81 882.234 1306.38 881.449C1324.85 854.663 1344.27 828.465 1364.75 803.249C1382.63 781.173 1401.38 759.685 1420.81 738.884C1424.65 734.763 1429.84 730.544 1430.23 724.461C1430.61 718.966 1427.73 714.354 1424.36 710.332C1415.42 699.637 1405.42 689.629 1396.09 679.13C1357.83 635.958 1321.87 590.53 1288.31 543.335C1284.65 538.233 1276.39 542.55 1278.6 547.652C1263.5 552.264 1247.06 549.419 1234.85 539.018C1231.77 536.369 1227.25 537.252 1226 541.373C1215.52 575.322 1207.25 609.957 1201.39 645.083C1199.27 657.937 1197.73 670.986 1194.18 683.545C1192.44 689.727 1190.14 695.81 1186.87 701.305C1184.46 705.426 1178.02 715.826 1172.45 715.434C1168.7 715.139 1166.1 708.86 1164.37 706.014C1162.35 702.776 1160.43 699.539 1158.41 696.301C1154.75 690.119 1151.2 683.938 1147.64 677.756C1139.85 663.824 1132.25 649.695 1125.04 635.468C1110.81 607.602 1097.64 579.344 1084.47 551.087C1072.35 525.085 1057.83 494.865 1069.47 466.215C1069.66 465.626 1069.76 465.037 1069.85 464.547C1072.35 461.113 1069.56 454.735 1064.27 456.109C1025.14 466.607 985.911 476.615 946.874 487.506C913.605 496.729 882.452 509.877 857.356 534.603C811.396 579.835 802.454 645.28 791.877 706.407C779.185 779.21 766.493 852.014 753.897 924.817C728.706 1069.54 703.514 1214.26 678.322 1358.99C677.841 1362.03 679.091 1364.58 681.976 1365.56ZM1125.81 197.372C1161.48 164.307 1212.93 149.393 1259.75 163.62C1307.44 178.043 1343.69 217.977 1365.61 262.032C1371 272.727 1375.13 283.618 1378.31 295.196C1381.48 306.872 1384.17 319.136 1390.42 329.635C1397.15 340.82 1408.98 347.59 1420.23 353.281C1432.54 359.463 1445.52 364.27 1458.21 369.667C1466.09 373.003 1487.15 380.362 1477.15 392.823C1473.02 398.121 1465.32 398.219 1459.36 399.102C1450.13 400.476 1440.9 401.849 1431.77 403.223C1414.65 405.774 1397.44 409.012 1380.23 406.657C1363.69 404.401 1348.31 397.63 1333.31 390.37C1297.54 372.61 1265.81 345.432 1227.54 333.167C1181.87 318.449 1134.85 333.952 1091.87 350.436C1089.18 351.515 1086 349.258 1085.33 346.707C1070.81 293.724 1085.52 234.657 1125.81 197.372ZM2324.92 1527.75C2325.01 1540.8 2327.42 1553.56 2332.32 1565.23C2332.23 1565.53 2332.13 1565.82 2332.13 1566.11C2332.03 1575.63 2331.84 1585.05 2331.75 1594.57C2317.23 1594.67 2302.8 1594.67 2288.38 1594.76C2222.71 1594.96 2157.13 1595.16 2091.46 1595.35C2053.96 1595.55 2016.46 1595.65 1978.97 1595.75C1978.97 1595.75 1979.06 1595.65 1979.16 1595.65C1987.62 1587.9 1994.93 1578.28 1999.93 1567.78C2008.77 1549.24 2010.41 1528.14 2005.02 1508.32C1999.54 1488.4 1987.52 1470.65 1971.56 1458.09H2357.61C2336.94 1474.28 2325.11 1499.49 2324.92 1527.75ZM2425.2 1558.26C2412.32 1563.86 2394.53 1559.74 2386.36 1548.55C2378.67 1538.25 2378.28 1523.43 2383.67 1512.25C2389.82 1499.49 2402.22 1492.72 2416.46 1494.88C2424.82 1496.25 2432.51 1499.88 2437.7 1506.85C2441.94 1512.44 2443.95 1519.8 2443.95 1526.97C2443.95 1539.72 2437.42 1553.06 2425.2 1558.26ZM2387.32 1600.95C2354.73 1591.04 2335.78 1561.8 2335.59 1527.75C2335.69 1508.32 2341.36 1489.09 2354.73 1474.67C2366.46 1462.11 2382.42 1454.55 2399.15 1451.91C2428.38 1447.29 2460.78 1458.48 2477.03 1484.58C2495.11 1513.33 2492.7 1556.5 2468.95 1581.42C2448.28 1603.1 2415.3 1609.38 2387.32 1600.95ZM2454.24 1521.18C2451.84 1501.95 2437.99 1487.62 2419.34 1484.38C2408.76 1482.81 2397.9 1483.99 2388.76 1490.17C2380.88 1495.47 2375.3 1503.42 2372.13 1512.44C2366.55 1528.24 2369.53 1547.57 2381.65 1559.54C2395.21 1572.79 2418.57 1575.63 2434.63 1565.53C2449.15 1556.3 2456.36 1538.15 2454.24 1521.18ZM2336.46 1977.72C2336.55 1977.33 2336.75 1976.93 2336.75 1976.44C2337.03 1959.47 2337.23 1942.49 2337.51 1925.52C2338.57 1851.83 2339.73 1778.24 2340.78 1704.56C2341.36 1664.04 2341.94 1623.51 2342.51 1582.89C2343.67 1584.46 2344.82 1585.93 2346.07 1587.41C2358.86 1601.63 2376.74 1610.76 2395.3 1613.9C2423.86 1618.8 2454.44 1610.86 2475.11 1590.35C2475.4 1603.69 2475.68 1617.04 2475.97 1630.38L2480.3 1842.41L2483.09 1976.44C2483.09 1977.03 2483.28 1977.42 2483.38 1977.91C2434.53 1975.56 2385.49 1976.74 2336.46 1977.72ZM2304.44 2125.88C2305.69 2124.99 2306.55 2123.62 2306.55 2121.66C2306.65 2115.87 2306.75 2110.08 2306.75 2104.29C2307.13 2065.93 2307.42 2027.56 2307.8 1989.1C2374.15 1988.02 2440.59 1985.27 2506.84 1990.28C2506.93 1994.3 2507.03 1998.32 2507.13 2002.35C2507.8 2042.08 2508.47 2081.92 2509.24 2121.66C2509.24 2124.11 2510.59 2125.68 2512.32 2126.46C2480.78 2126.37 2449.15 2126.27 2417.51 2126.17C2379.82 2126.07 2342.13 2125.97 2304.44 2125.88ZM1939.83 1828.97C1956.56 1829.36 1973.58 1829.56 1990.31 1831.52C1991.27 1831.62 1993 1832.31 1994.35 1832.31C1996.95 1836.53 2000.21 1840.45 2003 1844.38C2020.5 1869.2 2038.1 1894.02 2055.6 1918.75C2048.87 1934.84 2043.29 1951.72 2033.68 1966.24C2023.1 1982.04 2008 1986.94 1990.21 1980.86C1989.25 1980.47 1988.39 1980.07 1987.91 1980.17C1988 1979.39 1988.2 1978.5 1988.29 1978.11C1989.25 1975.17 1990.41 1972.32 1991.56 1969.48C1994.45 1962.31 1997.71 1955.35 2000.5 1948.18C2002.23 1943.57 2005.02 1937.69 2003.77 1932.68C2002.81 1928.46 1999.25 1924.24 1996.85 1920.71C1992.62 1914.43 1988.2 1908.35 1983.58 1902.36C1980.5 1898.24 1977.43 1893.53 1973.48 1890.2C1966.18 1883.92 1952.43 1884.7 1943.58 1884.41C1928.77 1883.82 1913.77 1884.21 1899.06 1885.78C1893.29 1886.47 1887.33 1887.16 1881.76 1888.73C1875.99 1890.49 1872.72 1893.43 1868.49 1897.95C1857.14 1910.11 1847.62 1924.73 1849.83 1942.2C1851.56 1956.62 1858.97 1970.06 1865.12 1983.41C1854.45 1983.02 1843.58 1984.78 1833.1 1982.13C1825.22 1980.17 1821.76 1971.34 1817.72 1964.77C1811.37 1954.56 1805.32 1944.06 1799.74 1933.47C1797.82 1929.93 1795.99 1926.21 1794.35 1922.58C1794.26 1922.48 1794.16 1921.99 1793.97 1921.5C1793.97 1921.3 1794.07 1921.1 1794.16 1920.91C1803.01 1905.99 1812.43 1891.77 1822.33 1877.74C1833.1 1862.63 1843.78 1847.03 1856.08 1833.29C1856.85 1832.31 1857.81 1831.52 1858.58 1830.54C1859.64 1829.27 1858.87 1830.05 1859.54 1829.76C1858.29 1830.35 1860.31 1829.76 1861.18 1829.66C1867.43 1828.97 1873.78 1828.87 1880.03 1828.78C1899.93 1828.38 1919.93 1828.58 1939.83 1828.97ZM1987.33 1982.23C1986.95 1980.07 1987.14 1980.47 1987.23 1981.05C1987.23 1981.35 1987.23 1981.74 1987.33 1982.23ZM2502.8 2182.78C2519.34 2187.2 2528.57 2200.94 2527.22 2217.52C2526.26 2229.88 2518.28 2242.93 2506.16 2247.05C2492.7 2251.76 2475.11 2246.46 2467.42 2234.1C2460.4 2222.91 2461.36 2208.29 2467.9 2197.01C2475.3 2184.55 2488.67 2179.35 2502.8 2182.78ZM1993.1 1830.44C1993.1 1830.54 1993.68 1831.13 1993.77 1831.33C1993.77 1831.42 1993.87 1831.52 1993.87 1831.62C1993.39 1831.33 1993 1830.93 1993.1 1830.44ZM1960.89 1608.11C1961.27 1608.01 1961.56 1607.91 1961.95 1607.72C1961.75 1614.49 1961.56 1621.35 1961.37 1628.22C1959.54 1691.7 1957.81 1755.19 1955.99 1818.57C1955.89 1818.57 1955.79 1818.57 1955.7 1818.57C1934.83 1817.88 1913.39 1816.9 1892.24 1817.2C1892.24 1817.1 1892.24 1817 1892.24 1816.9C1892.33 1808.46 1892.43 1800.03 1892.52 1791.59C1893.1 1732.42 1893.68 1673.16 1894.26 1614C1915.7 1621.06 1939.35 1619 1960.89 1608.11ZM1935.41 1558.26C1924.45 1563.86 1910.02 1563.86 1900.22 1555.71C1889.26 1546.59 1884.74 1528.44 1890.79 1515.88C1896.47 1504.1 1909.16 1497.14 1921.76 1497.04C1935.6 1496.94 1947.14 1505.67 1951.56 1519.8C1956.37 1535.99 1949.93 1550.91 1935.41 1558.26ZM1997.04 1522.84C1998.87 1539.23 1995.21 1555.71 1986.66 1569.74C1982.43 1576.71 1976.85 1583.97 1970.41 1588.88C1966.18 1592.21 1961.37 1595.06 1956.95 1598.1C1940.02 1607.03 1920.79 1610.56 1902.14 1605.56C1885.89 1601.04 1871.47 1590.64 1861.28 1577.2C1843.01 1553.06 1837.62 1519.12 1852.81 1492.04C1869.74 1461.72 1907.52 1443.57 1940.89 1453.77C1970.6 1462.89 1993.39 1491.64 1997.04 1522.84ZM1961.85 1516.96C1958.58 1506.56 1952.43 1497.24 1943 1491.74C1934.93 1487.03 1925.5 1485.46 1916.37 1486.64C1899.54 1488.8 1883.87 1500.08 1878.97 1517.15C1873.78 1535.4 1881.95 1557.77 1898.2 1567.39C1912.72 1576.02 1932.04 1574.26 1945.7 1564.74C1961.27 1553.95 1967.33 1535.21 1961.85 1516.96ZM2374.05 2182.78C2390.59 2187.2 2399.82 2200.94 2398.47 2217.62C2397.42 2229.98 2389.53 2242.93 2377.42 2247.15C2363.96 2251.76 2346.26 2246.46 2338.57 2234.1C2331.65 2222.91 2332.61 2208.2 2339.25 2197.01C2346.55 2184.55 2359.92 2179.25 2374.05 2182.78ZM1815.03 2182.78C1823.01 2184.75 1830.41 2189.06 1834.83 2195.93C1838.97 2202.41 1840.31 2209.47 1839.83 2217.13C1838.87 2229.49 1831.18 2242.64 1819.16 2246.85C1805.8 2251.66 1788.1 2246.56 1780.32 2234.3C1773.3 2223.21 1773.97 2208.59 1780.41 2197.31C1787.62 2184.84 1800.89 2179.35 1815.03 2182.78ZM1943.77 2182.59C1960.41 2186.71 1970.12 2200.45 1968.97 2217.22C1968.1 2229.78 1960.31 2242.93 1947.91 2247.15C1934.25 2251.66 1916.76 2246.56 1909.16 2234.2C1902.33 2223.11 1903.01 2208.59 1909.35 2197.31C1916.47 2184.94 1929.64 2179.45 1943.77 2182.59ZM1617.24 1221.92H2684.24C2743.18 1221.92 2790.97 1270.49 2790.97 1330.44V2415.91C2790.97 2475.86 2743.18 2524.43 2684.24 2524.43H1617.24C1558.3 2524.43 1510.51 2475.86 1510.51 2415.91V1330.44C1510.51 1270.49 1558.3 1221.92 1617.24 1221.92ZM1700.22 2254.21C1708.11 2271.09 1721.76 2284.92 1737.91 2293.56C1746.95 2298.37 1756.66 2301.8 1766.66 2303.76C1777.24 2306.02 1788.2 2304.84 1798.97 2304.65C1898.58 2303.17 1998.2 2304.06 2097.71 2304.74C2195.4 2305.43 2293 2306.51 2390.69 2305.92C2425.97 2305.73 2461.17 2305.43 2496.45 2303.86C2515.11 2303.08 2535.88 2303.57 2554.05 2298.27C2567.51 2294.44 2580.2 2283.45 2589.05 2272.76C2602.03 2257.06 2609.43 2237.14 2609.91 2216.54C2610.97 2172.97 2581.16 2136.57 2540.01 2126.66C2539.82 2126.66 2539.63 2126.66 2539.43 2126.66C2539.14 2126.66 2538.86 2126.46 2538.57 2126.46C2536.84 2126.46 2535.01 2126.46 2533.28 2126.46C2527.8 2126.46 2522.32 2126.46 2516.84 2126.46C2518.57 2125.68 2519.91 2124.21 2519.82 2121.66C2519.72 2115.97 2519.63 2110.28 2519.53 2104.49C2518.86 2064.75 2518.18 2024.91 2517.51 1985.17C2517.41 1982.04 2515.01 1979.97 2512.13 1979.68C2505.88 1979.19 2499.63 1978.9 2493.38 1978.5C2493.57 1977.91 2493.76 1977.23 2493.76 1976.44C2493.38 1960.15 2493.09 1943.87 2492.7 1927.68L2488.38 1715.65L2485.59 1581.62C2485.59 1580.44 2485.2 1579.65 2484.72 1578.87C2484.92 1578.67 2485.01 1578.48 2485.2 1578.28C2506.65 1546.2 2503.86 1497.73 2478.57 1468.68C2455.59 1442.39 2416.74 1434.15 2384.34 1444.15C2379.92 1445.53 2375.69 1447.29 2371.65 1449.26C2370.78 1448.08 2369.53 1447.29 2367.61 1447.29H1954.93C1954.54 1447.29 1954.35 1447.39 1954.06 1447.39C1946.56 1443.96 1938.49 1441.5 1930.12 1440.52C1891.66 1435.81 1851.47 1462.11 1838.1 1498.71C1825.99 1531.67 1837.43 1569.84 1861.66 1593.88C1868.39 1600.55 1875.89 1605.75 1883.78 1609.68C1883.78 1609.87 1883.68 1610.07 1883.68 1610.27C1883.58 1618.61 1883.49 1627.05 1883.39 1635.48C1882.81 1695.92 1882.24 1756.36 1881.56 1816.9C1881.56 1817.1 1881.66 1817.3 1881.76 1817.49C1875.03 1817.69 1868.39 1818.08 1861.76 1818.77C1852.43 1819.65 1848.39 1825.54 1842.62 1832.7C1831.47 1846.53 1820.99 1861.15 1810.7 1875.77C1802.05 1888.04 1792.91 1900.5 1785.8 1913.84C1783.97 1917.38 1782.53 1920.42 1783.68 1924.44C1785.51 1930.62 1789.26 1936.7 1792.33 1942.3C1800.22 1956.92 1808.39 1972.32 1818.58 1985.37C1830.6 2000.78 1856.08 1991.36 1872.24 1994.99C1873.58 1995.28 1874.64 1994.99 1875.7 1994.59C1878.2 1993.81 1880.12 1991.55 1878.87 1988.31C1878.78 1988.22 1878.78 1988.12 1878.68 1988.02C1878.58 1987.43 1878.39 1987.04 1878.1 1986.55C1873.68 1976.15 1868.58 1965.94 1864.45 1955.45C1861.18 1947.11 1858.68 1938.27 1860.99 1929.44C1862.33 1924.34 1864.93 1919.73 1867.91 1915.51C1869.93 1912.57 1872.14 1909.92 1874.54 1907.27C1876.08 1905.5 1877.72 1903.93 1879.35 1902.27C1879.26 1902.27 1880.99 1900.89 1881.08 1900.6C1885.31 1897.95 1892.14 1897.46 1897.14 1896.87C1906.47 1895.79 1915.79 1895.3 1925.12 1895.1C1934.45 1894.91 1943.77 1895 1953 1895.79C1956.37 1896.08 1959.73 1896.38 1962.91 1897.16C1964.06 1897.46 1965.22 1897.65 1966.27 1898.14C1965.98 1897.95 1966.85 1898.73 1966.47 1898.34C1972.23 1903.34 1976.75 1910.9 1981.18 1917.08C1983.87 1920.71 1986.56 1924.54 1989.06 1928.27C1990.41 1930.33 1992.52 1932.78 1993.39 1935.23C1993.39 1935.43 1993.39 1936.02 1993.1 1936.7C1992.52 1938.08 1992.23 1939.65 1991.75 1941.12C1990.22 1945.44 1988.39 1949.66 1986.66 1953.88C1983.29 1961.63 1979.06 1969.67 1977.23 1978.01C1976.56 1980.86 1976.18 1984.29 1978.1 1986.84C1980.98 1990.47 1989.06 1992.04 1993.48 1993.12C2002.81 1995.28 2012.62 1995.18 2021.56 1991.26C2039.25 1983.31 2048.39 1963.59 2055.6 1946.61C2057.81 1941.51 2059.83 1936.31 2061.94 1931.21C2063.48 1927.38 2067.91 1920.81 2066.75 1916.59C2066.08 1914.14 2063.67 1911.68 2062.23 1909.62C2044.44 1884.51 2026.75 1859.39 2008.96 1834.37C2004.93 1828.68 2002.23 1822.4 1995.02 1821.22C1985.7 1819.65 1976.18 1819.26 1966.66 1818.96C1966.66 1818.96 1966.66 1818.96 1966.66 1818.87C1966.95 1809.94 1967.14 1800.91 1967.43 1791.98C1969.16 1730.17 1970.89 1668.45 1972.62 1606.64C1985.98 1606.64 1999.35 1606.54 2012.71 1606.54C2078.29 1606.24 2143.96 1606.05 2209.54 1605.85C2250.21 1605.75 2290.88 1605.56 2331.55 1605.46L2331.36 1617.04C2330.3 1690.72 2329.25 1764.31 2328.09 1838C2327.42 1884.11 2326.75 1930.33 2326.07 1976.44C2326.07 1977.03 2326.26 1977.42 2326.36 1977.91C2318.38 1978.11 2310.5 1978.21 2302.52 1978.4C2299.63 1978.4 2297.23 1980.86 2297.23 1983.8C2297.13 1989.59 2297.13 1995.38 2297.03 2001.17C2296.65 2041.4 2296.27 2081.53 2295.98 2121.66C2295.88 2123.62 2296.75 2124.99 2297.9 2125.88C2268.29 2125.78 2238.67 2125.68 2209.06 2125.58C2133.96 2125.39 2058.87 2125.19 1983.77 2124.99C1928.49 2124.89 1873.2 2124.7 1817.82 2124.6L1781.28 2124.5C1756.09 2124.4 1729.64 2137.06 1713.2 2156.39C1690.41 2183.18 1685.13 2222.23 1700.22 2254.21ZM2072.52 2182.59C2080.5 2184.45 2088.1 2188.67 2092.62 2195.64C2096.75 2202.01 2098.29 2209.28 2097.81 2216.93C2096.94 2229.49 2089.16 2242.64 2076.85 2246.85C2063.29 2251.56 2045.79 2246.46 2038.1 2234.2C2031.27 2223.21 2031.85 2208.59 2038.19 2197.4C2045.21 2184.94 2058.39 2179.45 2072.52 2182.59ZM1778.68 2135.29C1806.76 2134.12 1835.31 2135.49 1863.49 2135.49C1926.47 2135.69 1989.45 2135.88 2052.43 2136.08C2126.56 2136.28 2200.69 2136.47 2274.82 2136.67C2336.84 2136.77 2398.76 2136.96 2460.78 2137.16C2486.45 2137.26 2512.13 2137.26 2537.8 2137.36C2557.32 2142.16 2574.91 2153.05 2586.16 2170.22C2608.37 2204.17 2601.26 2250.98 2570.01 2276.58C2565.49 2280.21 2560.59 2283.35 2555.39 2286.1C2554.72 2286.4 2554.05 2286.79 2553.38 2287.18C2553.28 2287.18 2553.28 2287.18 2553.18 2287.18C2550.88 2288.06 2548.38 2288.55 2545.97 2288.95C2538.47 2290.42 2530.11 2291.01 2521.55 2291.69C2450.97 2296.7 2379.73 2295.32 2308.96 2295.23C2208.48 2294.93 2108 2293.76 2007.52 2293.26C1958.77 2293.07 1910.02 2292.97 1861.28 2293.17C1839.26 2293.36 1817.24 2293.56 1795.22 2293.85C1784.64 2294.05 1774.55 2294.74 1764.16 2292.09C1754.36 2289.63 1744.93 2285.71 1736.37 2280.12C1707.82 2261.28 1695.8 2224.78 1705.7 2191.91C1715.32 2160.02 1745.8 2136.77 1778.68 2135.29ZM2462.51 2245.38C2475.3 2259.61 2498.66 2263.93 2515.4 2254.8C2530.3 2246.66 2538.86 2228.7 2537.99 2211.73C2536.93 2192.3 2524.05 2177.19 2505.68 2172.38C2495.11 2169.73 2484.05 2170.42 2474.43 2175.82C2466.36 2180.33 2460.01 2187.89 2456.26 2196.42C2449.24 2212.42 2450.59 2232.04 2462.51 2245.38ZM2333.76 2245.38C2346.55 2259.61 2369.82 2263.93 2386.55 2254.8C2401.55 2246.66 2410.11 2228.7 2409.24 2211.83C2408.28 2192.3 2395.3 2177.29 2376.94 2172.38C2366.36 2169.73 2355.3 2170.42 2345.69 2175.82C2337.61 2180.33 2331.26 2187.79 2327.51 2196.32C2320.5 2212.42 2321.84 2232.04 2333.76 2245.38ZM2204.25 2244.6C2216.56 2259.32 2239.92 2263.73 2256.84 2255.19C2272.23 2247.44 2281.07 2229.39 2280.4 2212.32C2279.54 2192.69 2266.65 2177.39 2248.19 2172.38C2237.71 2169.64 2226.75 2170.22 2217.13 2175.52C2209.06 2179.94 2202.61 2187.4 2198.86 2195.83C2191.75 2211.73 2192.81 2231.06 2204.25 2244.6ZM2033.19 2245.38C2045.98 2259.71 2069.44 2263.63 2086.08 2254.51C2101.17 2246.36 2109.64 2228.11 2108.48 2211.14C2107.14 2191.61 2093.96 2176.6 2075.31 2172.09C2064.83 2169.73 2053.77 2170.52 2044.35 2176.11C2036.37 2180.72 2030.21 2188.28 2026.66 2196.81C2019.93 2212.81 2021.46 2232.24 2033.19 2245.38ZM1904.26 2245.48C1916.95 2259.81 1940.41 2263.83 1957.14 2254.8C1972.23 2246.66 1980.79 2228.41 1979.64 2211.34C1978.39 2191.81 1965.22 2176.7 1946.66 2172.19C1936.08 2169.73 1925.02 2170.52 1915.6 2176.01C1907.52 2180.63 1901.37 2188.18 1897.81 2196.72C1890.99 2212.71 1892.52 2232.24 1904.26 2245.48ZM1775.51 2245.58C1788.39 2259.71 1811.66 2263.83 1828.3 2254.51C1843.1 2246.27 1851.56 2228.31 1850.51 2211.34C1849.26 2191.91 1836.28 2176.99 1817.91 2172.29C1807.33 2169.73 1796.28 2170.52 1786.76 2176.01C1778.68 2180.63 1772.43 2188.18 1768.78 2196.72C1761.95 2212.81 1763.49 2232.43 1775.51 2245.58ZM2245.4 2182.78C2261.94 2187.3 2271.17 2201.43 2269.54 2218.11C2268.29 2230.76 2260.02 2243.52 2247.61 2247.35C2233.86 2251.56 2216.56 2245.78 2209.25 2233.31C2202.71 2222.13 2203.86 2207.51 2210.59 2196.42C2217.9 2184.26 2231.36 2179.25 2245.4 2182.78Z" fill="#FF592D"/>
</g>
<mask id="mask3_189_428" style="mask-type:luminance" maskUnits="userSpaceOnUse" x="506" y="298" width="1400" height="2316">
<path d="M1905.12 298.044H506.213V2613.03H1905.12V298.044Z" fill="white"/>
</mask>
<g mask="url(#mask3_189_428)">
<path d="M1737.34 874.188C1737.34 873.992 1737.34 873.796 1737.34 873.599V873.501C1737.24 873.894 1737.34 874.188 1737.34 874.188ZM1230.91 545.788C1229.08 544.905 1227.35 543.826 1225.62 542.845C1203.7 530.286 1184.66 510.858 1168.22 492.118C1163.7 487.016 1171.2 479.264 1175.72 484.465C1190.43 501.243 1206.87 517.628 1225.43 529.991C1241.87 541.079 1263.6 548.732 1282.35 538.527C1300.14 528.912 1301.77 505.364 1313.6 490.45C1319.27 483.385 1326.48 478.676 1335.43 477.4C1341.48 476.517 1349.66 477.204 1347.93 468.766C1346.77 463.369 1344.18 458.071 1342.83 452.773C1337.73 433.345 1336.77 413.133 1339.47 393.313C1342.73 394.883 1346.2 396.355 1349.56 397.827C1347.35 417.548 1349.08 437.662 1355.04 456.795C1358.12 466.411 1363.12 477.302 1352.54 484.072C1348.79 486.525 1344.56 487.212 1340.23 487.703C1333.12 488.586 1328.02 490.352 1323.12 495.846C1309.27 511.251 1308.41 534.21 1290.43 546.181C1289.75 546.573 1289.18 547.064 1288.6 547.456C1270.62 557.955 1248.7 554.815 1230.91 545.788ZM1300.24 390.664C1300.91 389.977 1301.68 389.389 1302.54 389.192C1305.52 388.506 1308.22 390.075 1309.18 392.921C1310.33 396.551 1310.33 400.966 1308.99 404.499C1308.22 406.755 1307.16 408.718 1305.62 410.582C1303.7 412.839 1300.43 414.016 1297.54 413.133C1296.1 412.642 1294.95 411.956 1293.89 410.974C1292.74 409.895 1292.06 408.62 1291.49 407.246C1290.62 404.989 1290.91 402.242 1291.77 400.083C1293.31 396.159 1296 391.645 1300.24 390.664ZM1256.87 468.864C1256.77 467.196 1257.26 465.528 1258.31 464.547C1260.72 462.388 1263.6 462.683 1265.91 464.547C1267.64 466.019 1268.12 468.668 1267.64 470.728C1267.45 471.513 1267.16 472.2 1266.87 472.887C1266.77 472.985 1266.68 473.279 1266.49 473.475V473.574C1266.58 473.672 1266.68 473.868 1266.77 473.966C1266.97 474.457 1267.26 474.947 1267.54 475.34C1270.24 479.461 1273.02 483.483 1275.72 487.506C1277.35 489.861 1276.29 493.59 1273.79 494.865C1271.1 496.337 1268.22 495.454 1266.58 493.001C1263.89 488.978 1261.2 485.053 1258.6 481.129C1257.06 478.872 1256.1 476.517 1255.81 473.868C1255.62 472.396 1255.91 470.826 1256.49 469.453C1256.58 469.256 1256.77 469.06 1256.87 468.864ZM1091.87 350.436C1134.85 333.952 1181.87 318.45 1227.54 333.167C1233.6 335.13 1239.56 337.484 1245.33 340.035C1240.24 350.534 1234.76 360.836 1228.7 370.746C1224.37 377.614 1220.14 388.015 1211.1 388.898C1202.06 389.781 1195.72 383.305 1191.78 375.75C1187.06 366.822 1182.83 357.991 1172.35 354.949C1148.7 348.081 1140.24 387.034 1140.53 403.616C1140.53 404.891 1140.53 406.265 1140.43 407.54C1141.39 416.371 1142.07 425.3 1146.01 433.149C1148.22 437.564 1151.87 442.863 1157.35 442.372C1160.14 442.078 1162.64 440.802 1164.95 439.429C1167.74 437.761 1170.72 434.621 1174.08 434.817C1175.91 434.817 1177.83 435.7 1178.7 437.466C1179.47 438.938 1179.85 440.606 1179.28 442.274C1178.31 444.629 1176.68 446.003 1174.18 446.199C1171.78 447.671 1169.47 449.339 1166.87 450.614C1163.51 452.184 1159.85 453.263 1156.2 453.165C1148.32 452.969 1142.16 447.67 1138.12 441.195C1135.62 436.976 1134.09 432.56 1133.03 427.949C1132.84 428.145 1132.64 428.341 1132.45 428.538C1126.78 434.032 1119.47 436.878 1112.93 440.9C1100.14 452.38 1084.95 460.916 1069.09 467.294C1069.18 466.902 1069.28 466.509 1069.47 466.215C1069.66 465.626 1069.76 465.037 1069.86 464.547C1071.78 461.898 1070.53 457.482 1067.45 456.305C1077.07 452.282 1086.3 447.474 1094.86 441.587C1091.59 440.802 1087.84 443.157 1084.18 443.55C1079.95 443.942 1075.24 442.47 1073.03 438.644C1071.01 435.21 1072.07 432.07 1073.22 428.636C1074.28 425.594 1073.8 426.183 1071.78 423.828C1070.34 422.258 1069.47 420.492 1069.09 418.431C1068.61 415.194 1069.57 411.661 1072.45 409.797C1073.8 408.914 1077.93 409.012 1078.7 407.933C1079.28 406.952 1077.64 404.597 1077.26 404.302C1076.49 403.91 1074.86 404.106 1073.89 403.616C1065.53 399.691 1068.61 389.094 1074.95 385.071C1076.39 384.09 1079.18 383.403 1080.14 382.03C1081.68 379.969 1080.14 378.301 1079.09 376.143C1077.07 372.218 1075.91 368.097 1077.64 363.78C1079.09 360.248 1081.97 358.383 1084.28 355.538C1086.01 353.576 1085.72 351.123 1086.59 348.768C1087.93 350.24 1089.95 351.221 1091.87 350.436ZM1163.51 409.993C1163.89 410.091 1163.99 410.091 1163.51 409.993ZM1174.47 394C1172.93 389.389 1168.51 386.347 1163.7 386.641C1154.95 387.23 1150.33 396.649 1150.14 404.597C1150.14 409.012 1151.58 413.427 1154.66 416.567C1157.26 419.413 1161.3 421.375 1165.24 420.982C1168.22 420.786 1170.43 418.726 1170.62 415.586C1170.72 412.839 1168.03 409.993 1165.24 410.19C1165.05 410.19 1164.66 410.19 1164.37 410.19C1164.66 410.19 1164.85 410.386 1164.18 410.19C1164.08 410.19 1163.99 410.19 1163.99 410.19H1164.08C1163.8 410.091 1163.51 409.895 1163.22 409.895C1163.41 409.895 1163.41 409.895 1163.51 409.993C1163.41 409.895 1163.32 409.895 1163.32 409.797C1163.22 409.797 1163.03 409.699 1162.83 409.503C1162.64 409.405 1162.35 409.11 1162.26 409.012C1162.16 408.914 1161.97 408.718 1161.78 408.522C1161.78 408.423 1161.68 408.325 1161.68 408.325C1161.68 408.227 1161.49 408.031 1161.39 407.737C1161.39 407.737 1161.39 407.737 1161.3 407.638C1161.3 407.442 1161.2 407.246 1161.1 407.05C1161.1 406.952 1161.01 406.657 1160.91 406.363C1160.91 406.069 1160.91 405.872 1160.91 405.578C1160.82 405.087 1160.62 403.714 1160.91 403.223C1160.82 404.008 1160.82 404.106 1160.91 403.518C1160.91 403.321 1161.01 403.125 1161.01 402.929C1161.1 402.536 1161.2 402.144 1161.3 401.751C1161.39 401.359 1161.49 400.868 1161.68 400.476C1161.68 400.476 1161.68 400.476 1161.68 400.378C1162.07 399.887 1162.26 399.298 1162.64 398.71C1162.64 398.71 1162.74 398.612 1162.74 398.514C1163.03 398.317 1163.22 398.023 1163.51 397.827C1163.6 397.729 1163.8 397.631 1163.99 397.532C1163.99 397.532 1164.08 397.532 1164.08 397.434C1164.18 397.434 1164.18 397.434 1164.28 397.434C1164.37 397.532 1164.47 397.532 1164.57 397.532C1164.57 397.532 1164.57 397.532 1164.57 397.63C1165.72 399.985 1168.12 401.261 1170.82 400.672C1173.51 399.985 1175.43 396.649 1174.47 394ZM1164.47 397.434C1164.37 397.336 1164.28 397.336 1164.28 397.238C1164.28 397.238 1164.37 397.336 1164.47 397.434ZM1164.28 397.042C1164.37 397.14 1164.47 397.238 1164.47 397.434C1164.47 397.336 1164.37 397.336 1164.37 397.238C1164.37 397.14 1164.28 397.042 1164.28 397.042ZM1164.76 397.63C1164.76 397.729 1164.76 397.729 1164.76 397.729V397.63ZM1164.08 410.19C1164.18 410.19 1164.28 410.19 1164.37 410.19C1164.28 410.19 1164.18 410.19 1164.18 410.19C1164.18 410.19 1164.18 410.19 1164.08 410.19ZM1295.62 336.601C1289.18 334.246 1291.97 323.748 1298.41 326.103C1320.91 334.443 1346 333.56 1367.54 323.061C1373.7 320.019 1379.18 329.439 1372.93 332.382C1348.89 344.156 1320.81 345.922 1295.62 336.601ZM514.484 2485.67C530.541 2510.79 553.906 2526.59 577.271 2543.86C604.193 2563.77 630.635 2584.48 658.038 2603.61C670.73 2612.44 684.192 2611.66 698.903 2611.95C715.441 2612.24 731.883 2612.74 748.421 2612.93C764.478 2613.13 780.632 2613.03 796.689 2611.95C811.4 2610.87 828.131 2610.28 842.265 2605.57C854.668 2601.45 849.38 2583.69 846.88 2574.27C843.803 2562.4 838.611 2551.02 831.784 2541.01C817.362 2519.72 797.074 2505.59 773.036 2497.74C759.286 2493.23 745.248 2489.4 734.96 2478.41C725.344 2468.31 718.229 2455.06 712.749 2442.21C707.556 2430.24 704.095 2417.48 702.076 2404.53C712.941 2409.14 723.71 2413.75 734.575 2418.36C737.363 2419.54 740.152 2417.09 741.017 2414.64C760.921 2359 780.439 2303.17 799.862 2247.44C833.996 2149.03 867.841 2050.62 902.456 1952.4C921.398 1898.54 924.955 1729.87 944.666 1676.2C956.012 1695.04 1045.72 1931.7 1046.97 1981.05C1047.64 2007.74 1041.97 2034.23 1038.32 2060.53C1034.76 2085.94 1031.88 2111.35 1029.66 2136.96C1021.01 2241.75 1024.95 2347.33 1040.82 2451.14C1041.11 2452.8 1042.16 2453.88 1043.61 2454.47C1033.41 2475.47 1025.82 2497.84 1021.49 2520.8C1018.32 2537.28 1016.68 2554.06 1016.59 2570.84C1016.59 2578.39 1015.72 2587.72 1017.84 2594.98C1020.15 2602.73 1028.9 2601.45 1035.24 2601.65C1104.28 2603.41 1173.41 2605.28 1242.45 2607.04C1276.97 2608.03 1311.48 2608.91 1346.1 2609.79C1363.79 2610.28 1381.48 2610.77 1399.18 2611.17C1407.73 2611.46 1416.48 2612.15 1425.04 2611.85C1430.04 2611.66 1434.85 2610.09 1437.73 2605.77C1444.46 2595.76 1440.91 2579.08 1437.35 2568.48C1433.02 2555.53 1425.52 2543.76 1415.81 2534.44C1394.85 2514.22 1367.73 2507.16 1339.85 2503.82C1323.79 2501.86 1308.22 2499.31 1293.7 2491.46C1279.85 2484.1 1267.16 2474.19 1254.66 2464.48C1235.72 2449.66 1217.54 2433.67 1200.43 2416.79C1201.97 2414.93 1203.41 2412.77 1204.47 2410.32C1208.41 2401.59 1209.56 2391.38 1211.39 2382.06C1215.72 2359.4 1219.66 2336.73 1223.12 2313.87C1247.74 2152.07 1249.85 1987.43 1236.78 1824.46C1224.56 1671.98 1199.37 1520.88 1166.87 1371.55C1163.6 1372.53 1160.33 1373.41 1157.07 1374C1140.72 1377.14 1124.09 1376.94 1107.64 1379.4C1080.43 1383.42 1053.13 1387.05 1025.72 1389.7C970.627 1395.19 915.244 1396.08 860.149 1390.39C844.957 1388.72 830.054 1386.26 814.766 1386.17C799.477 1386.07 784.189 1386.85 768.997 1384.99C747.171 1382.24 725.441 1378.41 704.191 1372.53C691.788 1438.07 689.672 1505.48 689.865 1572.2C690.153 1650.2 693.422 1728.4 686.595 1806.21C679.48 1887.74 657.654 1967.22 639.385 2046.69C620.732 2128.13 601.982 2209.47 583.232 2290.91C580.732 2302.19 578.04 2313.38 575.54 2324.66C574.194 2330.65 572.56 2337.02 574.29 2343.01C570.733 2349.09 567.271 2355.27 563.425 2361.26C554.387 2375.68 542.176 2387.75 533.426 2402.47C525.541 2415.81 521.215 2430.82 514.772 2444.86C511.599 2451.82 508.234 2459.28 507.369 2466.93C506.503 2474.09 510.734 2479.88 514.484 2485.67ZM1034.76 2510.1C1039.57 2490.19 1046.88 2471.05 1056.2 2453C1076.3 2448.78 1096.49 2444.56 1116.59 2440.34C1139.18 2435.53 1162.26 2431.61 1184.66 2425.92C1187.26 2425.23 1189.56 2424.35 1191.78 2423.27C1209.95 2441.23 1229.18 2458.1 1249.27 2473.8C1261.77 2483.51 1274.47 2493.42 1288.31 2500.88C1301.97 2508.24 1316.39 2511.58 1331.58 2513.64C1359.08 2517.27 1386.29 2521.39 1407.54 2541.31C1417.35 2550.53 1424.75 2562.4 1428.31 2575.55C1429.94 2581.63 1431.19 2588.7 1430.33 2595.07C1429.17 2603.81 1419.08 2600.86 1412.44 2600.67C1348.7 2599 1284.95 2597.33 1221.2 2595.66C1189.28 2594.88 1157.45 2593.99 1125.53 2593.11C1109.66 2592.72 1093.7 2592.33 1077.74 2591.93C1069.76 2591.74 1061.78 2591.44 1053.8 2591.25C1046.3 2591.05 1037.26 2592.23 1029.95 2590.66C1026.88 2589.97 1027.55 2591.05 1027.74 2587.13C1027.84 2585.65 1027.55 2583.99 1027.55 2582.51C1027.36 2579.37 1027.26 2576.33 1027.26 2573.19C1027.26 2566.23 1027.45 2559.26 1028.03 2552.29C1028.99 2538.07 1031.3 2523.94 1034.76 2510.1ZM524.003 2450.35C526.599 2444.66 529.387 2438.97 531.503 2432.98C536.214 2419.93 541.887 2408.06 550.06 2396.78C558.329 2385.4 567.752 2375.09 575.059 2362.93C577.175 2359.4 579.194 2355.76 581.309 2352.23C584.386 2354.39 588.04 2355.86 591.598 2357.33C600.828 2361.36 610.155 2365.28 619.385 2369.31C643.231 2379.41 666.98 2389.52 690.73 2399.72C692.268 2413.56 695.441 2427.19 700.441 2440.24C710.633 2466.74 725.825 2491.85 752.844 2502.35C764.863 2507.06 777.459 2509.71 788.805 2515.79C799.285 2521.49 808.516 2529.14 816.304 2538.26C824.092 2547.39 830.342 2558.18 834.284 2569.66C836.207 2575.16 837.746 2580.94 838.611 2586.73C838.9 2588.6 839.092 2590.36 839.284 2592.13C839.477 2594.88 839.669 2594.19 837.842 2595.47C835.727 2596.94 830.438 2596.94 827.938 2597.43C797.458 2602.73 766.401 2602.43 735.729 2601.84C720.441 2601.55 705.249 2601.26 690.057 2600.96C682.749 2600.76 675.442 2601.16 668.807 2597.62C662.654 2594.39 657.077 2589.58 651.5 2585.46C626.116 2566.62 600.732 2547.88 575.252 2529.04C563.617 2520.41 551.406 2512.26 541.022 2501.86C536.503 2497.35 532.272 2492.44 528.426 2487.24C525.061 2482.53 520.061 2476.65 518.234 2471.05C516.311 2465.07 521.599 2455.65 524.003 2450.35ZM531.791 2459.57C556.31 2489.7 588.617 2510.59 620.347 2531.89C636.5 2542.88 651.692 2554.85 667.269 2566.42C676.403 2573.19 686.018 2577.31 697.364 2578.3C708.133 2579.18 719.095 2578.3 729.864 2578C756.305 2577.22 782.747 2576.43 809.093 2575.65C816.016 2575.45 816.016 2586.34 809.093 2586.54C784.959 2587.22 760.728 2587.91 736.498 2588.7C715.249 2589.28 691.499 2592.62 671.788 2582.22C662.654 2577.41 654.962 2570.15 646.789 2563.87C638.712 2557.69 630.443 2551.9 622.078 2546.21C605.732 2534.93 589.001 2524.23 573.04 2512.36C555.156 2499.21 538.33 2484.59 524.195 2467.32C519.868 2461.93 527.368 2454.27 531.791 2459.57ZM1058.61 2567.6C1152.45 2570.74 1246.29 2572.11 1340.14 2573.68C1364.18 2574.08 1389.18 2574.27 1411.39 2563.77C1417.64 2560.83 1423.02 2570.15 1416.77 2573.1C1397.83 2582.12 1377.25 2584.48 1356.48 2584.67C1333.31 2584.87 1310.04 2583.99 1286.87 2583.59C1238.22 2582.81 1189.56 2581.93 1140.91 2580.75C1113.41 2580.16 1086.01 2579.38 1058.61 2578.49C1051.68 2578.2 1051.68 2567.4 1058.61 2567.6ZM1192.45 1096.42C1203.89 1103.78 1215.53 1109.57 1228.31 1112.61C1231.29 1113.3 1234.18 1113.89 1237.26 1114.28C1253.79 1116.44 1270.43 1115.07 1286.97 1114.18C1325.04 1112.22 1362.93 1109.57 1400.91 1106.53C1437.92 1103.59 1475.42 1100.15 1512.54 1101.53C1530.71 1102.21 1547.63 1105.84 1564.27 1113.1C1579.56 1119.78 1594.65 1128.02 1611.09 1131.55C1626.57 1134.79 1641.29 1132.73 1653.4 1121.84C1659.65 1116.15 1665.13 1109.67 1671.38 1103.98C1676.77 1098.88 1682.44 1093.97 1687.92 1088.87C1699.07 1078.47 1710.42 1067.09 1715.9 1052.37C1718.88 1044.52 1720.23 1036.18 1721.48 1027.94C1722.44 1021.36 1723.49 1014.69 1722.63 1008.02C1722.24 1005.27 1721.48 1002.53 1720.23 999.975C1722.73 997.914 1724.74 995.461 1725.99 992.322C1726.86 990.065 1727.05 987.514 1726.76 985.159C1728.88 984.374 1730.23 982.412 1730.42 980.057C1730.71 976.427 1731.09 972.894 1731.38 969.264C1731.48 968.283 1731.38 967.204 1731.28 966.222C1732.53 965.437 1733.3 964.162 1733.88 962.788C1734.17 962.003 1734.17 961.218 1733.98 960.433C1734.07 960.139 1734.07 959.943 1734.07 959.943C1734.26 959.06 1734.36 958.079 1734.46 957.196C1734.65 955.822 1734.84 954.35 1734.74 952.878C1734.74 950.622 1734.17 948.659 1733.3 946.795C1735.32 946.893 1737.34 946.108 1738.21 944.244C1740.23 939.829 1740.23 935.217 1738.59 930.998C1739.84 930.606 1740.99 929.821 1741.57 928.643C1743.21 925.405 1745.13 922.069 1745.9 918.439C1746.09 917.654 1746.09 916.967 1746.09 916.182C1746.57 916.477 1746.86 916.673 1747.34 916.771C1758.21 919.322 1768.49 913.337 1776.47 906.272C1783.4 900.189 1788.78 892.242 1792.63 883.902C1792.92 883.313 1793.01 882.724 1793.2 882.136C1794.07 881.547 1794.84 880.566 1795.13 879.29C1796.19 874.482 1799.84 870.754 1801.76 866.24C1803.59 861.727 1804.17 856.919 1805.7 852.308C1809.65 839.945 1814.36 827.778 1818.68 815.514C1824.65 798.932 1835.51 777.15 1831.95 758.409C1833.88 759.587 1835.9 760.47 1838.11 760.764C1844.93 761.745 1848.59 757.036 1854.16 754.386C1858.78 752.228 1864.07 752.816 1868.3 749.579C1870.32 748.107 1871.66 746.144 1872.63 743.692C1873.4 741.533 1873.01 738.099 1874.07 736.235C1875.32 734.076 1878.97 732.899 1880.8 731.132C1882.24 729.661 1883.59 727.796 1884.55 725.932C1886.66 721.909 1887.43 717.102 1886.66 712.588C1886.28 709.743 1885.03 707.78 1883.97 705.131C1883.11 702.776 1882.91 703.758 1883.2 700.912C1883.39 699.048 1884.36 697.576 1885.13 695.908C1887.63 690.119 1889.07 684.036 1889.36 677.658C1890.13 664.903 1885.99 652.344 1881.18 640.668C1875.51 627.128 1868.97 613.882 1862.15 600.93C1857.63 592.492 1851.95 579.443 1840.42 581.111C1832.34 582.288 1828.88 588.862 1827.63 596.024C1825.7 595.338 1823.68 594.847 1821.86 594.356C1818.4 593.571 1814.74 592.885 1811.19 593.473C1809.84 593.768 1808.78 594.258 1807.82 594.749C1807.15 589.058 1803.78 581.307 1797.34 581.111C1794.17 581.012 1790.99 583.76 1788.59 585.428C1780.03 591.217 1771.86 597.3 1763.4 603.285C1759.94 605.738 1756.38 608.387 1752.63 610.546C1746.67 613.784 1739.65 615.157 1733.11 616.629C1717.53 619.965 1702.15 623.497 1691.67 636.841C1682.15 649.106 1678.5 664.609 1673.02 678.934C1648.4 743.593 1595.42 791.475 1545.13 835.922C1542.15 833.371 1539.17 830.82 1536.19 828.269C1499.46 796.675 1462.73 764.885 1424.94 734.567C1423.6 736.038 1422.06 737.51 1420.81 738.884C1419.75 740.061 1418.69 741.239 1417.64 742.416C1423.98 747.518 1430.33 752.718 1436.58 757.919C1471.87 787.158 1506.67 816.985 1541.38 846.911C1543.69 848.874 1546.58 848.972 1548.88 846.911C1575.33 823.559 1601.67 800.109 1625.13 773.716C1645.52 750.658 1663.98 725.344 1676.86 697.184C1682.92 684.036 1686.67 670.005 1692.53 656.759C1699.07 641.747 1708.88 633.505 1724.65 629.581C1736.38 626.637 1749.26 625.362 1759.74 618.788C1767.24 614.078 1774.36 608.682 1781.47 603.579C1785.32 600.832 1789.17 598.085 1793.11 595.338C1794.17 594.651 1795.22 593.964 1796.38 593.179C1796.47 594.356 1797.34 595.926 1797.34 597.496C1797.34 598.674 1797.15 599.851 1796.86 601.127C1796.28 604.364 1795.03 607.504 1793.49 610.448C1790.22 617.218 1785.51 623.203 1779.07 627.03C1777.82 627.815 1777.15 628.992 1776.86 630.071C1750.99 628.207 1725.03 636.155 1713.11 662.254C1712.73 663.235 1712.63 664.02 1712.63 664.903C1712.34 665.099 1712.05 665.394 1711.76 665.59C1708.78 668.533 1707.82 672.654 1707.25 676.677C1706.86 679.032 1706.38 681.387 1705.61 683.742C1705.23 685.017 1704.84 686.293 1704.36 687.47C1704.26 687.666 1703.88 688.549 1703.88 688.451C1703.59 689.236 1703.21 689.923 1702.92 690.61C1701.19 693.848 1702.73 697.38 1706.09 698.557C1712.25 700.814 1718.49 703.071 1724.74 705.328C1724.26 709.448 1724.84 713.471 1727.05 717.102C1723.78 718.475 1720.51 720.143 1717.34 722.008C1714.26 723.872 1714.36 727.306 1715.9 729.759C1712.44 742.416 1708.88 755.073 1705.13 767.632C1704.65 767.927 1704.17 768.319 1703.69 768.81C1679.07 799.717 1659.46 833.567 1640.42 868.203C1623.5 899.11 1605.9 929.624 1583.98 957.196C1573.79 970.049 1562.06 984.669 1544.75 986.729C1526.38 988.888 1508.6 978.193 1493.12 969.46C1459.17 950.327 1425.42 930.998 1391.29 912.258C1374.56 903.133 1357.83 894.106 1341 885.373C1331.87 880.566 1322.73 875.954 1313.5 871.343C1311.39 874.286 1309.27 877.328 1307.16 880.369C1314.37 883.902 1321.58 887.434 1328.7 891.162C1349.46 901.759 1369.95 912.846 1390.43 924.13C1426.48 943.95 1461.77 965.437 1498.21 984.669C1513.5 992.714 1530.81 999.975 1548.4 997.031C1566.29 994.088 1578.98 980.548 1589.94 966.909C1632.05 914.514 1657.92 851.523 1696.28 796.675C1691.28 812.472 1686.19 828.171 1680.71 843.772C1680.32 844.753 1680.42 845.636 1680.71 846.519C1678.98 850.542 1678.59 855.055 1678.11 859.47C1677.44 865.946 1677.44 872.52 1679.55 878.701C1683.21 889.494 1691.09 897.932 1699.94 904.604C1699.75 905.095 1699.55 905.586 1699.36 906.076C1698.4 908.431 1698.59 910.295 1699.84 912.552C1699.94 912.65 1700.03 912.748 1700.13 912.944C1700.13 912.944 1700.03 912.945 1699.94 913.043C1693.88 915.986 1691.09 922.756 1689.94 929.134C1689.46 931.783 1690.51 934.432 1693.01 935.512C1692.15 936.689 1691.38 937.964 1690.71 939.24C1689.55 941.3 1689.84 943.753 1691.28 945.52C1689.26 946.697 1687.63 948.463 1686.57 950.72C1685.03 954.154 1683.69 957.588 1682.44 961.12C1681.48 963.868 1683.5 967.007 1686.09 967.792C1682.92 969.657 1680.32 972.6 1679.07 976.034C1676.19 975.544 1672.92 975.936 1669.75 977.702C1663.98 980.842 1658.59 983.884 1652.44 986.14C1645.8 988.593 1639.36 989.28 1632.54 990.654C1620.61 993.107 1608.69 997.129 1597.44 1001.64C1586.19 1006.06 1575.33 1011.55 1563.69 1014.79C1539.36 1021.46 1513.6 1014.01 1489.65 1009.1C1463.21 1003.61 1436.96 997.326 1410.62 991.537C1384.75 985.944 1358.79 981.823 1332.64 977.506C1319.56 975.445 1306.49 972.502 1293.31 970.638C1282.06 969.068 1270.04 969.657 1259.08 966.026C1259.08 966.026 1259.08 966.026 1258.99 966.026C1247.06 961.905 1240.04 950.327 1232.54 940.712C1224.08 929.919 1215.53 919.126 1207.06 908.333C1190.33 886.845 1173.51 865.357 1156.87 843.772C1148.99 833.665 1141.39 823.265 1133.03 813.453C1125.53 804.623 1117.55 796.086 1111.39 786.078C1114.37 783.429 1117.26 780.584 1120.43 778.033C1122.16 776.561 1122.35 773.323 1121.2 771.459C1093.61 723.97 1061.01 679.719 1023.99 639.392C1019.28 634.29 1011.78 641.943 1016.4 647.046C1051.88 685.606 1083.03 727.895 1109.76 773.127C1091.78 788.629 1076.3 806.879 1063.03 826.699C1050.72 845.047 1040.34 864.671 1030.91 884.785C1026.11 895.185 1021.49 905.684 1017.07 916.28C1015.24 920.598 1013.41 929.428 1008.8 930.9C1003.61 932.568 995.242 926.975 990.435 924.817C945.339 904.899 902.456 880.075 862.553 850.836C856.88 846.813 851.592 856.232 857.168 860.255C881.399 877.917 906.59 894.008 932.84 908.431C944.186 914.613 955.724 920.5 967.454 926.092C978.8 931.489 990.723 938.063 1002.84 941.595C1009.47 943.557 1014.18 941.791 1017.74 937.965C1048.8 962.788 1074.66 993.99 1102.93 1021.76C1130.53 1048.94 1159.95 1075.53 1192.45 1096.42ZM1681.57 1011.36C1681.67 1015.87 1683.3 1019.99 1686.67 1023.03C1685.9 1025.68 1684.75 1028.23 1682.92 1030.49C1675.32 1040.11 1662.53 1044.72 1651.38 1048.64C1645.13 1050.9 1631.19 1056.1 1627.63 1046.88C1625.13 1040.5 1633.59 1034.41 1638.69 1031.18C1653.02 1028.23 1671.09 1022.54 1681.57 1011.36ZM1713.69 991.537C1713.21 991.144 1712.63 990.654 1712.05 990.359C1711.96 988.495 1711 986.631 1709.46 985.552C1704.55 982.216 1698.4 980.548 1692.53 981.921C1691.76 982.117 1691 982.51 1690.13 982.902C1690.13 982.804 1690.13 982.706 1690.13 982.608C1690.23 982.117 1690.32 981.529 1690.42 980.94C1690.71 979.959 1690.51 978.88 1690.23 977.997C1690.42 977.898 1691.48 977.015 1690.8 977.506C1691.28 977.212 1691.76 976.917 1692.25 976.623C1691.67 976.917 1693.21 976.329 1693.21 976.329C1693.78 976.132 1694.46 976.034 1695.03 975.936C1696.48 975.74 1699.65 975.936 1701.19 976.132C1703.11 976.427 1705.61 976.917 1707.73 977.604C1709.36 978.193 1711.57 979.174 1712.82 980.253C1713.4 980.842 1714.36 981.823 1714.55 982.216C1714.46 982.019 1715.13 983.001 1715.23 983.295C1715.42 983.491 1715.51 983.785 1715.61 983.982C1715.51 983.687 1715.51 983.687 1715.61 983.982C1715.8 984.472 1715.99 985.061 1716.09 985.552C1716.19 985.748 1716.19 986.14 1716.19 986.238C1716.28 986.631 1716.28 987.023 1716.19 987.318C1716.19 987.416 1716.09 988.201 1716.09 988.397C1715.99 988.593 1715.99 988.691 1715.99 988.789C1715.9 988.789 1715.9 988.888 1715.71 989.182C1715.71 989.182 1714.84 990.457 1715.23 989.967C1714.94 990.457 1714.46 990.85 1714.07 991.242C1714.07 991.242 1713.88 991.439 1713.69 991.537ZM1720.42 915.692C1716.86 914.22 1713.01 912.552 1709.17 911.865C1709.55 910.982 1709.75 910.099 1709.65 909.118C1710.61 907.352 1712.44 905.782 1714.36 905.193C1714.84 904.997 1715.23 904.899 1715.61 904.899C1715.8 904.801 1715.99 904.801 1716.19 904.801C1717.34 904.703 1717.73 904.801 1718.4 904.997C1720.42 905.586 1722.53 906.273 1724.36 907.156C1726.57 908.137 1728.69 909.314 1730.71 910.59C1731.19 910.884 1731.67 911.276 1732.15 911.571C1732.05 911.473 1732.82 912.061 1733.01 912.16C1733.69 912.748 1734.36 913.337 1734.94 913.926C1735.13 914.122 1735.13 914.22 1735.23 914.22C1735.23 914.318 1735.23 914.416 1735.32 914.612C1735.42 914.809 1735.51 914.907 1735.51 915.005C1735.51 915.005 1735.51 915.005 1735.51 915.103C1735.51 915.201 1735.61 915.201 1735.61 915.201C1735.61 915.397 1735.61 915.594 1735.61 915.692C1735.61 915.201 1735.32 916.673 1735.32 916.869C1734.74 918.635 1733.59 920.794 1732.63 922.658C1729.07 919.616 1724.65 917.556 1720.42 915.692ZM1737.24 877.132C1737.24 877.132 1737.34 876.935 1737.34 876.739C1737.34 876.935 1737.34 877.132 1737.24 877.132ZM1730.03 897.932C1728.98 897.442 1727.92 896.951 1726.96 896.559C1725.8 896.068 1724.65 895.578 1723.4 895.185C1723.78 893.812 1723.69 892.144 1723.78 890.868C1723.88 890.476 1723.88 890.181 1723.88 889.789C1724.07 889.102 1724.17 888.317 1724.26 887.63C1724.55 885.962 1724.94 884.392 1725.42 882.724C1725.71 882.037 1725.9 881.252 1726.19 880.566C1726.19 880.468 1726.28 880.173 1726.38 879.879C1726.48 879.683 1726.67 879.388 1726.67 879.388C1727.24 878.015 1728.01 876.739 1728.78 875.464C1728.88 875.365 1728.98 875.267 1728.98 875.267C1729.07 875.071 1729.26 874.973 1729.26 874.875C1729.65 874.482 1730.03 874.09 1730.51 873.697C1730.61 873.599 1730.61 873.599 1730.71 873.501C1730.71 873.501 1730.71 873.501 1730.8 873.501C1730.99 873.305 1731.28 873.109 1731.57 872.912C1731.76 872.814 1731.96 872.716 1732.15 872.618C1732.73 872.52 1733.21 872.324 1733.78 872.226C1733.78 872.226 1733.78 872.226 1733.88 872.226C1734.17 872.226 1734.46 872.226 1734.74 872.226C1735.13 872.226 1735.42 872.226 1735.8 872.226C1736.09 872.324 1736.48 872.422 1736.76 872.52C1736.86 872.52 1736.86 872.52 1736.96 872.618C1736.96 872.618 1736.96 872.618 1737.05 872.618C1737.05 872.716 1737.05 872.814 1737.15 872.912V873.011C1737.24 873.207 1737.24 873.305 1737.34 873.501C1737.34 873.403 1737.34 873.403 1737.34 873.305C1737.34 873.403 1737.34 873.501 1737.34 873.599V873.697C1737.44 874.09 1737.44 874.188 1737.34 874.188C1737.34 874.286 1737.44 874.482 1737.44 874.58C1737.44 875.169 1737.44 875.758 1737.34 876.248C1737.34 876.347 1737.34 876.445 1737.34 876.641C1737.15 877.818 1736.96 878.898 1736.67 880.075C1736.09 882.43 1735.23 884.785 1734.46 887.041C1733.98 888.317 1733.49 889.494 1733.01 890.77C1732.82 891.162 1732.53 891.653 1732.44 892.144C1732.92 890.476 1732.44 892.045 1732.24 892.536C1731.48 894.302 1730.71 896.068 1730.03 897.932ZM1729.26 936.787C1729.07 935.904 1729.26 937.572 1729.26 937.67C1729.26 937.768 1729.26 937.866 1729.17 937.965C1729.17 937.965 1729.17 938.063 1729.17 938.161C1729.17 938.259 1728.78 939.338 1729.07 938.749C1728.69 939.436 1728.59 940.025 1728.49 940.712C1725.61 937.964 1722.34 935.512 1718.88 933.451C1713.98 930.508 1707.73 927.172 1701.86 928.643C1701.48 928.741 1701.19 928.938 1700.8 929.036C1701.09 927.858 1701.48 926.779 1701.96 925.798C1702.82 924.13 1703.59 923.051 1705.32 922.364C1704.65 922.56 1706 922.364 1705.61 922.364C1705.71 922.364 1706.76 922.364 1706.96 922.364C1707.82 922.462 1708.78 922.854 1709.75 923.149C1711.76 923.836 1713.78 924.522 1715.71 925.405C1719.46 926.975 1723.78 928.938 1726.57 931.685C1727.82 932.961 1728.59 934.138 1728.98 935.61C1729.07 936.002 1729.17 936.395 1729.26 936.787ZM1696.19 954.939H1696.28C1696.28 954.939 1696.28 954.939 1696.19 954.939ZM1696.57 954.645C1696.67 954.546 1696.67 954.546 1696.57 954.645ZM1713.01 948.365C1709.17 946.697 1704.65 944.833 1700.13 944.244C1700.51 943.557 1701 942.87 1701.38 942.184C1701.67 941.791 1701.86 941.497 1702.05 941.202C1702.15 941.104 1702.63 940.516 1702.73 940.516C1702.92 940.221 1703.21 939.927 1703.5 939.731C1703.69 939.633 1703.88 939.436 1703.98 939.338C1704.46 938.946 1703.5 939.829 1704.26 939.24C1704.55 939.24 1704.65 939.142 1704.65 939.142C1704.75 939.142 1704.84 939.142 1704.94 939.142C1705.23 939.142 1705.32 939.142 1705.42 939.142C1705.51 939.142 1705.61 939.142 1705.9 939.24C1706.48 939.436 1707.05 939.633 1707.63 939.829C1707.82 939.927 1708.01 939.927 1708.21 940.025C1707.92 939.927 1707.92 939.927 1708.3 940.025C1708.78 940.319 1709.26 940.516 1709.84 940.81C1711.67 941.693 1713.49 942.772 1715.23 943.852C1717.24 945.225 1718.01 945.814 1719.74 947.384C1720.51 948.071 1721.28 948.856 1722.05 949.542C1722.44 949.935 1722.82 950.425 1723.21 950.818C1723.3 950.916 1723.49 951.112 1723.69 951.309C1724.07 951.799 1724.17 952.29 1724.07 952.878C1724.07 953.663 1724.07 954.448 1723.98 955.233C1720.61 952.486 1716.76 950.131 1713.01 948.365ZM1711.67 967.596C1708.4 966.321 1704.84 965.732 1701.28 965.339C1698.21 964.947 1695.03 964.947 1691.86 965.536C1692.25 965.045 1692.53 964.554 1692.73 964.064C1693.59 961.513 1694.55 958.962 1695.61 956.607C1695.9 956.116 1696.09 955.626 1696.28 955.135C1696.38 955.037 1696.38 955.037 1696.38 955.037C1696.48 955.037 1696.48 954.939 1696.38 954.939C1696.86 954.939 1697.25 954.939 1697.63 954.939C1697.82 954.939 1698.21 955.037 1698.3 955.037C1698.88 955.135 1699.46 955.233 1700.03 955.331C1701.19 955.626 1702.34 955.92 1703.5 956.313C1705.71 956.999 1707.44 957.588 1709.36 958.569C1713.49 960.63 1717.34 963.181 1720.42 966.615C1720.32 966.615 1720.71 967.4 1720.71 967.302C1720.9 968.675 1720.61 970.147 1720.51 971.521L1720.42 972.796C1717.92 970.54 1714.94 968.773 1711.67 967.596ZM1690.23 989.574C1690.23 989.476 1690.23 989.476 1690.23 989.476C1690.23 989.378 1690.23 989.28 1690.23 989.182C1690.23 989.28 1690.23 989.476 1690.23 989.574ZM1737.44 713.373C1737.24 713.079 1737.15 712.784 1736.86 712.49C1733.11 708.467 1736.67 700.618 1739.26 696.988C1743.01 691.689 1748.78 688.353 1754.94 686.587C1767.92 682.76 1782.44 684.625 1794.84 689.629C1806.28 694.142 1819.26 701.01 1826.57 711.509C1832.82 720.536 1834.74 735.842 1823.97 741.925C1820.61 737.706 1816.76 733.684 1812.34 730.151C1815.8 722.792 1816.67 714.06 1811.95 706.996C1806.86 699.44 1797.72 695.025 1789.36 692.572C1772.44 687.666 1745.9 690.316 1741.19 711.411C1741.09 711.803 1741.19 712.098 1741.19 712.49C1739.94 712.784 1738.69 713.079 1737.44 713.373ZM1797.24 720.536C1798.59 717.102 1799.74 713.569 1800.42 709.939C1801.19 710.626 1801.86 711.313 1802.44 712.098C1805.32 715.728 1804.94 720.045 1803.4 723.97C1801.38 722.792 1799.36 721.615 1797.24 720.536ZM1778.3 713.079C1777.92 712.981 1777.53 712.981 1777.15 712.883C1777.34 712.196 1777.63 711.509 1777.82 710.822C1778.49 708.663 1778.88 706.309 1779.17 703.954C1779.26 703.169 1778.97 702.286 1778.49 701.501C1780.99 701.697 1783.4 702.188 1785.42 702.678C1787.15 703.169 1788.97 703.758 1790.8 704.444C1790.7 704.641 1790.61 704.935 1790.51 705.229C1789.94 708.958 1788.88 712.588 1787.63 716.219C1784.45 714.943 1781.38 713.962 1778.3 713.079ZM1752.72 710.822C1755.71 704.837 1762.24 702.188 1769.17 701.501C1769.17 701.599 1768.97 701.697 1768.88 701.893C1768.59 702.482 1768.49 703.169 1768.49 703.856C1768.49 703.758 1768.49 703.561 1768.59 703.463C1768.21 705.72 1767.63 707.879 1766.86 710.037C1766.67 710.331 1766.47 710.724 1766.38 711.018C1761.86 710.626 1757.24 710.528 1752.72 710.822ZM1842.15 724.559C1841.86 720.438 1840.9 716.317 1839.36 712.588C1839.84 712.981 1840.32 713.275 1840.8 713.373C1846.18 714.452 1851.57 715.532 1856.86 716.513C1856.57 718.672 1856.38 720.928 1856.18 723.087C1856.18 723.577 1856.09 724.166 1855.99 724.657C1855.99 724.755 1855.99 724.853 1855.99 724.853C1855.99 724.951 1855.99 724.951 1855.99 725.049C1855.8 725.932 1855.7 726.815 1855.51 727.698C1855.41 727.993 1855.32 728.189 1855.32 728.483C1855.22 728.483 1855.22 728.385 1855.13 728.385C1853.88 727.993 1852.53 727.6 1851.18 727.208C1848.49 726.325 1845.7 725.442 1842.92 724.559C1842.63 724.46 1842.43 724.559 1842.15 724.559ZM1834.26 649.204C1830.42 646.947 1826.57 644.887 1822.53 643.023C1825.51 637.921 1827.53 632.328 1829.17 626.637C1830.32 634.29 1831.86 641.943 1834.26 649.204ZM1845.22 671.477C1844.26 671.673 1843.2 671.967 1842.24 672.262C1840.9 672.851 1839.45 673.439 1838.11 674.224C1836.38 672.458 1834.36 670.986 1832.43 669.515C1829.17 667.062 1825.8 664.707 1822.34 662.548C1817.34 659.31 1811.86 655.974 1806.09 653.914C1806.86 652.148 1807.53 650.382 1808.2 648.517C1821.76 653.619 1835.61 660.586 1845.13 671.379C1845.22 671.379 1845.22 671.379 1845.22 671.477ZM1789.36 662.254C1789.65 662.548 1789.94 662.646 1790.22 662.843C1789.65 664.118 1788.97 665.394 1788.49 666.669C1787.92 668.043 1787.53 669.416 1787.05 670.79C1786.86 671.477 1786.76 672.164 1786.57 672.851C1786.57 672.949 1786.47 673.145 1786.38 673.341C1785.9 674.028 1785.51 674.715 1785.32 675.5C1776.47 673.537 1766.96 673.047 1758.01 674.715C1760.13 670.299 1761.86 665.786 1762.92 661.076C1763.01 660.586 1763.11 660.095 1763.21 659.703C1764.36 659.016 1764.74 658.918 1766.09 658.525C1766.76 658.231 1767.44 658.133 1768.11 657.937C1768.21 657.937 1769.26 657.74 1769.46 657.74C1770.71 657.544 1771.96 657.544 1773.21 657.544C1774.74 657.642 1775.13 657.642 1776.47 657.937C1779.07 658.427 1781.76 659.212 1784.36 659.997C1785.51 660.39 1786.67 660.684 1787.72 661.175C1787.82 661.175 1788.49 661.469 1788.59 661.567C1788.78 661.665 1788.78 661.665 1788.88 661.763C1789.07 661.861 1789.26 662.058 1789.36 662.254ZM1744.55 679.13C1743.4 679.719 1742.24 680.209 1741.19 680.896C1741.09 680.896 1740.99 680.994 1740.99 680.994C1743.3 671.967 1746.19 663.137 1749.65 654.503C1750.03 654.895 1750.42 655.386 1750.8 655.778C1751.38 656.367 1751.96 656.955 1752.53 657.642L1752.63 657.839C1752.44 658.918 1752.15 660.095 1752.05 660.291C1750.61 665.786 1748.3 670.888 1745.13 675.696C1744.55 676.775 1744.46 677.953 1744.55 679.13ZM1844.65 682.957C1844.26 683.055 1844.26 683.055 1844.65 682.957C1844.93 682.859 1845.32 682.662 1845.61 682.564H1845.7C1845.13 684.428 1844.65 686.293 1844.07 688.255C1843.4 690.61 1842.63 693.063 1841.95 695.516C1841.67 696.693 1841.28 697.871 1840.99 699.048C1840.9 699.244 1840.8 699.539 1840.7 699.735C1840.03 699.931 1839.26 700.127 1838.59 700.225C1838.4 700.225 1838.3 700.324 1838.2 700.324C1839.55 695.516 1841.76 691.002 1843.01 686.195C1843.2 685.41 1843.4 684.625 1843.49 683.84C1843.49 683.742 1843.59 683.643 1843.59 683.447C1843.78 683.349 1843.97 683.251 1844.17 683.153C1844.36 683.055 1844.45 683.055 1844.65 682.957ZM1843.68 682.76C1843.78 682.564 1843.78 682.564 1843.68 682.76ZM1795.9 678.443C1796.19 677.855 1796.47 677.266 1796.67 676.481C1797.05 674.911 1797.44 673.341 1797.92 671.869C1798.2 671.084 1798.49 670.299 1798.78 669.515C1798.78 669.416 1798.88 669.22 1798.88 669.22C1799.07 668.828 1799.26 668.435 1799.36 668.141C1800.03 666.669 1800.7 665.296 1801.38 663.922C1801.38 663.922 1801.38 663.922 1801.38 663.824C1806.47 665.492 1811.19 668.239 1815.8 671.183C1818.88 673.047 1821.86 675.107 1824.74 677.266C1826.09 678.247 1827.43 679.228 1828.68 680.209C1829.36 680.798 1830.03 681.289 1830.7 681.877C1830.9 682.074 1831.09 682.27 1831.38 682.466C1831.57 683.153 1831.95 683.742 1832.34 684.232C1831.09 688.549 1829.26 692.67 1828.01 696.988C1818.97 688.451 1806.86 682.564 1795.9 678.443ZM1863.3 706.799C1859.07 706.014 1854.84 705.131 1850.51 704.248C1850.61 704.15 1850.61 704.052 1850.61 703.954C1851.18 702.188 1851.66 700.422 1852.15 698.656C1853.4 694.338 1854.65 689.923 1855.9 685.606C1860.03 692.278 1863.11 699.539 1863.3 706.799ZM1728.11 695.123C1723.59 693.455 1719.17 691.787 1714.65 690.217C1715.71 687.372 1716.57 684.428 1717.15 681.485C1717.44 679.817 1717.63 678.149 1718.01 676.481C1718.21 675.696 1718.4 675.009 1718.59 674.224C1718.69 674.224 1718.59 674.224 1718.69 674.224C1718.69 674.126 1718.88 673.832 1718.98 673.635C1718.98 673.537 1718.98 673.537 1719.07 673.537C1719.07 673.439 1719.07 673.537 1719.07 673.439C1719.17 673.439 1719.17 673.439 1719.17 673.439C1719.36 673.439 1719.46 673.439 1719.65 673.439C1719.84 673.439 1719.94 673.439 1720.13 673.439C1720.8 673.537 1720.71 673.537 1719.94 673.439C1720.23 673.341 1720.8 673.635 1721.09 673.635C1721.96 673.832 1722.82 674.126 1723.69 674.42C1726.09 675.205 1728.49 676.285 1730.9 677.266C1730.13 680.111 1729.36 683.055 1728.78 685.998C1728.3 688.059 1728.98 690.119 1730.32 691.395C1729.55 692.572 1728.78 693.848 1728.11 695.123ZM1719.07 673.439C1719.17 673.341 1719.17 673.243 1719.17 673.243C1719.17 673.341 1719.17 673.341 1719.07 673.439ZM1741.28 647.144C1738.49 653.521 1736.09 660.095 1733.98 666.767C1733.88 666.767 1733.88 666.865 1733.78 666.865C1730.9 665.688 1727.73 664.314 1724.65 663.431C1728.88 656.072 1734.65 650.774 1741.28 647.144ZM1798.11 645.083C1797.92 645.574 1797.82 646.064 1797.63 646.653C1797.34 647.34 1797.15 647.929 1796.86 648.615C1796.86 648.714 1796.86 648.714 1796.86 648.714C1796.76 648.714 1796.76 648.714 1796.76 648.812C1796.57 649.204 1796.47 649.499 1796.28 649.891C1795.9 650.872 1795.32 651.853 1794.84 652.835C1792.92 651.461 1790.61 650.676 1788.4 649.891C1785.22 648.91 1781.95 647.929 1778.69 647.34C1772.05 646.261 1765.71 646.947 1759.65 649.499C1757.53 647.144 1755.42 644.789 1753.3 642.434C1767.53 638.902 1783.78 640.57 1798.11 645.083ZM1794.17 628.501C1793.69 629.777 1793.3 631.151 1792.92 632.524C1792.05 632.328 1791.28 632.132 1790.42 632.034C1791.67 630.856 1792.92 629.777 1794.17 628.501ZM1823.49 606.229C1823.49 606.523 1823.4 606.817 1823.4 607.014C1822.43 610.644 1821.47 614.176 1820.51 617.807C1818.68 624.773 1816.76 631.739 1813.11 637.921C1812.92 638.215 1812.92 638.509 1812.82 638.902C1810.99 638.117 1809.17 637.43 1807.24 636.743C1805.99 636.253 1804.55 635.86 1803.2 635.37C1805.51 627.716 1807.92 620.063 1810.32 612.41C1810.8 610.546 1811.38 608.78 1811.95 606.915C1812.34 605.836 1812.53 604.855 1813.11 604.168C1813.2 604.168 1813.59 604.07 1813.2 604.07C1813.88 603.972 1814.65 604.07 1815.42 604.168C1815.61 604.168 1816.67 604.364 1816.76 604.364C1817.82 604.561 1818.78 604.757 1819.74 605.051C1820.99 605.346 1822.24 605.738 1823.49 606.229ZM1874.55 693.357C1873.78 694.927 1873.11 696.399 1872.53 697.969C1870.03 687.666 1863.88 677.953 1857.34 669.416C1855.51 667.062 1853.59 664.903 1851.66 662.843C1851.47 662.352 1851.38 661.861 1851.09 661.273C1841.86 645.77 1839.17 625.46 1837.92 607.602C1837.63 603.187 1836.28 595.338 1840.7 592.688C1844.74 590.334 1847.53 596.613 1849.26 599.753C1854.84 609.761 1860.03 619.965 1864.84 630.267C1874.07 649.793 1884.64 672.164 1874.55 693.357ZM1866.09 729.17C1866.28 727.993 1866.47 726.815 1866.57 725.638C1868.01 725.54 1869.45 724.853 1870.32 722.989C1872.63 718.279 1873.68 713.569 1873.78 708.86C1874.93 710.822 1876.09 712.686 1876.28 715.041C1877.05 722.792 1869.93 724.46 1866.09 729.17ZM1834.55 747.518C1838.01 744.182 1840.13 740.061 1841.28 735.45C1844.65 736.431 1848.01 737.51 1851.38 738.589C1853.4 739.178 1855.8 740.356 1858.01 740.356C1860.51 740.454 1862.05 739.08 1863.2 737.216C1862.82 739.08 1862.15 740.65 1860.22 741.729C1857.24 743.201 1853.4 743.005 1850.22 744.378C1846.67 746.046 1842.82 750.756 1838.78 749.775C1837.43 749.382 1835.99 748.597 1834.55 747.518ZM1815.42 793.045C1814.84 794.615 1814.26 796.184 1813.68 797.754C1815.61 783.233 1816.86 768.613 1817.53 753.896C1817.82 746.929 1807.15 746.929 1806.86 753.896C1805.42 787.452 1800.51 820.714 1792.34 853.289C1791.95 855.055 1792.34 856.527 1793.11 857.704C1793.11 857.802 1793.01 857.999 1793.01 858.097C1787.15 841.515 1771.96 829.937 1754.55 823.854C1743.3 819.831 1731.09 817.77 1719.07 817.672C1712.44 817.672 1705.42 817.967 1699.55 821.401C1704.36 806.683 1708.98 791.965 1713.49 777.15C1712.44 786.765 1711.76 796.381 1711.96 806.094C1712.05 813.061 1722.73 813.061 1722.63 806.094C1722.05 780.388 1728.21 755.171 1727.73 729.464C1727.73 729.17 1727.53 729.072 1727.53 728.778C1743.69 720.634 1762.24 719.26 1779.55 724.755C1788.2 727.502 1796.47 732.016 1803.78 737.608C1810.7 742.907 1818.97 750.069 1821.28 758.998C1824.07 769.987 1818.88 782.742 1815.42 793.045ZM1739.17 903.329C1739.26 903.231 1739.26 903.133 1739.36 903.035C1740.23 901.955 1740.71 900.778 1740.8 899.502L1740.9 899.404C1741.48 897.932 1742.05 896.461 1742.73 895.087C1743.78 892.34 1744.94 889.592 1745.8 886.747C1747.53 881.645 1749.07 875.562 1747.44 870.165C1745.42 863.003 1738.4 860.55 1731.67 861.629C1718.49 863.591 1713.98 879.879 1713.01 891.849C1712.92 892.045 1712.82 892.242 1712.73 892.438C1712.73 892.536 1712.73 892.536 1712.73 892.634C1712.53 893.223 1712.53 893.812 1712.53 894.498C1711.09 894.793 1709.75 895.381 1708.4 895.97C1708.01 896.166 1707.63 896.559 1707.25 896.755C1707.15 896.657 1707.05 896.461 1706.96 896.363C1700.03 891.457 1693.21 884.883 1690.03 876.641C1688.21 871.735 1688.11 866.731 1688.59 861.531C1688.88 857.9 1688.69 852.112 1691.38 849.266C1692.34 848.285 1692.73 847.108 1692.82 846.028C1695.71 842.692 1697.82 838.964 1700.51 835.137C1705.03 828.76 1711.96 828.465 1719.07 828.563C1729.17 828.563 1739.26 830.231 1748.88 833.273C1768.97 839.749 1786.38 853.78 1784.74 876.837C1784.17 877.23 1783.78 877.818 1783.49 878.407C1780.03 885.864 1775.99 891.947 1770.22 897.442C1767.44 900.091 1764.74 902.053 1761.09 904.016C1757.53 905.978 1754.17 907.254 1750.22 906.371C1747.82 905.782 1745.51 906.861 1744.26 908.922C1743.88 908.333 1743.59 907.744 1743.11 907.156C1742.05 905.684 1740.61 904.408 1739.17 903.329ZM1215.62 1097.21C1212.83 1095.84 1210.04 1094.36 1207.35 1092.79C1195.72 1086.32 1184.85 1078.47 1174.47 1070.42C1146.58 1048.84 1120.91 1024.9 1096.11 999.779C1072.36 975.544 1049.86 949.935 1023.32 928.741C1023.32 928.741 1023.32 928.643 1023.41 928.643C1028.13 917.065 1033.03 905.586 1038.32 894.302C1055.14 857.704 1075.53 822.284 1103.61 793.732C1109.76 803.249 1117.45 811.687 1124.76 820.321C1133.6 830.624 1141.78 841.711 1150.14 852.504C1168.12 875.758 1186.3 899.012 1204.47 922.266C1212.45 932.372 1220.33 942.478 1228.22 952.584C1235.04 961.218 1241.39 970.147 1251.58 974.661C1261.58 979.174 1272.54 979.37 1283.31 980.351C1295.62 981.431 1307.74 983.982 1319.95 986.238C1345.43 990.948 1371 994.284 1396.29 999.582C1421.39 1004.88 1446.39 1010.77 1471.48 1016.26C1483.79 1018.91 1496.19 1021.46 1508.6 1023.82C1520.13 1025.98 1531.86 1028.53 1543.69 1028.43C1566.19 1028.43 1585.42 1017.54 1605.9 1009.88C1617.34 1005.67 1629.55 1001.84 1641.67 1000.17C1651.57 998.699 1661.86 994.873 1670.61 989.869C1673.59 988.201 1677.05 984.178 1678.88 988.691C1680.13 991.831 1678.21 995.952 1676.86 998.797C1674.36 1004.1 1670.71 1007.33 1665.71 1010.08C1656.77 1014.89 1647.82 1017.93 1638.21 1020.19C1637.25 1019.99 1636.09 1020.09 1634.94 1020.78C1634.94 1020.87 1634.84 1020.87 1634.84 1020.87C1633.69 1021.07 1632.63 1021.36 1631.48 1021.56C1628.88 1022.05 1627.73 1024.01 1627.73 1026.07C1619.27 1033.14 1612.44 1043.34 1619.46 1054.14C1628.69 1068.46 1647.73 1061.79 1660.13 1056.98C1672.34 1052.27 1685.03 1046.29 1692.82 1035.2C1697.25 1028.82 1698.5 1021.95 1698.98 1014.3C1699.26 1009.88 1698.78 1003.21 1702.92 1000.47C1708.3 996.835 1711.28 1004.49 1711.96 1008.71C1713.21 1016.56 1711.28 1025.29 1709.94 1033.04C1708.5 1041.09 1706.57 1049.13 1702.34 1056.29C1694.36 1069.64 1681.67 1080.04 1670.32 1090.34C1664.46 1095.64 1658.69 1100.94 1653.21 1106.73C1647.44 1112.81 1641.86 1118.89 1633.59 1121.15C1617.34 1125.66 1599.17 1117.13 1584.56 1110.46C1569.36 1103.59 1554.27 1096.33 1537.73 1093.28C1520.23 1090.15 1502.44 1090.34 1484.75 1090.83C1448.02 1091.62 1411.39 1094.85 1374.75 1097.8C1338.7 1100.64 1302.54 1103.1 1266.49 1104.37C1251.87 1104.86 1236.87 1104.67 1222.93 1100.05C1220.53 1099.27 1218.03 1098.29 1215.62 1097.21ZM1753.69 814.434C1753.01 821.303 1742.73 821.499 1743.01 814.434C1743.4 806.389 1743.88 798.343 1744.46 790.297C1744.36 789.512 1744.26 788.629 1744.36 787.844C1744.74 785.588 1744.94 783.429 1745.23 781.172C1746.86 762.923 1748.97 744.771 1751.86 726.717C1752.72 720.732 1762.92 722.106 1762.34 728.189C1761.28 738.295 1760.13 748.401 1758.88 758.507C1757.15 777.15 1755.42 795.792 1753.69 814.434ZM1743.98 755.956C1743.59 758.998 1743.3 762.138 1743.01 765.179C1742.15 779.603 1741.48 794.026 1740.9 808.351C1740.9 808.547 1740.9 808.645 1740.8 808.744C1740.9 809.136 1740.9 809.627 1740.9 810.019C1741.48 816.985 1730.8 816.887 1730.23 810.019C1728.11 782.546 1729.84 755.073 1735.13 728.091C1736.38 722.204 1746.28 723.381 1745.61 729.563C1744.84 737.706 1744.26 745.85 1743.69 753.994C1743.88 754.583 1744.07 755.269 1743.98 755.956ZM1767.72 816.789C1766.96 823.657 1756.28 823.756 1757.05 816.789C1760.13 787.354 1763.88 757.919 1768.11 728.581C1768.49 725.638 1772.15 724.068 1774.65 724.755C1777.72 725.54 1778.78 728.581 1778.4 731.427C1774.26 759.783 1770.71 788.335 1767.72 816.789ZM1777.44 831.899C1774.84 831.899 1771.67 829.348 1772.05 826.405C1775.99 795.988 1779.17 765.474 1781.76 734.959C1782.34 727.993 1793.01 727.993 1792.44 734.959C1789.84 765.474 1786.67 795.988 1782.72 826.405C1782.34 829.348 1780.51 831.801 1777.44 831.899ZM1796.86 813.551C1796.47 817.28 1795.99 821.008 1795.51 824.737C1795.32 826.601 1795.13 828.465 1794.84 830.329C1794.74 831.605 1794.55 832.88 1794.45 834.156C1794.45 834.45 1794.45 834.647 1794.36 834.843C1795.32 837.296 1794.26 839.945 1792.15 841.319C1792.05 841.417 1791.95 841.515 1791.86 841.613C1789.36 843.379 1786.19 841.907 1784.55 839.651C1782.72 837.1 1783.88 833.273 1784.26 830.329C1784.74 826.012 1785.22 821.597 1785.8 817.28C1786.76 809.136 1787.72 801.09 1788.69 792.947C1790.7 776.07 1792.72 759.292 1794.74 742.416C1795.51 735.548 1806.19 735.45 1805.42 742.416C1803.49 758.311 1801.57 774.206 1799.65 790.101C1798.78 797.951 1797.82 805.702 1796.86 813.551ZM1272.16 917.065C1269.08 916.869 1266.1 914.318 1267.06 910.393C1274.47 880.664 1283.6 851.327 1294.85 822.872C1305.52 795.694 1318.02 768.908 1334.95 745.261C1338.98 739.669 1348.21 745.065 1344.18 750.756C1317.35 788.041 1300.04 832.782 1286.97 877.622C1283.5 889.592 1280.33 901.465 1277.35 913.239C1276.58 916.084 1274.37 917.164 1272.16 917.065Z" fill="black"/>
</g>
</g>
</svg>
