<svg width="2016" height="2629" viewBox="0 0 2016 2629" fill="none" xmlns="http://www.w3.org/2000/svg">
<mask id="mask0_94_556" style="mask-type:alpha" maskUnits="userSpaceOnUse" x="0" y="0" width="2017" height="2629">
<rect width="1383.17" height="2628.03" transform="matrix(-1 0 0 1 1383.17 0)" fill="#D9D9D9"/>
<rect width="1369.61" height="968.222" transform="matrix(-1 0 0 1 2016 142.927)" fill="#D9D9D9"/>
</mask>
<g mask="url(#mask0_94_556)">
<mask id="mask1_94_556" style="mask-type:luminance" maskUnits="userSpaceOnUse" x="483" y="308" width="2020" height="2185">
<path d="M2502.27 308.76H483.657V2492.68H2502.27V308.76Z" fill="white"/>
</mask>
<g mask="url(#mask1_94_556)">
<path d="M1645.61 914.645L1649.47 917.832L1649.74 912.864C1649.83 911.832 1649.83 911.176 1649.83 910.52C1649.83 909.864 1649.92 908.457 1648.82 907.239L1648.27 906.676C1647.9 906.301 1647.54 905.833 1647.08 905.458C1646.34 904.708 1645.61 903.958 1644.87 903.208C1643.03 901.708 1642.21 901.051 1640.19 899.645C1638.44 898.52 1636.6 897.489 1634.77 896.552C1634.22 896.27 1633.66 895.989 1633.11 895.802L1630.91 894.77L1630.72 894.958C1630.72 894.958 1630.63 894.958 1630.54 894.958L1629.81 894.583L1629.25 894.677L1628.52 893.833L1626.59 895.427C1626.5 895.427 1626.41 895.52 1626.22 895.708C1625.67 896.177 1625.3 896.458 1625.03 896.739L1624.66 897.02L1624.75 897.114L1624.48 897.395C1623.93 898.052 1623.74 898.427 1623.47 898.708C1623.01 899.458 1622.64 900.208 1622.18 900.958L1620.34 904.333L1624.11 904.801C1628.15 905.364 1632.38 907.051 1635.59 908.551C1639.27 910.145 1642.67 912.301 1645.61 914.645ZM1634.58 926.832C1631.55 925.707 1628.24 925.238 1625.21 924.863C1622.18 924.488 1619.52 924.582 1617.04 925.051L1610.79 926.269L1614.46 921.019C1614.65 920.738 1614.83 920.457 1614.92 920.176C1615.66 918.02 1616.48 915.863 1617.4 913.707L1610.33 910.707L1619.33 909.957L1619.61 909.395L1622.55 909.489L1622.73 909.864C1622.92 909.864 1622.92 909.864 1623.1 909.957C1623.65 910.051 1624.29 910.145 1624.84 910.239C1626.04 910.52 1627.14 910.801 1628.34 911.176C1630.63 911.926 1632.38 912.582 1634.31 913.614C1638.9 915.863 1642.39 918.301 1645.06 921.113L1646.16 920.738L1646.43 922.801L1647.63 924.113L1646.71 924.676C1646.71 925.707 1646.62 926.644 1646.53 927.488L1645.88 934.894L1642.02 931.425C1640 929.55 1637.52 927.957 1634.58 926.832ZM1641.01 894.114C1636.51 891.302 1631.18 888.677 1626.68 889.802L1621.45 891.583L1622.64 886.989C1623.01 885.49 1623.37 884.271 1623.93 883.333C1624.48 882.208 1625.21 880.99 1626.31 880.052L1626.22 879.677L1628.43 878.834L1629.35 881.271L1628.98 878.834L1629.62 880.896L1629.44 878.646C1629.44 878.646 1629.44 878.646 1629.53 878.646L1631.92 878.552V878.834C1632.65 879.021 1633.39 879.209 1634.31 879.49C1636.33 880.146 1638.26 880.99 1640.28 881.74C1644.14 883.427 1648.45 885.396 1651.39 888.302C1652.68 889.614 1653.51 890.833 1654.06 892.239H1654.33L1654.7 894.583V894.677L1652.86 894.958H1654.7V896.552L1654.33 897.77L1652.96 897.395L1654.33 898.052C1654.15 898.427 1654.06 898.802 1653.97 899.177L1653.23 904.145L1649.65 900.676C1647.17 898.239 1644.32 896.083 1641.01 894.114ZM1614.28 945.112L1617.4 944.456L1617.5 945.3L1616.03 960.674L1612.44 946.05L1612.35 945.581V945.206L1614.28 945.112ZM1717.72 677.747L1718.55 673.341L1721.86 676.341C1722.68 677.091 1723.51 677.841 1724.15 678.778C1727.09 682.434 1727.55 687.309 1725.44 692.653L1724.34 695.559L1721.77 693.965C1719.84 692.84 1718 691.715 1716.07 690.684L1713.96 689.653L1714.88 687.497C1716.16 684.122 1717.08 680.935 1717.72 677.747ZM1748.5 586.626L1750.24 598.344C1751.35 606.031 1752.91 613.062 1754.93 619.437L1757.04 625.999L1751.26 622.53C1747.86 620.562 1744.27 618.593 1740.23 616.718L1737.66 615.593L1739.13 613.062C1741.52 609.031 1743.35 604.344 1745.28 597.969L1748.5 586.626ZM1764.76 639.592L1767.06 643.061L1762.83 644.28C1762.28 644.373 1761.64 644.561 1761.08 644.748C1759.89 645.217 1758.6 645.78 1757.41 646.436L1755.76 647.28L1754.47 645.967C1753.18 644.748 1751.71 643.623 1750.24 642.592L1749.23 641.842C1746.2 639.499 1743.08 637.249 1739.86 635.28C1734.9 632.093 1729.94 629.093 1724.8 627.218L1722.22 626.28L1723.33 623.749C1724.06 622.155 1724.61 620.468 1725.16 618.781L1725.99 616.343L1728.47 617.187C1745.28 623.468 1756.86 630.686 1764.76 639.592ZM1776.24 689.465L1775.78 693.122C1775.69 694.059 1775.51 694.997 1775.32 695.84L1774.31 699.215L1760.35 694.809L1757.69 694.528L1757.5 692.465C1757.23 688.809 1756.4 685.153 1755.02 681.872L1751.71 673.81L1753.37 674.935L1754.01 672.216L1752.72 672.497L1753.83 668.373C1754.47 666.123 1755.3 663.873 1756.12 661.717C1756.77 660.029 1757.32 658.342 1757.87 656.654L1758.97 652.248L1759.16 651.311L1759.25 651.217L1759.52 649.998L1762.65 649.342L1763.01 649.811L1767.33 648.123L1761.27 669.029L1762.19 669.685L1761.64 670.247L1761.08 669.591L1760.72 670.716L1759.34 671.091C1758.6 671.279 1757.87 671.466 1756.77 671.654L1755.02 672.029L1753.55 675.029L1758.79 678.685C1759.16 678.966 1759.25 679.06 1759.34 679.06L1776.98 682.528L1776.7 684.966C1776.52 686.466 1776.33 687.966 1776.24 689.465ZM1689.89 680.56L1689.15 682.153L1687.41 681.966C1683.18 681.497 1678.95 681.403 1674.82 681.778L1670.41 682.06L1672.43 678.028C1675.28 672.122 1681.44 668.56 1690.16 667.623L1694.57 667.154L1692.74 671.279L1692.37 671.841C1692.28 672.029 1692.28 672.216 1692.28 672.497C1692.28 672.591 1692.28 672.685 1692.28 672.872C1691.91 674.935 1691.36 677.185 1690.44 679.435C1690.25 679.81 1690.07 680.185 1689.89 680.56ZM1740.78 710.558C1737.66 706.527 1734.08 702.965 1730.03 699.684L1728.47 698.371L1729.3 696.59C1730.86 693.122 1734.08 684.403 1729.11 676.903C1724.43 669.872 1715.52 666.123 1708.9 664.154C1699.35 661.435 1685.39 661.154 1675.74 666.966C1670.69 670.06 1667.38 674.56 1666.19 680.278V680.747L1666.09 682.903L1664.16 683.278C1662.97 683.559 1661.87 683.841 1660.76 684.122L1658.93 684.591L1657.64 682.528C1652.77 677.278 1656.91 668.373 1659.75 664.435C1663.34 659.373 1668.94 655.529 1676.02 653.467C1682.91 651.498 1690.53 651.029 1698.25 651.967L1701.37 647.186C1694.02 646.061 1686.76 645.967 1680.15 647.186L1675.1 648.123L1677.39 643.436C1679.41 639.311 1680.98 635.092 1681.99 630.686L1682.45 628.53L1683.55 627.968C1684.83 627.312 1685.2 627.124 1686.67 626.655C1687.41 626.468 1688.05 626.28 1688.78 626.093L1690.25 625.812C1691.63 625.624 1693.01 625.624 1694.3 625.718C1695.95 625.718 1696.41 625.812 1697.79 626.093C1700.27 626.562 1702.75 627.218 1705.6 628.155L1706.06 628.249C1707.07 628.624 1708.08 628.905 1709.36 629.374L1710.92 630.311C1711.2 630.593 1711.38 630.78 1711.48 630.874L1713.59 632.468L1712.12 635.749C1711.84 636.405 1711.48 637.155 1711.2 637.905C1710.74 639.124 1710.28 640.342 1709.91 641.561C1709.73 642.217 1709.55 642.873 1709.46 643.436L1707.99 643.155L1708.63 643.717L1709.27 643.998V644.186L1709.36 644.373L1709.18 644.561V644.655L1708.72 645.123C1708.44 645.405 1708.35 645.686 1708.26 646.061L1707.62 648.405L1705.5 647.936L1700.91 652.342C1705.87 653.092 1710.83 654.498 1715.79 656.467C1730.95 662.56 1741.24 669.685 1747.3 678.31C1751.71 684.684 1753.64 693.215 1752.08 699.965C1750.98 704.934 1748.22 708.777 1744 711.215L1742.07 712.246L1740.78 710.558ZM1694.66 667.154L1699.53 667.623C1701.92 667.904 1704.4 668.373 1706.52 668.935C1708.26 669.404 1710.1 669.966 1711.94 670.622L1714.42 671.654L1713.31 674.185C1712.76 677.747 1711.75 681.31 1710.37 685.153L1709.46 687.591L1707.07 686.653C1703.76 685.434 1701 684.497 1698.06 683.747L1694.66 682.528L1695.77 679.716C1695.95 679.341 1696.04 678.872 1696.23 678.403C1696.69 676.716 1697.05 674.841 1697.33 672.404C1697.33 672.31 1697.33 672.029 1697.05 671.466L1694.66 667.154ZM1278.87 458.38C1277.95 458.474 1277.12 458.568 1276.3 458.661C1268.86 459.786 1262.33 463.63 1257.1 470.286C1252.87 475.442 1250.11 481.911 1247.17 488.66C1242.49 499.535 1237.62 510.785 1226.41 516.784C1205.01 528.503 1181.49 516.691 1169.36 508.535C1153.84 498.129 1138.59 484.161 1121.5 464.661C1120.3 463.255 1119.02 464.005 1118.47 464.568C1117.64 465.224 1116.63 466.911 1118.1 468.505C1131.88 484.254 1150.53 503.941 1172.21 516.409L1174.05 517.441L1173.4 519.409C1163.48 551.658 1155.77 584.469 1150.44 616.812C1149.98 619.531 1149.52 622.343 1149.06 625.155C1147.59 634.53 1146.12 644.373 1143.46 653.748C1141.43 660.685 1139.05 666.498 1136.2 671.466C1130.32 681.31 1125.27 686.184 1120.58 686.184C1120.4 686.184 1120.21 686.184 1120.03 686.091C1115.8 685.809 1113.14 681.122 1111.3 677.653C1110.93 676.997 1110.66 676.435 1110.29 675.966C1108.45 672.872 1106.52 669.779 1104.69 666.591C1101.1 660.779 1097.71 654.779 1094.31 648.873C1087.23 636.311 1080.16 623.093 1072.63 608.281C1059.58 582.688 1047.27 556.627 1033.77 527.659L1033.31 526.628C1021.64 501.597 1008.5 473.286 1019.07 445.537L1019.43 444.506L1020.44 444.037C1036.61 437.662 1050.49 429.319 1061.69 419.382L1062.06 419.1C1064.08 417.788 1066.1 416.663 1068.22 415.538C1072.63 413.194 1076.85 410.944 1080.34 407.476L1083.93 403.726L1085.03 408.32C1086.13 413.101 1087.6 416.85 1089.62 420.132C1091.92 423.881 1096.97 430.256 1104.69 430.444C1107.44 430.537 1110.29 429.788 1113.78 428.194C1115.62 427.35 1117.27 426.225 1119.02 425.1L1121.04 423.788L1121.68 423.694C1123.06 423.6 1123.8 423.038 1124.35 421.538C1124.53 420.975 1124.44 420.225 1123.89 419.1C1123.61 418.538 1122.69 418.069 1121.68 417.975C1120.12 417.975 1118.47 419.194 1116.72 420.413C1115.9 420.975 1115.16 421.538 1114.33 422.007C1111.85 423.507 1109.1 424.913 1106.07 425.194C1102.48 425.569 1097.15 424.069 1092.65 415.069C1088.98 407.757 1088.15 399.601 1087.32 391.82L1087.14 389.289C1087.14 388.07 1087.14 386.852 1087.14 385.633C1086.96 375.04 1090.82 349.822 1103.58 339.791C1108.73 335.853 1114.52 334.822 1120.86 336.603C1131.51 339.697 1136.01 348.416 1140.42 356.853L1140.88 357.884C1143.73 363.321 1148.88 369.696 1156.87 368.946C1162.84 368.384 1166.33 362.29 1169.73 356.29C1170.37 355.072 1171.11 353.947 1171.75 352.822C1177.26 344.009 1182.41 334.447 1187.55 323.76L1188.65 321.51L1190.86 322.541C1206.84 329.76 1222 339.228 1236.7 348.416C1249.1 356.103 1261.87 364.165 1275.01 370.633C1276.94 371.571 1278.87 372.508 1280.8 373.446L1282.54 374.196L1282.27 376.071C1279.7 395.195 1280.71 413.944 1285.39 431.944C1286.03 434.1 1286.77 436.256 1287.6 438.506C1288.7 441.318 1289.71 444.318 1290.35 447.318C1291 450.224 1290.63 452.568 1289.34 454.443C1287.05 457.537 1282.73 458.005 1278.87 458.38ZM1635.78 949.425C1635.41 949.05 1634.95 948.768 1634.49 948.487L1633.2 947.737V946.237C1633.2 945.3 1632.65 944.362 1631.83 943.8C1627.51 940.8 1622.36 939.675 1617.77 940.706C1617.22 940.8 1616.85 941.081 1616.39 941.269L1612.07 942.862L1612.35 938.644L1612.63 936.769C1612.72 936.3 1612.72 935.738 1612.53 935.175L1612.72 933.019L1613.64 932.175L1613.54 931.894L1616.3 930.3L1616.48 930.582C1616.76 930.488 1616.94 930.394 1617.13 930.3C1617.77 930.113 1618.51 929.925 1619.24 929.832C1620.89 929.644 1624.11 929.832 1625.76 930.113C1627.42 930.3 1630.08 930.863 1632.38 931.613C1634.03 932.175 1636.51 933.207 1638.07 934.613C1638.26 934.706 1638.44 934.894 1638.62 935.081L1638.9 934.894L1640.28 936.956H1640.19L1640.65 936.863L1641.56 939.206C1641.84 939.769 1641.93 940.425 1642.12 941.081C1642.21 941.269 1642.21 941.55 1642.3 942.112C1642.3 942.581 1642.3 943.05 1642.3 943.425V943.894L1642.12 944.737L1642.21 945.675L1640.19 948.675L1640 948.581L1639.27 949.518L1638.99 949.331L1637.43 950.737L1635.78 949.425ZM1642.58 877.24C1639.27 875.834 1635.96 874.334 1632.65 873.771L1629.44 873.302L1630.72 870.209C1630.91 869.74 1631 869.271 1631 868.896L1630.91 868.146L1631.28 867.396C1632.56 864.959 1634.86 863.084 1637.25 862.334C1637.71 862.24 1638.17 862.147 1638.81 861.959C1639.08 861.959 1639.36 861.865 1639.64 861.865C1640.83 861.865 1641.56 861.865 1642.48 862.147C1644.14 862.615 1646.43 863.365 1648.55 864.303C1650.75 865.334 1652.96 866.553 1654.98 867.865C1655.44 868.146 1655.9 868.521 1656.36 868.803L1658.56 870.303L1658.47 870.396C1658.74 870.771 1659.02 871.053 1659.2 871.334L1660.12 871.615L1660.31 872.646L1661.13 872.834L1660.76 875.271L1658.84 875.177L1660.58 876.021C1660.49 876.396 1660.4 876.677 1660.4 876.771C1659.94 878.365 1659.11 880.052 1658.28 881.646L1656.17 885.677L1653.78 883.521C1650.57 880.802 1646.43 878.927 1642.58 877.24ZM1647.17 599C1650.02 598.344 1652.86 597.688 1655.8 597.125C1664.16 595.344 1672.89 593.563 1680.06 588.969C1685.29 585.782 1690.35 582.032 1695.31 578.376C1697.05 577.157 1698.89 575.845 1700.64 574.532L1701.55 573.97C1704.95 571.532 1708.35 569.095 1711.75 566.751C1712.85 566.001 1713.86 565.251 1714.97 564.595L1718.37 562.345L1718.83 566.564C1718.83 566.657 1719.01 567.22 1719.1 567.501C1719.38 568.439 1719.74 569.564 1719.84 570.782C1719.84 572.189 1719.56 573.501 1719.38 574.813C1718.73 577.813 1717.63 581.001 1715.89 584.469C1712.21 591.969 1707.25 597.688 1701.19 601.344C1700.64 601.719 1700.27 602.094 1700.08 602.75L1699.53 604.812L1697.51 604.625C1681.25 603.406 1651.95 605.656 1639.08 633.874C1638.9 634.249 1638.81 634.624 1638.9 635.186L1638.72 636.686L1637.71 637.53C1637.52 637.624 1637.43 637.717 1637.25 637.811C1636.05 639.03 1635.23 640.53 1634.67 642.217L1640.92 641.186L1641.56 640.155L1643.59 640.905C1643.86 640.905 1644.14 640.905 1644.32 640.999L1646.71 641.28V641.561C1646.98 641.655 1647.35 641.749 1647.63 641.936C1649.37 642.498 1651.03 643.155 1652.77 643.811L1656.81 645.498L1656.26 647.748C1655.53 650.467 1654.79 653.186 1654.24 655.998C1653.97 657.029 1654.33 658.06 1654.98 658.717L1656.63 660.31L1655.34 662.091C1654.61 663.123 1653.97 664.248 1653.32 665.373L1652.31 667.341L1634.95 660.967L1635.87 658.529C1636.97 655.717 1637.71 653.186 1638.17 650.654C1638.26 649.998 1638.35 649.342 1638.53 648.686C1638.62 647.748 1638.81 646.717 1638.99 645.78C1638.99 645.686 1639.08 645.592 1639.08 645.498L1634.03 644.936C1633.94 645.592 1633.76 646.248 1633.66 646.905C1633.3 649.529 1632.75 651.873 1632.1 654.029C1631.73 655.342 1631.28 656.654 1630.72 657.967L1629.35 661.154H1629.25C1628.89 661.904 1628.79 662.654 1629.07 663.31C1629.35 664.06 1629.99 664.716 1630.91 664.998L1650.66 672.216L1650.38 674.279C1650.02 677.841 1650.66 681.028 1652.31 683.747L1653.87 686.372L1651.12 687.497C1647.63 689.091 1644.78 690.497 1642.21 692.09C1641.56 692.465 1641.2 692.934 1641.01 693.497C1640.92 694.153 1641.11 694.997 1641.56 695.747L1642.21 696.778L1641.93 697.903C1638.81 709.34 1635.41 721.246 1631.55 734.183L1631.28 735.214L1630.45 735.683C1630.17 735.87 1629.9 736.058 1629.81 736.245C1607.48 764.088 1589.66 794.18 1569.63 830.835C1551.53 863.834 1535.37 891.021 1515.43 916.238C1505.88 928.238 1493.93 943.237 1476.29 945.3C1474.55 945.487 1472.89 945.581 1471.24 945.581C1455.44 945.581 1440.56 937.144 1427.24 929.644L1402.34 915.488C1377.99 901.708 1352.91 887.552 1328.11 873.865C1310.66 864.397 1295.04 855.959 1280.06 848.178C1271.34 843.679 1262.61 839.179 1253.88 834.866L1251.13 833.46L1252.87 831.023C1268.95 808.055 1285.48 786.118 1302.02 765.775C1317.73 746.37 1334.82 726.777 1352.64 707.559L1354.2 705.777L1356.04 707.277C1362.1 712.246 1368.17 717.214 1374.23 722.183C1403.99 746.932 1435.78 773.931 1474.36 807.211C1475.28 807.961 1476.66 808.617 1478.22 807.211C1505.23 783.4 1529.3 761.65 1550.8 737.464C1572.85 712.715 1588.83 688.997 1599.86 664.998C1602.89 658.529 1605.28 651.592 1607.67 644.936C1609.87 638.842 1612.07 632.561 1614.74 626.468C1621.35 611.468 1631.37 602.937 1647.17 599ZM1704.95 605.281L1709 601.906C1710.19 600.875 1711.29 599.844 1712.39 598.719L1719.93 590.75L1714.78 607.437L1704.95 605.281ZM1675.56 789.587C1665.27 785.931 1653.87 783.962 1642.48 783.868C1636.7 783.868 1630.26 784.056 1625.03 787.056L1619.24 790.431L1621.35 783.962C1625.86 770.65 1630.17 756.776 1634.67 741.776L1639.64 742.807C1638.81 750.869 1637.98 760.525 1638.17 770.181C1638.26 770.931 1638.44 771.587 1638.99 771.962C1639.45 772.431 1640.19 772.619 1640.92 772.619C1641.66 772.619 1642.3 772.337 1642.67 771.962C1643.13 771.587 1643.31 771.025 1643.31 770.275C1643.03 757.807 1644.41 745.245 1645.79 733.151C1647.08 721.339 1648.45 709.059 1648.18 697.34L1647.81 694.809L1649.47 693.965C1665.45 685.903 1683.73 684.497 1701 690.028C1709.46 692.653 1717.54 696.965 1724.89 702.684C1732.33 708.309 1740.23 715.433 1742.62 724.527C1745.28 734.839 1741.15 746.463 1737.84 755.838L1727.19 786.024L1730.4 761.932C1732.15 747.87 1733.43 733.808 1733.98 720.214C1734.08 718.339 1732.7 717.964 1731.78 717.871C1730.77 717.871 1729.02 718.339 1728.93 720.402C1727.55 752.557 1722.87 784.618 1714.97 815.93C1714.78 816.68 1714.88 817.336 1715.33 817.898L1715.89 819.304L1713.5 828.398L1710.74 820.711C1705.96 807.117 1693.1 795.774 1675.56 789.587ZM1658.1 863.459L1659.94 861.115C1660.4 860.553 1660.67 859.897 1660.76 859.241L1662.69 854.178V854.084L1660.4 845.835C1660.12 846.678 1659.85 847.522 1659.48 848.46C1659.11 849.678 1658.65 850.897 1658.1 852.022L1657.92 852.585C1657.83 852.772 1657.73 852.959 1657.64 853.241C1657.55 853.428 1657.46 853.616 1657.46 853.803L1657.18 854.459C1656.54 855.866 1655.9 857.366 1655.34 858.866L1654.15 861.303L1651.76 860.178C1650.84 859.803 1649.92 859.334 1649.01 858.959C1648 858.584 1646.98 858.116 1645.88 857.834L1643.68 857.084L1644.14 854.834C1644.32 854.084 1644.32 853.241 1644.41 852.491C1644.41 851.928 1644.41 851.46 1644.5 850.897L1644.69 849.397C1644.78 848.741 1644.87 848.178 1644.96 847.616C1645.24 845.928 1645.7 844.335 1646.16 842.647C1646.34 841.897 1646.62 841.147 1646.89 840.397L1647.44 839.085C1648.09 837.679 1648.82 836.366 1649.83 834.866L1650.38 834.21C1650.75 833.741 1651.21 833.273 1651.85 832.71L1654.33 831.304C1654.89 831.117 1655.44 830.929 1655.99 830.835L1657.37 830.742V825.679C1656.54 825.679 1655.71 825.679 1654.89 825.773C1642.12 827.742 1639.73 846.585 1639.27 852.303L1638.9 853.522C1638.81 853.709 1638.81 854.084 1638.81 854.459L1638.9 856.616L1636.88 857.084C1635.68 857.366 1634.58 857.834 1633.2 858.584C1632.93 858.772 1632.75 858.866 1632.56 859.053L1630.82 859.803L1629.44 858.584C1620.8 852.397 1615.11 845.554 1612.35 838.429C1610.24 832.804 1610.42 827.179 1610.79 822.961L1610.88 821.179C1611.16 817.336 1611.43 812.648 1614.19 809.649C1614.56 809.274 1614.74 808.805 1614.83 808.149V807.305L1615.47 806.555C1617.22 804.68 1618.69 802.43 1620.16 800.086C1620.99 798.868 1621.81 797.649 1622.73 796.43C1627.97 788.931 1636.05 789.024 1642.48 789.024C1652.4 789.118 1662.23 790.712 1671.7 793.712C1696.04 801.493 1709.18 817.617 1707.8 837.96L1707.71 839.179L1706.79 839.835C1706.52 840.022 1706.42 840.21 1706.33 840.397C1702.47 848.46 1698.43 854.366 1693.1 859.334C1690.25 862.053 1687.5 864.022 1683.82 865.99C1680.42 867.865 1676.38 869.553 1671.7 868.521C1670.5 868.24 1669.31 868.709 1668.76 869.74L1666.46 873.302L1664.26 869.553C1663.98 869.084 1663.8 868.709 1663.52 868.334C1662.69 867.303 1661.59 866.271 1660.12 865.053L1658.1 863.459ZM1756.77 702.028L1757.41 699.403L1769.63 703.152C1770.18 703.34 1770.73 703.527 1771.37 703.809C1772.75 704.277 1774.13 704.746 1775.23 704.84C1776.24 704.84 1777.07 704.559 1777.99 703.059L1779.64 700.434L1780.47 696.121C1780.65 695.09 1780.74 694.059 1780.93 693.028L1781.11 690.872L1783.23 690.778C1783.96 690.684 1784.33 690.403 1784.69 689.653C1786.62 685.716 1787.63 681.497 1787.73 677.278L1788 672.966L1786.72 667.529C1784.69 659.56 1780.19 651.217 1772.57 641.186C1771.1 639.217 1769.35 637.249 1767.33 635.186L1766.78 634.53L1766.6 633.874C1766.6 633.499 1766.51 633.311 1766.41 633.124C1757.13 617.562 1754.65 596.938 1753.55 580.719L1753.37 579.126C1753 574.345 1752.36 567.032 1757.41 564.033C1758.88 563.189 1760.44 563.001 1761.91 563.376C1765.13 564.314 1767.15 568.064 1768.62 570.782L1769.08 571.72C1774.13 580.719 1779 590.375 1784.14 601.156C1793.15 620.374 1803.44 642.217 1793.33 663.591C1792.69 664.998 1792.04 666.404 1791.59 667.716L1790.12 671.841L1792.78 676.435C1793.79 678.216 1794.98 680.278 1795.26 682.903C1795.9 689.465 1791.77 692.653 1788.46 695.09C1787.08 696.215 1785.8 697.153 1784.88 698.371L1783.68 699.684L1782.67 704.934C1782.31 706.902 1781.39 709.434 1778.54 710.933C1776.7 711.871 1774.68 712.246 1772.84 712.621C1771.37 712.902 1770 713.09 1768.8 713.652C1767.98 714.027 1766.87 714.777 1765.77 715.621C1763.57 717.214 1760.9 719.089 1757.96 719.089C1757.41 719.089 1756.77 718.996 1756.22 718.902C1754.75 718.527 1753.18 717.683 1751.35 716.371L1748.87 714.496L1751.07 712.34C1753.83 709.621 1755.76 706.152 1756.77 702.028ZM497.347 2342.22L499.736 2337.15C501.757 2332.84 503.778 2328.34 505.432 2323.75C510.484 2309.78 516.18 2298.53 523.438 2288.5C526.286 2284.56 529.317 2280.81 532.349 2276.97C537.494 2270.41 542.822 2263.66 547.232 2256.25C548.701 2253.91 550.08 2251.38 551.549 2248.94L554.581 2243.69L556.786 2245.28C559.358 2247.06 562.482 2248.38 565.513 2249.69L662.342 2290.94L662.526 2292.53C663.996 2305.84 667.119 2318.59 671.621 2330.59C683.564 2361.81 698.998 2380.18 720.219 2388.43C724.353 2390.12 728.671 2391.43 732.805 2392.75C740.155 2395.18 747.78 2397.62 754.854 2401.47C764.959 2406.9 774.054 2414.31 781.863 2423.4C789.58 2432.5 795.735 2443.18 799.593 2454.34C801.523 2459.96 802.901 2465.59 803.727 2471.12C804.003 2472.9 804.279 2474.68 804.37 2476.46L804.462 2477.31C804.646 2479.27 804.462 2480.31 802.625 2481.52L801.982 2481.99C799.961 2483.4 796.745 2483.68 793.806 2483.96C792.887 2484.06 792.06 2484.15 791.417 2484.24C770.655 2487.9 749.893 2488.84 727.752 2488.84C719.668 2488.84 711.4 2488.65 702.856 2488.56C693.21 2488.37 683.472 2488.18 673.734 2487.9L656.922 2487.62C650.583 2487.52 644.061 2487.43 637.814 2484.24C633.312 2481.81 629.178 2478.62 625.136 2475.52C623.758 2474.4 622.38 2473.37 621.002 2472.34L548.15 2418.43C545.945 2416.84 543.832 2415.25 541.628 2413.65C532.625 2407.18 523.254 2400.34 515.17 2392.28C510.576 2387.68 506.442 2382.9 502.859 2377.93C502.216 2377.09 501.573 2376.25 500.93 2375.4C497.807 2371.19 494.316 2366.5 492.754 2361.81C490.825 2355.81 494.591 2347.94 497.347 2342.22ZM1732.24 574.626L1733.8 574.345L1733.89 574.532C1734.26 574.626 1734.63 574.626 1735.09 574.72L1736.37 574.907C1737.29 575.095 1738.3 575.282 1739.31 575.563C1740.6 575.845 1741.79 576.313 1743.08 576.688L1745.1 577.438L1744.82 579.595C1744.73 580.063 1744.64 580.438 1744.55 580.626L1741.88 590.938C1740.23 597.219 1738.3 604.437 1734.63 610.718L1733.43 613.718L1731.14 612.781C1729.39 612.125 1727.64 611.468 1725.9 610.812C1724.89 610.437 1723.88 610.062 1722.78 609.781L1719.65 608.75L1727.19 584.376L1729.02 578.563C1729.3 577.532 1729.57 576.501 1730.4 575.563L1731.14 574.626L1732.05 574.72V574.626C1732.15 574.626 1732.15 574.626 1732.24 574.626ZM989.668 853.334C1009.05 811.242 1029.08 780.493 1052.6 756.494L1054.8 754.244L1056.55 756.869C1061.51 764.556 1067.66 771.681 1073.64 778.525L1076.58 782.087C1082.82 789.306 1088.79 797.087 1094.49 804.586C1096.6 807.399 1098.72 810.117 1100.83 812.93C1118.1 835.148 1135.46 857.366 1152.83 879.584L1177.08 910.52C1182.87 918.02 1188.47 925.144 1196.83 928.894C1204.55 932.363 1212.82 933.019 1221.64 933.675C1223.2 933.769 1224.76 933.956 1226.32 934.05C1236.06 934.894 1245.7 936.769 1255.08 938.55L1261.6 939.769C1271.52 941.644 1281.53 943.237 1291.46 944.831C1305.6 947.175 1320.3 949.518 1334.63 952.518C1348.51 955.424 1362.38 958.612 1376.25 961.705C1386.35 963.955 1396.37 966.299 1406.47 968.455C1420.07 971.361 1431.28 973.705 1441.75 975.674L1445.79 976.424C1455.35 978.205 1465.09 979.986 1474.92 980.08C1490.9 979.986 1504.96 974.174 1519.84 967.987C1524.34 966.112 1528.93 964.237 1533.53 962.455C1546.57 957.581 1557.96 954.487 1568.16 952.987C1576.98 951.768 1586.54 948.393 1594.99 943.519C1595.45 943.237 1596 942.862 1596.55 942.487C1598.39 941.175 1600.68 939.488 1603.07 940.238C1604.54 940.706 1605.64 941.831 1606.38 943.612C1608.03 947.831 1605.83 952.425 1604.45 955.424C1601.97 960.581 1598.39 964.33 1592.69 967.33C1584.51 971.736 1575.97 974.924 1565.87 977.174L1565.41 977.361L1564.85 977.267C1564.3 977.174 1563.84 977.267 1563.29 977.642L1561.27 978.205C1560.63 978.299 1559.99 978.486 1559.25 978.58C1558.52 978.767 1557.78 979.049 1557.69 980.361V981.58L1556.77 982.33C1550.16 987.955 1543.45 996.579 1549.42 1005.77C1556.86 1017.2 1571.84 1012.61 1585.25 1007.45C1596.73 1002.95 1608.4 997.517 1615.29 987.58C1619.42 981.674 1620.34 975.111 1620.8 968.924C1620.8 968.362 1620.8 967.705 1620.89 966.955C1620.99 962.643 1621.26 956.737 1625.67 953.737C1628.43 951.956 1630.63 952.237 1632.1 952.893C1636.79 955.049 1638.07 962.549 1638.26 963.393C1639.36 970.518 1637.98 978.205 1636.7 985.048L1636.24 987.486C1634.95 994.704 1633.02 1003.14 1628.7 1010.55C1621.9 1021.98 1611.8 1030.98 1601.97 1039.8L1597.65 1043.64C1592.6 1048.23 1586.72 1053.58 1581.39 1059.2L1580.93 1059.67C1575.42 1065.48 1569.82 1071.48 1561.46 1073.73C1558.24 1074.58 1554.93 1075.05 1551.63 1075.05C1538.58 1075.05 1525.17 1068.95 1514.05 1063.89L1509.46 1061.83C1495.86 1055.64 1483 1049.73 1468.76 1047.2C1452.78 1044.3 1436.61 1044.39 1418.69 1044.76C1386.91 1045.51 1354.57 1048.14 1323.43 1050.67L1313.69 1051.42C1274.09 1054.61 1241.2 1056.67 1210.15 1057.8C1196.19 1058.26 1181.4 1058.08 1167.34 1053.39C1165.04 1052.26 1162.2 1050.95 1158.98 1049.45L1152.27 1046.36C1140.42 1039.7 1129.58 1031.73 1120.58 1024.8C1096.69 1006.33 1072.9 984.861 1045.52 957.018C1039.92 951.393 1034.5 945.675 1028.99 939.863C1012.36 922.519 995.181 904.614 976.164 889.427L974.694 888.114L975.429 886.24C979.195 877.146 984.248 865.24 989.668 853.334ZM986.177 2397.62C990.771 2378.68 997.753 2360.12 1006.94 2342.5L1007.49 2341.47L1066.29 2329C1073.36 2327.59 1080.53 2326.19 1087.69 2324.78C1102.02 2321.87 1116.91 2318.97 1131.24 2315.31C1133.53 2314.75 1135.65 2313.91 1137.58 2312.97L1139.14 2312.22L1140.42 2313.44C1157.88 2330.69 1176.25 2346.81 1195.18 2361.53C1206.84 2370.62 1218.97 2380.09 1232.11 2387.22C1243.32 2393.22 1255.81 2396.87 1272.53 2399.03C1297.15 2402.31 1324.99 2405.96 1346.48 2426.21C1356.59 2435.68 1363.76 2447.4 1367.15 2460.06C1369.27 2467.84 1369.91 2474.31 1369.18 2479.74C1368.26 2486.68 1363.02 2487.99 1358.06 2487.99C1356.31 2487.99 1354.57 2487.81 1353.01 2487.71C1351.72 2487.62 1350.53 2487.43 1349.52 2487.43L1006.85 2478.43C1004.55 2478.34 1002.07 2478.43 999.59 2478.52C994.17 2478.71 988.566 2478.81 983.513 2477.77C983.054 2477.68 982.595 2477.59 982.319 2477.59C978.92 2477.12 979.195 2474.49 979.287 2473.37C979.287 2472.99 979.379 2472.43 979.379 2471.78C979.471 2470.93 979.379 2470.09 979.287 2469.24C979.287 2468.68 979.195 2468.12 979.195 2467.56C979.104 2464.56 979.012 2461.56 978.92 2458.56C978.92 2451.9 979.104 2445.15 979.655 2438.4C980.665 2424.9 982.87 2411.21 986.177 2397.62ZM1772.38 648.779L1775.42 653.654C1780.19 661.435 1782.67 668.654 1782.86 675.31L1782.95 678.497L1767.61 675.404L1764.94 674.56L1772.38 648.779ZM1707.99 623.468C1704.77 622.437 1701.92 621.593 1698.98 621.031C1693.01 620.093 1687.59 620.656 1682.26 622.999L1680.61 623.749L1670.32 612.406L1674.55 611.375C1687.5 608.093 1703.12 608.937 1718.73 613.812L1721.21 614.562L1720.3 617.562C1720.11 617.937 1720.02 618.312 1719.93 618.687C1719.65 619.343 1719.38 620.093 1719.01 621.031L1718.64 621.968C1718.27 622.624 1718 623.28 1717.63 623.937L1715.89 627.499L1713.5 625.905C1711.84 624.78 1709.82 624.03 1707.99 623.468ZM1749.05 666.685L1747.86 670.716L1744.92 667.81C1737.66 661.154 1727.64 655.342 1715.06 650.654L1712.3 649.623L1713.68 646.998C1713.86 646.623 1714.05 646.155 1714.14 645.686L1714.42 644.655C1714.69 643.436 1715.06 642.311 1715.43 641.092C1715.7 640.342 1715.98 639.592 1716.44 638.374L1716.9 637.249C1717.54 635.842 1718.18 634.53 1718.73 633.499L1719.47 631.061L1721.86 631.811C1727 633.405 1731.6 636.124 1736.28 639.03C1739.22 640.905 1742.16 642.873 1745.01 644.936C1746.29 645.967 1747.58 646.905 1749.14 648.123C1749.69 648.592 1750.34 649.061 1750.8 649.529C1751.07 649.811 1751.35 650.092 1751.62 650.279L1752.17 651.217C1752.27 651.498 1752.36 651.779 1752.63 651.967L1753.55 653.092L1753.18 654.498C1752.54 656.467 1751.81 658.529 1751.07 660.498C1750.34 662.56 1749.6 664.529 1749.05 666.685ZM1659.3 656.56L1660.95 649.998C1663.15 641.28 1666 632.655 1669.31 624.312L1670.87 620.562L1676.47 626.749L1677.21 628.249L1676.93 629.561C1676.75 630.499 1676.57 631.436 1676.47 631.53C1675.1 636.874 1672.71 642.123 1669.58 646.998C1669.31 647.373 1669.31 647.842 1669.4 648.498L1669.68 650.373L1667.01 651.686C1666.28 651.967 1665.54 652.342 1664.9 652.717L1663.7 650.748L1664.81 652.811L1659.3 656.56ZM1658.93 639.405L1656.17 639.78L1653.51 638.655C1651.39 637.811 1649.19 636.967 1647.08 636.311L1643.86 635.467L1645.61 632.561C1649.74 625.437 1655.44 619.812 1662.42 615.968L1668.94 612.406L1666 619.249C1663.34 625.53 1661.04 631.718 1659.11 637.905L1658.93 639.405ZM1634.95 2058.63C1651.12 2039.51 1677.39 2027.23 1701.74 2027.23H1701.92V2029.85L1702.01 2027.23L2191.21 2028.54C2191.12 2028.07 2191.12 2027.6 2191.12 2027.14L2192.31 1895.42C2192.31 1891.2 2195.8 1887.73 2199.94 1887.64C2206.55 1887.55 2213.26 1887.45 2219.97 1887.27L2225.11 1536.56L1887.22 1537.68L1881.71 1735.4C1889.42 1735.68 1898.15 1736.15 1906.51 1737.55C1913.31 1738.68 1916.53 1743.55 1919.65 1748.33C1920.29 1749.27 1920.84 1750.21 1921.49 1751.05L1972.38 1823.05C1972.75 1823.52 1973.21 1824.08 1973.58 1824.64C1974.95 1826.33 1976.61 1828.3 1977.16 1830.55C1978.17 1834.58 1975.78 1839.27 1973.85 1843.11C1973.3 1844.24 1972.75 1845.27 1972.38 1846.11L1971 1849.58C1969.53 1853.33 1967.97 1857.17 1966.41 1860.83C1958.79 1878.92 1949.87 1897.2 1932.51 1904.89C1924.15 1908.64 1914.6 1909.3 1904.03 1906.86L1902.84 1906.58C1898.15 1905.45 1890.99 1903.86 1887.95 1899.92C1885.47 1896.64 1885.93 1892.52 1886.67 1889.33C1888.05 1882.95 1890.8 1876.95 1893.47 1871.05C1894.2 1869.27 1895.03 1867.48 1895.76 1865.8L1896.22 1864.86C1897.69 1861.2 1899.35 1857.55 1900.63 1853.8C1900.82 1853.24 1901 1852.58 1901.09 1852.02C1901.37 1851.17 1901.64 1850.33 1901.92 1849.49C1901.92 1849.39 1901.92 1849.39 1901.92 1849.39C1901.37 1848.08 1900.45 1846.77 1899.53 1845.55C1899.16 1844.99 1898.7 1844.42 1898.34 1843.86C1895.95 1840.2 1893.47 1836.64 1890.89 1833.17C1889.88 1831.77 1888.87 1830.36 1887.95 1828.86C1884.74 1824.27 1881.43 1819.39 1877.48 1816.02L1877.11 1815.74C1876.65 1815.55 1876.01 1815.46 1875.46 1815.27L1874.91 1815.17C1871.97 1814.52 1868.94 1814.24 1865.81 1813.96C1858.1 1813.3 1849.65 1813.02 1839.36 1813.3C1829.07 1813.49 1820.71 1813.96 1812.99 1814.99L1811.15 1815.17C1807.02 1815.64 1802.06 1816.21 1798.93 1817.99C1798.57 1818.46 1797.92 1819.02 1797.28 1819.49L1795.99 1820.8C1794.98 1821.83 1793.88 1822.96 1792.87 1824.08C1790.3 1826.99 1788.37 1829.33 1786.72 1831.67C1783.5 1836.27 1781.57 1840.2 1780.56 1844.14C1778.45 1852.11 1781.02 1860.36 1783.78 1867.3C1785.98 1873.02 1788.55 1878.73 1791.13 1884.17C1793.05 1888.48 1794.98 1892.7 1796.55 1896.64C1797.01 1897.3 1797.28 1898.05 1797.46 1898.7C1798.57 1901.23 1798.02 1903.2 1797.46 1904.42C1796.64 1906.3 1794.89 1907.61 1793.15 1908.08C1791.59 1908.83 1789.93 1909.01 1788.37 1908.64C1783.32 1907.51 1777.25 1907.8 1770.82 1908.08C1758.24 1908.64 1743.91 1909.3 1735.55 1898.51C1726.27 1886.61 1718.83 1872.92 1711.66 1859.61L1708.44 1853.8C1705.87 1849.2 1703.21 1844.52 1701.74 1839.45C1700.45 1834.67 1702.01 1831.11 1704.03 1827.36C1709.82 1816.3 1717.26 1805.89 1724.34 1795.77L1727.92 1790.71C1736.74 1778.14 1747.21 1763.43 1758.6 1749.36L1759.61 1748.05C1764.76 1741.58 1769.17 1736.05 1778.54 1735.11C1783.59 1734.65 1789.1 1734.27 1795.26 1733.99L1797.19 1539.56C1789.84 1535.72 1783.04 1530.75 1776.98 1524.75C1751.71 1499.72 1742.44 1462.12 1753.83 1431.09C1767.24 1394.35 1807.11 1369.22 1844.41 1373.72C1852.13 1374.66 1859.84 1376.91 1867.28 1380.19H2262.13C2263.79 1380.19 2265.26 1380.66 2266.45 1381.6C2270.03 1379.91 2273.71 1378.5 2277.38 1377.38C2311.1 1366.97 2348.4 1376.63 2369.99 1401.56C2394.88 1430.06 2397.82 1476.94 2376.97 1508.72C2377.24 1509.47 2377.43 1510.31 2377.43 1511.06L2385.24 1887.92C2390.29 1888.2 2395.34 1888.58 2400.4 1888.95C2404.62 1889.33 2407.74 1892.52 2407.84 1896.64L2410.13 2027.14C2410.13 2027.79 2410.13 2028.54 2409.95 2029.1L2425.48 2029.2C2426.03 2029.2 2426.49 2029.29 2426.39 2029.39H2427.4C2468.93 2039.42 2497.22 2075.7 2496.21 2117.88C2495.75 2138.04 2488.4 2157.72 2475.64 2173.19C2470.67 2179.19 2457.35 2193.72 2440.91 2198.41C2426.49 2202.53 2410.59 2203 2395.25 2203.47C2391.94 2203.57 2388.54 2203.66 2385.33 2203.85C2351.15 2205.25 2316.61 2205.63 2284.18 2205.82C2265.99 2205.91 2247.62 2205.91 2229.34 2205.91C2171.74 2205.91 2113.86 2205.53 2057.54 2205.07L1991.77 2204.6C1902.29 2203.94 1809.78 2203.28 1718.83 2204.6C1716.53 2204.6 1714.23 2204.69 1711.84 2204.78C1703.85 2205.07 1695.58 2205.35 1687.41 2203.75C1677.39 2201.69 1667.93 2198.32 1659.3 2193.63C1643.03 2184.91 1629.81 2171.22 1622.18 2154.91C1607.48 2123.6 1612.53 2084.98 1634.95 2058.63Z" fill="white"/>
</g>
<mask id="mask2_94_556" style="mask-type:luminance" maskUnits="userSpaceOnUse" x="644" y="142" width="2023" height="2279">
<path d="M2666.91 142.925H644.337V2420.69H2666.91V142.925Z" fill="white"/>
</mask>
<g mask="url(#mask2_94_556)">
<path d="M651.596 1304.73C678.513 1314.29 706.533 1319.73 734.736 1323.29C749.251 1325.07 763.858 1324.32 778.466 1324.41C793.073 1324.51 807.312 1326.85 821.827 1328.44C874.468 1333.88 927.384 1333.04 980.024 1327.79C1006.21 1325.26 1032.3 1321.79 1058.3 1317.94C1074.01 1315.6 1089.9 1315.79 1105.52 1312.79C1119.39 1310.16 1135.37 1304.35 1140.06 1289.26C1143.73 1277.26 1144.19 1263.48 1146.03 1251.01C1148.05 1237.23 1150.07 1223.35 1152.09 1209.57C1160.09 1155.48 1166.88 1109.08 1174.78 1054.98C1175.24 1052.08 1125.27 1034.83 1102.3 1013.46C1084.29 996.674 1059.77 976.894 1043.6 958.707C1027.06 940.052 987.833 909.584 972.583 889.71C972.583 889.71 1010.71 783.026 1059.49 750.965C1074.65 778.151 1134.18 853.523 1151.17 873.398C1159.63 883.241 1174.6 903.303 1186.27 915.771C1194.44 924.396 1201.61 927.958 1201.61 927.958C1201.61 927.958 1208.5 902.365 1210.34 895.428C1214.38 880.241 1218.42 865.054 1222.56 849.867C1223.11 847.711 1226.87 837.305 1226.87 837.305L1245.89 845.836C1245.89 845.836 1247.64 842.93 1248.19 842.18C1265.83 816.587 1284.38 791.557 1303.95 767.464C1321.04 746.371 1338.95 725.841 1357.51 705.966C1361.18 702.029 1366.15 697.998 1366.51 692.186C1366.88 686.936 1364.12 682.53 1360.91 678.686C1352.37 668.468 1342.81 658.906 1333.9 648.875C1297.34 607.626 1262.98 564.221 1230.92 519.129C1227.42 514.255 1219.52 518.379 1221.64 523.254C1207.21 527.66 1191.5 524.942 1179.84 515.005C1176.9 512.473 1172.58 513.317 1171.39 517.254C1161.37 549.691 1153.47 582.783 1147.87 616.345C1145.85 628.625 1144.38 641.094 1140.98 653.093C1139.32 658.999 1137.12 664.812 1134 670.061C1131.7 673.999 1125.54 683.936 1120.21 683.561C1116.63 683.28 1114.15 677.28 1112.5 674.561C1110.57 671.468 1108.73 668.374 1106.8 665.28C1103.31 659.374 1099.91 653.468 1096.51 647.562C1089.07 634.25 1081.81 620.751 1074.92 607.157C1061.33 580.533 1048.74 553.534 1036.16 526.535C1024.58 501.693 1010.71 472.819 1021.82 445.445C1022.01 444.882 1022.1 444.32 1022.19 443.851C1024.58 440.57 1021.92 434.476 1016.86 435.789C979.473 445.82 941.991 455.382 904.692 465.788C872.906 474.6 843.141 487.162 819.163 510.786C775.25 554.003 766.706 616.532 756.601 674.936C744.474 744.496 732.348 814.056 720.313 883.616C696.244 1021.89 672.174 1160.17 648.105 1298.44C647.645 1301.35 648.84 1303.79 651.596 1304.73ZM1075.66 188.579C1109.74 156.986 1158.89 142.737 1203.63 156.33C1249.2 170.111 1283.83 208.266 1304.78 250.358C1309.92 260.576 1313.87 270.982 1316.9 282.044C1319.94 293.2 1322.51 304.918 1328.48 314.949C1334.91 325.636 1346.21 332.105 1356.96 337.542C1368.72 343.448 1381.12 348.042 1393.25 353.198C1400.78 356.385 1420.9 363.416 1411.34 375.322C1407.39 380.384 1400.05 380.478 1394.35 381.322C1385.53 382.634 1376.71 383.947 1367.98 385.259C1351.63 387.697 1335.19 390.79 1318.74 388.54C1302.94 386.384 1288.24 379.916 1273.91 372.978C1239.74 356.01 1209.42 330.043 1172.86 318.324C1129.22 304.262 1084.29 319.074 1043.23 334.824C1040.66 335.855 1037.63 333.699 1036.98 331.261C1023.11 280.638 1037.17 224.203 1075.66 188.579ZM2221.35 1459.69C2221.44 1472.16 2223.73 1484.34 2228.42 1495.5C2228.33 1495.78 2228.24 1496.06 2228.24 1496.34C2228.14 1505.44 2227.96 1514.44 2227.87 1523.53C2214 1523.62 2200.22 1523.62 2186.44 1523.72C2123.69 1523.91 2061.04 1524.09 1998.29 1524.28C1962.46 1524.47 1926.63 1524.56 1890.8 1524.66C1890.8 1524.66 1890.9 1524.56 1890.99 1524.56C1899.07 1517.16 1906.05 1507.97 1910.83 1497.94C1919.28 1480.22 1920.85 1460.06 1915.7 1441.13C1910.46 1422.1 1898.98 1405.13 1883.73 1393.13H2252.58C2232.83 1408.6 2221.53 1432.69 2221.35 1459.69ZM2317.16 1488.84C2304.85 1494.19 2287.86 1490.25 2280.05 1479.56C2272.7 1469.72 2272.33 1455.56 2277.48 1444.88C2283.36 1432.69 2295.21 1426.22 2308.8 1428.28C2316.8 1429.6 2324.15 1433.06 2329.11 1439.72C2333.15 1445.06 2335.08 1452.1 2335.08 1458.94C2335.08 1471.13 2328.83 1483.88 2317.16 1488.84ZM2280.97 1529.62C2249.82 1520.16 2231.73 1492.22 2231.54 1459.69C2231.63 1441.13 2237.06 1422.75 2249.82 1408.97C2261.03 1396.97 2276.28 1389.75 2292.27 1387.22C2320.2 1382.82 2351.16 1393.5 2366.68 1418.44C2383.95 1445.91 2381.66 1487.16 2358.96 1510.97C2339.21 1531.69 2307.7 1537.69 2280.97 1529.62ZM2344.91 1453.41C2342.61 1435.03 2329.38 1421.35 2311.56 1418.25C2301.45 1416.75 2291.07 1417.88 2282.35 1423.78C2274.81 1428.85 2269.48 1436.44 2266.45 1445.06C2261.12 1460.16 2263.97 1478.63 2275.55 1490.06C2288.5 1502.72 2310.83 1505.44 2326.17 1495.78C2340.04 1486.97 2346.93 1469.63 2344.91 1453.41ZM2232.37 1889.61C2232.46 1889.24 2232.65 1888.86 2232.65 1888.39C2232.92 1872.17 2233.1 1855.96 2233.38 1839.74C2234.39 1769.33 2235.49 1699.02 2236.5 1628.62C2237.06 1589.9 2237.61 1551.19 2238.16 1512.37C2239.26 1513.87 2240.36 1515.28 2241.56 1516.69C2253.78 1530.28 2270.86 1539 2288.59 1542C2315.88 1546.69 2345.09 1539.09 2364.84 1519.5C2365.12 1532.25 2365.39 1545 2365.67 1557.75L2369.8 1760.33L2372.47 1888.39C2372.47 1888.95 2372.65 1889.33 2372.74 1889.8C2326.08 1887.55 2279.22 1888.67 2232.37 1889.61ZM2201.78 2031.17C2202.97 2030.32 2203.8 2029.01 2203.8 2027.14C2203.89 2021.61 2203.98 2016.07 2203.98 2010.54C2204.35 1973.89 2204.63 1937.23 2204.99 1900.49C2268.38 1899.45 2331.86 1896.83 2395.16 1901.61C2395.25 1905.45 2395.34 1909.3 2395.44 1913.14C2396.08 1951.11 2396.72 1989.17 2397.46 2027.14C2397.46 2029.48 2398.74 2030.98 2400.4 2031.73C2370.26 2031.64 2340.04 2031.54 2309.81 2031.45C2273.8 2031.36 2237.79 2031.26 2201.78 2031.17ZM1853.41 1747.49C1869.4 1747.87 1885.66 1748.05 1901.64 1749.93C1902.56 1750.02 1904.22 1750.68 1905.5 1750.68C1907.98 1754.71 1911.11 1758.46 1913.77 1762.21C1930.49 1785.93 1947.3 1809.64 1964.02 1833.27C1957.59 1848.64 1952.26 1864.77 1943.08 1878.64C1932.97 1893.74 1918.55 1898.42 1901.55 1892.61C1900.63 1892.24 1899.81 1891.86 1899.35 1891.95C1899.44 1891.2 1899.62 1890.36 1899.72 1889.99C1900.63 1887.17 1901.74 1884.45 1902.84 1881.74C1905.6 1874.89 1908.72 1868.24 1911.38 1861.39C1913.04 1856.99 1915.7 1851.36 1914.51 1846.58C1913.59 1842.55 1910.19 1838.52 1907.89 1835.14C1903.85 1829.14 1899.62 1823.33 1895.21 1817.61C1892.27 1813.68 1889.33 1809.18 1885.57 1805.99C1878.59 1799.99 1865.45 1800.74 1857 1800.46C1842.85 1799.89 1828.52 1800.27 1814.46 1801.77C1808.95 1802.43 1803.25 1803.08 1797.93 1804.58C1792.41 1806.27 1789.29 1809.08 1785.25 1813.39C1774.41 1825.02 1765.31 1838.99 1767.43 1855.67C1769.08 1869.46 1776.15 1882.3 1782.03 1895.05C1771.84 1894.67 1761.45 1896.36 1751.44 1893.83C1743.91 1891.95 1740.6 1883.52 1736.74 1877.24C1730.68 1867.49 1724.89 1857.46 1719.56 1847.33C1717.72 1843.96 1715.98 1840.39 1714.42 1836.92C1714.33 1836.83 1714.23 1836.36 1714.05 1835.89C1714.05 1835.71 1714.14 1835.52 1714.23 1835.33C1722.69 1821.08 1731.69 1807.49 1741.15 1794.08C1751.44 1779.65 1761.64 1764.74 1773.4 1751.62C1774.13 1750.68 1775.05 1749.93 1775.79 1748.99C1776.8 1747.77 1776.06 1748.52 1776.7 1748.24C1775.51 1748.8 1777.44 1748.24 1778.27 1748.15C1784.24 1747.49 1790.3 1747.4 1796.27 1747.3C1815.29 1746.93 1834.4 1747.12 1853.41 1747.49ZM1898.8 1893.92C1898.43 1891.86 1898.61 1892.24 1898.71 1892.8C1898.71 1893.08 1898.71 1893.45 1898.8 1893.92ZM2391.3 2085.54C2407.1 2089.76 2415.92 2102.88 2414.64 2118.73C2413.72 2130.54 2406.09 2143.01 2394.52 2146.94C2381.66 2151.44 2364.84 2146.38 2357.49 2134.57C2350.79 2123.88 2351.71 2109.91 2357.95 2099.13C2365.03 2087.23 2377.8 2082.26 2391.3 2085.54ZM1904.31 1748.9C1904.31 1748.99 1904.86 1749.55 1904.95 1749.74C1904.95 1749.83 1905.04 1749.93 1905.04 1750.02C1904.58 1749.74 1904.22 1749.37 1904.31 1748.9ZM1873.53 1536.47C1873.9 1536.37 1874.18 1536.28 1874.54 1536.09C1874.36 1542.56 1874.18 1549.12 1873.99 1555.69C1872.25 1616.34 1870.59 1676.99 1868.85 1737.55C1868.76 1737.55 1868.66 1737.55 1868.57 1737.55C1848.64 1736.9 1828.15 1735.96 1807.94 1736.24C1807.94 1736.15 1807.94 1736.05 1807.94 1735.96C1808.03 1727.9 1808.12 1719.84 1808.21 1711.77C1808.77 1655.24 1809.32 1598.62 1809.87 1542.09C1830.36 1548.84 1852.95 1546.87 1873.53 1536.47ZM1849.19 1488.84C1838.72 1494.19 1824.93 1494.19 1815.56 1486.41C1805.09 1477.69 1800.77 1460.35 1806.56 1448.35C1811.98 1437.1 1824.11 1430.44 1836.14 1430.35C1849.37 1430.25 1860.4 1438.6 1864.62 1452.1C1869.22 1467.56 1863.06 1481.81 1849.19 1488.84ZM1908.08 1455C1909.82 1470.66 1906.33 1486.41 1898.15 1499.81C1894.11 1506.47 1888.78 1513.41 1882.63 1518.09C1878.59 1521.28 1873.99 1524 1869.77 1526.91C1853.6 1535.44 1835.22 1538.81 1817.4 1534.03C1801.88 1529.72 1788.1 1519.78 1778.36 1506.94C1760.9 1483.88 1755.76 1451.44 1770.27 1425.57C1786.44 1396.6 1822.55 1379.25 1854.42 1389C1882.81 1397.72 1904.58 1425.19 1908.08 1455ZM1874.45 1449.38C1871.33 1439.44 1865.45 1430.53 1856.45 1425.28C1848.73 1420.78 1839.73 1419.28 1831 1420.41C1814.92 1422.47 1799.95 1433.25 1795.26 1449.56C1790.3 1467 1798.11 1488.38 1813.64 1497.56C1827.51 1505.81 1845.97 1504.12 1859.02 1495.03C1873.9 1484.72 1879.69 1466.81 1874.45 1449.38ZM2268.29 2085.54C2284.09 2089.76 2292.91 2102.88 2291.62 2118.82C2290.61 2130.63 2283.08 2143.01 2271.51 2147.04C2258.64 2151.44 2241.74 2146.38 2234.39 2134.57C2227.78 2123.88 2228.7 2109.82 2235.03 2099.13C2242.02 2087.23 2254.79 2082.17 2268.29 2085.54ZM1734.17 2085.54C1741.79 2087.42 1748.87 2091.54 1753.09 2098.1C1757.04 2104.29 1758.33 2111.04 1757.87 2118.35C1756.95 2130.16 1749.6 2142.73 1738.12 2146.76C1725.35 2151.35 1708.45 2146.48 1701 2134.76C1694.3 2124.16 1694.94 2110.2 1701.1 2099.42C1707.99 2087.51 1720.66 2082.26 1734.17 2085.54ZM1857.18 2085.35C1873.07 2089.29 1882.35 2102.42 1881.25 2118.45C1880.42 2130.45 1872.98 2143.01 1861.13 2147.04C1848.09 2151.35 1831.37 2146.48 1824.11 2134.66C1817.59 2124.07 1818.23 2110.2 1824.29 2099.42C1831.09 2087.6 1843.68 2082.35 1857.18 2085.35ZM1545.2 1167.48H2564.66C2620.97 1167.48 2666.63 1213.89 2666.63 1271.16V2308.28C2666.63 2365.56 2620.97 2411.97 2564.66 2411.97H1545.2C1488.88 2411.97 1443.22 2365.56 1443.22 2308.28V1271.16C1443.22 1213.89 1488.88 1167.48 1545.2 1167.48ZM1624.48 2153.79C1632.01 2169.91 1645.06 2183.13 1660.49 2191.38C1669.13 2195.97 1678.41 2199.26 1687.96 2201.13C1698.07 2203.29 1708.54 2202.16 1718.83 2201.97C1814 2200.57 1909.18 2201.41 2004.26 2202.07C2097.6 2202.72 2190.85 2203.76 2284.18 2203.19C2317.9 2203.01 2351.52 2202.72 2385.24 2201.22C2403.06 2200.47 2422.9 2200.94 2440.27 2195.88C2453.13 2192.22 2465.26 2181.72 2473.71 2171.51C2486.11 2156.51 2493.18 2137.48 2493.64 2117.79C2494.65 2076.17 2466.17 2041.39 2426.85 2031.92C2426.67 2031.92 2426.49 2031.92 2426.3 2031.92C2426.03 2031.92 2425.75 2031.73 2425.48 2031.73C2423.82 2031.73 2422.08 2031.73 2420.42 2031.73C2415.19 2031.73 2409.95 2031.73 2404.71 2031.73C2406.37 2030.98 2407.65 2029.57 2407.56 2027.14C2407.47 2021.7 2407.38 2016.26 2407.29 2010.73C2406.64 1972.76 2406 1934.7 2405.36 1896.74C2405.27 1893.74 2402.97 1891.77 2400.21 1891.49C2394.24 1891.02 2388.27 1890.74 2382.3 1890.36C2382.48 1889.8 2382.67 1889.14 2382.67 1888.39C2382.3 1872.83 2382.02 1857.27 2381.66 1841.8L2377.52 1639.21L2374.86 1511.16C2374.86 1510.03 2374.49 1509.28 2374.03 1508.53C2374.21 1508.34 2374.31 1508.16 2374.49 1507.97C2394.98 1477.31 2392.31 1431 2368.15 1403.25C2346.19 1378.13 2309.08 1370.25 2278.12 1379.82C2273.89 1381.13 2269.85 1382.82 2265.99 1384.69C2265.17 1383.57 2263.97 1382.82 2262.14 1382.82H1867.84C1867.47 1382.82 1867.29 1382.91 1867.01 1382.91C1859.84 1379.63 1852.13 1377.29 1844.14 1376.35C1807.39 1371.85 1768.99 1396.97 1756.22 1431.94C1744.64 1463.44 1755.57 1499.91 1778.73 1522.87C1785.16 1529.25 1792.32 1534.22 1799.85 1537.97C1799.85 1538.15 1799.76 1538.34 1799.76 1538.53C1799.67 1546.5 1799.58 1554.56 1799.49 1562.62C1798.94 1620.37 1798.39 1678.12 1797.74 1735.96C1797.74 1736.15 1797.83 1736.33 1797.93 1736.52C1791.49 1736.71 1785.16 1737.08 1778.82 1737.74C1769.91 1738.58 1766.05 1744.21 1760.54 1751.05C1749.88 1764.27 1739.87 1778.24 1730.04 1792.21C1721.77 1803.93 1713.04 1815.83 1706.24 1828.58C1704.5 1831.96 1703.12 1834.86 1704.22 1838.71C1705.97 1844.61 1709.55 1850.42 1712.49 1855.77C1720.02 1869.74 1727.83 1884.45 1737.57 1896.92C1749.05 1911.64 1773.4 1902.64 1788.83 1906.11C1790.12 1906.39 1791.13 1906.11 1792.14 1905.73C1794.53 1904.98 1796.36 1902.83 1795.17 1899.74C1795.08 1899.64 1795.08 1899.55 1794.99 1899.45C1794.89 1898.89 1794.71 1898.52 1794.43 1898.05C1790.21 1888.11 1785.34 1878.36 1781.39 1868.33C1778.27 1860.36 1775.88 1851.92 1778.08 1843.49C1779.37 1838.61 1781.85 1834.21 1784.7 1830.18C1786.63 1827.36 1788.74 1824.83 1791.04 1822.3C1792.51 1820.61 1794.07 1819.11 1795.63 1817.52C1795.54 1817.52 1797.19 1816.21 1797.28 1815.93C1801.32 1813.39 1807.85 1812.93 1812.62 1812.36C1821.54 1811.33 1830.45 1810.86 1839.36 1810.68C1848.27 1810.49 1857.18 1810.58 1866 1811.33C1869.22 1811.61 1872.43 1811.89 1875.46 1812.64C1876.56 1812.93 1877.67 1813.11 1878.68 1813.58C1878.4 1813.39 1879.23 1814.14 1878.86 1813.77C1884.37 1818.55 1888.69 1825.77 1892.92 1831.68C1895.49 1835.14 1898.06 1838.8 1900.45 1842.36C1901.74 1844.33 1903.76 1846.67 1904.58 1849.02C1904.58 1849.21 1904.58 1849.77 1904.31 1850.42C1903.76 1851.74 1903.48 1853.24 1903.02 1854.64C1901.55 1858.77 1899.81 1862.8 1898.15 1866.83C1894.94 1874.24 1890.9 1881.92 1889.15 1889.89C1888.51 1892.61 1888.14 1895.89 1889.98 1898.33C1892.73 1901.8 1900.45 1903.3 1904.68 1904.33C1913.59 1906.39 1922.96 1906.3 1931.5 1902.55C1948.41 1894.95 1957.13 1876.11 1964.02 1859.89C1966.14 1855.02 1968.07 1850.05 1970.09 1845.17C1971.56 1841.52 1975.78 1835.24 1974.68 1831.21C1974.04 1828.86 1971.74 1826.52 1970.36 1824.55C1953.37 1800.55 1936.46 1776.55 1919.47 1752.65C1915.61 1747.21 1913.04 1741.21 1906.15 1740.08C1897.24 1738.58 1888.14 1738.21 1879.05 1737.93C1879.05 1737.93 1879.05 1737.93 1879.05 1737.83C1879.32 1729.3 1879.5 1720.68 1879.78 1712.15C1881.43 1653.09 1883.09 1594.12 1884.74 1535.06C1897.51 1535.06 1910.28 1534.97 1923.05 1534.97C1985.7 1534.69 2048.45 1534.5 2111.1 1534.31C2149.96 1534.22 2188.82 1534.03 2227.68 1533.94L2227.5 1545C2226.49 1615.4 2225.48 1685.71 2224.38 1756.12C2223.73 1800.18 2223.09 1844.33 2222.45 1888.39C2222.45 1888.95 2222.63 1889.33 2222.72 1889.8C2215.1 1889.99 2207.57 1890.08 2199.94 1890.27C2197.18 1890.27 2194.89 1892.61 2194.89 1895.42C2194.8 1900.95 2194.8 1906.48 2194.7 1912.02C2194.34 1950.45 2193.97 1988.79 2193.69 2027.14C2193.6 2029.01 2194.43 2030.32 2195.53 2031.17C2167.24 2031.07 2138.94 2030.98 2110.64 2030.89C2038.9 2030.7 1967.15 2030.51 1895.4 2030.32C1842.57 2030.23 1789.75 2030.04 1736.83 2029.95L1701.92 2029.86C1677.85 2029.76 1652.59 2041.85 1636.88 2060.32C1615.11 2085.92 1610.06 2123.23 1624.48 2153.79ZM1980.19 2085.35C1987.82 2087.13 1995.07 2091.17 1999.39 2097.82C2003.34 2103.92 2004.81 2110.85 2004.35 2118.16C2003.53 2130.16 1996.09 2142.73 1984.33 2146.76C1971.37 2151.26 1954.65 2146.38 1947.3 2134.66C1940.78 2124.16 1941.33 2110.2 1947.4 2099.51C1954.1 2087.6 1966.69 2082.35 1980.19 2085.35ZM1699.44 2040.17C1726.27 2039.04 1753.55 2040.35 1780.47 2040.35C1840.64 2040.54 1900.82 2040.73 1960.99 2040.92C2031.82 2041.1 2102.65 2041.29 2173.48 2041.48C2232.74 2041.57 2291.9 2041.76 2351.16 2041.95C2375.68 2042.04 2400.21 2042.04 2424.74 2042.14C2443.39 2046.73 2460.2 2057.14 2470.95 2073.54C2492.17 2105.98 2485.37 2150.69 2455.52 2175.16C2451.2 2178.63 2446.51 2181.63 2441.55 2184.26C2440.91 2184.54 2440.27 2184.91 2439.62 2185.29C2439.53 2185.29 2439.53 2185.29 2439.44 2185.29C2437.24 2186.13 2434.85 2186.6 2432.55 2186.97C2425.38 2188.38 2417.39 2188.94 2409.22 2189.6C2341.78 2194.38 2273.71 2193.07 2206.1 2192.97C2110.09 2192.69 2014.09 2191.57 1918.09 2191.1C1871.51 2190.91 1824.93 2190.82 1778.36 2191.01C1757.32 2191.19 1736.28 2191.38 1715.24 2191.66C1705.14 2191.85 1695.49 2192.51 1685.57 2189.97C1676.2 2187.63 1667.2 2183.88 1659.02 2178.54C1631.74 2160.54 1620.25 2125.66 1629.72 2094.26C1638.9 2063.79 1668.02 2041.57 1699.44 2040.17ZM2352.81 2145.35C2365.03 2158.94 2387.35 2163.07 2403.34 2154.35C2417.58 2146.57 2425.75 2129.41 2424.93 2113.2C2423.91 2094.63 2411.6 2080.2 2394.06 2075.6C2383.95 2073.07 2373.39 2073.73 2364.2 2078.88C2356.48 2083.2 2350.42 2090.42 2346.84 2098.57C2340.13 2113.85 2341.42 2132.6 2352.81 2145.35ZM2229.8 2145.35C2242.02 2158.94 2264.25 2163.07 2280.23 2154.35C2294.56 2146.57 2302.74 2129.41 2301.91 2113.29C2301 2094.63 2288.59 2080.29 2271.05 2075.6C2260.94 2073.07 2250.38 2073.73 2241.19 2078.88C2233.47 2083.2 2227.41 2090.32 2223.83 2098.48C2217.12 2113.85 2218.41 2132.6 2229.8 2145.35ZM2106.05 2144.6C2117.81 2158.66 2140.13 2162.88 2156.3 2154.73C2171 2147.32 2179.45 2130.07 2178.81 2113.76C2177.98 2095.01 2165.67 2080.38 2148.04 2075.6C2138.02 2072.98 2127.55 2073.54 2118.36 2078.6C2110.64 2082.82 2104.49 2089.95 2100.91 2098.01C2094.11 2113.2 2095.12 2131.66 2106.05 2144.6ZM1942.62 2145.35C1954.84 2159.04 1977.25 2162.79 1993.15 2154.07C2007.57 2146.29 2015.65 2128.85 2014.55 2112.63C2013.26 2093.98 2000.68 2079.63 1982.86 2075.32C1972.84 2073.07 1962.28 2073.82 1953.27 2079.17C1945.65 2083.57 1939.77 2090.79 1936.37 2098.95C1929.94 2114.23 1931.41 2132.79 1942.62 2145.35ZM1819.42 2145.44C1831.55 2159.13 1853.97 2162.98 1869.95 2154.35C1884.37 2146.57 1892.55 2129.13 1891.45 2112.82C1890.25 2094.17 1877.67 2079.73 1859.94 2075.42C1849.83 2073.07 1839.27 2073.82 1830.26 2079.07C1822.55 2083.48 1816.67 2090.7 1813.27 2098.85C1806.75 2114.13 1808.21 2132.79 1819.42 2145.44ZM1696.41 2145.54C1708.72 2159.04 1730.95 2162.98 1746.85 2154.07C1760.99 2146.19 1769.08 2129.04 1768.07 2112.82C1766.87 2094.26 1754.47 2080.01 1736.93 2075.51C1726.82 2073.07 1716.26 2073.82 1707.16 2079.07C1699.44 2083.48 1693.47 2090.7 1689.98 2098.85C1683.46 2114.23 1684.93 2132.98 1696.41 2145.54ZM2145.37 2085.54C2161.17 2089.85 2169.99 2103.35 2168.43 2119.29C2167.24 2131.38 2159.33 2143.57 2147.48 2147.23C2134.35 2151.26 2117.81 2145.73 2110.83 2133.82C2104.58 2123.13 2105.68 2109.16 2112.11 2098.57C2119.1 2086.95 2131.96 2082.17 2145.37 2085.54Z" fill="#FF592D"/>
</g>
<mask id="mask3_94_556" style="mask-type:luminance" maskUnits="userSpaceOnUse" x="483" y="284" width="1338" height="2213">
<path d="M1820.25 284.766H483.658V2496.62H1820.25V284.766Z" fill="white"/>
</mask>
<g mask="url(#mask3_94_556)">
<path d="M1659.94 835.241C1659.94 835.053 1659.94 834.866 1659.94 834.678V834.584C1659.85 834.959 1659.94 835.241 1659.94 835.241ZM1176.07 521.471C1174.32 520.627 1172.67 519.596 1171.02 518.659C1150.07 506.659 1131.88 488.097 1116.17 470.192C1111.85 465.317 1119.02 457.911 1123.34 462.879C1137.39 478.91 1153.1 494.566 1170.83 506.378C1186.54 516.971 1207.3 524.283 1225.22 514.534C1242.21 505.347 1243.77 482.847 1255.07 468.598C1260.49 461.848 1267.38 457.348 1275.93 456.13C1281.72 455.286 1289.52 455.942 1287.87 447.88C1286.77 442.724 1284.29 437.662 1283 432.599C1278.13 414.037 1277.21 394.726 1279.79 375.789C1282.91 377.289 1286.22 378.695 1289.43 380.101C1287.32 398.944 1288.97 418.162 1294.67 436.443C1297.61 445.63 1302.39 456.036 1292.28 462.504C1288.7 464.848 1284.66 465.504 1280.52 465.973C1273.72 466.817 1268.85 468.504 1264.17 473.754C1250.94 488.472 1250.11 510.409 1232.93 521.846C1232.29 522.221 1231.74 522.69 1231.19 523.065C1214.01 533.096 1193.06 530.096 1176.07 521.471ZM1242.3 373.258C1242.95 372.601 1243.68 372.039 1244.51 371.851C1247.36 371.195 1249.93 372.695 1250.85 375.414C1251.95 378.882 1251.95 383.101 1250.66 386.476C1249.93 388.632 1248.92 390.507 1247.45 392.288C1245.61 394.444 1242.49 395.569 1239.73 394.726C1238.35 394.257 1237.25 393.601 1236.24 392.663C1235.14 391.632 1234.5 390.413 1233.94 389.101C1233.12 386.945 1233.39 384.32 1234.22 382.257C1235.69 378.507 1238.26 374.195 1242.3 373.258ZM1200.87 447.974C1200.78 446.38 1201.24 444.786 1202.25 443.849C1204.55 441.786 1207.3 442.068 1209.51 443.849C1211.16 445.255 1211.62 447.786 1211.16 449.755C1210.98 450.505 1210.7 451.161 1210.43 451.817C1210.33 451.911 1210.24 452.192 1210.06 452.38V452.473C1210.15 452.567 1210.24 452.755 1210.33 452.848C1210.52 453.317 1210.79 453.786 1211.07 454.161C1213.64 458.098 1216.31 461.942 1218.88 465.786C1220.44 468.035 1219.43 471.598 1217.04 472.817C1214.47 474.223 1211.71 473.379 1210.15 471.035C1207.58 467.192 1205.01 463.442 1202.53 459.692C1201.06 457.536 1200.14 455.286 1199.86 452.755C1199.68 451.349 1199.95 449.849 1200.5 448.536C1200.6 448.349 1200.78 448.161 1200.87 447.974ZM1043.23 334.822C1084.29 319.072 1129.22 304.26 1172.85 318.322C1178.64 320.197 1184.34 322.447 1189.85 324.884C1184.98 334.915 1179.74 344.759 1173.95 354.227C1169.82 360.789 1165.78 370.727 1157.14 371.57C1148.51 372.414 1142.44 366.227 1138.68 359.008C1134.18 350.477 1130.13 342.04 1120.12 339.134C1097.52 332.572 1089.44 369.789 1089.71 385.632C1089.71 386.851 1089.71 388.163 1089.62 389.382C1090.54 397.819 1091.18 406.35 1094.95 413.85C1097.06 418.069 1100.55 423.131 1105.79 422.662C1108.45 422.381 1110.84 421.162 1113.05 419.85C1115.71 418.256 1118.56 415.256 1121.77 415.444C1123.52 415.444 1125.36 416.287 1126.18 417.975C1126.92 419.381 1127.29 420.975 1126.73 422.568C1125.82 424.818 1124.25 426.131 1121.87 426.318C1119.57 427.724 1117.36 429.318 1114.88 430.537C1111.67 432.037 1108.18 433.068 1104.69 432.974C1097.15 432.787 1091.27 427.724 1087.42 421.537C1085.03 417.506 1083.56 413.287 1082.55 408.881C1082.36 409.069 1082.18 409.256 1081.99 409.444C1076.57 414.694 1069.59 417.412 1063.35 421.256C1051.13 432.224 1036.61 440.38 1021.45 446.474C1021.55 446.099 1021.64 445.724 1021.82 445.442C1022 444.88 1022.1 444.318 1022.19 443.849C1024.03 441.318 1022.83 437.099 1019.89 435.974C1029.08 432.13 1037.9 427.537 1046.07 421.912C1042.95 421.162 1039.37 423.412 1035.88 423.787C1031.83 424.162 1027.33 422.756 1025.22 419.1C1023.29 415.819 1024.3 412.819 1025.4 409.538C1026.41 406.631 1025.96 407.194 1024.03 404.944C1022.65 403.444 1021.82 401.757 1021.45 399.788C1020.99 396.694 1021.91 393.319 1024.67 391.538C1025.96 390.694 1029.91 390.788 1030.64 389.757C1031.19 388.82 1029.63 386.57 1029.26 386.288C1028.53 385.913 1026.97 386.101 1026.05 385.632C1018.05 381.882 1020.99 371.758 1027.06 367.914C1028.44 366.977 1031.1 366.32 1032.02 365.008C1033.49 363.039 1032.02 361.446 1031.01 359.383C1029.08 355.633 1027.98 351.696 1029.63 347.571C1031.01 344.196 1033.76 342.415 1035.97 339.696C1037.62 337.821 1037.35 335.478 1038.17 333.228C1039.46 334.634 1041.39 335.572 1043.23 334.822ZM1111.67 391.726C1112.04 391.819 1112.13 391.819 1111.67 391.726ZM1122.14 376.445C1120.67 372.039 1116.45 369.133 1111.85 369.414C1103.49 369.977 1099.08 378.976 1098.9 386.57C1098.9 390.788 1100.28 395.007 1103.22 398.007C1105.7 400.725 1109.56 402.6 1113.32 402.225C1116.17 402.038 1118.28 400.069 1118.47 397.069C1118.56 394.444 1115.99 391.726 1113.32 391.913C1113.14 391.913 1112.77 391.913 1112.5 391.913C1112.77 391.913 1112.95 392.101 1112.31 391.913C1112.22 391.913 1112.13 391.913 1112.13 391.913H1112.22C1111.94 391.819 1111.67 391.632 1111.39 391.632C1111.58 391.632 1111.58 391.632 1111.67 391.726C1111.58 391.632 1111.48 391.632 1111.48 391.538C1111.39 391.538 1111.21 391.444 1111.03 391.257C1110.84 391.163 1110.57 390.882 1110.47 390.788C1110.38 390.694 1110.2 390.507 1110.01 390.32C1110.01 390.226 1109.92 390.132 1109.92 390.132C1109.92 390.038 1109.74 389.851 1109.65 389.57C1109.65 389.57 1109.65 389.57 1109.56 389.476C1109.56 389.288 1109.46 389.101 1109.37 388.913C1109.37 388.82 1109.28 388.538 1109.19 388.257C1109.19 387.976 1109.19 387.788 1109.19 387.507C1109.1 387.038 1108.91 385.726 1109.19 385.257C1109.1 386.007 1109.1 386.101 1109.19 385.538C1109.19 385.351 1109.28 385.163 1109.28 384.976C1109.37 384.601 1109.46 384.226 1109.56 383.851C1109.65 383.476 1109.74 383.007 1109.92 382.632C1109.92 382.632 1109.92 382.632 1109.92 382.539C1110.29 382.07 1110.47 381.507 1110.84 380.945C1110.84 380.945 1110.93 380.851 1110.93 380.757C1111.21 380.57 1111.39 380.289 1111.67 380.101C1111.76 380.007 1111.94 379.914 1112.13 379.82C1112.13 379.82 1112.22 379.82 1112.22 379.726C1112.31 379.726 1112.31 379.726 1112.4 379.726C1112.5 379.82 1112.59 379.82 1112.68 379.82C1112.68 379.82 1112.68 379.82 1112.68 379.914C1113.78 382.164 1116.08 383.382 1118.65 382.82C1121.22 382.164 1123.06 378.976 1122.14 376.445ZM1112.59 379.726C1112.5 379.632 1112.4 379.632 1112.4 379.539C1112.4 379.539 1112.5 379.632 1112.59 379.726ZM1112.4 379.351C1112.5 379.445 1112.59 379.539 1112.59 379.726C1112.59 379.632 1112.5 379.632 1112.5 379.539C1112.5 379.445 1112.4 379.351 1112.4 379.351ZM1112.86 379.914C1112.86 380.007 1112.86 380.007 1112.86 380.007V379.914ZM1112.22 391.913C1112.31 391.913 1112.4 391.913 1112.5 391.913C1112.4 391.913 1112.31 391.913 1112.31 391.913C1112.31 391.913 1112.31 391.913 1112.22 391.913ZM1237.9 321.603C1231.74 319.353 1234.4 309.323 1240.56 311.572C1262.06 319.541 1286.03 318.697 1306.61 308.666C1312.49 305.76 1317.73 314.76 1311.76 317.572C1288.79 328.822 1261.96 330.509 1237.9 321.603ZM491.559 2374.93C506.901 2398.93 529.225 2414.03 551.548 2430.53C577.272 2449.56 602.535 2469.34 628.718 2487.62C640.844 2496.05 653.706 2495.3 667.762 2495.59C683.563 2495.87 699.272 2496.34 715.074 2496.52C730.416 2496.71 745.849 2496.62 761.191 2495.59C775.247 2494.55 791.232 2493.99 804.737 2489.49C816.588 2485.55 811.535 2468.59 809.147 2459.59C806.207 2448.24 801.246 2437.37 794.723 2427.81C780.943 2407.46 761.559 2393.96 738.592 2386.46C725.455 2382.15 712.042 2378.5 702.212 2368C693.025 2358.34 686.227 2345.69 680.991 2333.4C676.03 2321.97 672.722 2309.78 670.793 2297.41C681.174 2301.81 691.464 2306.22 701.845 2310.62C704.509 2311.75 707.173 2309.41 708 2307.06C727.017 2253.91 745.666 2200.57 764.223 2147.32C796.836 2053.29 829.174 1959.26 862.246 1865.42C880.344 1813.95 883.744 1652.8 902.576 1601.52C913.417 1619.52 999.13 1845.64 1000.32 1892.8C1000.97 1918.29 995.547 1943.61 992.056 1968.73C988.657 1993.01 985.901 2017.29 983.788 2041.76C975.52 2141.88 979.286 2242.75 994.445 2341.94C994.72 2343.53 995.731 2344.56 997.109 2345.12C987.371 2365.18 980.113 2386.56 975.979 2408.5C972.947 2424.24 971.386 2440.28 971.294 2456.31C971.294 2463.52 970.467 2472.43 972.488 2479.37C974.693 2486.77 983.053 2485.55 989.116 2485.74C1055.08 2487.43 1121.13 2489.21 1187.09 2490.9C1220.07 2491.84 1253.05 2492.68 1286.13 2493.52C1303.03 2493.99 1319.93 2494.46 1336.84 2494.84C1345.01 2495.12 1353.37 2495.77 1361.55 2495.49C1366.33 2495.3 1370.92 2493.8 1373.68 2489.68C1380.11 2480.12 1376.71 2464.18 1373.31 2454.06C1369.17 2441.68 1362.01 2430.43 1352.73 2421.53C1332.7 2402.21 1306.8 2395.46 1280.15 2392.28C1264.81 2390.4 1249.93 2387.96 1236.06 2380.47C1222.83 2373.43 1210.7 2363.97 1198.76 2354.68C1180.66 2340.53 1163.3 2325.25 1146.95 2309.12C1148.42 2307.34 1149.79 2305.28 1150.8 2302.94C1154.57 2294.59 1155.67 2284.84 1157.42 2275.94C1161.55 2254.28 1165.32 2232.63 1168.63 2210.78C1192.14 2056.2 1194.17 1898.89 1181.67 1743.18C1170 1597.49 1145.94 1453.12 1114.88 1310.44C1111.76 1311.38 1108.64 1312.22 1105.51 1312.79C1089.9 1315.79 1074 1315.6 1058.29 1317.94C1032.29 1321.79 1006.2 1325.25 980.021 1327.78C927.381 1333.03 874.465 1333.88 821.824 1328.44C807.309 1326.85 793.07 1324.5 778.463 1324.41C763.856 1324.32 749.249 1325.07 734.733 1323.29C713.879 1320.66 693.117 1317 672.814 1311.38C660.963 1374 658.942 1438.41 659.126 1502.15C659.402 1576.68 662.525 1651.4 656.002 1725.74C649.204 1803.64 628.35 1879.58 610.895 1955.51C593.073 2033.32 575.159 2111.04 557.244 2188.85C554.856 2199.63 552.283 2210.32 549.895 2221.1C548.609 2226.81 547.047 2232.91 548.701 2238.63C545.301 2244.44 541.994 2250.34 538.319 2256.06C529.684 2269.84 518.017 2281.37 509.657 2295.44C502.123 2308.19 497.989 2322.53 491.834 2335.94C488.803 2342.59 485.587 2349.72 484.76 2357.03C483.934 2363.87 487.976 2369.4 491.559 2374.93ZM988.657 2398.28C993.25 2379.25 1000.23 2360.97 1009.14 2343.72C1028.34 2339.69 1047.64 2335.65 1066.84 2331.62C1088.43 2327.03 1110.47 2323.28 1131.88 2317.84C1134.36 2317.19 1136.56 2316.34 1138.68 2315.31C1156.04 2332.47 1174.41 2348.59 1193.61 2363.59C1205.56 2372.87 1217.68 2382.34 1230.91 2389.46C1243.96 2396.5 1257.74 2399.68 1272.25 2401.65C1298.53 2405.12 1324.53 2409.06 1344.83 2428.09C1354.2 2436.9 1361.27 2448.24 1364.67 2460.81C1366.23 2466.62 1367.43 2473.37 1366.6 2479.46C1365.5 2487.8 1355.85 2484.99 1349.51 2484.8C1288.61 2483.21 1227.7 2481.62 1166.79 2480.02C1136.29 2479.27 1105.88 2478.43 1075.38 2477.59C1060.22 2477.21 1044.97 2476.84 1029.72 2476.46C1022.1 2476.27 1014.47 2475.99 1006.85 2475.81C999.681 2475.62 991.045 2476.74 984.063 2475.24C981.124 2474.59 981.767 2475.62 981.95 2471.87C982.042 2470.46 981.767 2468.87 981.767 2467.46C981.583 2464.46 981.491 2461.56 981.491 2458.56C981.491 2451.9 981.675 2445.24 982.226 2438.59C983.145 2424.99 985.35 2411.5 988.657 2398.28ZM500.654 2341.19C503.134 2335.75 505.798 2330.31 507.819 2324.59C512.321 2312.12 517.741 2300.78 525.55 2290C533.45 2279.12 542.454 2269.28 549.436 2257.66C551.457 2254.28 553.386 2250.81 555.407 2247.44C558.347 2249.5 561.838 2250.91 565.237 2252.31C574.056 2256.16 582.967 2259.91 591.787 2263.75C614.57 2273.41 637.261 2283.06 659.953 2292.81C661.423 2306.03 664.454 2319.06 669.231 2331.53C678.97 2356.84 693.485 2380.84 719.3 2390.87C730.783 2395.37 742.818 2397.9 753.658 2403.71C763.672 2409.15 772.491 2416.46 779.933 2425.18C787.374 2433.9 793.345 2444.21 797.112 2455.18C798.949 2460.43 800.419 2465.96 801.246 2471.49C801.522 2473.27 801.705 2474.96 801.889 2476.65C802.073 2479.27 802.257 2478.62 800.511 2479.84C798.49 2481.24 793.437 2481.24 791.049 2481.71C761.926 2486.77 732.253 2486.49 702.947 2485.93C688.34 2485.65 673.825 2485.37 659.31 2485.09C652.328 2484.9 645.346 2485.27 639.007 2481.9C633.127 2478.81 627.799 2474.21 622.471 2470.27C598.217 2452.27 573.964 2434.37 549.619 2416.37C538.503 2408.12 526.836 2400.34 516.914 2390.4C512.596 2386.09 508.554 2381.4 504.879 2376.43C501.664 2371.93 496.887 2366.31 495.141 2360.97C493.304 2355.25 498.357 2346.25 500.654 2341.19ZM508.095 2350C531.521 2378.78 562.389 2398.75 592.705 2419.09C608.139 2429.59 622.654 2441.03 637.537 2452.09C646.264 2458.56 655.451 2462.49 666.292 2463.43C676.581 2464.27 687.054 2463.43 697.343 2463.15C722.607 2462.4 747.871 2461.65 773.042 2460.9C779.657 2460.71 779.657 2471.12 773.042 2471.31C749.984 2471.96 726.833 2472.62 703.682 2473.37C683.379 2473.93 660.688 2477.12 641.855 2467.18C633.127 2462.59 625.778 2455.65 617.969 2449.65C610.252 2443.74 602.352 2438.21 594.359 2432.78C578.741 2421.99 562.756 2411.78 547.506 2400.43C530.419 2387.87 514.342 2373.9 500.837 2357.4C496.703 2352.25 503.869 2344.94 508.095 2350ZM1011.44 2453.21C1101.1 2456.21 1190.77 2457.52 1280.43 2459.02C1303.4 2459.4 1327.28 2459.59 1348.5 2449.56C1354.48 2446.74 1359.62 2455.65 1353.65 2458.46C1335.55 2467.09 1315.89 2469.34 1296.05 2469.52C1273.91 2469.71 1251.68 2468.87 1229.54 2468.49C1183.05 2467.74 1136.56 2466.9 1090.08 2465.77C1063.81 2465.21 1037.62 2464.46 1011.44 2463.62C1004.83 2463.34 1004.83 2453.02 1011.44 2453.21ZM1139.32 1047.58C1150.25 1054.61 1161.37 1060.14 1173.59 1063.04C1176.44 1063.7 1179.19 1064.26 1182.13 1064.64C1197.93 1066.7 1213.83 1065.39 1229.63 1064.54C1266.01 1062.67 1302.2 1060.14 1338.49 1057.23C1373.86 1054.42 1409.69 1051.14 1445.15 1052.45C1462.51 1053.11 1478.68 1056.58 1494.57 1063.51C1509.18 1069.89 1523.6 1077.76 1539.31 1081.14C1554.11 1084.23 1568.16 1082.26 1579.74 1071.86C1585.71 1066.42 1590.94 1060.23 1596.92 1054.8C1602.06 1049.92 1607.48 1045.23 1612.72 1040.36C1623.37 1030.42 1634.21 1019.55 1639.45 1005.48C1642.3 997.985 1643.58 990.016 1644.78 982.142C1645.7 975.86 1646.71 969.486 1645.88 963.111C1645.51 960.486 1644.78 957.861 1643.58 955.424C1645.97 953.455 1647.9 951.111 1649.1 948.112C1649.92 945.955 1650.11 943.518 1649.83 941.268C1651.85 940.518 1653.14 938.643 1653.32 936.393C1653.6 932.925 1653.97 929.55 1654.24 926.081C1654.33 925.144 1654.24 924.112 1654.15 923.175C1655.34 922.425 1656.08 921.206 1656.63 919.894C1656.91 919.144 1656.91 918.394 1656.72 917.644C1656.81 917.363 1656.81 917.175 1656.81 917.175C1657 916.331 1657.09 915.394 1657.18 914.55C1657.36 913.238 1657.55 911.832 1657.46 910.425C1657.46 908.269 1656.91 906.394 1656.08 904.613C1658.01 904.707 1659.94 903.957 1660.76 902.176C1662.69 897.957 1662.69 893.551 1661.13 889.52C1662.33 889.145 1663.43 888.395 1663.98 887.27C1665.54 884.176 1667.38 880.989 1668.11 877.52C1668.3 876.77 1668.3 876.114 1668.3 875.364C1668.76 875.645 1669.03 875.833 1669.49 875.927C1679.87 878.364 1689.7 872.646 1697.33 865.896C1703.94 860.083 1709.09 852.49 1712.76 844.522C1713.04 843.959 1713.13 843.397 1713.31 842.834C1714.14 842.272 1714.87 841.334 1715.15 840.115C1716.16 835.522 1719.65 831.96 1721.49 827.647C1723.23 823.335 1723.79 818.741 1725.26 814.335C1729.02 802.523 1733.52 790.899 1737.66 779.18C1743.35 763.337 1753.73 742.525 1750.34 724.62C1752.17 725.745 1754.1 726.588 1756.21 726.87C1762.74 727.807 1766.23 723.307 1771.56 720.776C1775.97 718.714 1781.02 719.276 1785.06 716.183C1786.99 714.776 1788.28 712.901 1789.2 710.558C1789.93 708.495 1789.56 705.214 1790.57 703.433C1791.77 701.371 1795.26 700.246 1797 698.558C1798.38 697.152 1799.67 695.371 1800.59 693.59C1802.61 689.746 1803.34 685.152 1802.61 680.84C1802.24 678.121 1801.05 676.247 1800.04 673.715C1799.21 671.465 1799.03 672.403 1799.3 669.684C1799.48 667.903 1800.4 666.497 1801.14 664.903C1803.53 659.372 1804.9 653.56 1805.18 647.466C1805.92 635.279 1801.97 623.28 1797.37 612.124C1791.95 599.187 1785.7 586.531 1779.18 574.157C1774.86 566.094 1769.44 553.626 1758.42 555.22C1750.7 556.345 1747.4 562.626 1746.2 569.469C1744.36 568.813 1742.43 568.344 1740.69 567.875C1737.38 567.126 1733.89 566.469 1730.49 567.032C1729.21 567.313 1728.2 567.782 1727.28 568.25C1726.63 562.813 1723.42 555.407 1717.26 555.22C1714.23 555.126 1711.2 557.751 1708.9 559.345C1700.73 564.876 1692.92 570.688 1684.83 576.406C1681.53 578.75 1678.13 581.281 1674.54 583.344C1668.85 586.437 1662.14 587.75 1655.89 589.156C1641.01 592.343 1626.31 595.718 1616.3 608.468C1607.2 620.186 1603.71 634.998 1598.48 648.685C1574.96 710.464 1524.34 756.212 1476.29 798.68C1473.44 796.242 1470.6 793.805 1467.75 791.367C1432.66 761.181 1397.56 730.807 1361.46 701.839C1360.17 703.246 1358.7 704.652 1357.51 705.964C1356.5 707.089 1355.49 708.214 1354.48 709.339C1360.54 714.214 1366.6 719.182 1372.57 724.151C1406.29 752.087 1439.55 780.586 1472.71 809.179C1474.91 811.054 1477.67 811.148 1479.88 809.179C1505.14 786.867 1530.31 764.462 1552.73 739.244C1572.2 717.214 1589.84 693.027 1602.15 666.122C1607.94 653.56 1611.52 640.154 1617.13 627.498C1623.37 613.155 1632.74 605.28 1647.81 601.531C1659.02 598.718 1671.33 597.499 1681.34 591.218C1688.51 586.719 1695.31 581.563 1702.1 576.688C1705.78 574.063 1709.45 571.438 1713.22 568.813C1714.23 568.157 1715.24 567.501 1716.34 566.751C1716.44 567.875 1717.26 569.375 1717.26 570.875C1717.26 572 1717.08 573.125 1716.8 574.344C1716.25 577.438 1715.06 580.438 1713.59 583.25C1710.46 589.718 1705.96 595.437 1699.81 599.093C1698.61 599.843 1697.97 600.968 1697.69 601.999C1672.98 600.218 1648.18 607.812 1636.79 632.748C1636.42 633.686 1636.33 634.436 1636.33 635.279C1636.05 635.467 1635.78 635.748 1635.5 635.935C1632.65 638.748 1631.73 642.685 1631.18 646.529C1630.81 648.779 1630.36 651.029 1629.62 653.279C1629.25 654.497 1628.89 655.716 1628.43 656.841C1628.33 657.028 1627.97 657.872 1627.97 657.778C1627.69 658.528 1627.32 659.185 1627.05 659.841C1625.39 662.934 1626.86 666.309 1630.08 667.434C1635.96 669.591 1641.93 671.747 1647.9 673.903C1647.44 677.84 1647.99 681.684 1650.11 685.152C1646.98 686.465 1643.86 688.059 1640.83 689.84C1637.89 691.621 1637.98 694.902 1639.45 697.246C1636.14 709.339 1632.74 721.432 1629.16 733.432C1628.7 733.713 1628.24 734.088 1627.78 734.557C1604.27 764.087 1585.52 796.43 1567.33 829.522C1551.17 859.052 1534.35 888.207 1513.41 914.55C1503.67 926.831 1492.46 940.799 1475.93 942.768C1458.38 944.83 1441.38 934.612 1426.59 926.269C1394.16 907.988 1361.92 889.52 1329.3 871.614C1313.32 862.896 1297.33 854.271 1281.26 845.928C1272.53 841.334 1263.8 836.928 1254.98 832.522C1252.96 835.334 1250.94 838.241 1248.92 841.147C1255.81 844.522 1262.7 847.896 1269.5 851.459C1289.34 861.583 1308.91 872.177 1328.48 882.958C1362.93 901.894 1396.64 922.425 1431.46 940.799C1446.07 948.486 1462.6 955.424 1479.42 952.611C1496.5 949.799 1508.63 936.862 1519.1 923.831C1559.34 873.771 1584.05 813.585 1620.71 761.181C1615.93 776.274 1611.06 791.274 1605.83 806.179C1605.46 807.117 1605.55 807.96 1605.83 808.804C1604.17 812.648 1603.81 816.96 1603.35 821.179C1602.7 827.366 1602.7 833.647 1604.72 839.553C1608.22 849.865 1615.75 857.927 1624.2 864.302C1624.02 864.771 1623.83 865.24 1623.65 865.708C1622.73 867.958 1622.91 869.739 1624.11 871.896C1624.2 871.989 1624.29 872.083 1624.38 872.271C1624.38 872.271 1624.29 872.271 1624.2 872.364C1618.41 875.177 1615.75 881.645 1614.65 887.739C1614.19 890.27 1615.2 892.801 1617.59 893.832C1616.76 894.957 1616.02 896.176 1615.38 897.395C1614.28 899.363 1614.55 901.707 1615.93 903.394C1614 904.519 1612.44 906.207 1611.43 908.363C1609.96 911.644 1608.67 914.925 1607.48 918.3C1606.56 920.925 1608.49 923.925 1610.97 924.675C1607.94 926.456 1605.46 929.268 1604.26 932.55C1601.51 932.081 1598.39 932.456 1595.35 934.143C1589.84 937.143 1584.7 940.049 1578.82 942.205C1572.48 944.549 1566.32 945.205 1559.8 946.518C1548.41 948.861 1537.02 952.705 1526.27 957.017C1515.52 961.236 1505.14 966.486 1494.02 969.579C1470.78 975.954 1446.16 968.829 1423.28 964.142C1398.02 958.892 1372.94 952.893 1347.77 947.362C1323.06 942.018 1298.25 938.081 1273.26 933.956C1260.77 931.987 1248.28 929.175 1235.69 927.394C1224.94 925.894 1213.46 926.456 1202.99 922.987C1202.99 922.987 1202.99 922.987 1202.89 922.987C1191.5 919.05 1184.8 907.988 1177.63 898.801C1169.55 888.489 1161.37 878.177 1153.28 867.864C1137.3 847.334 1121.22 826.803 1105.33 806.179C1097.8 796.523 1090.54 786.586 1082.55 777.212C1075.38 768.774 1067.76 760.618 1061.88 751.056C1064.72 748.525 1067.48 745.806 1070.51 743.369C1072.16 741.963 1072.35 738.869 1071.25 737.088C1044.88 691.715 1013.74 649.435 978.368 610.905C973.866 606.03 966.7 613.343 971.11 618.217C1005.01 655.06 1034.77 695.465 1060.31 738.682C1043.13 753.494 1028.34 770.931 1015.67 789.867C1003.91 807.398 993.985 826.147 984.982 845.365C980.389 855.302 975.979 865.333 971.753 875.458C970.008 879.583 968.262 888.02 963.852 889.426C958.892 891.02 950.899 885.676 946.306 883.614C903.22 864.583 862.246 840.865 824.121 812.929C818.701 809.085 813.648 818.085 818.976 821.929C842.127 838.803 866.197 854.177 891.277 867.958C902.117 873.864 913.141 879.489 924.349 884.833C935.19 889.989 946.581 896.27 958.157 899.645C964.496 901.519 968.997 899.832 972.396 896.176C1002.07 919.894 1026.78 949.705 1053.79 976.235C1080.16 1002.2 1108.27 1027.61 1139.32 1047.58ZM1606.65 966.298C1606.75 970.611 1608.31 974.548 1611.52 977.454C1610.79 979.985 1609.69 982.423 1607.94 984.579C1600.68 993.766 1588.46 998.172 1577.81 1001.92C1571.84 1004.08 1558.51 1009.05 1555.12 1000.23C1552.73 994.141 1560.81 988.329 1565.68 985.235C1579.37 982.423 1596.64 976.985 1606.65 966.298ZM1637.34 947.362C1636.88 946.987 1636.33 946.518 1635.78 946.237C1635.68 944.455 1634.77 942.674 1633.3 941.643C1628.61 938.456 1622.73 936.862 1617.13 938.174C1616.39 938.362 1615.66 938.737 1614.83 939.112C1614.83 939.018 1614.83 938.924 1614.83 938.831C1614.92 938.362 1615.01 937.799 1615.11 937.237C1615.38 936.299 1615.2 935.268 1614.92 934.425C1615.11 934.331 1616.12 933.487 1615.47 933.956C1615.93 933.675 1616.39 933.393 1616.85 933.112C1616.3 933.393 1617.77 932.831 1617.77 932.831C1618.32 932.643 1618.96 932.55 1619.52 932.456C1620.89 932.268 1623.92 932.456 1625.39 932.643C1627.23 932.925 1629.62 933.393 1631.64 934.05C1633.2 934.612 1635.32 935.549 1636.51 936.581C1637.06 937.143 1637.98 938.081 1638.16 938.456C1638.07 938.268 1638.72 939.206 1638.81 939.487C1638.99 939.674 1639.08 939.956 1639.17 940.143C1639.08 939.862 1639.08 939.862 1639.17 940.143C1639.36 940.612 1639.54 941.174 1639.63 941.643C1639.73 941.83 1639.73 942.205 1639.73 942.299C1639.82 942.674 1639.82 943.049 1639.73 943.33C1639.73 943.424 1639.63 944.174 1639.63 944.362C1639.54 944.549 1639.54 944.643 1639.54 944.737C1639.45 944.737 1639.45 944.83 1639.27 945.112C1639.27 945.112 1638.44 946.33 1638.81 945.862C1638.53 946.33 1638.07 946.705 1637.7 947.08C1637.7 947.08 1637.52 947.268 1637.34 947.362ZM1643.77 874.895C1640.37 873.489 1636.69 871.896 1633.02 871.239C1633.39 870.396 1633.57 869.552 1633.48 868.614C1634.4 866.927 1636.14 865.427 1637.98 864.865C1638.44 864.677 1638.81 864.583 1639.17 864.583C1639.36 864.49 1639.54 864.49 1639.73 864.49C1640.83 864.396 1641.2 864.49 1641.84 864.677C1643.77 865.24 1645.79 865.896 1647.53 866.739C1649.65 867.677 1651.67 868.802 1653.6 870.021C1654.06 870.302 1654.52 870.677 1654.98 870.958C1654.88 870.864 1655.62 871.427 1655.8 871.521C1656.45 872.083 1657.09 872.646 1657.64 873.208C1657.82 873.396 1657.82 873.489 1657.92 873.489C1657.92 873.583 1657.92 873.677 1658.01 873.864C1658.1 874.052 1658.19 874.145 1658.19 874.239C1658.19 874.239 1658.19 874.239 1658.19 874.333C1658.19 874.427 1658.28 874.427 1658.28 874.427C1658.28 874.614 1658.28 874.802 1658.28 874.895C1658.28 874.427 1658.01 875.833 1658.01 876.02C1657.46 877.708 1656.35 879.77 1655.44 881.551C1652.04 878.645 1647.81 876.677 1643.77 874.895ZM1659.85 838.053C1659.85 838.053 1659.94 837.866 1659.94 837.678C1659.94 837.866 1659.94 838.053 1659.85 838.053ZM1652.96 857.927C1651.94 857.459 1650.93 856.99 1650.02 856.615C1648.91 856.146 1647.81 855.677 1646.62 855.302C1646.98 853.99 1646.89 852.396 1646.98 851.178C1647.08 850.803 1647.08 850.521 1647.08 850.146C1647.26 849.49 1647.35 848.74 1647.44 848.084C1647.72 846.49 1648.09 844.99 1648.55 843.397C1648.82 842.74 1649 841.99 1649.28 841.334C1649.28 841.24 1649.37 840.959 1649.46 840.678C1649.56 840.49 1649.74 840.209 1649.74 840.209C1650.29 838.897 1651.03 837.678 1651.76 836.459C1651.85 836.366 1651.94 836.272 1651.94 836.272C1652.04 836.084 1652.22 835.991 1652.22 835.897C1652.59 835.522 1652.96 835.147 1653.41 834.772C1653.51 834.678 1653.51 834.678 1653.6 834.584C1653.6 834.584 1653.6 834.584 1653.69 834.584C1653.87 834.397 1654.15 834.209 1654.42 834.022C1654.61 833.928 1654.79 833.834 1654.98 833.741C1655.53 833.647 1655.99 833.459 1656.54 833.366C1656.54 833.366 1656.54 833.366 1656.63 833.366C1656.91 833.366 1657.18 833.366 1657.46 833.366C1657.82 833.366 1658.1 833.366 1658.47 833.366C1658.74 833.459 1659.11 833.553 1659.39 833.647C1659.48 833.647 1659.48 833.647 1659.57 833.741C1659.57 833.741 1659.57 833.741 1659.66 833.741C1659.66 833.834 1659.66 833.928 1659.75 834.022V834.116C1659.85 834.303 1659.85 834.397 1659.94 834.584C1659.94 834.491 1659.94 834.491 1659.94 834.397C1659.94 834.491 1659.94 834.584 1659.94 834.678V834.772C1660.03 835.147 1660.03 835.241 1659.94 835.241C1659.94 835.334 1660.03 835.522 1660.03 835.616C1660.03 836.178 1660.03 836.741 1659.94 837.209C1659.94 837.303 1659.94 837.397 1659.94 837.584C1659.75 838.709 1659.57 839.74 1659.29 840.865C1658.74 843.115 1657.92 845.365 1657.18 847.521C1656.72 848.74 1656.26 849.865 1655.8 851.084C1655.62 851.459 1655.34 851.928 1655.25 852.396C1655.71 850.803 1655.25 852.303 1655.07 852.771C1654.33 854.459 1653.6 856.146 1652.96 857.927ZM1652.22 895.051C1652.04 894.207 1652.22 895.801 1652.22 895.895C1652.22 895.988 1652.22 896.082 1652.13 896.176C1652.13 896.176 1652.13 896.27 1652.13 896.363C1652.13 896.457 1651.76 897.488 1652.04 896.926C1651.67 897.582 1651.58 898.145 1651.49 898.801C1648.73 896.176 1645.61 893.832 1642.3 891.864C1637.61 889.051 1631.64 885.864 1626.04 887.27C1625.67 887.364 1625.39 887.551 1625.03 887.645C1625.3 886.52 1625.67 885.489 1626.13 884.551C1626.96 882.958 1627.69 881.926 1629.34 881.27C1628.7 881.458 1629.99 881.27 1629.62 881.27C1629.71 881.27 1630.72 881.27 1630.91 881.27C1631.73 881.364 1632.65 881.739 1633.57 882.02C1635.5 882.676 1637.43 883.333 1639.27 884.176C1642.85 885.676 1646.98 887.551 1649.65 890.176C1650.84 891.395 1651.58 892.52 1651.94 893.926C1652.04 894.301 1652.13 894.676 1652.22 895.051ZM1620.62 912.394H1620.71C1620.71 912.394 1620.71 912.394 1620.62 912.394ZM1620.98 912.113C1621.08 912.019 1621.08 912.019 1620.98 912.113ZM1636.69 906.113C1633.02 904.519 1628.7 902.738 1624.38 902.176C1624.75 901.519 1625.21 900.863 1625.58 900.207C1625.85 899.832 1626.04 899.551 1626.22 899.27C1626.31 899.176 1626.77 898.613 1626.86 898.613C1627.05 898.332 1627.32 898.051 1627.6 897.863C1627.78 897.77 1627.97 897.582 1628.06 897.488C1628.52 897.113 1627.6 897.957 1628.33 897.395C1628.61 897.395 1628.7 897.301 1628.7 897.301C1628.79 897.301 1628.89 897.301 1628.98 897.301C1629.25 897.301 1629.34 897.301 1629.44 897.301C1629.53 897.301 1629.62 897.301 1629.9 897.395C1630.45 897.582 1631 897.77 1631.55 897.957C1631.73 898.051 1631.92 898.051 1632.1 898.145C1631.83 898.051 1631.83 898.051 1632.19 898.145C1632.65 898.426 1633.11 898.613 1633.66 898.895C1635.41 899.738 1637.15 900.769 1638.81 901.801C1640.74 903.113 1641.47 903.676 1643.13 905.176C1643.86 905.832 1644.6 906.582 1645.33 907.238C1645.7 907.613 1646.06 908.082 1646.43 908.457C1646.52 908.55 1646.71 908.738 1646.89 908.925C1647.26 909.394 1647.35 909.863 1647.26 910.425C1647.26 911.175 1647.26 911.925 1647.17 912.675C1643.95 910.05 1640.28 907.801 1636.69 906.113ZM1635.41 924.487C1632.28 923.269 1628.89 922.706 1625.49 922.331C1622.55 921.956 1619.52 921.956 1616.48 922.519C1616.85 922.05 1617.13 921.581 1617.31 921.112C1618.14 918.675 1619.06 916.238 1620.07 913.988C1620.34 913.519 1620.53 913.05 1620.71 912.582C1620.8 912.488 1620.8 912.488 1620.8 912.488C1620.89 912.488 1620.89 912.394 1620.8 912.394C1621.26 912.394 1621.63 912.394 1622 912.394C1622.18 912.394 1622.55 912.488 1622.64 912.488C1623.19 912.582 1623.74 912.675 1624.29 912.769C1625.39 913.05 1626.5 913.332 1627.6 913.707C1629.71 914.363 1631.37 914.925 1633.2 915.863C1637.15 917.831 1640.83 920.269 1643.77 923.55C1643.68 923.55 1644.04 924.3 1644.04 924.206C1644.23 925.519 1643.95 926.925 1643.86 928.237L1643.77 929.456C1641.38 927.3 1638.53 925.612 1635.41 924.487ZM1614.92 945.487C1614.92 945.393 1614.92 945.393 1614.92 945.393C1614.92 945.299 1614.92 945.205 1614.92 945.112C1614.92 945.205 1614.92 945.393 1614.92 945.487ZM1660.03 681.59C1659.85 681.309 1659.75 681.028 1659.48 680.746C1655.89 676.903 1659.29 669.403 1661.77 665.934C1665.36 660.872 1670.87 657.685 1676.75 655.997C1689.15 652.341 1703.02 654.122 1714.87 658.903C1725.81 663.216 1738.21 669.778 1745.19 679.809C1751.16 688.434 1753 703.058 1742.71 708.87C1739.49 704.839 1735.82 700.996 1731.59 697.621C1734.9 690.59 1735.73 682.246 1731.23 675.497C1726.36 668.278 1717.63 664.059 1709.64 661.716C1693.47 657.028 1668.11 659.56 1663.61 679.715C1663.52 680.09 1663.61 680.371 1663.61 680.746C1662.42 681.028 1661.22 681.309 1660.03 681.59ZM1717.17 688.434C1718.46 685.152 1719.56 681.778 1720.2 678.309C1720.94 678.965 1721.58 679.621 1722.13 680.371C1724.89 683.84 1724.52 687.965 1723.05 691.715C1721.12 690.59 1719.19 689.465 1717.17 688.434ZM1699.07 681.309C1698.71 681.215 1698.34 681.215 1697.97 681.121C1698.15 680.465 1698.43 679.809 1698.61 679.153C1699.26 677.09 1699.62 674.84 1699.9 672.59C1699.99 671.84 1699.72 670.997 1699.26 670.247C1701.65 670.434 1703.94 670.903 1705.87 671.372C1707.52 671.84 1709.27 672.403 1711.02 673.059C1710.92 673.247 1710.83 673.528 1710.74 673.809C1710.19 677.371 1709.18 680.84 1707.98 684.309C1704.95 683.09 1702.01 682.153 1699.07 681.309ZM1674.64 679.153C1677.48 673.434 1683.73 670.903 1690.35 670.247C1690.35 670.34 1690.16 670.434 1690.07 670.622C1689.79 671.184 1689.7 671.84 1689.7 672.497C1689.7 672.403 1689.7 672.215 1689.79 672.122C1689.43 674.278 1688.88 676.34 1688.14 678.403C1687.96 678.684 1687.77 679.059 1687.68 679.34C1683.36 678.965 1678.95 678.871 1674.64 679.153ZM1760.07 692.277C1759.8 688.34 1758.88 684.402 1757.41 680.84C1757.87 681.215 1758.33 681.496 1758.79 681.59C1763.93 682.621 1769.08 683.652 1774.13 684.59C1773.85 686.652 1773.67 688.809 1773.49 690.871C1773.49 691.34 1773.39 691.902 1773.3 692.371C1773.3 692.465 1773.3 692.558 1773.3 692.558C1773.3 692.652 1773.3 692.652 1773.3 692.746C1773.12 693.59 1773.03 694.433 1772.84 695.277C1772.75 695.558 1772.66 695.746 1772.66 696.027C1772.57 696.027 1772.57 695.933 1772.48 695.933C1771.28 695.558 1770 695.183 1768.71 694.808C1766.14 693.965 1763.47 693.121 1760.81 692.277C1760.53 692.183 1760.35 692.277 1760.07 692.277ZM1752.54 620.28C1748.87 618.124 1745.19 616.155 1741.33 614.374C1744.18 609.499 1746.11 604.155 1747.67 598.718C1748.77 606.03 1750.24 613.343 1752.54 620.28ZM1763.01 641.56C1762.09 641.748 1761.08 642.029 1760.17 642.31C1758.88 642.873 1757.5 643.435 1756.21 644.185C1754.56 642.498 1752.63 641.092 1750.79 639.685C1747.67 637.342 1744.46 635.092 1741.15 633.029C1736.37 629.936 1731.13 626.748 1725.62 624.78C1726.36 623.092 1727 621.405 1727.64 619.624C1740.6 624.498 1753.83 631.154 1762.92 641.467C1763.01 641.467 1763.01 641.467 1763.01 641.56ZM1709.64 632.748C1709.91 633.029 1710.19 633.123 1710.46 633.311C1709.91 634.529 1709.27 635.748 1708.81 636.967C1708.26 638.279 1707.89 639.592 1707.43 640.904C1707.25 641.56 1707.16 642.217 1706.97 642.873C1706.97 642.966 1706.88 643.154 1706.79 643.341C1706.33 643.998 1705.96 644.654 1705.78 645.404C1697.33 643.529 1688.23 643.06 1679.69 644.654C1681.71 640.435 1683.36 636.123 1684.37 631.623C1684.47 631.154 1684.56 630.686 1684.65 630.311C1685.75 629.654 1686.12 629.561 1687.41 629.186C1688.05 628.905 1688.69 628.811 1689.33 628.623C1689.43 628.623 1690.44 628.436 1690.62 628.436C1691.82 628.248 1693.01 628.248 1694.2 628.248C1695.67 628.342 1696.04 628.342 1697.33 628.623C1699.81 629.092 1702.38 629.842 1704.86 630.592C1705.96 630.967 1707.07 631.248 1708.08 631.717C1708.17 631.717 1708.81 631.998 1708.9 632.092C1709.09 632.186 1709.09 632.186 1709.18 632.279C1709.36 632.373 1709.55 632.561 1709.64 632.748ZM1666.83 648.873C1665.72 649.435 1664.62 649.904 1663.61 650.56C1663.52 650.56 1663.43 650.654 1663.43 650.654C1665.63 642.029 1668.39 633.592 1671.7 625.342C1672.06 625.717 1672.43 626.186 1672.8 626.561C1673.35 627.123 1673.9 627.686 1674.45 628.342L1674.54 628.53C1674.36 629.561 1674.08 630.686 1673.99 630.873C1672.61 636.123 1670.41 640.998 1667.38 645.591C1666.83 646.623 1666.74 647.748 1666.83 648.873ZM1762.46 652.529C1762.09 652.622 1762.09 652.622 1762.46 652.529C1762.74 652.435 1763.1 652.247 1763.38 652.154H1763.47C1762.92 653.935 1762.46 655.716 1761.91 657.591C1761.27 659.841 1760.53 662.185 1759.89 664.528C1759.61 665.653 1759.25 666.778 1758.97 667.903C1758.88 668.091 1758.79 668.372 1758.7 668.559C1758.05 668.747 1757.32 668.934 1756.67 669.028C1756.49 669.028 1756.4 669.122 1756.31 669.122C1757.59 664.528 1759.71 660.216 1760.9 655.622C1761.08 654.872 1761.27 654.122 1761.36 653.372C1761.36 653.279 1761.45 653.185 1761.45 652.997C1761.64 652.904 1761.82 652.81 1762 652.716C1762.19 652.622 1762.28 652.622 1762.46 652.529ZM1761.54 652.341C1761.64 652.154 1761.64 652.154 1761.54 652.341ZM1715.88 648.216C1716.16 647.654 1716.44 647.091 1716.62 646.341C1716.99 644.841 1717.35 643.341 1717.81 641.935C1718.09 641.185 1718.37 640.435 1718.64 639.685C1718.64 639.592 1718.73 639.404 1718.73 639.404C1718.92 639.029 1719.1 638.654 1719.19 638.373C1719.84 636.967 1720.48 635.654 1721.12 634.342C1721.12 634.342 1721.12 634.342 1721.12 634.248C1725.99 635.842 1730.49 638.467 1734.9 641.279C1737.84 643.06 1740.69 645.029 1743.45 647.091C1744.73 648.029 1746.02 648.966 1747.21 649.904C1747.85 650.466 1748.5 650.935 1749.14 651.497C1749.32 651.685 1749.51 651.872 1749.78 652.06C1749.97 652.716 1750.34 653.279 1750.7 653.747C1749.51 657.872 1747.76 661.81 1746.57 665.934C1737.93 657.778 1726.36 652.154 1715.88 648.216ZM1780.28 675.309C1776.24 674.559 1772.2 673.715 1768.07 672.872C1768.16 672.778 1768.16 672.684 1768.16 672.59C1768.71 670.903 1769.17 669.216 1769.63 667.528C1770.82 663.403 1772.02 659.185 1773.21 655.06C1777.16 661.435 1780.1 668.372 1780.28 675.309ZM1651.12 664.153C1646.8 662.56 1642.57 660.966 1638.26 659.466C1639.27 656.747 1640.09 653.935 1640.64 651.122C1640.92 649.529 1641.1 647.935 1641.47 646.341C1641.66 645.591 1641.84 644.935 1642.02 644.185C1642.11 644.185 1642.02 644.185 1642.11 644.185C1642.11 644.091 1642.3 643.81 1642.39 643.623C1642.39 643.529 1642.39 643.529 1642.48 643.529C1642.48 643.435 1642.48 643.529 1642.48 643.435C1642.57 643.435 1642.57 643.435 1642.57 643.435C1642.76 643.435 1642.85 643.435 1643.03 643.435C1643.22 643.435 1643.31 643.435 1643.49 643.435C1644.14 643.529 1644.04 643.529 1643.31 643.435C1643.58 643.341 1644.14 643.623 1644.41 643.623C1645.24 643.81 1646.06 644.091 1646.89 644.373C1649.19 645.123 1651.49 646.154 1653.78 647.091C1653.05 649.81 1652.31 652.622 1651.76 655.435C1651.3 657.403 1651.94 659.372 1653.23 660.591C1652.5 661.716 1651.76 662.934 1651.12 664.153ZM1642.48 643.435C1642.57 643.341 1642.57 643.248 1642.57 643.248C1642.57 643.341 1642.57 643.341 1642.48 643.435ZM1663.7 618.311C1661.04 624.405 1658.74 630.686 1656.72 637.06C1656.63 637.06 1656.63 637.154 1656.54 637.154C1653.78 636.029 1650.75 634.717 1647.81 633.873C1651.85 626.842 1657.36 621.78 1663.7 618.311ZM1718 616.342C1717.81 616.811 1717.72 617.28 1717.54 617.842C1717.26 618.499 1717.08 619.061 1716.8 619.717C1716.8 619.811 1716.8 619.811 1716.8 619.811C1716.71 619.811 1716.71 619.811 1716.71 619.905C1716.53 620.28 1716.44 620.561 1716.25 620.936C1715.88 621.874 1715.33 622.811 1714.87 623.748C1713.04 622.436 1710.83 621.686 1708.72 620.936C1705.69 619.999 1702.56 619.061 1699.44 618.499C1693.1 617.467 1687.04 618.124 1681.25 620.561C1679.23 618.311 1677.21 616.061 1675.19 613.811C1688.78 610.436 1704.31 612.03 1718 616.342ZM1714.23 600.499C1713.77 601.718 1713.4 603.03 1713.04 604.343C1712.21 604.155 1711.48 603.968 1710.65 603.874C1711.84 602.749 1713.04 601.718 1714.23 600.499ZM1742.25 579.219C1742.25 579.5 1742.16 579.781 1742.16 579.969C1741.24 583.437 1740.32 586.812 1739.4 590.281C1737.66 596.937 1735.82 603.593 1732.33 609.499C1732.15 609.78 1732.15 610.061 1732.05 610.436C1730.31 609.686 1728.56 609.03 1726.73 608.374C1725.53 607.905 1724.15 607.53 1722.87 607.062C1725.07 599.749 1727.37 592.437 1729.66 585.125C1730.12 583.344 1730.68 581.656 1731.23 579.875C1731.59 578.844 1731.78 577.906 1732.33 577.25C1732.42 577.25 1732.79 577.156 1732.42 577.156C1733.06 577.063 1733.8 577.156 1734.53 577.25C1734.72 577.25 1735.73 577.438 1735.82 577.438C1736.83 577.625 1737.75 577.813 1738.67 578.094C1739.86 578.375 1741.06 578.75 1742.25 579.219ZM1791.03 662.466C1790.3 663.966 1789.65 665.372 1789.1 666.872C1786.72 657.028 1780.84 647.748 1774.59 639.592C1772.84 637.342 1771.01 635.279 1769.17 633.311C1768.98 632.842 1768.89 632.373 1768.62 631.811C1759.8 616.999 1757.23 597.593 1756.03 580.531C1755.76 576.313 1754.47 568.813 1758.7 566.282C1762.55 564.032 1765.22 570.032 1766.87 573.032C1772.2 582.594 1777.16 592.343 1781.75 602.187C1790.57 620.842 1800.68 642.217 1791.03 662.466ZM1782.95 696.683C1783.13 695.558 1783.32 694.433 1783.41 693.308C1784.79 693.215 1786.16 692.558 1786.99 690.777C1789.2 686.277 1790.21 681.778 1790.3 677.278C1791.4 679.153 1792.5 680.934 1792.69 683.184C1793.42 690.59 1786.62 692.183 1782.95 696.683ZM1752.82 714.214C1756.12 711.026 1758.14 707.089 1759.25 702.683C1762.46 703.621 1765.68 704.652 1768.89 705.683C1770.82 706.245 1773.12 707.37 1775.23 707.37C1777.62 707.464 1779.09 706.152 1780.19 704.37C1779.82 706.152 1779.18 707.652 1777.34 708.683C1774.5 710.089 1770.82 709.902 1767.79 711.214C1764.39 712.808 1760.72 717.308 1756.86 716.37C1755.57 715.995 1754.19 715.245 1752.82 714.214ZM1734.53 757.712C1733.98 759.212 1733.43 760.712 1732.88 762.212C1734.72 748.338 1735.91 734.369 1736.56 720.307C1736.83 713.651 1726.63 713.651 1726.36 720.307C1724.98 752.369 1720.29 784.149 1712.49 815.273C1712.12 816.96 1712.49 818.366 1713.22 819.491C1713.22 819.585 1713.13 819.772 1713.13 819.866C1707.52 804.023 1693.01 792.961 1676.38 787.149C1665.63 783.305 1653.97 781.336 1642.48 781.243C1636.14 781.243 1629.44 781.524 1623.83 784.805C1628.43 770.743 1632.84 756.681 1637.15 742.525C1636.14 751.712 1635.5 760.9 1635.68 770.181C1635.78 776.837 1645.97 776.837 1645.88 770.181C1645.33 745.619 1651.21 721.526 1650.75 696.964C1650.75 696.683 1650.57 696.589 1650.57 696.308C1666 688.527 1683.73 687.215 1700.27 692.465C1708.54 695.09 1716.44 699.402 1723.42 704.745C1730.03 709.808 1737.93 716.651 1740.14 725.182C1742.8 735.682 1737.84 747.869 1734.53 757.712ZM1661.68 863.083C1661.77 862.99 1661.77 862.896 1661.87 862.802C1662.69 861.771 1663.15 860.646 1663.24 859.427L1663.34 859.334C1663.89 857.927 1664.44 856.521 1665.08 855.209C1666.09 852.584 1667.19 849.959 1668.02 847.24C1669.68 842.365 1671.14 836.553 1669.58 831.397C1667.65 824.554 1660.95 822.21 1654.52 823.241C1641.93 825.116 1637.61 840.678 1636.69 852.115C1636.6 852.303 1636.51 852.49 1636.42 852.678C1636.42 852.771 1636.42 852.771 1636.42 852.865C1636.24 853.427 1636.24 853.99 1636.24 854.646C1634.86 854.927 1633.57 855.49 1632.28 856.052C1631.92 856.24 1631.55 856.615 1631.18 856.802C1631.09 856.709 1631 856.521 1630.91 856.427C1624.29 851.74 1617.77 845.459 1614.74 837.584C1612.99 832.897 1612.9 828.116 1613.36 823.147C1613.64 819.679 1613.45 814.148 1616.02 811.429C1616.94 810.492 1617.31 809.367 1617.4 808.335C1620.16 805.148 1622.18 801.586 1624.75 797.93C1629.07 791.836 1635.68 791.555 1642.48 791.649C1652.13 791.649 1661.77 793.242 1670.96 796.148C1690.16 802.336 1706.79 815.741 1705.23 837.772C1704.68 838.147 1704.31 838.709 1704.03 839.272C1700.73 846.396 1696.87 852.209 1691.36 857.459C1688.69 859.99 1686.12 861.865 1682.63 863.74C1679.23 865.615 1676.01 866.833 1672.25 865.99C1669.95 865.427 1667.75 866.458 1666.55 868.427C1666.18 867.864 1665.91 867.302 1665.45 866.739C1664.44 865.333 1663.06 864.115 1661.68 863.083ZM1161.46 1048.33C1158.8 1047.01 1156.13 1045.61 1153.56 1044.11C1142.44 1037.92 1132.06 1030.42 1122.14 1022.73C1095.5 1002.11 1070.97 979.235 1047.27 955.236C1024.58 932.081 1003.08 907.613 977.725 887.364C977.725 887.364 977.725 887.27 977.816 887.27C982.318 876.208 987.003 865.24 992.056 854.459C1008.13 819.491 1027.61 785.649 1054.43 758.368C1060.31 767.462 1067.66 775.524 1074.65 783.774C1083.1 793.617 1090.91 804.211 1098.9 814.523C1116.08 836.741 1133.44 858.959 1150.8 881.176C1158.43 890.832 1165.96 900.488 1173.5 910.144C1180.02 918.394 1186.08 926.925 1195.82 931.237C1205.37 935.549 1215.85 935.737 1226.14 936.674C1237.9 937.706 1249.47 940.143 1261.14 942.299C1285.48 946.799 1309.92 949.986 1334.08 955.049C1358.06 960.111 1381.94 965.736 1405.92 970.986C1417.68 973.517 1429.53 975.954 1441.38 978.204C1452.41 980.267 1463.61 982.704 1474.91 982.61C1496.41 982.61 1514.79 972.204 1534.35 964.892C1545.29 960.861 1556.95 957.205 1568.53 955.611C1577.99 954.205 1587.82 950.549 1596.18 945.768C1599.03 944.174 1602.34 940.331 1604.08 944.643C1605.28 947.643 1603.44 951.58 1602.15 954.299C1599.76 959.361 1596.27 962.455 1591.5 965.08C1582.95 969.673 1574.41 972.579 1565.22 974.736C1564.3 974.548 1563.2 974.642 1562.1 975.298C1562.1 975.392 1562.01 975.392 1562.01 975.392C1560.9 975.579 1559.89 975.86 1558.79 976.048C1556.31 976.517 1555.21 978.392 1555.21 980.36C1547.12 987.11 1540.6 996.86 1547.31 1007.17C1556.13 1020.86 1574.32 1014.48 1586.17 1009.89C1597.83 1005.39 1609.96 999.672 1617.4 989.079C1621.63 982.985 1622.82 976.423 1623.28 969.111C1623.56 964.892 1623.1 958.517 1627.05 955.892C1632.19 952.424 1635.04 959.736 1635.68 963.767C1636.88 971.267 1635.04 979.61 1633.75 987.016C1632.38 994.704 1630.54 1002.39 1626.5 1009.23C1618.87 1021.98 1606.75 1031.92 1595.9 1041.76C1590.3 1046.83 1584.79 1051.89 1579.55 1057.42C1574.04 1063.23 1568.71 1069.04 1560.81 1071.2C1545.29 1075.51 1527.92 1067.36 1513.96 1060.98C1499.44 1054.42 1485.02 1047.48 1469.22 1044.58C1452.5 1041.58 1435.5 1041.76 1418.6 1042.23C1383.51 1042.98 1348.5 1046.08 1313.5 1048.89C1279.05 1051.61 1244.51 1053.95 1210.06 1055.17C1196.1 1055.64 1181.76 1055.45 1168.44 1051.05C1166.15 1050.3 1163.76 1049.36 1161.46 1048.33ZM1675.55 778.149C1674.91 784.711 1665.08 784.899 1665.36 778.149C1665.72 770.462 1666.18 762.775 1666.74 755.087C1666.64 754.337 1666.55 753.494 1666.64 752.744C1667.01 750.588 1667.19 748.525 1667.47 746.369C1669.03 728.932 1671.05 711.589 1673.81 694.34C1674.64 688.621 1684.37 689.933 1683.82 695.746C1682.81 705.402 1681.71 715.058 1680.52 724.713C1678.86 742.525 1677.21 760.337 1675.55 778.149ZM1666.28 722.276C1665.91 725.182 1665.63 728.182 1665.36 731.088C1664.53 744.869 1663.89 758.65 1663.34 772.337C1663.34 772.524 1663.34 772.618 1663.24 772.712C1663.34 773.087 1663.34 773.555 1663.34 773.93C1663.89 780.586 1653.69 780.493 1653.14 773.93C1651.12 747.681 1652.77 721.432 1657.82 695.652C1659.02 690.027 1668.48 691.152 1667.84 697.058C1667.1 704.839 1666.55 712.62 1666 720.401C1666.18 720.964 1666.37 721.62 1666.28 722.276ZM1688.97 780.399C1688.23 786.961 1678.04 787.055 1678.77 780.399C1681.71 752.275 1685.29 724.151 1689.33 696.121C1689.7 693.308 1693.19 691.808 1695.58 692.465C1698.52 693.215 1699.53 696.121 1699.16 698.839C1695.21 725.932 1691.82 753.212 1688.97 780.399ZM1698.25 794.836C1695.77 794.836 1692.73 792.398 1693.1 789.586C1696.87 760.525 1699.9 731.369 1702.38 702.214C1702.93 695.558 1713.13 695.558 1712.58 702.214C1710.1 731.369 1707.07 760.525 1703.3 789.586C1702.93 792.398 1701.19 794.742 1698.25 794.836ZM1716.8 777.305C1716.44 780.868 1715.98 784.43 1715.52 787.992C1715.33 789.774 1715.15 791.555 1714.87 793.336C1714.78 794.555 1714.6 795.773 1714.51 796.992C1714.51 797.273 1714.51 797.461 1714.41 797.648C1715.33 799.992 1714.32 802.523 1712.3 803.836C1712.21 803.929 1712.12 804.023 1712.03 804.117C1709.64 805.804 1706.61 804.398 1705.04 802.242C1703.3 799.804 1704.4 796.148 1704.77 793.336C1705.23 789.211 1705.69 784.993 1706.24 780.868C1707.16 773.087 1708.08 765.399 1708.99 757.619C1710.92 741.494 1712.85 725.463 1714.78 709.339C1715.52 702.777 1725.71 702.683 1724.98 709.339C1723.14 724.526 1721.3 739.713 1719.47 754.9C1718.64 762.4 1717.72 769.806 1716.8 777.305ZM1215.48 876.208C1212.54 876.02 1209.69 873.583 1210.61 869.833C1217.68 841.428 1226.41 813.398 1237.16 786.211C1247.36 760.243 1259.3 734.651 1275.47 712.058C1279.33 706.714 1288.15 711.87 1284.29 717.307C1258.66 752.931 1242.12 795.68 1229.63 838.522C1226.32 849.959 1223.29 861.302 1220.44 872.552C1219.71 875.27 1217.59 876.302 1215.48 876.208Z" fill="black"/>
</g>
</g>
</svg>
