<svg width="488" height="491" viewBox="0 0 488 491" fill="none" xmlns="http://www.w3.org/2000/svg">
<path d="M90.9997 300C90.9997 300 252 300 307 300C362 300 492 355 405 396C318 437 525.79 491 481 491C396.877 491 162.198 491 26.0002 491C-3.53218 491 -20.5 399 90.9999 371C202.5 343 90.9997 300 90.9997 300Z" fill="#FF592D"/>
<rect x="213" y="122" width="192" height="201" fill="#FF7753"/>
<path d="M240 305H58V85H240V305Z" fill="#FFDAD0"/>
<path d="M84.7656 166.896H147.343C148.828 166.896 150.022 168.094 150.022 169.585V306.641C150.022 308.133 148.828 309.331 147.343 309.331H84.7656C83.2886 309.33 82.0859 308.131 82.0859 306.641V169.585C82.0859 168.096 83.2886 166.896 84.7656 166.896Z" fill="#FFD5CA" stroke="#FF7753" stroke-width="2"/>
<path d="M87.0894 305.262H144.766C146.125 305.262 147.222 304.156 147.222 302.799V172.402C147.222 171.045 146.125 169.95 144.766 169.95H87.0894C85.7308 169.95 84.6338 171.045 84.6338 172.402V302.799C84.6338 304.156 85.7308 305.262 87.0894 305.262Z" fill="#FF592D" fill-opacity="0.27"/>
<path d="M422 307H396V88H422V307Z" fill="#FFDAD0"/>
<path d="M423.927 312.864H35.9819V296.393H423.927V312.864Z" fill="#FF8969"/>
<path d="M63.2056 313.624H55.6357C55.1397 313.624 54.7329 313.212 54.7329 312.7V296.304C54.7329 295.792 55.1397 295.38 55.6357 295.38C56.1417 295.38 56.5485 295.792 56.5485 296.304V311.776H63.2056C63.7017 311.776 64.1085 312.188 64.1085 312.7C64.1085 313.212 63.7017 313.624 63.2056 313.624Z" fill="white"/>
<path d="M230.841 238.113H161.918V166.402H230.841V238.113Z" fill="#FF592D" fill-opacity="0.27"/>
<path d="M162.747 237.288H230.013V167.238H162.747V237.288ZM231.855 239.127H160.905V165.389H231.855V239.127Z" fill="#FF7753"/>
<path d="M171.196 230.511C170.906 230.511 170.626 230.381 170.446 230.131C170.156 229.721 170.256 229.14 170.666 228.85L189.36 215.477C189.779 215.187 190.349 215.277 190.639 215.687C190.928 216.107 190.828 216.677 190.429 216.967L171.725 230.341C171.565 230.461 171.375 230.511 171.196 230.511Z" fill="#FFD5CA"/>
<path d="M172.473 218.602C172.19 218.602 171.908 218.472 171.726 218.223C171.424 217.815 171.514 217.247 171.928 216.948L188.838 204.834C189.252 204.545 189.827 204.635 190.12 205.043C190.422 205.452 190.331 206.019 189.918 206.318L173.008 218.432C172.846 218.552 172.654 218.602 172.473 218.602Z" fill="#FFD5CA"/>
<path d="M203.123 197.823C202.834 197.823 202.554 197.693 202.374 197.443C202.084 197.023 202.184 196.453 202.594 196.163L221.288 182.789C221.698 182.499 222.267 182.589 222.567 182.999C222.857 183.419 222.757 183.989 222.347 184.28L203.653 197.653C203.493 197.763 203.303 197.823 203.123 197.823Z" fill="#FFD5CA"/>
<path d="M204.401 185.914C204.108 185.914 203.836 185.784 203.654 185.545C203.351 185.137 203.442 184.559 203.856 184.26L220.759 172.146C221.172 171.857 221.747 171.947 222.05 172.355C222.353 172.764 222.252 173.331 221.848 173.63L204.936 185.744C204.774 185.864 204.582 185.914 204.401 185.914Z" fill="#FFD5CA"/>
<path d="M197.393 238.113H195.366V166.402H197.393V238.113Z" fill="#FF7753"/>
<path d="M419.113 132.954H60.8145V100.267H419.113V132.954Z" fill="#FFDAD0"/>
<path d="M427.584 115.977H50.5567C46.8893 115.977 43.9051 112.243 43.875 107.614L43.5836 53.0094C43.5635 48.3511 46.5477 44.5461 50.2452 44.526L427.615 43C431.312 42.99 434.316 46.7648 434.316 51.4332L434.266 107.564C434.256 112.213 431.272 115.977 427.584 115.977Z" fill="#FF592D"/>
<path d="M394 296H242V138H394V296Z" fill="#FFD5CA"/>
<path d="M388.199 163.108H249.593V153.226H388.199V163.108Z" fill="#FF592D" fill-opacity="0.27"/>
<path d="M388.199 184.14H249.593V174.257H388.199V184.14Z" fill="#FF592D" fill-opacity="0.27"/>
<path d="M388.199 205.172H249.593V195.29H388.199V205.172Z" fill="#FF592D" fill-opacity="0.27"/>
<path d="M388.199 225.95H249.593V216.321H388.199V225.95Z" fill="#FF592D" fill-opacity="0.27"/>
<path d="M388.199 246.981H249.593V237.099H388.199V246.981Z" fill="#FF592D" fill-opacity="0.27"/>
<path d="M388.199 268.013H249.593V258.131H388.199V268.013Z" fill="#FF592D" fill-opacity="0.27"/>
<path d="M388.199 288.792H249.593V279.163H388.199V288.792Z" fill="#FF592D" fill-opacity="0.27"/>
<path d="M395.98 147H240.02C237.26 147 235 144.798 235 142.11V134.88C235 132.202 237.26 130 240.02 130H395.98C398.74 130 401 132.202 401 134.88V142.11C401 144.798 398.74 147 395.98 147Z" fill="#FF592D"/>
<path d="M72.4343 313.117H159.421C160.375 313.117 161.158 312.354 161.158 311.403V302.415C161.158 301.474 160.375 300.701 159.421 300.701H72.4343C71.4701 300.701 70.6968 301.474 70.6968 302.415V311.403C70.6968 312.354 71.4701 313.117 72.4343 313.117Z" fill="#FF592D" fill-opacity="0.27"/>
<path d="M153.147 314.131H72.269C70.8503 314.131 69.6831 312.974 69.6831 311.546V302.272C69.6831 300.844 70.8503 299.688 72.269 299.688L128.506 299.778C129.019 299.778 129.431 300.19 129.421 300.703C129.421 301.206 129.019 301.619 128.506 301.619L72.269 301.528C71.8565 301.528 71.5245 301.86 71.5245 302.272V311.546C71.5245 311.948 71.8565 312.29 72.269 312.29H153.147C153.661 312.29 154.063 312.703 154.063 313.206C154.063 313.719 153.661 314.131 153.147 314.131Z" fill="white"/>
<path d="M97.2072 213.787C96.9061 213.787 96.6049 213.647 96.4343 213.366C96.1632 212.945 96.2837 212.374 96.7053 212.103L137.19 186.058C137.621 185.787 138.183 185.908 138.464 186.339C138.736 186.76 138.605 187.331 138.183 187.612L97.6991 213.647C97.5485 213.747 97.3779 213.787 97.2072 213.787Z" fill="#FFD5CA"/>
<path d="M95.6875 231.271C95.3861 231.271 95.0847 231.119 94.9139 230.836C94.6426 230.41 94.7632 229.832 95.1852 229.548L132.883 205.062C133.305 204.788 133.878 204.92 134.149 205.345C134.43 205.781 134.3 206.349 133.878 206.633L96.1799 231.119C96.0292 231.221 95.8584 231.271 95.6875 231.271Z" fill="#FF592D" fill-opacity="0.27"/>
<path d="M423.773 313.624H392.155C391.652 313.624 391.24 313.202 391.24 312.7C391.24 312.188 391.652 311.776 392.155 311.776H422.858V297.228H408.471C407.969 297.228 407.557 296.806 407.557 296.304C407.557 295.792 407.969 295.38 408.471 295.38H423.773C424.275 295.38 424.688 295.792 424.688 296.304V312.7C424.688 313.202 424.275 313.624 423.773 313.624Z" fill="white"/>
<path d="M9.88232 128.205C9.44309 128.205 8.99387 128.305 8.58458 128.486C6.93745 129.239 6.18876 131.226 6.91749 132.912C7.26688 133.745 7.91575 134.377 8.73432 134.698C9.53293 135.01 10.4014 134.989 11.1801 134.628C12.8272 133.886 13.5759 131.898 12.8472 130.202C12.4978 129.379 11.8489 128.747 11.0303 128.426C10.661 128.285 10.2716 128.205 9.88232 128.205ZM9.88232 136.756C9.27338 136.756 8.65446 136.645 8.06549 136.405C6.7977 135.913 5.78945 134.929 5.24041 133.645C4.12235 131.035 5.28034 127.964 7.83589 126.81C9.06375 126.258 10.4314 126.218 11.6892 126.71C12.967 127.212 13.9752 128.195 14.5242 129.48C15.6423 132.089 14.4843 135.16 11.9288 136.314C11.2699 136.605 10.5811 136.756 9.88232 136.756Z" fill="white"/>
<path d="M11.2702 169.697C11.0566 169.697 10.8334 169.607 10.6587 169.438C10.3093 169.091 10.2996 168.514 10.6296 168.157L13.4249 165.166C13.7646 164.798 14.3275 164.788 14.6769 165.136C15.0264 165.484 15.0458 166.06 14.7061 166.418L11.9108 169.419C11.7458 169.597 11.5128 169.697 11.2702 169.697Z" fill="white"/>
<path d="M1.19083 180.339C0.955252 180.339 0.719671 180.25 0.545546 180.081C0.166568 179.733 0.156327 179.157 0.514818 178.799L3.45446 175.808C3.81296 175.441 4.40703 175.431 4.77576 175.778C5.15475 176.126 5.16499 176.703 4.80649 177.07L1.86685 180.051C1.68248 180.24 1.43666 180.339 1.19083 180.339Z" fill="white"/>
<path d="M3.88939 169.95C3.6559 169.95 3.41226 169.858 3.23968 169.674L0.275379 166.733C-0.0900828 166.376 -0.0900835 165.784 0.265227 165.416C0.620538 165.049 1.20934 165.038 1.5748 165.406L4.5391 168.347C4.90456 168.704 4.90456 169.296 4.54925 169.664C4.36652 169.848 4.12288 169.95 3.88939 169.95Z" fill="white"/>
<path d="M14.2793 180.086C14.0358 180.086 13.8025 179.994 13.62 179.81L10.6682 176.87C10.303 176.512 10.2928 175.92 10.658 175.552C11.013 175.185 11.6014 175.175 11.9665 175.542L14.9285 178.483C15.2936 178.84 15.2936 179.432 14.9386 179.8C14.756 179.994 14.5126 180.086 14.2793 180.086Z" fill="white"/>
<path d="M439.136 235.579C438.571 235.579 438.117 235.166 438.117 234.652V229.918C438.117 229.404 438.571 228.991 439.136 228.991C439.69 228.991 440.144 229.404 440.144 229.918V234.652C440.144 235.166 439.69 235.579 439.136 235.579Z" fill="white"/>
<path d="M439.136 246.475C438.571 246.475 438.117 246.062 438.117 245.558V240.814C438.117 240.3 438.571 239.887 439.136 239.887C439.69 239.887 440.144 240.3 440.144 240.814V245.558C440.144 246.062 439.69 246.475 439.136 246.475Z" fill="white"/>
<path d="M435.921 238.619H431.182C430.666 238.619 430.262 238.222 430.262 237.728C430.262 237.243 430.666 236.846 431.182 236.846H435.921C436.436 236.846 436.85 237.243 436.85 237.728C436.85 238.222 436.436 238.619 435.921 238.619Z" fill="white"/>
<path d="M447.082 238.619H442.34C441.825 238.619 441.412 238.222 441.412 237.728C441.412 237.233 441.825 236.846 442.34 236.846H447.082C447.586 236.846 448 237.233 448 237.728C448 238.222 447.586 238.619 447.082 238.619Z" fill="white"/>
<path d="M403.011 16.7093C397.277 11.0471 389.68 7.95083 381.61 8.00817C372.995 8.06551 364.795 11.8355 359.119 18.3434C358.732 18.7878 358.359 19.2465 357.986 19.7196C355.033 22.3141 351.235 23.7476 347.264 23.7619L328.371 23.8049C262.747 23.9196 152.929 24.106 132.56 23.8193C130.739 23.8049 129.034 22.9879 127.887 21.5974C120.533 12.6813 112.162 7.80749 102.959 7.09075C88.438 5.95832 77.3573 15.6772 76.8843 16.0786C76.8126 16.1502 76.7553 16.2076 76.6836 16.2793C76.2249 16.8096 76.0386 17.555 76.1962 18.2431C76.3969 19.0458 76.999 19.6766 77.7874 19.8916L96.2074 24.794C99.3467 25.6254 101.267 28.7647 100.594 31.947L98.931 39.6447C98.7159 40.6481 98.2429 41.5942 97.5692 42.3683C96.107 44.0311 93.8852 44.7765 91.7206 44.3178L70.6774 39.8167C69.889 39.6447 69.0719 39.917 68.5416 40.5191L68.4555 40.6194C67.9395 41.3075 67.8535 42.2249 68.2405 42.9846C75.0925 56.4305 83.5069 64.1856 93.2401 66.0491C98.7159 67.0955 104.507 66.2497 110.399 63.5262C115.158 61.333 118.971 58.38 121.35 56.3015C122.454 55.3124 123.888 54.782 125.378 54.7677L347.565 53.1909C351.507 53.1766 355.349 54.61 358.402 57.2476C364.222 64.4292 372.808 68.5146 382.04 68.4573C390.655 68.3856 398.854 64.6299 404.545 58.122C409.405 52.5602 412.056 45.4215 411.999 38.0249C411.942 29.9401 408.745 22.3858 403.011 16.7093ZM371.905 29.5388C373.167 28.1053 374.7 26.9872 376.392 26.2131C378.055 25.4677 379.875 25.052 381.739 25.0377C381.868 25.0377 381.997 25.052 382.126 25.052C384.591 25.1094 386.942 25.8261 388.963 27.1449C389.709 27.6323 390.425 28.1913 391.071 28.8364C393.221 30.9579 394.539 33.6958 394.898 36.6487C394.955 37.1361 394.998 37.6378 394.998 38.1395C395.013 39.229 394.869 40.3041 394.626 41.3362C394.124 43.386 393.149 45.3069 391.744 46.9123C390.081 48.8045 387.946 50.152 385.58 50.8687C384.405 51.2127 383.172 51.4134 381.925 51.4277C381.739 51.4277 381.581 51.4134 381.409 51.3991C374.371 51.1697 368.708 45.4215 368.651 38.3259C368.651 37.2795 368.78 36.2474 369.01 35.244C369.497 33.1511 370.472 31.1873 371.905 29.5388Z" fill="#E0431A"/>
<path d="M382.742 1.22641C380.506 1.15474 378.255 1.34109 376.091 1.75679C369.683 3.01824 363.749 6.38688 359.405 11.318C358.99 11.7767 358.56 12.2067 358.101 12.6224C355.134 15.2743 351.278 16.7508 347.264 16.7651L328.371 16.7938C262.747 16.9085 152.929 17.0948 132.56 16.8225C130.739 16.8081 129.034 15.9911 127.887 14.6006C120.533 5.67014 112.162 0.796378 102.959 0.093979C88.438 -1.05279 77.3573 8.66608 76.8843 9.08179C76.8126 9.13912 76.7553 9.2108 76.6836 9.28247C76.2249 9.81285 76.0386 10.5439 76.1962 11.2463C76.3969 12.0491 76.999 12.6798 77.7874 12.8805L96.2074 17.7829C99.3467 18.6143 101.267 21.7536 100.594 24.9502L98.931 32.6479C98.7159 33.6513 98.2429 34.5974 97.5692 35.3571C96.107 37.0343 93.8852 37.7797 91.7206 37.321L70.6774 32.8056C69.889 32.6336 69.0719 32.9059 68.5416 33.508L68.4555 33.6227C67.9395 34.3107 67.8535 35.2138 68.2405 35.9879C75.0925 49.4194 83.5069 57.1888 93.2401 59.0523C98.7159 60.0987 104.507 59.2386 110.399 56.5294C115.158 54.3218 118.971 51.3833 121.35 49.2904C122.454 48.3156 123.888 47.7709 125.378 47.7709L347.565 46.1941C351.521 46.1655 355.392 47.6132 358.445 50.2795C358.932 50.6952 359.377 51.1396 359.821 51.5983C364.222 56.3717 370.156 59.64 376.492 60.7724C378.313 61.1021 380.176 61.2598 382.04 61.2455C390.597 61.1738 398.74 57.4611 404.387 50.9962C409.132 45.5634 411.77 38.5824 411.798 31.3721C411.827 23.5167 408.831 16.0627 403.37 10.3862C397.894 4.70973 390.569 1.45577 382.742 1.22641ZM313.219 31.8165C313.234 33.0206 312.789 34.196 312.001 35.0991C311.069 36.1599 309.75 36.7763 308.331 36.7906L174.059 37.7224C172.754 37.7367 171.521 37.235 170.575 36.3176C169.644 35.3858 169.128 34.153 169.113 32.8343C169.099 31.6301 169.543 30.469 170.332 29.566C171.263 28.5052 172.582 27.8888 174.001 27.8745L308.259 26.9284C309.578 26.9141 310.825 27.4158 311.743 28.3475C312.689 29.2649 313.205 30.4977 313.219 31.8165ZM391.07 21.8396C393.579 24.3052 394.97 27.6164 395.013 31.1284C395.027 34.3681 393.866 37.4787 391.744 39.9156C389.264 42.7538 385.681 44.4023 381.925 44.431C374.657 44.474 368.708 38.5968 368.651 31.3148C368.637 28.0752 369.784 24.9645 371.905 22.542C374.385 19.7037 377.969 18.0553 381.739 18.0266C385.251 17.9979 388.576 19.3597 391.07 21.8396Z" fill="#FFD8CE"/>
<path d="M359.892 48.6011C360.437 49.0741 360.953 49.5615 361.441 50.0919C365.454 54.4496 370.83 57.5028 376.879 58.5923C378.556 58.8933 380.262 59.0367 382.025 59.0367C397.248 58.922 409.519 46.5655 409.591 31.3565C409.591 30.7114 409.562 30.0664 409.519 29.4213C408.788 44.0426 396.79 55.6967 381.996 55.8114C380.248 55.8114 378.527 55.668 376.865 55.367C370.801 54.2776 365.426 51.2243 361.412 46.8666C360.925 46.3505 360.409 45.8488 359.878 45.3758C356.452 42.4085 352.094 40.717 347.522 40.76L125.349 42.3225C123.328 42.3368 121.379 43.0679 119.859 44.401C112.864 50.5792 90.2439 66.6053 72.1679 35.3845L70.2041 34.9688C88.5811 71.0347 112.635 54.0195 119.888 47.6263C121.393 46.2932 123.343 45.5621 125.364 45.5478L347.55 43.971C352.123 43.9423 356.481 45.6338 359.892 48.6011ZM96.7518 12.4205L81.5428 8.36377C79.5073 9.71122 78.3605 10.729 78.3605 10.729L96.7662 15.6314C99.9054 16.4772 102.156 19.0001 102.772 21.996C103.575 17.7243 100.966 13.5386 96.7518 12.4205Z" fill="#FF9E84"/>
<path d="M398.524 31.113C398.424 17.7531 389.02 6.64382 376.506 3.93457C370.399 5.12434 365.024 8.30663 361.053 12.779C360.595 13.3094 360.093 13.8111 359.577 14.2698C356.208 17.2944 351.822 18.9716 347.263 18.9716C346.661 18.9716 346.059 18.9716 345.457 18.9716C343.608 22.7559 342.576 27.0133 342.605 31.5C342.633 36.0011 343.723 40.2442 345.629 43.9855L347.55 43.9712C352.123 43.9425 356.48 45.634 359.892 48.6012C360.437 49.0743 360.953 49.5617 361.44 50.092C365.454 54.4498 370.829 57.503 376.879 58.5925C389.364 55.6969 398.61 44.4729 398.524 31.113ZM397.219 31.113C397.277 39.6278 390.439 46.5801 381.939 46.6374C373.438 46.6947 366.5 39.8428 366.443 31.3424C366.386 22.8276 373.223 15.8753 381.724 15.818C390.21 15.7606 397.148 22.6126 397.219 31.113Z" fill="#FF9E84"/>
<path d="M404.545 51.1254C398.854 57.619 390.655 61.389 382.039 61.4463C372.679 61.518 363.978 57.3323 358.158 49.9786C353.958 44.6605 351.707 38.2529 351.65 31.4439C351.607 24.6923 353.743 18.2847 357.814 12.9236C358.23 12.3789 358.66 11.8485 359.118 11.3325C364.795 4.83887 372.994 1.06887 381.609 1.01153C389.68 0.95419 397.277 4.03613 403.011 9.71264C408.745 15.3748 411.941 22.9435 411.999 31.0139C412.056 38.4106 409.404 45.5635 404.545 51.1254ZM371.905 22.5421C369.783 24.9647 368.637 28.0896 368.651 31.3149C368.708 38.5969 374.657 44.4741 381.925 44.4311C385.68 44.4024 389.264 42.7539 391.744 39.9157C393.866 37.4788 395.027 34.3682 394.998 31.1286C394.984 27.6166 393.579 24.3053 391.07 21.8254C388.576 19.3598 385.25 18.0124 381.738 18.0267C377.968 18.0554 374.385 19.7039 371.905 22.5421Z" fill="#FFD8CE"/>
<path d="M397.104 34.3822C396.574 37.0054 395.356 39.4709 393.564 41.5208C390.625 44.8751 386.396 46.8246 381.924 46.8533C377.767 46.8819 373.839 45.2765 370.872 42.3522C369.138 40.632 367.862 38.5822 367.073 36.3317L354.703 37.1201C355.591 41.2484 357.412 45.1044 360.064 48.4731C365.411 55.2247 373.424 59.0807 382.024 59.0234C389.951 58.966 397.477 55.497 402.709 49.5195C406.608 45.0471 408.959 39.4709 409.475 33.5938L397.104 34.3822Z" fill="#FF9E84"/>
<path d="M311.743 28.3481C312.689 29.2656 313.205 30.4983 313.219 31.8171C313.233 33.0212 312.789 34.1967 312.001 35.0997C311.069 36.1605 309.75 36.7769 308.331 36.7912L174.059 37.723C172.754 37.7373 171.521 37.2356 170.575 36.3182C169.644 35.3864 169.127 34.1537 169.113 32.8349C169.099 31.6308 169.543 30.4697 170.332 29.5666C171.263 28.5058 172.582 27.8894 174.001 27.8751L308.259 26.929C309.578 26.9147 310.825 27.4164 311.743 28.3481Z" fill="#FF9E84"/>
</svg>
