<svg xmlns="http://www.w3.org/2000/svg" xmlns:xlink="http://www.w3.org/1999/xlink" width="400" zoomAndPan="magnify" viewBox="0 0 300 525.000007" height="700" preserveAspectRatio="xMidYMid meet" version="1.0"><defs><clipPath id="93c9de6dab"><path d="M 295 314 L 299.714844 314 L 299.714844 316 L 295 316 Z M 295 314 " clip-rule="nonzero"/></clipPath><clipPath id="0aa1a4ba26"><path d="M 34 149.148438 L 275 149.148438 L 275 192 L 34 192 Z M 34 149.148438 " clip-rule="nonzero"/></clipPath><clipPath id="7b1efd4521"><path d="M 232 149.148438 L 275 149.148438 L 275 193 L 232 193 Z M 232 149.148438 " clip-rule="nonzero"/></clipPath></defs><path fill="#ff7753" d="M 135.785156 234.445312 L 269.882812 234.445312 L 269.882812 374.976562 L 135.785156 374.976562 Z M 135.785156 234.445312 " fill-opacity="1" fill-rule="nonzero"/><path fill="#ffdad0" d="M 27.527344 208.578125 L 154.640625 208.578125 L 154.640625 362.390625 L 27.527344 362.390625 Z M 27.527344 208.578125 " fill-opacity="1" fill-rule="nonzero"/><path stroke-linecap="butt" transform="matrix(0.287326, 0, 0, 0.28762, -12.983115, 149.150139)" fill-opacity="1" fill="#ffd5ca" fill-rule="nonzero" stroke-linejoin="miter" d="M 206.043884 404.254517 L 358.160146 404.254517 C 362.564978 404.254517 366.09972 407.812813 366.09972 412.226729 L 366.09972 745.389153 C 366.09972 749.789489 362.564978 753.347784 358.160146 753.347784 L 206.043884 753.347784 C 201.666242 753.347784 198.104309 749.789489 198.104309 745.389153 L 198.104309 412.226729 C 198.104309 407.812813 201.666242 404.254517 206.043884 404.254517 Z M 206.043884 404.254517 " stroke="#ff7753" stroke-width="2" stroke-opacity="1" stroke-miterlimit="4"/><path fill="#ff592d" d="M 47.84375 362.574219 L 88.125 362.574219 C 89.074219 362.574219 89.839844 361.800781 89.839844 360.851562 L 89.839844 269.683594 C 89.839844 268.734375 89.074219 267.96875 88.125 267.96875 L 47.84375 267.96875 C 46.894531 267.96875 46.128906 268.734375 46.128906 269.683594 L 46.128906 360.851562 C 46.128906 361.800781 46.894531 362.574219 47.84375 362.574219 Z M 47.84375 362.574219 " fill-opacity="0.27" fill-rule="nonzero"/><path fill="#ffdad0" d="M 263.597656 210.675781 L 281.757812 210.675781 L 281.757812 363.789062 L 263.597656 363.789062 Z M 263.597656 210.675781 " fill-opacity="1" fill-rule="nonzero"/><path fill="#ff8969" d="M 12.148438 356.371094 L 283.101562 356.371094 L 283.101562 367.886719 L 12.148438 367.886719 Z M 12.148438 356.371094 " fill-opacity="1" fill-rule="nonzero"/><path fill="#ffffff" d="M 31.160156 368.421875 L 25.875 368.421875 C 25.527344 368.421875 25.242188 368.132812 25.242188 367.773438 L 25.242188 356.3125 C 25.242188 355.953125 25.527344 355.664062 25.875 355.664062 C 26.226562 355.664062 26.511719 355.953125 26.511719 356.3125 L 26.511719 367.128906 L 31.160156 367.128906 C 31.507812 367.128906 31.792969 367.414062 31.792969 367.773438 C 31.792969 368.132812 31.507812 368.421875 31.160156 368.421875 Z M 31.160156 368.421875 " fill-opacity="1" fill-rule="nonzero"/><path fill="#ff592d" d="M 100.105469 265.488281 L 148.246094 265.488281 L 148.246094 315.625 L 100.105469 315.625 Z M 100.105469 265.488281 " fill-opacity="0.27" fill-rule="nonzero"/><path fill="#ff7753" d="M 100.683594 315.050781 L 147.664062 315.050781 L 147.664062 266.074219 L 100.683594 266.074219 Z M 148.953125 316.335938 L 99.398438 316.335938 L 99.398438 264.78125 L 148.953125 264.78125 Z M 148.953125 316.335938 " fill-opacity="1" fill-rule="nonzero"/><path fill="#ffd5ca" d="M 106.585938 310.3125 C 106.382812 310.3125 106.1875 310.21875 106.0625 310.046875 C 105.859375 309.757812 105.929688 309.351562 106.214844 309.148438 L 119.273438 299.800781 C 119.566406 299.597656 119.960938 299.660156 120.164062 299.945312 C 120.367188 300.242188 120.296875 300.640625 120.019531 300.84375 L 106.957031 310.191406 C 106.84375 310.277344 106.710938 310.3125 106.585938 310.3125 Z M 106.585938 310.3125 " fill-opacity="1" fill-rule="nonzero"/><path fill="#ffd5ca" d="M 107.476562 301.984375 C 107.28125 301.984375 107.082031 301.894531 106.957031 301.71875 C 106.746094 301.433594 106.808594 301.039062 107.097656 300.828125 L 118.90625 292.359375 C 119.195312 292.15625 119.597656 292.21875 119.804688 292.503906 C 120.015625 292.792969 119.949219 293.1875 119.660156 293.398438 L 107.851562 301.867188 C 107.738281 301.949219 107.605469 301.984375 107.476562 301.984375 Z M 107.476562 301.984375 " fill-opacity="1" fill-rule="nonzero"/><path fill="#ffd5ca" d="M 128.886719 287.457031 C 128.683594 287.457031 128.488281 287.367188 128.363281 287.191406 C 128.160156 286.898438 128.230469 286.5 128.515625 286.296875 L 141.570312 276.945312 C 141.859375 276.746094 142.253906 276.808594 142.464844 277.09375 C 142.667969 277.386719 142.597656 277.785156 142.3125 277.988281 L 129.253906 287.339844 C 129.144531 287.417969 129.011719 287.457031 128.886719 287.457031 Z M 128.886719 287.457031 " fill-opacity="1" fill-rule="nonzero"/><path fill="#ffd5ca" d="M 129.777344 279.132812 C 129.574219 279.132812 129.382812 279.039062 129.253906 278.875 C 129.042969 278.589844 129.109375 278.183594 129.398438 277.976562 L 141.203125 269.503906 C 141.492188 269.304688 141.894531 269.367188 142.105469 269.652344 C 142.316406 269.9375 142.246094 270.335938 141.964844 270.542969 L 130.152344 279.011719 C 130.039062 279.097656 129.902344 279.132812 129.777344 279.132812 Z M 129.777344 279.132812 " fill-opacity="1" fill-rule="nonzero"/><path fill="#ff7753" d="M 123.46875 265.488281 L 124.882812 265.488281 L 124.882812 315.625 L 123.46875 315.625 Z M 123.46875 265.488281 " fill-opacity="1" fill-rule="nonzero"/><path fill="#ffdad0" d="M 29.492188 219.25 L 279.738281 219.25 L 279.738281 242.105469 L 29.492188 242.105469 Z M 29.492188 219.25 " fill-opacity="1" fill-rule="nonzero"/><path fill="#ff592d" d="M 285.65625 230.234375 L 22.328125 230.234375 C 19.765625 230.234375 17.683594 227.625 17.660156 224.390625 L 17.457031 186.210938 C 17.441406 182.953125 19.527344 180.292969 22.109375 180.28125 L 285.679688 179.214844 C 288.261719 179.207031 290.359375 181.84375 290.359375 185.109375 L 290.324219 224.355469 C 290.316406 227.601562 288.234375 230.234375 285.65625 230.234375 Z M 285.65625 230.234375 " fill-opacity="1" fill-rule="nonzero"/><path fill="#ffd5ca" d="M 156.039062 245.632812 L 262.199219 245.632812 L 262.199219 356.097656 L 156.039062 356.097656 Z M 156.039062 245.632812 " fill-opacity="1" fill-rule="nonzero"/><path fill="#ff592d" d="M 161.339844 256.277344 L 258.148438 256.277344 L 258.148438 263.1875 L 161.339844 263.1875 Z M 161.339844 256.277344 " fill-opacity="0.27" fill-rule="nonzero"/><path fill="#ff592d" d="M 161.339844 270.980469 L 258.148438 270.980469 L 258.148438 277.890625 L 161.339844 277.890625 Z M 161.339844 270.980469 " fill-opacity="0.27" fill-rule="nonzero"/><path fill="#ff592d" d="M 161.339844 285.6875 L 258.148438 285.6875 L 258.148438 292.59375 L 161.339844 292.59375 Z M 161.339844 285.6875 " fill-opacity="0.27" fill-rule="nonzero"/><path fill="#ff592d" d="M 161.339844 300.390625 L 258.148438 300.390625 L 258.148438 307.121094 L 161.339844 307.121094 Z M 161.339844 300.390625 " fill-opacity="0.27" fill-rule="nonzero"/><path fill="#ff592d" d="M 161.339844 314.917969 L 258.148438 314.917969 L 258.148438 321.828125 L 161.339844 321.828125 Z M 161.339844 314.917969 " fill-opacity="0.27" fill-rule="nonzero"/><path fill="#ff592d" d="M 161.339844 329.621094 L 258.148438 329.621094 L 258.148438 336.53125 L 161.339844 336.53125 Z M 161.339844 329.621094 " fill-opacity="0.27" fill-rule="nonzero"/><path fill="#ff592d" d="M 161.339844 344.324219 L 258.148438 344.324219 L 258.148438 351.058594 L 161.339844 351.058594 Z M 161.339844 344.324219 " fill-opacity="0.27" fill-rule="nonzero"/><path fill="#ff592d" d="M 263.582031 251.925781 L 154.65625 251.925781 C 152.726562 251.925781 151.148438 250.386719 151.148438 248.507812 L 151.148438 243.449219 C 151.148438 241.578125 152.726562 240.039062 154.65625 240.039062 L 263.582031 240.039062 C 265.511719 240.039062 267.089844 241.578125 267.089844 243.449219 L 267.089844 248.507812 C 267.089844 250.386719 265.511719 251.925781 263.582031 251.925781 Z M 263.582031 251.925781 " fill-opacity="1" fill-rule="nonzero"/><path fill="#ff592d" d="M 37.605469 368.066406 L 98.363281 368.066406 C 99.027344 368.066406 99.574219 367.53125 99.574219 366.867188 L 99.574219 360.582031 C 99.574219 359.925781 99.027344 359.386719 98.363281 359.386719 L 37.605469 359.386719 C 36.933594 359.386719 36.394531 359.925781 36.394531 360.582031 L 36.394531 366.867188 C 36.394531 367.53125 36.933594 368.066406 37.605469 368.066406 Z M 37.605469 368.066406 " fill-opacity="0.27" fill-rule="nonzero"/><path fill="#ffffff" d="M 93.980469 368.773438 L 37.492188 368.773438 C 36.5 368.773438 35.6875 367.964844 35.6875 366.96875 L 35.6875 360.484375 C 35.6875 359.484375 36.5 358.675781 37.492188 358.675781 L 76.769531 358.738281 C 77.128906 358.738281 77.417969 359.027344 77.410156 359.386719 C 77.410156 359.738281 77.128906 360.027344 76.769531 360.027344 L 37.492188 359.964844 C 37.203125 359.964844 36.972656 360.195312 36.972656 360.484375 L 36.972656 366.96875 C 36.972656 367.25 37.203125 367.488281 37.492188 367.488281 L 93.980469 367.488281 C 94.339844 367.488281 94.621094 367.777344 94.621094 368.128906 C 94.621094 368.484375 94.339844 368.773438 93.980469 368.773438 Z M 93.980469 368.773438 " fill-opacity="1" fill-rule="nonzero"/><path fill="#ffd5ca" d="M 54.910156 298.617188 C 54.699219 298.617188 54.488281 298.519531 54.371094 298.324219 C 54.179688 298.03125 54.265625 297.632812 54.558594 297.441406 L 82.835938 279.230469 C 83.136719 279.042969 83.527344 279.128906 83.726562 279.429688 C 83.914062 279.722656 83.824219 280.121094 83.527344 280.320312 L 55.253906 298.519531 C 55.148438 298.589844 55.027344 298.617188 54.910156 298.617188 Z M 54.910156 298.617188 " fill-opacity="1" fill-rule="nonzero"/><path fill="#ff592d" d="M 53.847656 310.84375 C 53.636719 310.84375 53.425781 310.738281 53.308594 310.539062 C 53.117188 310.242188 53.203125 309.835938 53.496094 309.636719 L 79.828125 292.519531 C 80.121094 292.328125 80.523438 292.417969 80.710938 292.71875 C 80.90625 293.019531 80.816406 293.417969 80.523438 293.617188 L 54.191406 310.738281 C 54.085938 310.808594 53.96875 310.84375 53.847656 310.84375 Z M 53.847656 310.84375 " fill-opacity="0.27" fill-rule="nonzero"/><path fill="#ffffff" d="M 282.996094 368.421875 L 260.910156 368.421875 C 260.558594 368.421875 260.273438 368.125 260.273438 367.773438 C 260.273438 367.414062 260.558594 367.128906 260.910156 367.128906 L 282.355469 367.128906 L 282.355469 356.957031 L 272.308594 356.957031 C 271.957031 356.957031 271.667969 356.660156 271.667969 356.3125 C 271.667969 355.953125 271.957031 355.664062 272.308594 355.664062 L 282.996094 355.664062 C 283.34375 355.664062 283.632812 355.953125 283.632812 356.3125 L 283.632812 367.773438 C 283.632812 368.125 283.34375 368.421875 282.996094 368.421875 Z M 282.996094 368.421875 " fill-opacity="1" fill-rule="nonzero"/><path fill="#ffffff" d="M 293.722656 313.855469 C 293.328125 313.855469 293.015625 313.566406 293.015625 313.207031 L 293.015625 309.898438 C 293.015625 309.539062 293.328125 309.25 293.722656 309.25 C 294.113281 309.25 294.425781 309.539062 294.425781 309.898438 L 294.425781 313.207031 C 294.425781 313.566406 294.113281 313.855469 293.722656 313.855469 Z M 293.722656 313.855469 " fill-opacity="1" fill-rule="nonzero"/><path fill="#ffffff" d="M 293.722656 321.472656 C 293.328125 321.472656 293.015625 321.183594 293.015625 320.832031 L 293.015625 317.515625 C 293.015625 317.15625 293.328125 316.867188 293.722656 316.867188 C 294.113281 316.867188 294.425781 317.15625 294.425781 317.515625 L 294.425781 320.832031 C 294.425781 321.183594 294.113281 321.472656 293.722656 321.472656 Z M 293.722656 321.472656 " fill-opacity="1" fill-rule="nonzero"/><path fill="#ffffff" d="M 291.480469 315.980469 L 288.167969 315.980469 C 287.808594 315.980469 287.527344 315.703125 287.527344 315.355469 C 287.527344 315.019531 287.808594 314.738281 288.167969 314.738281 L 291.480469 314.738281 C 291.839844 314.738281 292.128906 315.019531 292.128906 315.355469 C 292.128906 315.703125 291.839844 315.980469 291.480469 315.980469 Z M 291.480469 315.980469 " fill-opacity="1" fill-rule="nonzero"/><g clip-path="url(#93c9de6dab)"><path fill="#ffffff" d="M 299.273438 315.980469 L 295.960938 315.980469 C 295.601562 315.980469 295.316406 315.703125 295.316406 315.355469 C 295.316406 315.011719 295.601562 314.738281 295.960938 314.738281 L 299.273438 314.738281 C 299.625 314.738281 299.914062 315.011719 299.914062 315.355469 C 299.914062 315.703125 299.625 315.980469 299.273438 315.980469 Z M 299.273438 315.980469 " fill-opacity="1" fill-rule="nonzero"/></g><path fill="#e0431a" d="M 268.492188 160.832031 C 264.488281 156.875 259.183594 154.707031 253.546875 154.75 C 247.527344 154.789062 241.800781 157.425781 237.835938 161.976562 C 237.566406 162.285156 237.308594 162.605469 237.046875 162.9375 C 234.984375 164.75 232.332031 165.753906 229.558594 165.761719 L 216.363281 165.792969 C 170.527344 165.875 93.828125 166.003906 79.601562 165.804688 C 78.328125 165.792969 77.136719 165.222656 76.335938 164.25 C 71.203125 158.015625 65.355469 154.609375 58.925781 154.109375 C 48.785156 153.316406 41.046875 160.109375 40.714844 160.390625 C 40.664062 160.441406 40.625 160.480469 40.574219 160.53125 C 40.253906 160.902344 40.125 161.421875 40.234375 161.90625 C 40.375 162.464844 40.796875 162.90625 41.347656 163.058594 L 54.210938 166.484375 C 56.402344 167.066406 57.746094 169.261719 57.273438 171.484375 L 56.113281 176.867188 C 55.964844 177.570312 55.632812 178.230469 55.164062 178.773438 C 54.140625 179.933594 52.589844 180.457031 51.078125 180.136719 L 36.378906 176.988281 C 35.828125 176.867188 35.257812 177.058594 34.886719 177.480469 L 34.828125 177.550781 C 34.46875 178.03125 34.410156 178.671875 34.679688 179.203125 C 39.464844 188.601562 45.339844 194.023438 52.140625 195.328125 C 55.964844 196.058594 60.007812 195.46875 64.125 193.5625 C 67.445312 192.03125 70.109375 189.964844 71.773438 188.511719 C 72.542969 187.820312 73.542969 187.449219 74.585938 187.441406 L 229.769531 186.339844 C 232.519531 186.328125 235.203125 187.332031 237.335938 189.175781 C 241.402344 194.195312 247.398438 197.050781 253.847656 197.011719 C 259.863281 196.960938 265.589844 194.335938 269.566406 189.785156 C 272.960938 185.898438 274.8125 180.90625 274.773438 175.734375 C 274.730469 170.082031 272.5 164.800781 268.492188 160.832031 Z M 246.769531 169.800781 C 247.648438 168.800781 248.71875 168.019531 249.902344 167.476562 C 251.0625 166.957031 252.335938 166.664062 253.636719 166.65625 C 253.726562 166.65625 253.816406 166.664062 253.90625 166.664062 C 255.628906 166.707031 257.269531 167.207031 258.683594 168.128906 C 259.203125 168.46875 259.703125 168.859375 260.152344 169.3125 C 261.65625 170.792969 262.578125 172.707031 262.828125 174.773438 C 262.867188 175.113281 262.898438 175.464844 262.898438 175.816406 C 262.90625 176.578125 262.808594 177.328125 262.636719 178.050781 C 262.285156 179.484375 261.605469 180.828125 260.625 181.949219 C 259.464844 183.273438 257.972656 184.214844 256.320312 184.714844 C 255.5 184.957031 254.636719 185.097656 253.765625 185.105469 C 253.636719 185.105469 253.527344 185.097656 253.40625 185.085938 C 248.492188 184.925781 244.535156 180.90625 244.496094 175.945312 C 244.496094 175.214844 244.585938 174.492188 244.746094 173.789062 C 245.085938 172.328125 245.765625 170.953125 246.769531 169.800781 Z M 246.769531 169.800781 " fill-opacity="1" fill-rule="nonzero"/><g clip-path="url(#0aa1a4ba26)"><path fill="#ffd8ce" d="M 254.335938 150.007812 C 252.773438 149.957031 251.203125 150.085938 249.691406 150.378906 C 245.214844 151.261719 241.070312 153.617188 238.039062 157.0625 C 237.746094 157.382812 237.445312 157.683594 237.125 157.976562 C 235.054688 159.828125 232.359375 160.863281 229.558594 160.871094 L 216.363281 160.890625 C 170.527344 160.972656 93.828125 161.101562 79.601562 160.910156 C 78.328125 160.902344 77.136719 160.332031 76.335938 159.359375 C 71.203125 153.113281 65.355469 149.707031 58.925781 149.214844 C 48.785156 148.414062 41.046875 155.210938 40.714844 155.5 C 40.664062 155.539062 40.625 155.589844 40.574219 155.640625 C 40.253906 156.011719 40.125 156.523438 40.234375 157.011719 C 40.375 157.574219 40.796875 158.015625 41.347656 158.15625 L 54.210938 161.582031 C 56.402344 162.164062 57.746094 164.359375 57.273438 166.59375 L 56.113281 171.976562 C 55.964844 172.675781 55.632812 173.339844 55.164062 173.871094 C 54.140625 175.042969 52.589844 175.5625 51.078125 175.242188 L 36.378906 172.085938 C 35.828125 171.964844 35.257812 172.15625 34.886719 172.578125 L 34.828125 172.65625 C 34.46875 173.136719 34.410156 173.769531 34.679688 174.3125 C 39.464844 183.703125 45.339844 189.132812 52.140625 190.4375 C 55.964844 191.167969 60.007812 190.566406 64.125 188.671875 C 67.445312 187.128906 70.109375 185.074219 71.773438 183.613281 C 72.542969 182.929688 73.542969 182.550781 74.585938 182.550781 L 229.769531 181.445312 C 232.53125 181.425781 235.234375 182.4375 237.367188 184.304688 C 237.707031 184.59375 238.019531 184.902344 238.328125 185.226562 C 241.402344 188.5625 245.546875 190.847656 249.972656 191.640625 C 251.242188 191.871094 252.546875 191.980469 253.847656 191.96875 C 259.824219 191.917969 265.511719 189.324219 269.453125 184.804688 C 272.769531 181.003906 274.609375 176.125 274.628906 171.082031 C 274.652344 165.59375 272.558594 160.378906 268.742188 156.410156 C 264.917969 152.441406 259.804688 150.167969 254.335938 150.007812 Z M 205.78125 171.394531 C 205.789062 172.238281 205.480469 173.058594 204.929688 173.691406 C 204.277344 174.429688 203.355469 174.863281 202.367188 174.871094 L 108.585938 175.523438 C 107.675781 175.535156 106.8125 175.183594 106.152344 174.542969 C 105.503906 173.890625 105.140625 173.027344 105.132812 172.105469 C 105.121094 171.265625 105.433594 170.453125 105.980469 169.820312 C 106.632812 169.078125 107.554688 168.648438 108.546875 168.636719 L 202.316406 167.976562 C 203.238281 167.96875 204.109375 168.316406 204.75 168.96875 C 205.410156 169.609375 205.769531 170.472656 205.78125 171.394531 Z M 260.152344 164.417969 C 261.90625 166.144531 262.878906 168.457031 262.90625 170.914062 C 262.917969 173.179688 262.105469 175.351562 260.625 177.058594 C 258.890625 179.042969 256.390625 180.195312 253.765625 180.214844 C 248.691406 180.242188 244.535156 176.136719 244.496094 171.042969 C 244.484375 168.777344 245.285156 166.605469 246.769531 164.910156 C 248.5 162.925781 251.003906 161.773438 253.636719 161.753906 C 256.089844 161.734375 258.410156 162.683594 260.152344 164.417969 Z M 260.152344 164.417969 " fill-opacity="1" fill-rule="nonzero"/></g><path fill="#ff9e84" d="M 238.378906 183.128906 C 238.757812 183.460938 239.117188 183.800781 239.460938 184.171875 C 242.261719 187.21875 246.015625 189.351562 250.242188 190.113281 C 251.414062 190.324219 252.605469 190.425781 253.835938 190.425781 C 264.46875 190.34375 273.039062 181.707031 273.089844 171.074219 C 273.089844 170.621094 273.070312 170.171875 273.039062 169.71875 C 272.527344 179.941406 264.148438 188.089844 253.816406 188.171875 C 252.59375 188.171875 251.394531 188.070312 250.230469 187.859375 C 245.996094 187.097656 242.242188 184.964844 239.4375 181.917969 C 239.097656 181.554688 238.738281 181.207031 238.367188 180.875 C 235.976562 178.800781 232.929688 177.617188 229.738281 177.648438 L 74.566406 178.738281 C 73.152344 178.75 71.792969 179.261719 70.730469 180.191406 C 65.84375 184.511719 50.046875 195.71875 37.421875 173.890625 L 36.050781 173.597656 C 48.886719 198.8125 65.683594 186.917969 70.75 182.449219 C 71.800781 181.515625 73.164062 181.003906 74.574219 180.996094 L 229.757812 179.890625 C 232.953125 179.871094 235.996094 181.054688 238.378906 183.128906 Z M 54.589844 157.832031 L 43.96875 154.996094 C 42.546875 155.941406 41.746094 156.652344 41.746094 156.652344 L 54.601562 160.078125 C 56.792969 160.671875 58.367188 162.433594 58.796875 164.527344 C 59.355469 161.542969 57.535156 158.617188 54.589844 157.832031 Z M 54.589844 157.832031 " fill-opacity="1" fill-rule="nonzero"/><path fill="#ff9e84" d="M 265.359375 170.902344 C 265.289062 161.5625 258.722656 153.796875 249.980469 151.902344 C 245.714844 152.734375 241.960938 154.957031 239.1875 158.085938 C 238.867188 158.457031 238.519531 158.804688 238.15625 159.125 C 235.804688 161.242188 232.742188 162.414062 229.558594 162.414062 C 229.136719 162.414062 228.714844 162.414062 228.296875 162.414062 C 227.003906 165.058594 226.285156 168.035156 226.304688 171.171875 C 226.324219 174.320312 227.085938 177.285156 228.417969 179.902344 L 229.757812 179.890625 C 232.953125 179.871094 235.996094 181.054688 238.378906 183.128906 C 238.757812 183.460938 239.117188 183.800781 239.460938 184.171875 C 242.261719 187.21875 246.015625 189.351562 250.242188 190.113281 C 258.960938 188.089844 265.417969 180.242188 265.359375 170.902344 Z M 264.449219 170.902344 C 264.488281 176.855469 259.714844 181.714844 253.777344 181.757812 C 247.839844 181.796875 242.992188 177.007812 242.953125 171.0625 C 242.914062 165.109375 247.6875 160.25 253.625 160.210938 C 259.554688 160.167969 264.398438 164.960938 264.449219 170.902344 Z M 264.449219 170.902344 " fill-opacity="1" fill-rule="nonzero"/><g clip-path="url(#7b1efd4521)"><path fill="#ffd8ce" d="M 269.566406 184.894531 C 265.589844 189.433594 259.863281 192.070312 253.847656 192.109375 C 247.308594 192.160156 241.230469 189.234375 237.167969 184.09375 C 234.234375 180.375 232.660156 175.894531 232.621094 171.132812 C 232.589844 166.414062 234.082031 161.933594 236.925781 158.1875 C 237.214844 157.804688 237.515625 157.433594 237.835938 157.074219 C 241.800781 152.535156 247.527344 149.898438 253.546875 149.855469 C 259.183594 149.816406 264.488281 151.972656 268.492188 155.941406 C 272.5 159.898438 274.730469 165.191406 274.773438 170.832031 C 274.8125 176.003906 272.957031 181.003906 269.566406 184.894531 Z M 246.769531 164.910156 C 245.285156 166.605469 244.484375 168.789062 244.496094 171.042969 C 244.535156 176.136719 248.691406 180.246094 253.765625 180.214844 C 256.390625 180.195312 258.890625 179.042969 260.625 177.058594 C 262.105469 175.351562 262.917969 173.179688 262.898438 170.914062 C 262.886719 168.457031 261.90625 166.144531 260.152344 164.410156 C 258.410156 162.6875 256.089844 161.742188 253.636719 161.753906 C 251.003906 161.773438 248.5 162.925781 246.769531 164.910156 Z M 246.769531 164.910156 " fill-opacity="1" fill-rule="nonzero"/></g><path fill="#ff9e84" d="M 264.367188 173.1875 C 263.996094 175.023438 263.148438 176.746094 261.894531 178.179688 C 259.84375 180.523438 256.890625 181.886719 253.765625 181.90625 C 250.863281 181.925781 248.117188 180.804688 246.046875 178.761719 C 244.835938 177.558594 243.945312 176.125 243.394531 174.550781 L 234.753906 175.101562 C 235.375 177.988281 236.644531 180.683594 238.496094 183.039062 C 242.230469 187.761719 247.828125 190.457031 253.835938 190.417969 C 259.371094 190.375 264.628906 187.949219 268.28125 183.773438 C 271.003906 180.644531 272.648438 176.746094 273.007812 172.636719 Z M 264.367188 173.1875 " fill-opacity="1" fill-rule="nonzero"/><path fill="#ff9e84" d="M 204.75 168.96875 C 205.410156 169.609375 205.769531 170.472656 205.78125 171.394531 C 205.789062 172.238281 205.480469 173.058594 204.929688 173.691406 C 204.277344 174.429688 203.355469 174.863281 202.367188 174.871094 L 108.585938 175.523438 C 107.675781 175.535156 106.8125 175.183594 106.152344 174.542969 C 105.5 173.890625 105.140625 173.027344 105.132812 172.105469 C 105.121094 171.265625 105.429688 170.453125 105.980469 169.820312 C 106.632812 169.078125 107.554688 168.648438 108.546875 168.640625 L 202.316406 167.976562 C 203.238281 167.96875 204.109375 168.316406 204.75 168.96875 Z M 204.75 168.96875 " fill-opacity="1" fill-rule="nonzero"/></svg>