<svg width="1089" height="786" viewBox="0 0 1089 786" fill="none" xmlns="http://www.w3.org/2000/svg">
<rect x="517.761" y="296.558" width="466.714" height="488.591" fill="#FF7753"/>
<path d="M583.393 741.395H140.987V206.618H583.393V741.395Z" fill="#FFDAD0"/>
<path d="M206.049 404.261H358.162C362.567 404.261 366.106 407.817 366.106 412.228V745.385C366.106 749.796 362.567 753.353 358.162 753.353H206.049C201.666 753.353 198.104 749.795 198.104 745.385V412.228C198.104 407.819 201.667 404.261 206.049 404.261Z" fill="#FFD5CA" stroke="#FF7753" stroke-width="2"/>
<path d="M211.697 742.032H351.898C355.201 742.032 357.867 739.344 357.867 736.045V419.077C357.867 415.778 355.201 413.115 351.898 413.115H211.697C208.394 413.115 205.728 415.778 205.728 419.077V736.045C205.728 739.344 208.394 742.032 211.697 742.032Z" fill="#FF592D" fill-opacity="0.27"/>
<path d="M1025.8 746.256H962.598V213.91H1025.8V746.256Z" fill="#FFDAD0"/>
<path d="M1030.48 760.51H87.4648V720.473H1030.48V760.51Z" fill="#FF8969"/>
<path d="M153.64 762.359H135.239C134.033 762.359 133.044 761.358 133.044 760.112V720.257C133.044 719.012 134.033 718.011 135.239 718.011C136.469 718.011 137.458 719.012 137.458 720.257V757.866H153.64C154.846 757.866 155.835 758.867 155.835 760.112C155.835 761.358 154.846 762.359 153.64 762.359Z" fill="white"/>
<path d="M561.131 578.804H393.592V404.491H561.131V578.804Z" fill="#FF592D" fill-opacity="0.27"/>
<path d="M395.605 576.8H559.116V406.523H395.605V576.8ZM563.593 581.27H391.127V402.029H563.593V581.27Z" fill="#FF7753"/>
<path d="M416.142 560.326C415.438 560.326 414.758 560.01 414.321 559.402C413.617 558.405 413.859 556.995 414.855 556.29L460.296 523.781C461.316 523.076 462.7 523.295 463.405 524.292C464.109 525.313 463.866 526.699 462.895 527.404L417.43 559.913C417.041 560.205 416.58 560.326 416.142 560.326Z" fill="#FFD5CA"/>
<path d="M419.247 531.378C418.561 531.378 417.874 531.063 417.432 530.458C416.697 529.465 416.917 528.084 417.923 527.358L459.028 497.911C460.034 497.209 461.432 497.427 462.143 498.419C462.879 499.412 462.658 500.793 461.653 501.519L420.547 530.966C420.155 531.257 419.689 531.378 419.247 531.378Z" fill="#FFD5CA"/>
<path d="M493.752 480.87C493.048 480.87 492.368 480.553 491.931 479.946C491.226 478.924 491.469 477.538 492.465 476.833L537.907 444.325C538.903 443.62 540.287 443.838 541.016 444.835C541.72 445.857 541.477 447.242 540.482 447.948L495.04 480.456C494.651 480.724 494.189 480.87 493.752 480.87Z" fill="#FFD5CA"/>
<path d="M496.857 451.92C496.146 451.92 495.484 451.605 495.042 451.024C494.306 450.031 494.527 448.626 495.533 447.9L536.62 418.453C537.626 417.751 539.024 417.969 539.76 418.961C540.496 419.954 540.25 421.335 539.269 422.061L498.158 451.508C497.765 451.799 497.299 451.92 496.857 451.92Z" fill="#FFD5CA"/>
<path d="M479.824 578.804H474.896V404.491H479.824V578.804Z" fill="#FF7753"/>
<path d="M1018.78 323.186H147.829V243.729H1018.78V323.186Z" fill="#FFDAD0"/>
<path d="M1039.37 281.918H122.894C113.979 281.918 106.725 272.84 106.652 261.59L105.944 128.856C105.895 117.532 113.149 108.283 122.137 108.234L1039.45 104.525C1048.44 104.501 1055.74 113.676 1055.74 125.024L1055.62 261.468C1055.59 272.767 1048.34 281.918 1039.37 281.918Z" fill="#FF592D"/>
<path d="M957.737 719.518H588.255V335.451H957.737V719.518Z" fill="#FFD5CA"/>
<path d="M943.635 396.485H606.711V372.463H943.635V396.485Z" fill="#FF592D" fill-opacity="0.27"/>
<path d="M943.635 447.607H606.711V423.585H943.635V447.607Z" fill="#FF592D" fill-opacity="0.27"/>
<path d="M943.635 498.732H606.711V474.71H943.635V498.732Z" fill="#FF592D" fill-opacity="0.27"/>
<path d="M943.635 549.24H606.711V525.834H943.635V549.24Z" fill="#FF592D" fill-opacity="0.27"/>
<path d="M943.635 600.363H606.711V576.341H943.635V600.363Z" fill="#FF592D" fill-opacity="0.27"/>
<path d="M943.635 651.488H606.711V627.466H943.635V651.488Z" fill="#FF592D" fill-opacity="0.27"/>
<path d="M943.635 701.995H606.711V678.589H943.635V701.995Z" fill="#FF592D" fill-opacity="0.27"/>
<path d="M962.549 357.328H583.443C576.732 357.328 571.239 351.976 571.239 345.442V327.866C571.239 321.357 576.732 316.004 583.443 316.004H962.549C969.26 316.004 974.753 321.357 974.753 327.866V345.442C974.753 351.976 969.26 357.328 962.549 357.328Z" fill="#FF592D"/>
<path d="M176.073 761.127H387.52C389.839 761.127 391.744 759.273 391.744 756.96V735.113C391.744 732.825 389.839 730.946 387.52 730.946H176.073C173.729 730.946 171.85 732.825 171.85 735.113V756.96C171.85 759.273 173.729 761.127 176.073 761.127Z" fill="#FF592D" fill-opacity="0.27"/>
<path d="M372.271 763.591H175.672C172.223 763.591 169.386 760.779 169.386 757.307V734.765C169.386 731.293 172.223 728.481 175.672 728.481L312.372 728.701C313.619 728.701 314.622 729.704 314.597 730.951C314.597 732.173 313.619 733.176 312.372 733.176L175.672 732.956C174.669 732.956 173.862 733.762 173.862 734.765V757.307C173.862 758.285 174.669 759.116 175.672 759.116H372.271C373.519 759.116 374.497 760.119 374.497 761.341C374.497 762.588 373.519 763.591 372.271 763.591Z" fill="white"/>
<path d="M236.292 519.675C235.56 519.675 234.828 519.334 234.413 518.652C233.754 517.628 234.047 516.239 235.072 515.581L333.481 452.271C334.53 451.613 335.897 451.906 336.58 452.953C337.239 453.977 336.922 455.366 335.897 456.048L237.487 519.334C237.121 519.578 236.707 519.675 236.292 519.675Z" fill="#FFD5CA"/>
<path d="M232.598 562.175C231.865 562.175 231.133 561.805 230.717 561.116C230.058 560.081 230.351 558.677 231.377 557.987L323.013 498.464C324.039 497.799 325.431 498.119 326.09 499.154C326.774 500.213 326.457 501.593 325.431 502.283L233.795 561.805C233.428 562.052 233.013 562.175 232.598 562.175Z" fill="#FF592D" fill-opacity="0.27"/>
<path d="M1030.11 762.359H953.251C952.029 762.359 951.027 761.333 951.027 760.112C951.027 758.867 952.029 757.866 953.251 757.866H1027.88V722.504H992.914C991.692 722.504 990.69 721.479 990.69 720.257C990.69 719.012 991.692 718.011 992.914 718.011H1030.11C1031.33 718.011 1032.33 719.012 1032.33 720.257V760.112C1032.33 761.333 1031.33 762.359 1030.11 762.359Z" fill="white"/>
<path d="M24.0216 311.641C22.9539 311.641 21.862 311.885 20.8671 312.324C16.8632 314.154 15.0433 318.984 16.8147 323.083C17.664 325.108 19.2413 326.645 21.2311 327.425C23.1723 328.181 25.2835 328.133 27.1762 327.254C31.18 325.449 33 320.619 31.2286 316.496C30.3793 314.495 28.802 312.958 26.8122 312.178C25.9144 311.836 24.968 311.641 24.0216 311.641ZM24.0216 332.426C22.5414 332.426 21.0369 332.158 19.6053 331.572C16.5235 330.377 14.0727 327.986 12.738 324.864C10.0203 318.521 12.8351 311.056 19.0471 308.25C22.0318 306.908 25.3562 306.811 28.4137 308.006C31.5198 309.226 33.9706 311.617 35.3052 314.739C38.023 321.082 35.2082 328.547 28.9961 331.353C27.3946 332.06 25.7202 332.426 24.0216 332.426Z" fill="white"/>
<path d="M27.396 412.499C26.8769 412.499 26.3343 412.282 25.9096 411.871C25.0603 411.026 25.0367 409.625 25.8388 408.756L32.6336 401.485C33.4594 400.592 34.8278 400.567 35.6772 401.413C36.5265 402.258 36.5737 403.659 35.7479 404.529L28.9531 411.823C28.552 412.258 27.9858 412.499 27.396 412.499Z" fill="white"/>
<path d="M2.8944 438.37C2.32174 438.37 1.74909 438.152 1.32583 437.742C0.404609 436.896 0.379714 435.495 1.25114 434.626L8.39683 427.355C9.26826 426.462 10.7123 426.438 11.6087 427.283C12.5299 428.128 12.5548 429.529 11.6833 430.423L4.53766 437.669C4.0895 438.128 3.49195 438.37 2.8944 438.37Z" fill="white"/>
<path d="M9.45434 413.115C8.88678 413.115 8.29453 412.892 7.87502 412.445L0.669392 405.297C-0.218974 404.428 -0.218975 402.988 0.644715 402.095C1.50841 401.201 2.93966 401.176 3.82802 402.07L11.0337 409.218C11.922 410.087 11.922 411.527 11.0583 412.42C10.6141 412.867 10.0219 413.115 9.45434 413.115Z" fill="white"/>
<path d="M34.7105 437.754C34.1188 437.754 33.5516 437.53 33.1078 437.084L25.9326 429.935C25.0449 429.067 25.0203 427.627 25.9079 426.733C26.7709 425.84 28.201 425.815 29.0887 426.709L36.2886 433.857C37.1762 434.726 37.1762 436.165 36.3132 437.059C35.8694 437.53 35.2776 437.754 34.7105 437.754Z" fill="white"/>
<path d="M1067.45 572.647C1066.08 572.647 1064.98 571.643 1064.98 570.394V558.885C1064.98 557.636 1066.08 556.632 1067.45 556.632C1068.8 556.632 1069.9 557.636 1069.9 558.885V570.394C1069.9 571.643 1068.8 572.647 1067.45 572.647Z" fill="white"/>
<path d="M1067.45 599.132C1066.08 599.132 1064.98 598.128 1064.98 596.904V585.37C1064.98 584.121 1066.08 583.117 1067.45 583.117C1068.8 583.117 1069.9 584.121 1069.9 585.37V596.904C1069.9 598.128 1068.8 599.132 1067.45 599.132Z" fill="white"/>
<path d="M1059.64 580.036H1048.12C1046.87 580.036 1045.88 579.07 1045.88 577.869C1045.88 576.691 1046.87 575.725 1048.12 575.725H1059.64C1060.89 575.725 1061.9 576.691 1061.9 577.869C1061.9 579.07 1060.89 580.036 1059.64 580.036Z" fill="white"/>
<path d="M1086.77 580.036H1075.24C1073.99 580.036 1072.99 579.07 1072.99 577.869C1072.99 576.667 1073.99 575.725 1075.24 575.725H1086.77C1087.99 575.725 1089 576.667 1089 577.869C1089 579.07 1087.99 580.036 1086.77 580.036Z" fill="white"/>
<path d="M979.641 40.6169C965.703 26.8533 947.236 19.3268 927.618 19.4662C906.677 19.6056 886.745 28.7697 872.947 44.5892C872.006 45.6694 871.1 46.7844 870.194 47.9343C863.016 54.2412 853.782 57.7256 844.13 57.7605L798.205 57.865C638.686 58.1438 371.742 58.5968 322.227 57.8999C317.802 57.865 313.656 55.8789 310.868 52.4989C292.993 30.8256 272.644 18.9784 250.273 17.2362C214.976 14.4834 188.041 38.1081 186.891 39.0838C186.717 39.258 186.577 39.3974 186.403 39.5716C185.288 40.8608 184.835 42.6728 185.218 44.3453C185.706 46.2966 187.17 47.8298 189.086 48.3524L233.861 60.2693C241.492 62.2903 246.162 69.9213 244.524 77.6568L240.482 96.3683C239.959 98.8075 238.809 101.107 237.172 102.989C233.618 107.031 228.217 108.843 222.955 107.728L171.803 96.7865C169.887 96.3683 167.901 97.0304 166.611 98.4939L166.402 98.7378C165.148 100.41 164.939 102.64 165.88 104.487C182.535 137.171 202.989 156.022 226.649 160.552C239.959 163.096 254.037 161.04 268.358 154.42C279.926 149.088 289.195 141.91 294.979 136.858C297.662 134.454 301.146 133.164 304.77 133.129L844.862 129.297C854.444 129.262 863.783 132.746 871.205 139.158C885.352 156.615 906.224 166.545 928.664 166.406C949.605 166.232 969.536 157.103 983.37 141.283C995.182 127.763 1001.63 110.411 1001.49 92.4309C1001.35 72.7785 993.579 54.4154 979.641 40.6169ZM904.028 71.8029C907.095 68.3184 910.823 65.6005 914.935 63.7189C918.977 61.907 923.402 60.8965 927.932 60.8617C928.245 60.8617 928.559 60.8965 928.873 60.8965C934.866 61.0359 940.58 62.7781 945.493 65.9838C947.305 67.1685 949.048 68.5275 950.616 70.0955C955.842 75.2525 959.048 81.9078 959.919 89.0858C960.059 90.2705 960.163 91.4901 960.163 92.7097C960.198 95.3579 959.849 97.9712 959.257 100.48C958.038 105.463 955.668 110.132 952.253 114.035C948.211 118.634 943.02 121.909 937.27 123.652C934.413 124.488 931.416 124.976 928.385 125.011C927.932 125.011 927.549 124.976 927.13 124.941C910.022 124.383 896.258 110.411 896.119 93.1626C896.119 90.619 896.432 88.1102 896.99 85.671C898.174 80.5837 900.544 75.81 904.028 71.8029Z" fill="#E0431A"/>
<path d="M930.371 2.98117C924.935 2.80695 919.465 3.25993 914.203 4.27042C898.627 7.33675 884.202 15.5252 873.644 27.5118C872.633 28.6268 871.588 29.6722 870.473 30.6827C863.26 37.1289 853.887 40.7179 844.13 40.7528L798.205 40.8224C638.686 41.1012 371.742 41.5542 322.227 40.8921C317.802 40.8573 313.656 38.8711 310.868 35.4912C292.993 13.783 272.644 1.93584 250.273 0.228444C214.976 -2.55913 188.041 21.0655 186.891 22.076C186.717 22.2154 186.577 22.3896 186.403 22.5639C185.288 23.8531 184.835 25.6302 185.218 27.3376C185.706 29.2889 187.17 30.822 189.086 31.3099L233.861 43.2267C241.492 45.2477 246.162 52.8787 244.524 60.649L240.482 79.3606C239.959 81.7997 238.809 84.0995 237.172 85.9463C233.618 90.0231 228.217 91.835 222.955 90.72L171.803 79.7439C169.887 79.3258 167.901 79.9878 166.611 81.4513L166.402 81.7301C165.148 83.4026 164.939 85.5978 165.88 87.4794C182.535 120.129 202.989 139.015 226.649 143.544C239.959 146.088 254.037 143.997 268.358 137.412C279.926 132.046 289.195 124.903 294.979 119.815C297.662 117.446 301.146 116.122 304.77 116.122L844.862 112.289C854.479 112.219 863.887 115.738 871.309 122.22C872.494 123.23 873.574 124.31 874.654 125.425C885.352 137.028 899.777 144.973 915.179 147.726C919.604 148.527 924.134 148.911 928.664 148.876C949.466 148.701 969.258 139.677 982.986 123.962C994.52 110.756 1000.93 93.7863 1001 76.2594C1001.07 57.1646 993.788 39.0454 980.512 25.2469C967.202 11.4484 949.396 3.53869 930.371 2.98117ZM761.374 77.3396C761.409 80.2666 760.329 83.1238 758.413 85.3191C756.148 87.8975 752.942 89.3959 749.492 89.4307L423.103 91.6956C419.932 91.7305 416.935 90.5109 414.635 88.2808C412.371 86.0159 411.116 83.0193 411.081 79.8136C411.046 76.8866 412.127 74.0642 414.043 71.869C416.308 69.2905 419.514 67.7922 422.963 67.7574L749.318 65.4576C752.524 65.4228 755.555 66.6423 757.785 68.9072C760.085 71.1373 761.34 74.1339 761.374 77.3396ZM950.616 53.0878C956.713 59.081 960.093 67.1301 960.198 75.6671C960.233 83.542 957.41 91.1033 952.253 97.0268C946.225 103.926 937.514 107.933 928.385 108.003C910.719 108.107 896.258 93.8211 896.119 76.1201C896.084 68.2452 898.871 60.6839 904.028 54.7951C910.057 47.8959 918.768 43.8888 927.932 43.8191C936.469 43.7494 944.553 47.0596 950.616 53.0878Z" fill="#FFD8CE"/>
<path d="M874.828 118.139C876.152 119.289 877.406 120.474 878.591 121.763C888.347 132.356 901.414 139.778 916.119 142.426C920.195 143.158 924.342 143.506 928.628 143.506C965.633 143.228 995.46 113.192 995.634 76.2214C995.634 74.6534 995.564 73.0854 995.46 71.5173C993.683 107.059 964.518 135.388 928.558 135.666C924.307 135.666 920.126 135.318 916.084 134.586C901.344 131.938 888.278 124.516 878.521 113.923C877.337 112.669 876.082 111.449 874.793 110.299C866.465 103.087 855.872 98.9749 844.757 99.0794L304.7 102.878C299.787 102.912 295.048 104.689 291.354 107.93C274.35 122.948 219.365 161.904 175.426 86.0127L170.652 85.0022C215.323 172.671 273.792 131.311 291.424 115.77C295.083 112.529 299.821 110.752 304.735 110.718L844.826 106.885C855.942 106.815 866.535 110.927 874.828 118.139ZM235.185 30.1916L198.214 20.3306C193.267 23.606 190.479 26.0799 190.479 26.0799L235.219 37.9968C242.85 40.0526 248.321 46.1853 249.819 53.4678C251.771 43.0841 245.429 32.9095 235.185 30.1916Z" fill="#FF9E84"/>
<path d="M968.734 75.6294C968.49 43.1542 945.632 16.1496 915.212 9.56396C900.368 12.4561 887.302 20.1916 877.65 31.0631C876.535 32.3524 875.315 33.5719 874.061 34.687C865.872 42.0392 855.21 46.116 844.129 46.116C842.666 46.116 841.202 46.116 839.739 46.116C835.244 55.315 832.735 65.6638 832.805 76.5702C832.874 87.5114 835.523 97.8254 840.157 106.92L844.826 106.885C855.941 106.815 866.534 110.927 874.827 118.14C876.151 119.29 877.406 120.474 878.59 121.764C888.347 132.356 901.414 139.778 916.118 142.427C946.468 135.388 968.943 108.105 968.734 75.6294ZM965.563 75.6294C965.702 96.3271 949.081 113.227 928.418 113.366C907.755 113.506 890.891 96.8498 890.751 76.1869C890.612 55.4892 907.233 38.5896 927.896 38.4502C948.524 38.3108 965.388 54.9665 965.563 75.6294Z" fill="#FF9E84"/>
<path d="M983.369 124.276C969.535 140.06 949.604 149.225 928.662 149.364C905.909 149.538 884.758 139.364 870.611 121.488C860.402 108.561 854.931 92.9853 854.792 76.4341C854.687 60.0223 859.879 44.4467 869.775 31.4148C870.786 30.0908 871.831 28.8015 872.946 27.5471C886.744 11.7625 906.676 2.59832 927.617 2.45894C947.235 2.31956 965.702 9.81116 979.64 23.6096C993.578 37.3733 1001.35 55.7712 1001.49 75.3888C1001.63 93.3686 995.181 110.756 983.369 124.276ZM904.027 54.7956C898.87 60.6843 896.083 68.2805 896.118 76.1205C896.257 93.8216 910.717 108.108 928.384 108.003C937.513 107.934 946.224 103.927 952.252 97.0273C957.409 91.1037 960.232 83.5424 960.162 75.6675C960.127 67.1306 956.712 59.0815 950.615 53.0534C944.552 47.0601 936.468 43.7847 927.931 43.8195C918.767 43.8892 910.055 47.8964 904.027 54.7956Z" fill="#FFD8CE"/>
<path d="M965.282 83.5756C963.993 89.9522 961.031 95.9455 956.676 100.928C949.533 109.082 939.253 113.821 928.382 113.89C918.277 113.96 908.73 110.058 901.517 102.949C897.3 98.7679 894.199 93.7851 892.283 88.3145L862.212 90.231C864.372 100.266 868.798 109.639 875.244 117.828C888.241 134.24 907.719 143.613 928.626 143.474C947.895 143.334 966.188 134.902 978.907 120.372C988.384 109.5 994.099 95.9455 995.353 81.6592L965.282 83.5756Z" fill="#FF9E84"/>
<path d="M757.785 68.9084C760.084 71.1384 761.339 74.1351 761.374 77.3407C761.408 80.2677 760.328 83.125 758.412 85.3202C756.147 87.8987 752.941 89.397 749.492 89.4318L423.102 91.6968C419.931 91.7316 416.934 90.512 414.635 88.282C412.37 86.0171 411.115 83.0204 411.08 79.8147C411.046 76.8878 412.126 74.0654 414.042 71.8701C416.307 69.2916 419.513 67.7933 422.962 67.7585L749.317 65.4587C752.523 65.4239 755.554 66.6435 757.785 68.9084Z" fill="#FF9E84"/>
</svg>
