<svg width="37" height="37" viewBox="0 0 37 37" fill="none" xmlns="http://www.w3.org/2000/svg">
<path d="M17.4515 4.625H7.84689C4.77897 4.625 3.2373 6.18208 3.2373 9.28083V33.9167H11.5623V28.1354C11.5623 27.5033 12.0865 26.9792 12.7186 26.9792C13.3506 26.9792 13.8748 27.4879 13.8748 28.1354V33.9167H22.0456V9.28083C22.0456 6.18208 20.5194 4.625 17.4515 4.625ZM16.5727 19.6562H8.94147C8.30939 19.6562 7.78522 19.1321 7.78522 18.5C7.78522 17.8679 8.30939 17.3438 8.94147 17.3438H16.5727C17.2048 17.3438 17.729 17.8679 17.729 18.5C17.729 19.1321 17.2048 19.6562 16.5727 19.6562ZM16.5727 13.875H8.94147C8.30939 13.875 7.78522 13.3508 7.78522 12.7188C7.78522 12.0867 8.30939 11.5625 8.94147 11.5625H16.5727C17.2048 11.5625 17.729 12.0867 17.729 12.7188C17.729 13.3508 17.2048 13.875 16.5727 13.875Z" fill="white"/>
<path d="M35.4587 32.7604H31.9591V28.1354C33.4237 27.6575 34.4874 26.2854 34.4874 24.6667V21.5833C34.4874 19.5637 32.8378 17.9142 30.8182 17.9142C28.7987 17.9142 27.1491 19.5637 27.1491 21.5833V24.6667C27.1491 26.27 28.1974 27.6267 29.6312 28.12V32.7604H1.54199C0.909909 32.7604 0.385742 33.2846 0.385742 33.9167C0.385742 34.5487 0.909909 35.0729 1.54199 35.0729H30.7257C30.7566 35.0729 30.772 35.0883 30.8028 35.0883C30.8337 35.0883 30.8491 35.0729 30.8799 35.0729H35.4587C36.0907 35.0729 36.6149 34.5487 36.6149 33.9167C36.6149 33.2846 36.0907 32.7604 35.4587 32.7604Z" fill="white"/>
</svg>
