<svg width="296" height="296" viewBox="0 0 296 296" fill="none" xmlns="http://www.w3.org/2000/svg">
<path d="M130.734 51.1832C130.734 53.5265 128.76 55.4998 126.417 55.4998H112.48C85.8403 55.4998 64.1337 77.2065 64.1337 103.847V217.683C64.1337 220.026 62.1603 222 59.817 222H51.1837C36.507 222 24.667 210.16 24.667 195.483V51.1832C24.667 36.5065 36.507 24.6665 51.1837 24.6665H104.217C118.894 24.6665 130.734 36.5065 130.734 51.1832Z" fill="white"/>
<path d="M271.333 51.1832V195.483C271.333 210.16 259.493 222 244.817 222H237.047C234.703 222 232.73 220.026 232.73 217.683V103.847C232.73 77.2065 211.023 55.4998 184.383 55.4998H169.583C167.24 55.4998 165.267 53.5265 165.267 51.1832C165.267 36.5065 177.107 24.6665 191.783 24.6665H244.817C259.493 24.6665 271.333 36.5065 271.333 51.1832Z" fill="white"/>
<path d="M184.384 74H112.48C95.9538 74 82.6338 87.32 82.6338 103.847V241.487C82.6338 258.013 95.9538 271.333 112.48 271.333H132.584C136.037 271.333 138.75 268.62 138.75 265.167V234.333C138.75 229.277 142.944 225.083 148 225.083C153.057 225.083 157.25 229.277 157.25 234.333V265.167C157.25 268.62 159.964 271.333 163.417 271.333H184.507C200.91 271.333 214.23 258.013 214.23 241.61V103.847C214.23 87.32 200.91 74 184.384 74ZM172.667 181.917H123.334C118.277 181.917 114.084 177.723 114.084 172.667C114.084 167.61 118.277 163.417 123.334 163.417H172.667C177.724 163.417 181.917 167.61 181.917 172.667C181.917 177.723 177.724 181.917 172.667 181.917ZM172.667 144.917H123.334C118.277 144.917 114.084 140.723 114.084 135.667C114.084 130.61 118.277 126.417 123.334 126.417H172.667C177.724 126.417 181.917 130.61 181.917 135.667C181.917 140.723 177.724 144.917 172.667 144.917Z" fill="white"/>
</svg>
