<svg width="37" height="37" viewBox="0 0 37 37" fill="none" xmlns="http://www.w3.org/2000/svg">
<path d="M33.5312 12.3333C33.5312 12.9654 33.0071 13.4896 32.375 13.4896H4.625C3.99292 13.4896 3.46875 12.9654 3.46875 12.3333C3.46875 11.7012 3.99292 11.1771 4.625 11.1771H6.1975L6.78333 8.38667C7.33833 5.68875 8.49458 3.20667 13.0887 3.20667H23.9112C28.5054 3.20667 29.6617 5.68875 30.2167 8.38667L30.8025 11.1771H32.375C33.0071 11.1771 33.5312 11.7012 33.5312 12.3333Z" fill="white"/>
<path d="M34.1943 21.0591C33.963 18.5154 33.2847 15.8021 28.3359 15.8021H8.66428C3.71553 15.8021 3.05261 18.5154 2.80595 21.0591L1.94261 30.4479C1.8347 31.6196 2.22011 32.7912 3.02178 33.67C3.83886 34.5641 4.99511 35.0729 6.22845 35.0729H9.12678C11.6243 35.0729 12.1022 33.6391 12.4105 32.6987L12.7189 31.7737C13.0734 30.71 13.1659 30.4479 14.5534 30.4479H22.4468C23.8343 30.4479 23.8805 30.6021 24.2814 31.7737L24.5897 32.6987C24.898 33.6391 25.3759 35.0729 27.8734 35.0729H30.7718C31.9897 35.0729 33.1614 34.5641 33.9784 33.67C34.7801 32.7912 35.1655 31.6196 35.0576 30.4479L34.1943 21.0591ZM13.8751 24.2812H9.25011C8.61803 24.2812 8.09386 23.7571 8.09386 23.125C8.09386 22.4929 8.61803 21.9687 9.25011 21.9687H13.8751C14.5072 21.9687 15.0314 22.4929 15.0314 23.125C15.0314 23.7571 14.5072 24.2812 13.8751 24.2812ZM27.7501 24.2812H23.1251C22.493 24.2812 21.9689 23.7571 21.9689 23.125C21.9689 22.4929 22.493 21.9687 23.1251 21.9687H27.7501C28.3822 21.9687 28.9064 22.4929 28.9064 23.125C28.9064 23.7571 28.3822 24.2812 27.7501 24.2812Z" fill="white"/>
</svg>
