<svg width="34" height="34" viewBox="0 0 34 34" fill="none" xmlns="http://www.w3.org/2000/svg">
<path d="M29.75 32.2292H4.25C3.66917 32.2292 3.1875 31.7475 3.1875 31.1667C3.1875 30.5859 3.66917 30.1042 4.25 30.1042H29.75C30.3308 30.1042 30.8125 30.5859 30.8125 31.1667C30.8125 31.7475 30.3308 32.2292 29.75 32.2292Z" fill="white"/>
<path d="M7.93333 11.8716H5.66667C4.8875 11.8716 4.25 12.5091 4.25 13.2883V25.5C4.25 26.2791 4.8875 26.9166 5.66667 26.9166H7.93333C8.7125 26.9166 9.35 26.2791 9.35 25.5V13.2883C9.35 12.495 8.7125 11.8716 7.93333 11.8716Z" fill="white"/>
<path d="M18.1335 7.35248H15.8669C15.0877 7.35248 14.4502 7.98998 14.4502 8.76914V25.5C14.4502 26.2791 15.0877 26.9166 15.8669 26.9166H18.1335C18.9127 26.9166 19.5502 26.2791 19.5502 25.5V8.76914C19.5502 7.98998 18.9127 7.35248 18.1335 7.35248Z" fill="white"/>
<path d="M28.3337 2.83331H26.0671C25.2879 2.83331 24.6504 3.47081 24.6504 4.24998V25.5C24.6504 26.2791 25.2879 26.9166 26.0671 26.9166H28.3337C29.1129 26.9166 29.7504 26.2791 29.7504 25.5V4.24998C29.7504 3.47081 29.1129 2.83331 28.3337 2.83331Z" fill="white"/>
</svg>
