<svg width="37" height="37" viewBox="0 0 37 37" fill="none" xmlns="http://www.w3.org/2000/svg">
<path d="M15.417 23.8958C14.7849 23.8958 14.2607 24.42 14.2607 25.0521V27.3646C14.2607 27.9967 14.7849 28.5208 15.417 28.5208C16.0491 28.5208 16.5732 27.9967 16.5732 27.3646V25.0521C16.5732 24.42 16.0491 23.8958 15.417 23.8958Z" fill="white"/>
<path d="M33.9163 32.7604H32.3747V15.3858C32.3747 14.43 31.943 13.5358 31.1876 12.95L20.3959 4.56333C19.2859 3.68458 17.7134 3.68458 16.6034 4.56333L5.81176 12.95C5.05634 13.5358 4.62467 14.43 4.62467 15.3704L4.54759 32.7604H3.08301C2.45092 32.7604 1.92676 33.2692 1.92676 33.9167C1.92676 34.5487 2.45092 35.0729 3.08301 35.0729H33.9163C34.5484 35.0729 35.0726 34.5487 35.0726 33.9167C35.0726 33.2692 34.5484 32.7604 33.9163 32.7604ZM16.1872 10.4062H20.8122C21.4443 10.4062 21.9684 10.9304 21.9684 11.5625C21.9684 12.1946 21.4443 12.7187 20.8122 12.7187H16.1872C15.5551 12.7187 15.0309 12.1946 15.0309 11.5625C15.0309 10.9304 15.5551 10.4062 16.1872 10.4062ZM26.208 32.7604H10.7913V19.2708C10.7913 17.9912 11.8243 16.9583 13.1038 16.9583H23.8955C25.1751 16.9583 26.208 17.9912 26.208 19.2708V32.7604Z" fill="white"/>
</svg>
