<svg width="297" height="297" viewBox="0 0 297 297" fill="none" xmlns="http://www.w3.org/2000/svg">
<path d="M195.277 24.75H101.723C54.945 24.75 43.3125 37.2487 43.3125 87.12V226.462C43.3125 259.38 61.38 267.176 83.2838 243.664L83.4075 243.54C93.555 232.774 109.024 233.64 117.81 245.396L130.309 262.103C140.332 275.344 156.544 275.344 166.568 262.103L179.066 245.396C187.976 233.516 203.445 232.65 213.593 243.54C235.62 267.053 253.564 259.256 253.564 226.339V87.12C253.687 37.2487 242.055 24.75 195.277 24.75ZM185.625 145.406H111.375C106.301 145.406 102.094 141.199 102.094 136.125C102.094 131.051 106.301 126.844 111.375 126.844H185.625C190.699 126.844 194.906 131.051 194.906 136.125C194.906 141.199 190.699 145.406 185.625 145.406ZM198 95.9062H99C93.9263 95.9062 89.7188 91.6987 89.7188 86.625C89.7188 81.5513 93.9263 77.3438 99 77.3438H198C203.074 77.3438 207.281 81.5513 207.281 86.625C207.281 91.6987 203.074 95.9062 198 95.9062Z" fill="white"/>
</svg>
