<svg width="37" height="37" viewBox="0 0 37 37" fill="none" xmlns="http://www.w3.org/2000/svg">
<path d="M18.4997 3.08331C14.4605 3.08331 11.1768 6.36706 11.1768 10.4062C11.1768 14.3683 14.2755 17.575 18.3147 17.7137C18.438 17.6983 18.5613 17.6983 18.6538 17.7137C18.6847 17.7137 18.7001 17.7137 18.7309 17.7137C18.7463 17.7137 18.7463 17.7137 18.7618 17.7137C22.7084 17.575 25.8072 14.3683 25.8226 10.4062C25.8226 6.36706 22.5388 3.08331 18.4997 3.08331Z" fill="white"/>
<path d="M26.3315 21.8146C22.0302 18.9471 15.0157 18.9471 10.6836 21.8146C8.72565 23.125 7.64648 24.8979 7.64648 26.7941C7.64648 28.6904 8.72565 30.4479 10.6682 31.7429C12.8265 33.1921 15.6632 33.9166 18.4998 33.9166C21.3365 33.9166 24.1732 33.1921 26.3315 31.7429C28.274 30.4325 29.3532 28.675 29.3532 26.7633C29.3377 24.8671 28.274 23.1096 26.3315 21.8146Z" fill="white"/>
</svg>
