<svg width="37" height="37" viewBox="0 0 37 37" fill="none" xmlns="http://www.w3.org/2000/svg">
<path d="M13.8747 3.08331C9.83551 3.08331 6.55176 6.36706 6.55176 10.4062C6.55176 14.3683 9.65051 17.575 13.6897 17.7137C13.813 17.6983 13.9363 17.6983 14.0288 17.7137C14.0597 17.7137 14.0751 17.7137 14.1059 17.7137C14.1213 17.7137 14.1213 17.7137 14.1368 17.7137C18.0834 17.575 21.1822 14.3683 21.1976 10.4062C21.1976 6.36706 17.9138 3.08331 13.8747 3.08331Z" fill="white"/>
<path d="M21.7065 21.8146C17.4052 18.9471 10.3907 18.9471 6.05857 21.8146C4.10065 23.125 3.02148 24.8979 3.02148 26.7941C3.02148 28.6904 4.10065 30.4479 6.04315 31.7429C8.20148 33.1921 11.0382 33.9166 13.8748 33.9166C16.7115 33.9166 19.5482 33.1921 21.7065 31.7429C23.649 30.4325 24.7282 28.675 24.7282 26.7633C24.7127 24.8671 23.649 23.1096 21.7065 21.8146Z" fill="white"/>
<path d="M30.8179 11.3158C31.0646 14.3067 28.9371 16.9275 25.9925 17.2821C25.9771 17.2821 25.9771 17.2821 25.9617 17.2821H25.9154C25.8229 17.2821 25.7304 17.2821 25.6533 17.3129C24.1579 17.39 22.7858 16.9121 21.7529 16.0333C23.3408 14.615 24.2504 12.4875 24.0654 10.175C23.9575 8.92626 23.5258 7.78543 22.8783 6.81418C23.4642 6.52126 24.1425 6.33626 24.8363 6.27459C27.8579 6.01251 30.5558 8.26334 30.8179 11.3158Z" fill="white"/>
<path d="M33.9017 25.5762C33.7784 27.0716 32.8225 28.3666 31.2192 29.2454C29.6775 30.0933 27.735 30.4941 25.8079 30.4479C26.9179 29.4458 27.5654 28.1971 27.6888 26.8712C27.8429 24.9596 26.9334 23.125 25.1142 21.6604C24.0813 20.8433 22.8788 20.1958 21.5684 19.7179C24.9754 18.7312 29.2613 19.3941 31.8975 21.5216C33.3159 22.6625 34.0404 24.0962 33.9017 25.5762Z" fill="white"/>
</svg>
