<svg width="34" height="32" viewBox="0 0 34 32" fill="none" xmlns="http://www.w3.org/2000/svg">
<path d="M31.9896 28.8561H30.4479V11.4816C30.4479 10.5257 30.0162 9.63156 29.2608 9.04573L18.4692 0.659063C17.3592 -0.219687 15.7867 -0.219687 14.6767 0.659063L3.885 9.04573C3.12958 9.63156 2.69792 10.5257 2.69792 11.4661L2.62083 28.8561H1.15625C0.524167 28.8561 0 29.3649 0 30.0124C0 30.6445 0.524167 31.1686 1.15625 31.1686H31.9896C32.6217 31.1686 33.1458 30.6445 33.1458 30.0124C33.1458 29.3649 32.6217 28.8561 31.9896 28.8561ZM14.2604 6.50198H18.8854C19.5175 6.50198 20.0417 7.02615 20.0417 7.65823C20.0417 8.29031 19.5175 8.81448 18.8854 8.81448H14.2604C13.6283 8.81448 13.1042 8.29031 13.1042 7.65823C13.1042 7.02615 13.6283 6.50198 14.2604 6.50198ZM24.2812 28.8561H8.86458V15.3666C8.86458 14.087 9.8975 13.0541 11.1771 13.0541H21.9687C23.2483 13.0541 24.2812 14.087 24.2812 15.3666V28.8561Z" fill="white"/>
</svg>
