<svg width="168" height="168" viewBox="0 0 168 168" fill="none" xmlns="http://www.w3.org/2000/svg">
<path d="M154 148.75H145.25V76.9996C145.25 60.0596 135.94 50.7496 119 50.7496H89.25V42.1396C93.31 43.1196 97.37 43.6796 101.5 43.6796C108.08 43.6796 114.66 42.4196 120.96 39.8996C122.92 39.1296 124.25 37.1696 124.25 34.9996V13.9996C124.25 12.2496 123.41 10.6396 121.94 9.65961C120.47 8.67961 118.65 8.46961 117.04 9.09961C107.03 13.0896 95.97 13.0896 85.96 9.09961C84.35 8.46961 82.53 8.67961 81.06 9.65961C79.59 10.6396 78.75 12.2496 78.75 13.9996V34.9996V50.7496H49C32.06 50.7496 22.75 60.0596 22.75 76.9996V148.75H14C11.13 148.75 8.75 151.13 8.75 154C8.75 156.87 11.13 159.25 14 159.25H28H140H154C156.87 159.25 159.25 156.87 159.25 154C159.25 151.13 156.87 148.75 154 148.75ZM50.68 148.75H33.25V89.2496H50.68V148.75ZM78.68 148.75H61.18V89.2496H78.68V148.75ZM106.68 148.75H89.18V89.2496H106.68V148.75ZM134.75 148.75H117.18V89.2496H134.75V148.75Z" fill="white"/>
</svg>
