<svg xmlns="http://www.w3.org/2000/svg" xmlns:xlink="http://www.w3.org/1999/xlink" width="489" zoomAndPan="magnify" viewBox="0 0 366.75 65.249999" height="87" preserveAspectRatio="xMidYMid meet" version="1.0"><defs><filter x="0%" y="0%" width="100%" height="100%" id="0f5bba5d8d"><feColorMatrix values="0 0 0 0 1 0 0 0 0 1 0 0 0 0 1 0 0 0 1 0" color-interpolation-filters="sRGB"/></filter><g/><clipPath id="cbe0828bd0"><path d="M 1.960938 0 L 66.46875 0 L 66.46875 64.507812 L 1.960938 64.507812 Z M 1.960938 0 " clip-rule="nonzero"/></clipPath><clipPath id="c588ae10f6"><path d="M 4 0 L 364.542969 0 L 364.542969 64.507812 L 4 64.507812 Z M 4 0 " clip-rule="nonzero"/></clipPath><clipPath id="12738f6a03"><path d="M 1.371094 0 L 360.542969 0 L 360.542969 64.507812 L 1.371094 64.507812 Z M 1.371094 0 " clip-rule="nonzero"/></clipPath><clipPath id="1ab2cc2bd1"><path d="M 0.371094 0 L 359.542969 0 L 359.542969 64.507812 L 0.371094 64.507812 Z M 0.371094 0 " clip-rule="nonzero"/></clipPath><clipPath id="797b85c901"><path d="M 2.429688 0 L 359.542969 0 L 359.542969 64.507812 L 2.429688 64.507812 Z M 2.429688 0 " clip-rule="nonzero"/></clipPath><linearGradient x1="-95.647003" gradientTransform="matrix(0.684816, 0, 0, 0.683669, 67.931837, 8.519516)" y1="34" x2="425.823528" gradientUnits="userSpaceOnUse" y2="34" id="5cc6bea7ef"><stop stop-opacity="1" stop-color="rgb(9.408569%, 18.03894%, 26.269531%)" offset="0"/><stop stop-opacity="1" stop-color="rgb(9.408569%, 18.03894%, 26.269531%)" offset="0.125"/><stop stop-opacity="1" stop-color="rgb(9.408569%, 18.03894%, 26.269531%)" offset="0.1875"/><stop stop-opacity="1" stop-color="rgb(9.474182%, 18.103027%, 26.373291%)" offset="0.195313"/><stop stop-opacity="1" stop-color="rgb(9.642029%, 18.267822%, 26.64032%)" offset="0.203125"/><stop stop-opacity="1" stop-color="rgb(9.846497%, 18.467712%, 26.966858%)" offset="0.210938"/><stop stop-opacity="1" stop-color="rgb(10.050964%, 18.667603%, 27.293396%)" offset="0.21875"/><stop stop-opacity="1" stop-color="rgb(10.255432%, 18.869019%, 27.619934%)" offset="0.226563"/><stop stop-opacity="1" stop-color="rgb(10.4599%, 19.068909%, 27.944946%)" offset="0.234375"/><stop stop-opacity="1" stop-color="rgb(10.664368%, 19.268799%, 28.271484%)" offset="0.242188"/><stop stop-opacity="1" stop-color="rgb(10.86731%, 19.470215%, 28.598022%)" offset="0.25"/><stop stop-opacity="1" stop-color="rgb(11.071777%, 19.670105%, 28.924561%)" offset="0.257812"/><stop stop-opacity="1" stop-color="rgb(11.276245%, 19.869995%, 29.249573%)" offset="0.265625"/><stop stop-opacity="1" stop-color="rgb(11.480713%, 20.071411%, 29.576111%)" offset="0.273438"/><stop stop-opacity="1" stop-color="rgb(11.685181%, 20.271301%, 29.902649%)" offset="0.28125"/><stop stop-opacity="1" stop-color="rgb(11.889648%, 20.471191%, 30.229187%)" offset="0.289063"/><stop stop-opacity="1" stop-color="rgb(12.094116%, 20.672607%, 30.554199%)" offset="0.296875"/><stop stop-opacity="1" stop-color="rgb(12.298584%, 20.872498%, 30.880737%)" offset="0.304688"/><stop stop-opacity="1" stop-color="rgb(12.503052%, 21.072388%, 31.207275%)" offset="0.3125"/><stop stop-opacity="1" stop-color="rgb(12.70752%, 21.273804%, 31.533813%)" offset="0.320313"/><stop stop-opacity="1" stop-color="rgb(12.910461%, 21.473694%, 31.858826%)" offset="0.328125"/><stop stop-opacity="1" stop-color="rgb(13.114929%, 21.673584%, 32.185364%)" offset="0.335938"/><stop stop-opacity="1" stop-color="rgb(13.319397%, 21.875%, 32.511902%)" offset="0.34375"/><stop stop-opacity="1" stop-color="rgb(13.523865%, 22.07489%, 32.83844%)" offset="0.351563"/><stop stop-opacity="1" stop-color="rgb(13.728333%, 22.27478%, 33.163452%)" offset="0.359375"/><stop stop-opacity="1" stop-color="rgb(13.9328%, 22.476196%, 33.48999%)" offset="0.367188"/><stop stop-opacity="1" stop-color="rgb(14.137268%, 22.676086%, 33.816528%)" offset="0.375"/><stop stop-opacity="1" stop-color="rgb(14.341736%, 22.875977%, 34.143066%)" offset="0.382813"/><stop stop-opacity="1" stop-color="rgb(14.546204%, 23.077393%, 34.468079%)" offset="0.390625"/><stop stop-opacity="1" stop-color="rgb(14.750671%, 23.277283%, 34.794617%)" offset="0.398438"/><stop stop-opacity="1" stop-color="rgb(14.953613%, 23.477173%, 35.121155%)" offset="0.40625"/><stop stop-opacity="1" stop-color="rgb(15.158081%, 23.678589%, 35.447693%)" offset="0.414063"/><stop stop-opacity="1" stop-color="rgb(15.362549%, 23.878479%, 35.772705%)" offset="0.421875"/><stop stop-opacity="1" stop-color="rgb(15.567017%, 24.078369%, 36.099243%)" offset="0.429688"/><stop stop-opacity="1" stop-color="rgb(15.771484%, 24.279785%, 36.425781%)" offset="0.4375"/><stop stop-opacity="1" stop-color="rgb(15.975952%, 24.479675%, 36.752319%)" offset="0.445313"/><stop stop-opacity="1" stop-color="rgb(16.18042%, 24.679565%, 37.077332%)" offset="0.453125"/><stop stop-opacity="1" stop-color="rgb(16.384888%, 24.880981%, 37.40387%)" offset="0.460938"/><stop stop-opacity="1" stop-color="rgb(16.589355%, 25.080872%, 37.730408%)" offset="0.46875"/><stop stop-opacity="1" stop-color="rgb(16.792297%, 25.280762%, 38.056946%)" offset="0.476563"/><stop stop-opacity="1" stop-color="rgb(16.996765%, 25.482178%, 38.381958%)" offset="0.484375"/><stop stop-opacity="1" stop-color="rgb(17.201233%, 25.682068%, 38.708496%)" offset="0.492188"/><stop stop-opacity="1" stop-color="rgb(17.405701%, 25.881958%, 39.035034%)" offset="0.5"/><stop stop-opacity="1" stop-color="rgb(17.610168%, 26.083374%, 39.361572%)" offset="0.507812"/><stop stop-opacity="1" stop-color="rgb(17.814636%, 26.283264%, 39.686584%)" offset="0.515625"/><stop stop-opacity="1" stop-color="rgb(18.019104%, 26.483154%, 40.013123%)" offset="0.523438"/><stop stop-opacity="1" stop-color="rgb(18.223572%, 26.68457%, 40.339661%)" offset="0.53125"/><stop stop-opacity="1" stop-color="rgb(18.42804%, 26.88446%, 40.666199%)" offset="0.539063"/><stop stop-opacity="1" stop-color="rgb(18.632507%, 27.084351%, 40.991211%)" offset="0.546875"/><stop stop-opacity="1" stop-color="rgb(18.835449%, 27.285767%, 41.317749%)" offset="0.554688"/><stop stop-opacity="1" stop-color="rgb(19.039917%, 27.485657%, 41.644287%)" offset="0.5625"/><stop stop-opacity="1" stop-color="rgb(19.244385%, 27.685547%, 41.970825%)" offset="0.570312"/><stop stop-opacity="1" stop-color="rgb(19.448853%, 27.886963%, 42.295837%)" offset="0.578125"/><stop stop-opacity="1" stop-color="rgb(19.65332%, 28.086853%, 42.622375%)" offset="0.585938"/><stop stop-opacity="1" stop-color="rgb(19.857788%, 28.286743%, 42.948914%)" offset="0.59375"/><stop stop-opacity="1" stop-color="rgb(20.062256%, 28.488159%, 43.275452%)" offset="0.601563"/><stop stop-opacity="1" stop-color="rgb(20.266724%, 28.688049%, 43.600464%)" offset="0.609375"/><stop stop-opacity="1" stop-color="rgb(20.471191%, 28.887939%, 43.927002%)" offset="0.617188"/><stop stop-opacity="1" stop-color="rgb(20.675659%, 29.089355%, 44.25354%)" offset="0.625"/><stop stop-opacity="1" stop-color="rgb(20.878601%, 29.289246%, 44.580078%)" offset="0.632813"/><stop stop-opacity="1" stop-color="rgb(21.083069%, 29.489136%, 44.90509%)" offset="0.640625"/><stop stop-opacity="1" stop-color="rgb(21.287537%, 29.690552%, 45.231628%)" offset="0.648438"/><stop stop-opacity="1" stop-color="rgb(21.492004%, 29.890442%, 45.558167%)" offset="0.65625"/><stop stop-opacity="1" stop-color="rgb(21.696472%, 30.090332%, 45.884705%)" offset="0.664063"/><stop stop-opacity="1" stop-color="rgb(21.90094%, 30.291748%, 46.209717%)" offset="0.671875"/><stop stop-opacity="1" stop-color="rgb(22.105408%, 30.491638%, 46.536255%)" offset="0.679688"/><stop stop-opacity="1" stop-color="rgb(22.309875%, 30.693054%, 46.862793%)" offset="0.6875"/><stop stop-opacity="1" stop-color="rgb(22.514343%, 30.892944%, 47.189331%)" offset="0.695313"/><stop stop-opacity="1" stop-color="rgb(22.718811%, 31.092834%, 47.514343%)" offset="0.703125"/><stop stop-opacity="1" stop-color="rgb(22.921753%, 31.29425%, 47.840881%)" offset="0.710938"/><stop stop-opacity="1" stop-color="rgb(23.126221%, 31.494141%, 48.167419%)" offset="0.71875"/><stop stop-opacity="1" stop-color="rgb(23.330688%, 31.694031%, 48.493958%)" offset="0.726563"/><stop stop-opacity="1" stop-color="rgb(23.535156%, 31.895447%, 48.81897%)" offset="0.734375"/><stop stop-opacity="1" stop-color="rgb(23.739624%, 32.095337%, 49.145508%)" offset="0.742188"/><stop stop-opacity="1" stop-color="rgb(23.944092%, 32.295227%, 49.472046%)" offset="0.75"/><stop stop-opacity="1" stop-color="rgb(24.14856%, 32.496643%, 49.798584%)" offset="0.757813"/><stop stop-opacity="1" stop-color="rgb(24.353027%, 32.696533%, 50.123596%)" offset="0.765625"/><stop stop-opacity="1" stop-color="rgb(24.557495%, 32.896423%, 50.450134%)" offset="0.773438"/><stop stop-opacity="1" stop-color="rgb(24.761963%, 33.097839%, 50.776672%)" offset="0.78125"/><stop stop-opacity="1" stop-color="rgb(24.964905%, 33.297729%, 51.10321%)" offset="0.789063"/><stop stop-opacity="1" stop-color="rgb(25.169373%, 33.49762%, 51.428223%)" offset="0.796875"/><stop stop-opacity="1" stop-color="rgb(25.37384%, 33.699036%, 51.754761%)" offset="0.804688"/><stop stop-opacity="1" stop-color="rgb(25.578308%, 33.898926%, 52.081299%)" offset="0.8125"/><stop stop-opacity="1" stop-color="rgb(25.782776%, 34.098816%, 52.407837%)" offset="0.820313"/><stop stop-opacity="1" stop-color="rgb(25.987244%, 34.300232%, 52.732849%)" offset="0.828125"/><stop stop-opacity="1" stop-color="rgb(26.191711%, 34.500122%, 53.059387%)" offset="0.835938"/><stop stop-opacity="1" stop-color="rgb(26.396179%, 34.700012%, 53.385925%)" offset="0.84375"/><stop stop-opacity="1" stop-color="rgb(26.600647%, 34.901428%, 53.712463%)" offset="0.851562"/><stop stop-opacity="1" stop-color="rgb(26.803589%, 35.101318%, 54.037476%)" offset="0.859375"/><stop stop-opacity="1" stop-color="rgb(27.008057%, 35.301208%, 54.364014%)" offset="0.867188"/><stop stop-opacity="1" stop-color="rgb(27.212524%, 35.502625%, 54.690552%)" offset="0.875"/><stop stop-opacity="1" stop-color="rgb(27.416992%, 35.702515%, 55.01709%)" offset="0.882813"/><stop stop-opacity="1" stop-color="rgb(27.62146%, 35.902405%, 55.342102%)" offset="0.890625"/><stop stop-opacity="1" stop-color="rgb(27.825928%, 36.103821%, 55.66864%)" offset="0.898438"/><stop stop-opacity="1" stop-color="rgb(28.030396%, 36.303711%, 55.995178%)" offset="0.90625"/><stop stop-opacity="1" stop-color="rgb(28.234863%, 36.503601%, 56.321716%)" offset="0.914062"/><stop stop-opacity="1" stop-color="rgb(28.439331%, 36.705017%, 56.646729%)" offset="0.921875"/><stop stop-opacity="1" stop-color="rgb(28.643799%, 36.904907%, 56.973267%)" offset="0.929688"/><stop stop-opacity="1" stop-color="rgb(28.846741%, 37.104797%, 57.299805%)" offset="0.9375"/><stop stop-opacity="1" stop-color="rgb(29.051208%, 37.306213%, 57.626343%)" offset="0.945313"/><stop stop-opacity="1" stop-color="rgb(29.255676%, 37.506104%, 57.951355%)" offset="0.953125"/><stop stop-opacity="1" stop-color="rgb(29.460144%, 37.705994%, 58.277893%)" offset="0.960938"/><stop stop-opacity="1" stop-color="rgb(29.664612%, 37.90741%, 58.604431%)" offset="0.96875"/><stop stop-opacity="1" stop-color="rgb(29.782104%, 38.023376%, 58.79364%)" offset="1"/></linearGradient><clipPath id="d40754e96b"><rect x="0" width="360" y="0" height="65"/></clipPath><clipPath id="b24f02951b"><path d="M 0.371094 0 L 359.542969 0 L 359.542969 64.507812 L 0.371094 64.507812 Z M 0.371094 0 " clip-rule="nonzero"/></clipPath><clipPath id="c743786ca1"><rect x="0" width="360" y="0" height="65"/></clipPath><clipPath id="88f23b1948"><rect x="0" width="360" y="0" height="65"/></clipPath><mask id="c126caa093"><g filter="url(#0f5bba5d8d)"><g transform="matrix(1, 0, 0, 1, -0.000000000000000888, 0.000000000000000912)"><g clip-path="url(#88f23b1948)"><g clip-path="url(#b24f02951b)"><g transform="matrix(1, 0, 0, 1, -0.000000000000000888, 0.000000000000000912)"><g clip-path="url(#c743786ca1)"><g fill="#000000" fill-opacity="1"><g transform="translate(70.637792, 43.409664)"><g><path d="M 2.859375 0 L 2.859375 -23.796875 L 7.4375 -23.796875 L 15.90625 -11.453125 L 24.328125 -23.796875 L 28.890625 -23.796875 L 28.890625 0 L 23.515625 0 L 23.515625 -14.3125 L 17.734375 -5.875 L 14 -5.875 L 8.21875 -14.34375 L 8.21875 0 Z M 2.859375 0 "/></g></g></g><g fill="#000000" fill-opacity="1"><g transform="translate(107.198627, 43.409664)"><g><path d="M 14.140625 0.46875 C 11.671875 0.46875 9.476562 -0.0546875 7.5625 -1.109375 C 5.644531 -2.160156 4.148438 -3.613281 3.078125 -5.46875 C 2.003906 -7.332031 1.46875 -9.472656 1.46875 -11.890625 C 1.46875 -14.316406 2.003906 -16.457031 3.078125 -18.3125 C 4.148438 -20.175781 5.644531 -21.632812 7.5625 -22.6875 C 9.476562 -23.738281 11.671875 -24.265625 14.140625 -24.265625 C 16.628906 -24.265625 18.820312 -23.738281 20.71875 -22.6875 C 22.625 -21.632812 24.117188 -20.175781 25.203125 -18.3125 C 26.296875 -16.457031 26.84375 -14.316406 26.84375 -11.890625 C 26.84375 -9.472656 26.296875 -7.332031 25.203125 -5.46875 C 24.117188 -3.613281 22.625 -2.160156 20.71875 -1.109375 C 18.820312 -0.0546875 16.628906 0.46875 14.140625 0.46875 Z M 6.96875 -11.890625 C 6.96875 -10.460938 7.269531 -9.203125 7.875 -8.109375 C 8.488281 -7.023438 9.332031 -6.175781 10.40625 -5.5625 C 11.488281 -4.957031 12.734375 -4.65625 14.140625 -4.65625 C 15.566406 -4.65625 16.816406 -4.957031 17.890625 -5.5625 C 18.960938 -6.175781 19.800781 -7.023438 20.40625 -8.109375 C 21.007812 -9.203125 21.3125 -10.460938 21.3125 -11.890625 C 21.3125 -13.316406 21.007812 -14.570312 20.40625 -15.65625 C 19.800781 -16.75 18.960938 -17.601562 17.890625 -18.21875 C 16.816406 -18.832031 15.566406 -19.140625 14.140625 -19.140625 C 12.734375 -19.140625 11.488281 -18.832031 10.40625 -18.21875 C 9.332031 -17.601562 8.488281 -16.75 7.875 -15.65625 C 7.269531 -14.570312 6.96875 -13.316406 6.96875 -11.890625 Z M 6.96875 -11.890625 "/></g></g></g><g fill="#000000" fill-opacity="1"><g transform="translate(140.32773, 43.409664)"><g><path d="M 8.5625 0 L 8.5625 -18.71875 L 1.015625 -18.71875 L 1.015625 -23.796875 L 21.515625 -23.796875 L 21.515625 -18.71875 L 13.96875 -18.71875 L 13.96875 0 Z M 8.5625 0 "/></g></g></g><g fill="#000000" fill-opacity="1"><g transform="translate(167.680665, 43.409664)"><g><path d="M 14.140625 0.46875 C 11.671875 0.46875 9.476562 -0.0546875 7.5625 -1.109375 C 5.644531 -2.160156 4.148438 -3.613281 3.078125 -5.46875 C 2.003906 -7.332031 1.46875 -9.472656 1.46875 -11.890625 C 1.46875 -14.316406 2.003906 -16.457031 3.078125 -18.3125 C 4.148438 -20.175781 5.644531 -21.632812 7.5625 -22.6875 C 9.476562 -23.738281 11.671875 -24.265625 14.140625 -24.265625 C 16.628906 -24.265625 18.820312 -23.738281 20.71875 -22.6875 C 22.625 -21.632812 24.117188 -20.175781 25.203125 -18.3125 C 26.296875 -16.457031 26.84375 -14.316406 26.84375 -11.890625 C 26.84375 -9.472656 26.296875 -7.332031 25.203125 -5.46875 C 24.117188 -3.613281 22.625 -2.160156 20.71875 -1.109375 C 18.820312 -0.0546875 16.628906 0.46875 14.140625 0.46875 Z M 6.96875 -11.890625 C 6.96875 -10.460938 7.269531 -9.203125 7.875 -8.109375 C 8.488281 -7.023438 9.332031 -6.175781 10.40625 -5.5625 C 11.488281 -4.957031 12.734375 -4.65625 14.140625 -4.65625 C 15.566406 -4.65625 16.816406 -4.957031 17.890625 -5.5625 C 18.960938 -6.175781 19.800781 -7.023438 20.40625 -8.109375 C 21.007812 -9.203125 21.3125 -10.460938 21.3125 -11.890625 C 21.3125 -13.316406 21.007812 -14.570312 20.40625 -15.65625 C 19.800781 -16.75 18.960938 -17.601562 17.890625 -18.21875 C 16.816406 -18.832031 15.566406 -19.140625 14.140625 -19.140625 C 12.734375 -19.140625 11.488281 -18.832031 10.40625 -18.21875 C 9.332031 -17.601562 8.488281 -16.75 7.875 -15.65625 C 7.269531 -14.570312 6.96875 -13.316406 6.96875 -11.890625 Z M 6.96875 -11.890625 "/></g></g></g><g fill="#000000" fill-opacity="1"><g transform="translate(200.809768, 43.409664)"><g><path d="M 2.859375 0 L 2.859375 -23.796875 L 13.015625 -23.796875 C 14.828125 -23.796875 16.398438 -23.460938 17.734375 -22.796875 C 19.078125 -22.140625 20.109375 -21.195312 20.828125 -19.96875 C 21.554688 -18.75 21.921875 -17.289062 21.921875 -15.59375 C 21.921875 -13.851562 21.523438 -12.351562 20.734375 -11.09375 C 19.941406 -9.832031 18.832031 -8.890625 17.40625 -8.265625 L 22.328125 0 L 16.078125 0 L 11.828125 -7.40625 L 8.265625 -7.40625 L 8.265625 0 Z M 8.1875 -11.96875 L 12.296875 -11.96875 C 13.640625 -11.96875 14.664062 -12.273438 15.375 -12.890625 C 16.09375 -13.515625 16.453125 -14.40625 16.453125 -15.5625 C 16.453125 -16.71875 16.09375 -17.609375 15.375 -18.234375 C 14.664062 -18.859375 13.640625 -19.171875 12.296875 -19.171875 L 8.1875 -19.171875 Z M 8.1875 -11.96875 "/></g></g></g><g fill="#000000" fill-opacity="1"><g transform="translate(229.555776, 43.409664)"><g><path d="M 13.765625 0.46875 C 11.359375 0.46875 9.226562 -0.0546875 7.375 -1.109375 C 5.519531 -2.160156 4.070312 -3.613281 3.03125 -5.46875 C 1.988281 -7.332031 1.46875 -9.472656 1.46875 -11.890625 C 1.46875 -14.316406 1.988281 -16.457031 3.03125 -18.3125 C 4.070312 -20.175781 5.515625 -21.632812 7.359375 -22.6875 C 9.203125 -23.738281 11.328125 -24.265625 13.734375 -24.265625 C 15.742188 -24.265625 17.585938 -23.878906 19.265625 -23.109375 C 20.941406 -22.335938 22.351562 -21.25 23.5 -19.84375 C 24.644531 -18.4375 25.441406 -16.785156 25.890625 -14.890625 L 20.328125 -14.890625 C 19.867188 -16.203125 19.0625 -17.238281 17.90625 -18 C 16.75 -18.757812 15.414062 -19.140625 13.90625 -19.140625 C 12.5625 -19.140625 11.363281 -18.832031 10.3125 -18.21875 C 9.257812 -17.601562 8.4375 -16.75 7.84375 -15.65625 C 7.257812 -14.570312 6.96875 -13.316406 6.96875 -11.890625 C 6.96875 -10.460938 7.257812 -9.203125 7.84375 -8.109375 C 8.4375 -7.023438 9.253906 -6.175781 10.296875 -5.5625 C 11.335938 -4.957031 12.523438 -4.65625 13.859375 -4.65625 C 15.421875 -4.65625 16.789062 -5.054688 17.96875 -5.859375 C 19.15625 -6.660156 20 -7.742188 20.5 -9.109375 L 26.0625 -9.109375 C 25.675781 -7.179688 24.90625 -5.5 23.75 -4.0625 C 22.59375 -2.625 21.160156 -1.507812 19.453125 -0.71875 C 17.742188 0.0703125 15.847656 0.46875 13.765625 0.46875 Z M 13.765625 0.46875 "/></g></g></g><g fill="#000000" fill-opacity="1"><g transform="translate(261.801468, 43.409664)"><g><path d="M 14.140625 0.46875 C 11.671875 0.46875 9.476562 -0.0546875 7.5625 -1.109375 C 5.644531 -2.160156 4.148438 -3.613281 3.078125 -5.46875 C 2.003906 -7.332031 1.46875 -9.472656 1.46875 -11.890625 C 1.46875 -14.316406 2.003906 -16.457031 3.078125 -18.3125 C 4.148438 -20.175781 5.644531 -21.632812 7.5625 -22.6875 C 9.476562 -23.738281 11.671875 -24.265625 14.140625 -24.265625 C 16.628906 -24.265625 18.820312 -23.738281 20.71875 -22.6875 C 22.625 -21.632812 24.117188 -20.175781 25.203125 -18.3125 C 26.296875 -16.457031 26.84375 -14.316406 26.84375 -11.890625 C 26.84375 -9.472656 26.296875 -7.332031 25.203125 -5.46875 C 24.117188 -3.613281 22.625 -2.160156 20.71875 -1.109375 C 18.820312 -0.0546875 16.628906 0.46875 14.140625 0.46875 Z M 6.96875 -11.890625 C 6.96875 -10.460938 7.269531 -9.203125 7.875 -8.109375 C 8.488281 -7.023438 9.332031 -6.175781 10.40625 -5.5625 C 11.488281 -4.957031 12.734375 -4.65625 14.140625 -4.65625 C 15.566406 -4.65625 16.816406 -4.957031 17.890625 -5.5625 C 18.960938 -6.175781 19.800781 -7.023438 20.40625 -8.109375 C 21.007812 -9.203125 21.3125 -10.460938 21.3125 -11.890625 C 21.3125 -13.316406 21.007812 -14.570312 20.40625 -15.65625 C 19.800781 -16.75 18.960938 -17.601562 17.890625 -18.21875 C 16.816406 -18.832031 15.566406 -19.140625 14.140625 -19.140625 C 12.734375 -19.140625 11.488281 -18.832031 10.40625 -18.21875 C 9.332031 -17.601562 8.488281 -16.75 7.875 -15.65625 C 7.269531 -14.570312 6.96875 -13.316406 6.96875 -11.890625 Z M 6.96875 -11.890625 "/></g></g></g><g fill="#000000" fill-opacity="1"><g transform="translate(294.930561, 43.409664)"><g><path d="M 2.859375 0 L 2.859375 -23.796875 L 13.015625 -23.796875 C 14.828125 -23.796875 16.398438 -23.460938 17.734375 -22.796875 C 19.078125 -22.140625 20.109375 -21.195312 20.828125 -19.96875 C 21.554688 -18.75 21.921875 -17.289062 21.921875 -15.59375 C 21.921875 -13.851562 21.523438 -12.351562 20.734375 -11.09375 C 19.941406 -9.832031 18.832031 -8.890625 17.40625 -8.265625 L 22.328125 0 L 16.078125 0 L 11.828125 -7.40625 L 8.265625 -7.40625 L 8.265625 0 Z M 8.1875 -11.96875 L 12.296875 -11.96875 C 13.640625 -11.96875 14.664062 -12.273438 15.375 -12.890625 C 16.09375 -13.515625 16.453125 -14.40625 16.453125 -15.5625 C 16.453125 -16.71875 16.09375 -17.609375 15.375 -18.234375 C 14.664062 -18.859375 13.640625 -19.171875 12.296875 -19.171875 L 8.1875 -19.171875 Z M 8.1875 -11.96875 "/></g></g></g><g fill="#000000" fill-opacity="1"><g transform="translate(323.67659, 43.409664)"><g><path d="M 2.859375 0 L 2.859375 -23.796875 L 18.484375 -23.796875 L 18.484375 -19.234375 L 8.21875 -19.234375 L 8.21875 -14.3125 L 17.5625 -14.3125 L 17.5625 -9.78125 L 8.21875 -9.78125 L 8.21875 -4.59375 L 18.859375 -4.59375 L 18.859375 0 Z M 2.859375 0 "/></g></g></g></g></g></g></g></g></g></mask><clipPath id="698a3b840a"><path d="M 2.429688 0 L 359.542969 0 L 359.542969 64.507812 L 2.429688 64.507812 Z M 2.429688 0 " clip-rule="nonzero"/></clipPath><clipPath id="ff32f8694a"><rect x="0" width="360" y="0" height="65"/></clipPath><clipPath id="7b48f05205"><rect x="0" width="360" y="0" height="65"/></clipPath><clipPath id="3022dacea4"><rect x="0" width="361" y="0" height="65"/></clipPath></defs><g clip-path="url(#cbe0828bd0)"><path fill="#182e43" d="M 61.550781 26.257812 L 58.332031 26.257812 C 57.730469 23.703125 56.742188 21.300781 55.371094 19.0625 L 57.632812 16.800781 C 57.847656 16.585938 58.035156 16.351562 58.203125 16.097656 C 58.371094 15.847656 58.511719 15.582031 58.628906 15.300781 C 58.742188 15.019531 58.828125 14.730469 58.886719 14.433594 C 58.945312 14.136719 58.976562 13.839844 58.976562 13.535156 C 58.976562 13.234375 58.945312 12.933594 58.886719 12.636719 C 58.828125 12.339844 58.742188 12.050781 58.628906 11.769531 C 58.511719 11.492188 58.371094 11.222656 58.203125 10.972656 C 58.035156 10.71875 57.847656 10.484375 57.632812 10.269531 L 55.894531 8.535156 C 55.679688 8.320312 55.449219 8.132812 55.195312 7.964844 C 54.941406 7.796875 54.675781 7.65625 54.398438 7.539062 C 54.117188 7.425781 53.828125 7.339844 53.53125 7.28125 C 53.234375 7.222656 52.933594 7.191406 52.632812 7.191406 C 52.328125 7.191406 52.03125 7.222656 51.730469 7.28125 C 51.433594 7.339844 51.148438 7.425781 50.867188 7.539062 C 50.585938 7.65625 50.320312 7.796875 50.070312 7.964844 C 49.816406 8.132812 49.582031 8.320312 49.367188 8.535156 L 47.132812 10.769531 C 44.886719 9.378906 42.476562 8.375 39.910156 7.757812 L 39.910156 4.617188 C 39.90625 4.3125 39.878906 4.015625 39.820312 3.714844 C 39.757812 3.417969 39.671875 3.132812 39.554688 2.851562 C 39.441406 2.570312 39.296875 2.304688 39.128906 2.054688 C 38.960938 1.800781 38.769531 1.566406 38.554688 1.355469 C 38.339844 1.140625 38.105469 0.949219 37.855469 0.78125 C 37.605469 0.613281 37.335938 0.46875 37.058594 0.351562 C 36.777344 0.238281 36.488281 0.148438 36.191406 0.0898438 C 35.894531 0.03125 35.59375 0 35.292969 0 L 32.835938 0 C 32.53125 0 32.234375 0.03125 31.9375 0.0898438 C 31.636719 0.148438 31.351562 0.238281 31.070312 0.351562 C 30.789062 0.46875 30.523438 0.609375 30.273438 0.78125 C 30.019531 0.949219 29.789062 1.140625 29.574219 1.355469 C 29.359375 1.566406 29.167969 1.800781 29 2.054688 C 28.832031 2.304688 28.6875 2.570312 28.570312 2.851562 C 28.457031 3.132812 28.367188 3.417969 28.308594 3.714844 C 28.25 4.015625 28.21875 4.3125 28.21875 4.617188 L 28.21875 7.757812 C 25.648438 8.375 23.242188 9.378906 20.996094 10.769531 L 18.761719 8.535156 C 18.546875 8.320312 18.3125 8.132812 18.058594 7.964844 C 17.808594 7.796875 17.539062 7.65625 17.261719 7.539062 C 16.980469 7.425781 16.691406 7.339844 16.394531 7.28125 C 16.097656 7.222656 15.796875 7.191406 15.496094 7.191406 C 15.191406 7.191406 14.894531 7.222656 14.597656 7.28125 C 14.300781 7.339844 14.011719 7.425781 13.730469 7.539062 C 13.449219 7.65625 13.183594 7.796875 12.933594 7.964844 C 12.679688 8.132812 12.445312 8.320312 12.230469 8.535156 L 10.496094 10.269531 C 10.28125 10.484375 10.089844 10.71875 9.921875 10.972656 C 9.753906 11.222656 9.613281 11.488281 9.496094 11.769531 C 9.378906 12.050781 9.292969 12.339844 9.234375 12.636719 C 9.175781 12.933594 9.144531 13.234375 9.144531 13.535156 C 9.144531 13.839844 9.175781 14.140625 9.234375 14.4375 C 9.292969 14.734375 9.378906 15.023438 9.496094 15.300781 C 9.613281 15.582031 9.753906 15.847656 9.921875 16.101562 C 10.089844 16.351562 10.28125 16.585938 10.496094 16.800781 L 12.757812 19.0625 C 11.386719 21.300781 10.398438 23.703125 9.792969 26.257812 L 6.578125 26.257812 C 6.273438 26.257812 5.972656 26.289062 5.675781 26.347656 C 5.378906 26.40625 5.089844 26.496094 4.8125 26.613281 C 4.53125 26.726562 4.265625 26.871094 4.011719 27.039062 C 3.761719 27.207031 3.527344 27.398438 3.3125 27.613281 C 3.101562 27.828125 2.910156 28.058594 2.738281 28.3125 C 2.570312 28.5625 2.429688 28.828125 2.3125 29.109375 C 2.195312 29.390625 2.109375 29.679688 2.050781 29.976562 C 1.992188 30.273438 1.960938 30.574219 1.960938 30.875 L 1.960938 33.332031 C 1.960938 33.632812 1.992188 33.933594 2.050781 34.230469 C 2.109375 34.527344 2.195312 34.816406 2.3125 35.097656 C 2.429688 35.378906 2.570312 35.644531 2.738281 35.894531 C 2.910156 36.148438 3.101562 36.378906 3.3125 36.59375 C 3.527344 36.808594 3.761719 37 4.011719 37.167969 C 4.265625 37.335938 4.53125 37.480469 4.8125 37.59375 C 5.089844 37.710938 5.378906 37.800781 5.675781 37.859375 C 5.972656 37.917969 6.273438 37.949219 6.578125 37.949219 L 9.835938 37.949219 C 10.457031 40.484375 11.449219 42.859375 12.824219 45.078125 L 10.496094 47.40625 C 10.28125 47.621094 10.089844 47.855469 9.921875 48.105469 C 9.753906 48.359375 9.613281 48.625 9.496094 48.90625 C 9.378906 49.183594 9.292969 49.472656 9.234375 49.769531 C 9.175781 50.070312 9.144531 50.367188 9.144531 50.671875 C 9.144531 50.976562 9.175781 51.273438 9.234375 51.570312 C 9.292969 51.871094 9.378906 52.15625 9.496094 52.4375 C 9.613281 52.71875 9.753906 52.984375 9.921875 53.234375 C 10.089844 53.488281 10.28125 53.722656 10.496094 53.9375 L 12.230469 55.671875 C 12.445312 55.886719 12.679688 56.074219 12.933594 56.242188 C 13.183594 56.410156 13.449219 56.550781 13.730469 56.667969 C 14.011719 56.78125 14.300781 56.867188 14.597656 56.925781 C 14.894531 56.988281 15.191406 57.015625 15.496094 57.015625 C 15.796875 57.015625 16.097656 56.988281 16.394531 56.925781 C 16.691406 56.867188 16.980469 56.78125 17.261719 56.667969 C 17.539062 56.550781 17.808594 56.410156 18.058594 56.242188 C 18.3125 56.074219 18.546875 55.886719 18.761719 55.671875 L 21.117188 53.316406 C 23.328125 54.671875 25.695312 55.652344 28.21875 56.261719 L 28.21875 59.589844 C 28.21875 59.894531 28.25 60.195312 28.308594 60.492188 C 28.367188 60.789062 28.457031 61.078125 28.570312 61.355469 C 28.6875 61.636719 28.832031 61.902344 29 62.152344 C 29.167969 62.40625 29.359375 62.640625 29.574219 62.851562 C 29.789062 63.066406 30.019531 63.257812 30.273438 63.425781 C 30.523438 63.597656 30.789062 63.738281 31.070312 63.855469 C 31.351562 63.96875 31.636719 64.058594 31.9375 64.117188 C 32.234375 64.175781 32.53125 64.207031 32.835938 64.207031 L 35.292969 64.207031 C 35.59375 64.207031 35.894531 64.175781 36.191406 64.117188 C 36.488281 64.058594 36.777344 63.96875 37.058594 63.855469 C 37.335938 63.738281 37.605469 63.597656 37.855469 63.425781 C 38.105469 63.257812 38.339844 63.066406 38.554688 62.851562 C 38.769531 62.640625 38.960938 62.40625 39.128906 62.152344 C 39.296875 61.902344 39.441406 61.636719 39.554688 61.355469 C 39.671875 61.078125 39.757812 60.789062 39.820312 60.492188 C 39.878906 60.195312 39.90625 59.894531 39.910156 59.589844 L 39.910156 56.261719 C 42.429688 55.652344 44.800781 54.671875 47.011719 53.316406 L 49.367188 55.671875 C 49.582031 55.886719 49.816406 56.074219 50.070312 56.242188 C 50.320312 56.410156 50.585938 56.550781 50.867188 56.667969 C 51.148438 56.78125 51.433594 56.867188 51.730469 56.925781 C 52.03125 56.988281 52.328125 57.015625 52.632812 57.015625 C 52.933594 57.015625 53.234375 56.988281 53.53125 56.925781 C 53.828125 56.867188 54.117188 56.78125 54.398438 56.667969 C 54.675781 56.550781 54.941406 56.410156 55.195312 56.242188 C 55.449219 56.074219 55.679688 55.886719 55.894531 55.671875 L 57.632812 53.9375 C 57.847656 53.722656 58.035156 53.488281 58.203125 53.234375 C 58.371094 52.984375 58.511719 52.714844 58.628906 52.4375 C 58.742188 52.15625 58.828125 51.867188 58.886719 51.570312 C 58.945312 51.273438 58.976562 50.972656 58.976562 50.671875 C 58.976562 50.367188 58.945312 50.070312 58.886719 49.773438 C 58.828125 49.476562 58.742188 49.1875 58.628906 48.90625 C 58.511719 48.625 58.371094 48.359375 58.203125 48.109375 C 58.035156 47.855469 57.847656 47.621094 57.632812 47.40625 L 55.304688 45.078125 C 56.675781 42.859375 57.671875 40.484375 58.292969 37.949219 L 61.550781 37.949219 C 61.855469 37.949219 62.152344 37.917969 62.449219 37.859375 C 62.746094 37.800781 63.035156 37.710938 63.316406 37.59375 C 63.597656 37.480469 63.863281 37.335938 64.113281 37.167969 C 64.367188 37 64.597656 36.808594 64.8125 36.59375 C 65.027344 36.378906 65.21875 36.148438 65.386719 35.894531 C 65.554688 35.644531 65.699219 35.378906 65.816406 35.097656 C 65.929688 34.816406 66.019531 34.527344 66.078125 34.230469 C 66.136719 33.933594 66.167969 33.632812 66.167969 33.332031 L 66.167969 30.875 C 66.167969 30.574219 66.136719 30.273438 66.078125 29.976562 C 66.019531 29.679688 65.929688 29.390625 65.816406 29.109375 C 65.699219 28.828125 65.554688 28.5625 65.386719 28.3125 C 65.21875 28.058594 65.027344 27.828125 64.8125 27.613281 C 64.597656 27.398438 64.367188 27.207031 64.113281 27.039062 C 63.863281 26.871094 63.597656 26.726562 63.316406 26.613281 C 63.035156 26.496094 62.746094 26.40625 62.449219 26.347656 C 62.152344 26.289062 61.855469 26.257812 61.550781 26.257812 Z M 34.0625 50.296875 C 33.46875 50.296875 32.875 50.265625 32.28125 50.207031 C 31.6875 50.148438 31.097656 50.0625 30.515625 49.945312 C 29.929688 49.828125 29.351562 49.683594 28.78125 49.511719 C 28.210938 49.339844 27.652344 49.140625 27.101562 48.910156 C 26.550781 48.683594 26.011719 48.429688 25.488281 48.148438 C 24.960938 47.867188 24.453125 47.5625 23.957031 47.230469 C 23.460938 46.898438 22.984375 46.542969 22.523438 46.167969 C 22.0625 45.789062 21.621094 45.390625 21.199219 44.96875 C 20.777344 44.546875 20.378906 44.105469 20 43.644531 C 19.625 43.183594 19.269531 42.707031 18.9375 42.210938 C 18.605469 41.714844 18.300781 41.203125 18.019531 40.679688 C 17.738281 40.152344 17.484375 39.617188 17.257812 39.066406 C 17.027344 38.515625 16.828125 37.953125 16.65625 37.382812 C 16.480469 36.8125 16.335938 36.238281 16.222656 35.652344 C 16.105469 35.070312 16.019531 34.480469 15.960938 33.886719 C 15.902344 33.292969 15.871094 32.699219 15.871094 32.105469 C 15.871094 31.507812 15.902344 30.914062 15.960938 30.320312 C 16.019531 29.726562 16.105469 29.140625 16.222656 28.554688 C 16.335938 27.96875 16.480469 27.394531 16.65625 26.824219 C 16.828125 26.253906 17.027344 25.691406 17.257812 25.140625 C 17.484375 24.589844 17.738281 24.054688 18.019531 23.527344 C 18.300781 23.003906 18.605469 22.492188 18.9375 21.996094 C 19.269531 21.5 19.625 21.023438 20 20.5625 C 20.378906 20.101562 20.777344 19.660156 21.199219 19.238281 C 21.621094 18.820312 22.0625 18.417969 22.523438 18.039062 C 22.984375 17.664062 23.460938 17.308594 23.957031 16.976562 C 24.453125 16.644531 24.960938 16.339844 25.488281 16.058594 C 26.011719 15.777344 26.550781 15.523438 27.101562 15.296875 C 27.652344 15.070312 28.210938 14.867188 28.78125 14.695312 C 29.351562 14.523438 29.929688 14.378906 30.515625 14.261719 C 31.097656 14.144531 31.6875 14.058594 32.28125 14 C 32.875 13.941406 33.46875 13.910156 34.0625 13.910156 C 34.660156 13.910156 35.253906 13.941406 35.847656 14 C 36.441406 14.058594 37.027344 14.144531 37.613281 14.261719 C 38.199219 14.378906 38.773438 14.523438 39.34375 14.695312 C 39.914062 14.867188 40.476562 15.070312 41.027344 15.296875 C 41.574219 15.523438 42.113281 15.777344 42.640625 16.058594 C 43.164062 16.339844 43.675781 16.644531 44.171875 16.976562 C 44.667969 17.308594 45.144531 17.664062 45.605469 18.039062 C 46.066406 18.417969 46.507812 18.820312 46.925781 19.238281 C 47.347656 19.660156 47.75 20.101562 48.125 20.5625 C 48.503906 21.023438 48.859375 21.5 49.191406 21.996094 C 49.519531 22.492188 49.828125 23.003906 50.109375 23.527344 C 50.390625 24.054688 50.644531 24.589844 50.871094 25.140625 C 51.097656 25.691406 51.300781 26.253906 51.472656 26.824219 C 51.644531 27.394531 51.789062 27.96875 51.90625 28.554688 C 52.023438 29.140625 52.109375 29.726562 52.167969 30.320312 C 52.226562 30.914062 52.257812 31.507812 52.257812 32.105469 C 52.253906 32.699219 52.226562 33.292969 52.167969 33.886719 C 52.109375 34.480469 52.019531 35.066406 51.902344 35.652344 C 51.785156 36.234375 51.640625 36.8125 51.46875 37.382812 C 51.292969 37.953125 51.09375 38.511719 50.867188 39.0625 C 50.636719 39.613281 50.382812 40.148438 50.101562 40.675781 C 49.820312 41.199219 49.515625 41.710938 49.183594 42.207031 C 48.851562 42.699219 48.5 43.179688 48.121094 43.640625 C 47.742188 44.097656 47.34375 44.539062 46.921875 44.960938 C 46.5 45.382812 46.058594 45.78125 45.597656 46.160156 C 45.140625 46.539062 44.660156 46.890625 44.167969 47.222656 C 43.671875 47.554688 43.160156 47.859375 42.636719 48.140625 C 42.109375 48.421875 41.574219 48.675781 41.023438 48.90625 C 40.472656 49.132812 39.914062 49.335938 39.34375 49.507812 C 38.773438 49.679688 38.195312 49.824219 37.613281 49.941406 C 37.027344 50.058594 36.4375 50.148438 35.847656 50.207031 C 35.253906 50.265625 34.660156 50.296875 34.0625 50.296875 Z M 28.714844 47.21875 L 28.714844 41.355469 C 27.875 40.871094 27.117188 40.285156 26.4375 39.597656 C 25.757812 38.910156 25.183594 38.140625 24.714844 37.296875 C 24.242188 36.453125 23.894531 35.558594 23.664062 34.621094 C 23.4375 33.679688 23.335938 32.726562 23.367188 31.761719 C 23.398438 30.792969 23.558594 29.847656 23.84375 28.925781 C 24.132812 28.003906 24.535156 27.132812 25.058594 26.320312 C 25.582031 25.507812 26.203125 24.777344 26.925781 24.132812 C 27.644531 23.488281 28.441406 22.953125 29.304688 22.523438 C 29.472656 22.441406 29.648438 22.40625 29.832031 22.414062 C 30.015625 22.425781 30.1875 22.476562 30.34375 22.574219 C 30.5 22.671875 30.625 22.800781 30.714844 22.960938 C 30.804688 23.121094 30.851562 23.296875 30.851562 23.480469 L 30.851562 30.367188 L 34.0625 31.972656 L 37.273438 30.367188 L 37.273438 23.480469 C 37.277344 23.296875 37.324219 23.121094 37.414062 22.960938 C 37.503906 22.800781 37.628906 22.671875 37.785156 22.574219 C 37.941406 22.480469 38.113281 22.425781 38.296875 22.414062 C 38.480469 22.40625 38.65625 22.441406 38.820312 22.523438 C 39.6875 22.953125 40.480469 23.488281 41.203125 24.132812 C 41.921875 24.777344 42.546875 25.507812 43.070312 26.320312 C 43.589844 27.132812 43.996094 28.003906 44.285156 28.925781 C 44.570312 29.847656 44.730469 30.792969 44.761719 31.761719 C 44.789062 32.726562 44.691406 33.679688 44.460938 34.621094 C 44.234375 35.558594 43.886719 36.453125 43.414062 37.296875 C 42.945312 38.140625 42.367188 38.910156 41.691406 39.597656 C 41.011719 40.285156 40.253906 40.871094 39.414062 41.355469 L 39.414062 47.21875 C 37.683594 47.835938 35.902344 48.144531 34.0625 48.144531 C 32.226562 48.144531 30.441406 47.835938 28.714844 47.21875 Z M 28.714844 47.21875 " fill-opacity="1" fill-rule="nonzero"/></g><g clip-path="url(#c588ae10f6)"><g transform="matrix(1, 0, 0, 1, 4, 0.000000000000000912)"><g clip-path="url(#3022dacea4)"><g clip-path="url(#12738f6a03)"><g transform="matrix(1, 0, 0, 1, 1, 0.000000000000000912)"><g clip-path="url(#7b48f05205)"><g clip-path="url(#1ab2cc2bd1)"><g mask="url(#c126caa093)"><g transform="matrix(1, 0, 0, 1, -0.000000000000000888, 0.000000000000000912)"><g clip-path="url(#ff32f8694a)"><g clip-path="url(#698a3b840a)"><path fill="url(#5cc6bea7ef)" d="M 2.429688 0 L 2.429688 64.507812 L 359.542969 64.507812 L 359.542969 0 Z M 2.429688 0 " fill-rule="nonzero"/></g></g></g></g></g></g></g></g></g></g></g></svg>