<svg xmlns="http://www.w3.org/2000/svg" xmlns:xlink="http://www.w3.org/1999/xlink" width="493" zoomAndPan="magnify" viewBox="0 0 369.75 76.499998" height="102" preserveAspectRatio="xMidYMid meet" version="1.0"><defs><filter x="0%" y="0%" width="100%" height="100%" id="06bf631020"><feColorMatrix values="0 0 0 0 1 0 0 0 0 1 0 0 0 0 1 0 0 0 1 0" color-interpolation-filters="sRGB"/></filter><g/><clipPath id="316b3c000a"><path d="M 1.078125 0 L 71 0 L 71 70 L 1.078125 70 Z M 1.078125 0 " clip-rule="nonzero"/></clipPath><clipPath id="a3210eafb4"><path d="M 1.078125 0 L 368.425781 0 L 368.425781 76.003906 L 1.078125 76.003906 Z M 1.078125 0 " clip-rule="nonzero"/></clipPath><clipPath id="375b6ad20b"><path d="M 0.078125 0 L 367.425781 0 L 367.425781 76.003906 L 0.078125 76.003906 Z M 0.078125 0 " clip-rule="nonzero"/></clipPath><clipPath id="56fa2f8d1e"><path d="M 3.558594 0 L 367.425781 0 L 367.425781 76.003906 L 3.558594 76.003906 Z M 3.558594 0 " clip-rule="nonzero"/></clipPath><linearGradient x1="-62.959" gradientTransform="matrix(0.745571, 0, 0, 0.74379, 50.499923, 17.035094)" y1="34" x2="425.077585" gradientUnits="userSpaceOnUse" y2="34" id="32667db590"><stop stop-opacity="1" stop-color="rgb(9.408569%, 18.03894%, 26.269531%)" offset="0"/><stop stop-opacity="1" stop-color="rgb(9.408569%, 18.03894%, 26.269531%)" offset="0.125"/><stop stop-opacity="1" stop-color="rgb(9.408569%, 18.03894%, 26.269531%)" offset="0.1875"/><stop stop-opacity="1" stop-color="rgb(9.408569%, 18.03894%, 26.269531%)" offset="0.203125"/><stop stop-opacity="1" stop-color="rgb(9.519958%, 18.147278%, 26.445007%)" offset="0.210938"/><stop stop-opacity="1" stop-color="rgb(9.744263%, 18.36853%, 26.803589%)" offset="0.21875"/><stop stop-opacity="1" stop-color="rgb(9.971619%, 18.591309%, 27.168274%)" offset="0.226562"/><stop stop-opacity="1" stop-color="rgb(10.2005%, 18.814087%, 27.531433%)" offset="0.234375"/><stop stop-opacity="1" stop-color="rgb(10.427856%, 19.038391%, 27.896118%)" offset="0.242188"/><stop stop-opacity="1" stop-color="rgb(10.655212%, 19.261169%, 28.259277%)" offset="0.25"/><stop stop-opacity="1" stop-color="rgb(10.884094%, 19.485474%, 28.622437%)" offset="0.257812"/><stop stop-opacity="1" stop-color="rgb(11.11145%, 19.708252%, 28.987122%)" offset="0.265625"/><stop stop-opacity="1" stop-color="rgb(11.338806%, 19.932556%, 29.350281%)" offset="0.273438"/><stop stop-opacity="1" stop-color="rgb(11.567688%, 20.155334%, 29.714966%)" offset="0.28125"/><stop stop-opacity="1" stop-color="rgb(11.795044%, 20.379639%, 30.078125%)" offset="0.289063"/><stop stop-opacity="1" stop-color="rgb(12.0224%, 20.602417%, 30.441284%)" offset="0.296875"/><stop stop-opacity="1" stop-color="rgb(12.251282%, 20.826721%, 30.805969%)" offset="0.304688"/><stop stop-opacity="1" stop-color="rgb(12.478638%, 21.0495%, 31.169128%)" offset="0.3125"/><stop stop-opacity="1" stop-color="rgb(12.705994%, 21.273804%, 31.532288%)" offset="0.320312"/><stop stop-opacity="1" stop-color="rgb(12.93335%, 21.496582%, 31.896973%)" offset="0.328125"/><stop stop-opacity="1" stop-color="rgb(13.162231%, 21.720886%, 32.260132%)" offset="0.335938"/><stop stop-opacity="1" stop-color="rgb(13.389587%, 21.943665%, 32.624817%)" offset="0.34375"/><stop stop-opacity="1" stop-color="rgb(13.616943%, 22.167969%, 32.987976%)" offset="0.351562"/><stop stop-opacity="1" stop-color="rgb(13.845825%, 22.390747%, 33.351135%)" offset="0.359375"/><stop stop-opacity="1" stop-color="rgb(14.073181%, 22.615051%, 33.71582%)" offset="0.367188"/><stop stop-opacity="1" stop-color="rgb(14.300537%, 22.83783%, 34.078979%)" offset="0.375"/><stop stop-opacity="1" stop-color="rgb(14.529419%, 23.060608%, 34.443665%)" offset="0.382813"/><stop stop-opacity="1" stop-color="rgb(14.756775%, 23.284912%, 34.806824%)" offset="0.390625"/><stop stop-opacity="1" stop-color="rgb(14.984131%, 23.50769%, 35.169983%)" offset="0.398438"/><stop stop-opacity="1" stop-color="rgb(15.213013%, 23.731995%, 35.534668%)" offset="0.40625"/><stop stop-opacity="1" stop-color="rgb(15.440369%, 23.954773%, 35.897827%)" offset="0.414063"/><stop stop-opacity="1" stop-color="rgb(15.667725%, 24.179077%, 36.260986%)" offset="0.421875"/><stop stop-opacity="1" stop-color="rgb(15.896606%, 24.401855%, 36.625671%)" offset="0.429687"/><stop stop-opacity="1" stop-color="rgb(16.123962%, 24.62616%, 36.988831%)" offset="0.4375"/><stop stop-opacity="1" stop-color="rgb(16.351318%, 24.848938%, 37.353516%)" offset="0.445312"/><stop stop-opacity="1" stop-color="rgb(16.5802%, 25.073242%, 37.716675%)" offset="0.453125"/><stop stop-opacity="1" stop-color="rgb(16.807556%, 25.296021%, 38.079834%)" offset="0.460938"/><stop stop-opacity="1" stop-color="rgb(17.034912%, 25.520325%, 38.444519%)" offset="0.46875"/><stop stop-opacity="1" stop-color="rgb(17.263794%, 25.743103%, 38.807678%)" offset="0.476563"/><stop stop-opacity="1" stop-color="rgb(17.49115%, 25.967407%, 39.172363%)" offset="0.484375"/><stop stop-opacity="1" stop-color="rgb(17.718506%, 26.190186%, 39.535522%)" offset="0.492188"/><stop stop-opacity="1" stop-color="rgb(17.947388%, 26.41449%, 39.898682%)" offset="0.5"/><stop stop-opacity="1" stop-color="rgb(18.174744%, 26.637268%, 40.263367%)" offset="0.507813"/><stop stop-opacity="1" stop-color="rgb(18.4021%, 26.861572%, 40.626526%)" offset="0.515625"/><stop stop-opacity="1" stop-color="rgb(18.630981%, 27.084351%, 40.989685%)" offset="0.523438"/><stop stop-opacity="1" stop-color="rgb(18.858337%, 27.307129%, 41.35437%)" offset="0.53125"/><stop stop-opacity="1" stop-color="rgb(19.085693%, 27.531433%, 41.717529%)" offset="0.539062"/><stop stop-opacity="1" stop-color="rgb(19.314575%, 27.754211%, 42.082214%)" offset="0.546875"/><stop stop-opacity="1" stop-color="rgb(19.541931%, 27.978516%, 42.445374%)" offset="0.554688"/><stop stop-opacity="1" stop-color="rgb(19.769287%, 28.201294%, 42.808533%)" offset="0.5625"/><stop stop-opacity="1" stop-color="rgb(19.998169%, 28.425598%, 43.173218%)" offset="0.570312"/><stop stop-opacity="1" stop-color="rgb(20.225525%, 28.648376%, 43.536377%)" offset="0.578125"/><stop stop-opacity="1" stop-color="rgb(20.452881%, 28.872681%, 43.901062%)" offset="0.585938"/><stop stop-opacity="1" stop-color="rgb(20.681763%, 29.095459%, 44.264221%)" offset="0.59375"/><stop stop-opacity="1" stop-color="rgb(20.909119%, 29.319763%, 44.62738%)" offset="0.601562"/><stop stop-opacity="1" stop-color="rgb(21.136475%, 29.542542%, 44.992065%)" offset="0.609375"/><stop stop-opacity="1" stop-color="rgb(21.365356%, 29.766846%, 45.355225%)" offset="0.617188"/><stop stop-opacity="1" stop-color="rgb(21.592712%, 29.989624%, 45.71991%)" offset="0.625"/><stop stop-opacity="1" stop-color="rgb(21.820068%, 30.213928%, 46.083069%)" offset="0.632812"/><stop stop-opacity="1" stop-color="rgb(22.04895%, 30.436707%, 46.446228%)" offset="0.640625"/><stop stop-opacity="1" stop-color="rgb(22.276306%, 30.661011%, 46.810913%)" offset="0.648438"/><stop stop-opacity="1" stop-color="rgb(22.503662%, 30.883789%, 47.174072%)" offset="0.65625"/><stop stop-opacity="1" stop-color="rgb(22.732544%, 31.108093%, 47.537231%)" offset="0.664062"/><stop stop-opacity="1" stop-color="rgb(22.9599%, 31.330872%, 47.901917%)" offset="0.671875"/><stop stop-opacity="1" stop-color="rgb(23.187256%, 31.55365%, 48.265076%)" offset="0.679688"/><stop stop-opacity="1" stop-color="rgb(23.416138%, 31.777954%, 48.629761%)" offset="0.6875"/><stop stop-opacity="1" stop-color="rgb(23.643494%, 32.000732%, 48.99292%)" offset="0.695312"/><stop stop-opacity="1" stop-color="rgb(23.87085%, 32.225037%, 49.356079%)" offset="0.703125"/><stop stop-opacity="1" stop-color="rgb(24.099731%, 32.447815%, 49.720764%)" offset="0.710938"/><stop stop-opacity="1" stop-color="rgb(24.327087%, 32.672119%, 50.083923%)" offset="0.71875"/><stop stop-opacity="1" stop-color="rgb(24.554443%, 32.894897%, 50.448608%)" offset="0.726562"/><stop stop-opacity="1" stop-color="rgb(24.783325%, 33.119202%, 50.811768%)" offset="0.734375"/><stop stop-opacity="1" stop-color="rgb(25.010681%, 33.34198%, 51.174927%)" offset="0.742188"/><stop stop-opacity="1" stop-color="rgb(25.238037%, 33.566284%, 51.539612%)" offset="0.75"/><stop stop-opacity="1" stop-color="rgb(25.466919%, 33.789062%, 51.902771%)" offset="0.757812"/><stop stop-opacity="1" stop-color="rgb(25.694275%, 34.013367%, 52.26593%)" offset="0.765625"/><stop stop-opacity="1" stop-color="rgb(25.921631%, 34.236145%, 52.630615%)" offset="0.773438"/><stop stop-opacity="1" stop-color="rgb(26.150513%, 34.460449%, 52.993774%)" offset="0.78125"/><stop stop-opacity="1" stop-color="rgb(26.377869%, 34.683228%, 53.358459%)" offset="0.789062"/><stop stop-opacity="1" stop-color="rgb(26.605225%, 34.907532%, 53.721619%)" offset="0.796875"/><stop stop-opacity="1" stop-color="rgb(26.834106%, 35.13031%, 54.084778%)" offset="0.804688"/><stop stop-opacity="1" stop-color="rgb(27.061462%, 35.354614%, 54.449463%)" offset="0.8125"/><stop stop-opacity="1" stop-color="rgb(27.288818%, 35.577393%, 54.812622%)" offset="0.820312"/><stop stop-opacity="1" stop-color="rgb(27.5177%, 35.800171%, 55.177307%)" offset="0.828125"/><stop stop-opacity="1" stop-color="rgb(27.745056%, 36.024475%, 55.540466%)" offset="0.835938"/><stop stop-opacity="1" stop-color="rgb(27.972412%, 36.247253%, 55.903625%)" offset="0.84375"/><stop stop-opacity="1" stop-color="rgb(28.201294%, 36.471558%, 56.268311%)" offset="0.851563"/><stop stop-opacity="1" stop-color="rgb(28.42865%, 36.694336%, 56.63147%)" offset="0.859375"/><stop stop-opacity="1" stop-color="rgb(28.656006%, 36.91864%, 56.994629%)" offset="0.867188"/><stop stop-opacity="1" stop-color="rgb(28.884888%, 37.141418%, 57.359314%)" offset="0.875"/><stop stop-opacity="1" stop-color="rgb(29.112244%, 37.365723%, 57.722473%)" offset="0.882812"/><stop stop-opacity="1" stop-color="rgb(29.3396%, 37.588501%, 58.087158%)" offset="0.890625"/><stop stop-opacity="1" stop-color="rgb(29.568481%, 37.812805%, 58.450317%)" offset="0.898438"/><stop stop-opacity="1" stop-color="rgb(29.740906%, 37.980652%, 58.724976%)" offset="0.90625"/><stop stop-opacity="1" stop-color="rgb(29.798889%, 38.038635%, 58.81958%)" offset="0.9375"/><stop stop-opacity="1" stop-color="rgb(29.798889%, 38.038635%, 58.81958%)" offset="1"/></linearGradient><clipPath id="3769f963f4"><rect x="0" width="368" y="0" height="77"/></clipPath><clipPath id="f5ae9198c0"><path d="M 0.078125 0 L 367.425781 0 L 367.425781 76.003906 L 0.078125 76.003906 Z M 0.078125 0 " clip-rule="nonzero"/></clipPath><clipPath id="927cca6ae4"><rect x="0" width="368" y="0" height="77"/></clipPath><clipPath id="d52c33b350"><rect x="0" width="368" y="0" height="77"/></clipPath><mask id="b39f157b7e"><g filter="url(#06bf631020)"><g transform="matrix(1, 0, 0, 1, 0.000000000000000222, 0)"><g clip-path="url(#d52c33b350)"><g clip-path="url(#f5ae9198c0)"><g transform="matrix(1, 0, 0, 1, 0.000000000000000222, 0)"><g clip-path="url(#927cca6ae4)"><g fill="#000000" fill-opacity="1"><g transform="translate(77.532247, 54.993471)"><g><path d="M 3.109375 0 L 3.109375 -25.875 L 8.09375 -25.875 L 17.296875 -12.453125 L 26.46875 -25.875 L 31.421875 -25.875 L 31.421875 0 L 25.578125 0 L 25.578125 -15.5625 L 19.296875 -6.390625 L 15.234375 -6.390625 L 8.953125 -15.59375 L 8.953125 0 Z M 3.109375 0 "/></g></g></g><g fill="#000000" fill-opacity="1"><g transform="translate(117.308224, 54.993471)"><g><path d="M 3.109375 0 L 3.109375 -25.875 L 20.109375 -25.875 L 20.109375 -20.921875 L 8.953125 -20.921875 L 8.953125 -15.5625 L 19.109375 -15.5625 L 19.109375 -10.640625 L 8.953125 -10.640625 L 8.953125 -4.984375 L 20.515625 -4.984375 L 20.515625 0 Z M 3.109375 0 "/></g></g></g><g fill="#000000" fill-opacity="1"><g transform="translate(144.959526, 54.993471)"><g><path d="M 14.96875 0.515625 C 12.351562 0.515625 10.035156 -0.0546875 8.015625 -1.203125 C 5.992188 -2.347656 4.414062 -3.929688 3.28125 -5.953125 C 2.15625 -7.972656 1.59375 -10.300781 1.59375 -12.9375 C 1.59375 -15.570312 2.15625 -17.898438 3.28125 -19.921875 C 4.414062 -21.941406 5.988281 -23.523438 8 -24.671875 C 10.007812 -25.816406 12.320312 -26.390625 14.9375 -26.390625 C 17.125 -26.390625 19.128906 -25.96875 20.953125 -25.125 C 22.785156 -24.289062 24.320312 -23.109375 25.5625 -21.578125 C 26.8125 -20.054688 27.679688 -18.257812 28.171875 -16.1875 L 22.109375 -16.1875 C 21.617188 -17.625 20.742188 -18.753906 19.484375 -19.578125 C 18.222656 -20.398438 16.769531 -20.8125 15.125 -20.8125 C 13.664062 -20.8125 12.363281 -20.476562 11.21875 -19.8125 C 10.070312 -19.144531 9.175781 -18.21875 8.53125 -17.03125 C 7.894531 -15.851562 7.578125 -14.488281 7.578125 -12.9375 C 7.578125 -11.382812 7.894531 -10.015625 8.53125 -8.828125 C 9.175781 -7.648438 10.066406 -6.726562 11.203125 -6.0625 C 12.335938 -5.394531 13.628906 -5.0625 15.078125 -5.0625 C 16.785156 -5.0625 18.28125 -5.5 19.5625 -6.375 C 20.84375 -7.25 21.753906 -8.425781 22.296875 -9.90625 L 28.359375 -9.90625 C 27.929688 -7.8125 27.085938 -5.976562 25.828125 -4.40625 C 24.578125 -2.84375 23.019531 -1.628906 21.15625 -0.765625 C 19.300781 0.0859375 17.238281 0.515625 14.96875 0.515625 Z M 14.96875 0.515625 "/></g></g></g><g fill="#000000" fill-opacity="1"><g transform="translate(180.040887, 54.993471)"><g><path d="M 19.109375 0 L 19.109375 -10.421875 L 8.984375 -10.421875 L 8.984375 0 L 3.109375 0 L 3.109375 -25.875 L 8.984375 -25.875 L 8.984375 -15.9375 L 19.109375 -15.9375 L 19.109375 -25.875 L 24.984375 -25.875 L 24.984375 0 Z M 19.109375 0 "/></g></g></g><g fill="#000000" fill-opacity="1"><g transform="translate(213.384867, 54.993471)"><g><path d="M 0.328125 0 L 10.609375 -25.875 L 16.375 -25.875 L 26.65625 0 L 20.375 0 L 18.625 -4.46875 L 8.359375 -4.46875 L 6.625 0 Z M 9.875 -9.09375 L 17.15625 -9.09375 L 13.5 -18.5625 Z M 9.875 -9.09375 "/></g></g></g><g fill="#000000" fill-opacity="1"><g transform="translate(245.619884, 54.993471)"><g><path d="M 3.109375 0 L 3.109375 -25.875 L 8.09375 -25.875 L 19.515625 -10.125 L 19.515625 -25.875 L 25.359375 -25.875 L 25.359375 0 L 20.375 0 L 8.953125 -15.859375 L 8.953125 0 Z M 3.109375 0 "/></g></g></g><g fill="#000000" fill-opacity="1"><g transform="translate(279.333518, 54.993471)"><g><path d="M 3.109375 0 L 3.109375 -25.875 L 8.984375 -25.875 L 8.984375 0 Z M 3.109375 0 "/></g></g></g><g fill="#000000" fill-opacity="1"><g transform="translate(296.671452, 54.993471)"><g><path d="M 14.96875 0.515625 C 12.351562 0.515625 10.035156 -0.0546875 8.015625 -1.203125 C 5.992188 -2.347656 4.414062 -3.929688 3.28125 -5.953125 C 2.15625 -7.972656 1.59375 -10.300781 1.59375 -12.9375 C 1.59375 -15.570312 2.15625 -17.898438 3.28125 -19.921875 C 4.414062 -21.941406 5.988281 -23.523438 8 -24.671875 C 10.007812 -25.816406 12.320312 -26.390625 14.9375 -26.390625 C 17.125 -26.390625 19.128906 -25.96875 20.953125 -25.125 C 22.785156 -24.289062 24.320312 -23.109375 25.5625 -21.578125 C 26.8125 -20.054688 27.679688 -18.257812 28.171875 -16.1875 L 22.109375 -16.1875 C 21.617188 -17.625 20.742188 -18.753906 19.484375 -19.578125 C 18.222656 -20.398438 16.769531 -20.8125 15.125 -20.8125 C 13.664062 -20.8125 12.363281 -20.476562 11.21875 -19.8125 C 10.070312 -19.144531 9.175781 -18.21875 8.53125 -17.03125 C 7.894531 -15.851562 7.578125 -14.488281 7.578125 -12.9375 C 7.578125 -11.382812 7.894531 -10.015625 8.53125 -8.828125 C 9.175781 -7.648438 10.066406 -6.726562 11.203125 -6.0625 C 12.335938 -5.394531 13.628906 -5.0625 15.078125 -5.0625 C 16.785156 -5.0625 18.28125 -5.5 19.5625 -6.375 C 20.84375 -7.25 21.753906 -8.425781 22.296875 -9.90625 L 28.359375 -9.90625 C 27.929688 -7.8125 27.085938 -5.976562 25.828125 -4.40625 C 24.578125 -2.84375 23.019531 -1.628906 21.15625 -0.765625 C 19.300781 0.0859375 17.238281 0.515625 14.96875 0.515625 Z M 14.96875 0.515625 "/></g></g></g></g></g></g></g></g></g></mask><clipPath id="cb896b5708"><path d="M 3.558594 0 L 367.425781 0 L 367.425781 76.003906 L 3.558594 76.003906 Z M 3.558594 0 " clip-rule="nonzero"/></clipPath><clipPath id="ee4bd61c55"><rect x="0" width="368" y="0" height="77"/></clipPath><clipPath id="bb7639880e"><rect x="0" width="368" y="0" height="77"/></clipPath></defs><g clip-path="url(#316b3c000a)"><path fill="#182e43" d="M 65.910156 28.570312 L 62.410156 28.570312 C 61.75 25.789062 60.679688 23.175781 59.1875 20.738281 L 61.648438 18.277344 C 61.878906 18.042969 62.085938 17.789062 62.265625 17.515625 C 62.449219 17.242188 62.601562 16.953125 62.726562 16.648438 C 62.855469 16.34375 62.949219 16.027344 63.011719 15.707031 C 63.074219 15.382812 63.109375 15.054688 63.109375 14.726562 C 63.109375 14.398438 63.074219 14.070312 63.011719 13.746094 C 62.949219 13.425781 62.855469 13.109375 62.726562 12.804688 C 62.601562 12.5 62.449219 12.210938 62.265625 11.9375 C 62.085938 11.664062 61.878906 11.410156 61.648438 11.175781 L 59.757812 9.285156 C 59.523438 9.054688 59.269531 8.847656 58.996094 8.664062 C 58.71875 8.484375 58.429688 8.328125 58.125 8.203125 C 57.820312 8.078125 57.507812 7.984375 57.183594 7.921875 C 56.863281 7.855469 56.535156 7.824219 56.207031 7.824219 C 55.875 7.824219 55.550781 7.855469 55.226562 7.921875 C 54.902344 7.984375 54.589844 8.078125 54.285156 8.203125 C 53.980469 8.328125 53.691406 8.484375 53.417969 8.664062 C 53.140625 8.847656 52.886719 9.054688 52.652344 9.285156 L 50.222656 11.714844 C 47.777344 10.203125 45.160156 9.113281 42.363281 8.441406 L 42.363281 5.023438 C 42.363281 4.695312 42.328125 4.367188 42.265625 4.042969 C 42.199219 3.71875 42.105469 3.40625 41.980469 3.101562 C 41.851562 2.796875 41.699219 2.507812 41.515625 2.234375 C 41.332031 1.960938 41.125 1.707031 40.890625 1.472656 C 40.65625 1.238281 40.402344 1.03125 40.128906 0.847656 C 39.855469 0.664062 39.566406 0.511719 39.261719 0.382812 C 38.957031 0.257812 38.644531 0.160156 38.320312 0.0976562 C 37.996094 0.03125 37.667969 0 37.339844 0 L 34.667969 0 C 34.339844 0 34.011719 0.03125 33.6875 0.0976562 C 33.367188 0.160156 33.050781 0.257812 32.746094 0.382812 C 32.441406 0.511719 32.152344 0.664062 31.878906 0.847656 C 31.605469 1.03125 31.351562 1.238281 31.117188 1.472656 C 30.886719 1.707031 30.675781 1.960938 30.492188 2.234375 C 30.308594 2.507812 30.15625 2.796875 30.03125 3.101562 C 29.902344 3.40625 29.808594 3.71875 29.742188 4.042969 C 29.679688 4.367188 29.644531 4.695312 29.644531 5.023438 L 29.644531 8.441406 C 26.851562 9.113281 24.230469 10.203125 21.785156 11.714844 L 19.355469 9.285156 C 19.121094 9.054688 18.867188 8.847656 18.589844 8.664062 C 18.316406 8.484375 18.027344 8.328125 17.722656 8.203125 C 17.417969 8.078125 17.105469 7.984375 16.78125 7.921875 C 16.457031 7.855469 16.132812 7.824219 15.800781 7.824219 C 15.472656 7.824219 15.148438 7.855469 14.824219 7.921875 C 14.5 7.984375 14.1875 8.078125 13.882812 8.203125 C 13.578125 8.328125 13.289062 8.484375 13.015625 8.664062 C 12.738281 8.847656 12.484375 9.054688 12.25 9.285156 L 10.363281 11.175781 C 10.128906 11.410156 9.921875 11.660156 9.738281 11.9375 C 9.554688 12.210938 9.402344 12.5 9.273438 12.804688 C 9.148438 13.109375 9.054688 13.421875 8.988281 13.746094 C 8.925781 14.070312 8.894531 14.398438 8.894531 14.726562 C 8.894531 15.054688 8.925781 15.382812 8.988281 15.707031 C 9.054688 16.03125 9.148438 16.34375 9.273438 16.648438 C 9.402344 16.953125 9.554688 17.242188 9.738281 17.515625 C 9.921875 17.789062 10.128906 18.042969 10.363281 18.277344 L 12.820312 20.738281 C 11.332031 23.175781 10.257812 25.789062 9.601562 28.570312 L 6.097656 28.570312 C 5.769531 28.570312 5.441406 28.601562 5.121094 28.667969 C 4.796875 28.730469 4.484375 28.828125 4.179688 28.953125 C 3.875 29.078125 3.585938 29.234375 3.308594 29.417969 C 3.035156 29.601562 2.78125 29.808594 2.550781 30.042969 C 2.316406 30.273438 2.109375 30.527344 1.925781 30.804688 C 1.742188 31.078125 1.585938 31.367188 1.460938 31.671875 C 1.332031 31.976562 1.238281 32.289062 1.171875 32.613281 C 1.109375 32.9375 1.078125 33.261719 1.078125 33.59375 L 1.078125 36.265625 C 1.078125 36.59375 1.109375 36.921875 1.171875 37.242188 C 1.238281 37.566406 1.332031 37.878906 1.460938 38.183594 C 1.585938 38.488281 1.742188 38.777344 1.925781 39.054688 C 2.109375 39.328125 2.316406 39.582031 2.550781 39.8125 C 2.78125 40.046875 3.035156 40.253906 3.308594 40.4375 C 3.585938 40.621094 3.875 40.777344 4.179688 40.902344 C 4.484375 41.027344 4.796875 41.125 5.121094 41.1875 C 5.441406 41.253906 5.769531 41.285156 6.097656 41.285156 L 9.644531 41.285156 C 10.320312 44.042969 11.402344 46.628906 12.894531 49.042969 L 10.363281 51.578125 C 10.128906 51.8125 9.921875 52.066406 9.738281 52.339844 C 9.554688 52.613281 9.402344 52.902344 9.273438 53.207031 C 9.148438 53.511719 9.054688 53.828125 8.988281 54.148438 C 8.925781 54.472656 8.894531 54.800781 8.894531 55.128906 C 8.894531 55.460938 8.925781 55.785156 8.988281 56.109375 C 9.054688 56.433594 9.148438 56.746094 9.273438 57.050781 C 9.402344 57.355469 9.554688 57.644531 9.738281 57.917969 C 9.921875 58.195312 10.128906 58.449219 10.363281 58.679688 L 12.25 60.570312 C 12.484375 60.800781 12.738281 61.007812 13.015625 61.191406 C 13.289062 61.371094 13.578125 61.527344 13.882812 61.652344 C 14.1875 61.777344 14.5 61.871094 14.824219 61.9375 C 15.148438 62 15.472656 62.03125 15.800781 62.03125 C 16.132812 62.03125 16.457031 62 16.78125 61.9375 C 17.105469 61.871094 17.417969 61.777344 17.722656 61.652344 C 18.027344 61.527344 18.316406 61.371094 18.589844 61.191406 C 18.867188 61.007812 19.121094 60.800781 19.355469 60.570312 L 21.917969 58.007812 C 24.324219 59.480469 26.902344 60.550781 29.644531 61.210938 L 29.644531 64.832031 C 29.644531 65.164062 29.679688 65.488281 29.742188 65.8125 C 29.808594 66.136719 29.902344 66.449219 30.03125 66.753906 C 30.15625 67.058594 30.308594 67.347656 30.492188 67.621094 C 30.675781 67.894531 30.886719 68.148438 31.117188 68.382812 C 31.351562 68.617188 31.605469 68.824219 31.878906 69.007812 C 32.152344 69.191406 32.441406 69.34375 32.746094 69.472656 C 33.050781 69.597656 33.367188 69.695312 33.6875 69.757812 C 34.011719 69.824219 34.339844 69.855469 34.667969 69.855469 L 37.339844 69.855469 C 37.667969 69.855469 37.996094 69.824219 38.320312 69.757812 C 38.644531 69.695312 38.957031 69.597656 39.261719 69.472656 C 39.566406 69.34375 39.855469 69.191406 40.128906 69.007812 C 40.402344 68.824219 40.65625 68.617188 40.890625 68.382812 C 41.125 68.148438 41.332031 67.894531 41.515625 67.621094 C 41.699219 67.347656 41.851562 67.058594 41.980469 66.753906 C 42.105469 66.449219 42.199219 66.136719 42.265625 65.8125 C 42.328125 65.488281 42.363281 65.164062 42.363281 64.832031 L 42.363281 61.210938 C 45.109375 60.550781 47.683594 59.480469 50.09375 58.007812 L 52.652344 60.570312 C 52.886719 60.800781 53.140625 61.007812 53.417969 61.191406 C 53.691406 61.371094 53.980469 61.527344 54.285156 61.652344 C 54.589844 61.777344 54.902344 61.871094 55.226562 61.9375 C 55.550781 62 55.875 62.03125 56.207031 62.03125 C 56.535156 62.03125 56.863281 62 57.183594 61.9375 C 57.507812 61.871094 57.820312 61.777344 58.125 61.652344 C 58.429688 61.527344 58.71875 61.371094 58.996094 61.191406 C 59.269531 61.007812 59.523438 60.800781 59.757812 60.570312 L 61.648438 58.679688 C 61.878906 58.445312 62.085938 58.191406 62.265625 57.917969 C 62.449219 57.644531 62.601562 57.355469 62.726562 57.050781 C 62.855469 56.746094 62.949219 56.429688 63.011719 56.109375 C 63.074219 55.785156 63.109375 55.457031 63.109375 55.128906 C 63.109375 54.800781 63.074219 54.472656 63.011719 54.152344 C 62.949219 53.828125 62.855469 53.515625 62.726562 53.210938 C 62.601562 52.90625 62.449219 52.613281 62.265625 52.339844 C 62.085938 52.066406 61.878906 51.8125 61.648438 51.578125 L 59.113281 49.042969 C 60.605469 46.628906 61.691406 44.042969 62.363281 41.285156 L 65.910156 41.285156 C 66.238281 41.285156 66.566406 41.253906 66.886719 41.1875 C 67.210938 41.125 67.527344 41.027344 67.832031 40.902344 C 68.136719 40.777344 68.425781 40.621094 68.699219 40.4375 C 68.972656 40.253906 69.226562 40.046875 69.460938 39.8125 C 69.691406 39.582031 69.902344 39.328125 70.082031 39.054688 C 70.265625 38.777344 70.421875 38.488281 70.546875 38.183594 C 70.675781 37.878906 70.769531 37.566406 70.835938 37.242188 C 70.898438 36.921875 70.933594 36.59375 70.933594 36.265625 L 70.933594 33.59375 C 70.933594 33.261719 70.898438 32.9375 70.835938 32.613281 C 70.769531 32.289062 70.675781 31.976562 70.546875 31.671875 C 70.421875 31.367188 70.265625 31.078125 70.082031 30.804688 C 69.902344 30.527344 69.691406 30.273438 69.460938 30.042969 C 69.226562 29.808594 68.972656 29.601562 68.699219 29.417969 C 68.425781 29.234375 68.136719 29.078125 67.832031 28.953125 C 67.527344 28.828125 67.210938 28.730469 66.886719 28.667969 C 66.566406 28.601562 66.238281 28.570312 65.910156 28.570312 Z M 36.003906 54.71875 C 35.355469 54.71875 34.710938 54.6875 34.0625 54.625 C 33.417969 54.5625 32.777344 54.464844 32.144531 54.339844 C 31.507812 54.214844 30.878906 54.054688 30.257812 53.867188 C 29.636719 53.679688 29.027344 53.460938 28.429688 53.214844 C 27.832031 52.964844 27.246094 52.6875 26.675781 52.382812 C 26.101562 52.078125 25.546875 51.746094 25.007812 51.386719 C 24.46875 51.023438 23.949219 50.640625 23.449219 50.226562 C 22.945312 49.816406 22.46875 49.382812 22.007812 48.921875 C 21.550781 48.464844 21.117188 47.984375 20.703125 47.484375 C 20.292969 46.984375 19.90625 46.464844 19.546875 45.925781 C 19.1875 45.386719 18.855469 44.828125 18.546875 44.257812 C 18.242188 43.6875 17.964844 43.101562 17.71875 42.503906 C 17.46875 41.902344 17.253906 41.292969 17.0625 40.671875 C 16.875 40.054688 16.71875 39.425781 16.59375 38.789062 C 16.464844 38.152344 16.371094 37.511719 16.308594 36.867188 C 16.242188 36.222656 16.210938 35.578125 16.210938 34.929688 C 16.210938 34.28125 16.242188 33.632812 16.308594 32.988281 C 16.371094 32.34375 16.464844 31.703125 16.59375 31.066406 C 16.71875 30.429688 16.875 29.804688 17.0625 29.183594 C 17.253906 28.5625 17.46875 27.953125 17.71875 27.355469 C 17.964844 26.753906 18.242188 26.167969 18.546875 25.597656 C 18.855469 25.027344 19.1875 24.472656 19.546875 23.933594 C 19.90625 23.394531 20.292969 22.871094 20.703125 22.371094 C 21.117188 21.871094 21.550781 21.390625 22.007812 20.933594 C 22.46875 20.472656 22.945312 20.039062 23.449219 19.628906 C 23.949219 19.21875 24.46875 18.832031 25.007812 18.472656 C 25.546875 18.109375 26.101562 17.777344 26.675781 17.472656 C 27.246094 17.167969 27.832031 16.890625 28.429688 16.640625 C 29.027344 16.394531 29.636719 16.175781 30.257812 15.988281 C 30.878906 15.800781 31.507812 15.640625 32.144531 15.515625 C 32.777344 15.390625 33.417969 15.292969 34.0625 15.230469 C 34.710938 15.167969 35.355469 15.136719 36.003906 15.136719 C 36.652344 15.136719 37.300781 15.167969 37.945312 15.230469 C 38.589844 15.292969 39.230469 15.390625 39.867188 15.515625 C 40.5 15.640625 41.128906 15.800781 41.75 15.988281 C 42.371094 16.175781 42.980469 16.394531 43.578125 16.640625 C 44.175781 16.890625 44.761719 17.167969 45.335938 17.472656 C 45.90625 17.777344 46.460938 18.109375 47 18.472656 C 47.539062 18.832031 48.058594 19.21875 48.558594 19.628906 C 49.0625 20.039062 49.542969 20.472656 50 20.933594 C 50.457031 21.390625 50.894531 21.871094 51.304688 22.371094 C 51.714844 22.871094 52.101562 23.394531 52.460938 23.933594 C 52.820312 24.472656 53.152344 25.027344 53.460938 25.597656 C 53.765625 26.167969 54.042969 26.753906 54.289062 27.355469 C 54.539062 27.953125 54.757812 28.5625 54.945312 29.183594 C 55.132812 29.804688 55.289062 30.429688 55.417969 31.066406 C 55.542969 31.703125 55.636719 32.34375 55.703125 32.988281 C 55.765625 33.632812 55.796875 34.28125 55.796875 34.929688 C 55.796875 35.574219 55.761719 36.222656 55.699219 36.867188 C 55.636719 37.511719 55.539062 38.152344 55.414062 38.789062 C 55.285156 39.421875 55.128906 40.050781 54.941406 40.671875 C 54.75 41.289062 54.53125 41.898438 54.285156 42.5 C 54.035156 43.097656 53.757812 43.683594 53.453125 44.253906 C 53.148438 44.824219 52.816406 45.378906 52.453125 45.917969 C 52.09375 46.457031 51.707031 46.976562 51.296875 47.476562 C 50.886719 47.980469 50.453125 48.457031 49.992188 48.917969 C 49.535156 49.375 49.054688 49.808594 48.554688 50.222656 C 48.054688 50.632812 47.535156 51.019531 46.996094 51.378906 C 46.457031 51.738281 45.902344 52.070312 45.328125 52.375 C 44.757812 52.683594 44.171875 52.960938 43.574219 53.207031 C 42.976562 53.457031 42.367188 53.675781 41.746094 53.863281 C 41.128906 54.050781 40.5 54.210938 39.863281 54.335938 C 39.230469 54.464844 38.589844 54.558594 37.945312 54.625 C 37.296875 54.6875 36.652344 54.71875 36.003906 54.71875 Z M 30.183594 51.371094 L 30.183594 44.992188 C 29.269531 44.46875 28.445312 43.832031 27.707031 43.082031 C 26.96875 42.332031 26.34375 41.5 25.832031 40.578125 C 25.320312 39.660156 24.9375 38.6875 24.691406 37.667969 C 24.441406 36.644531 24.335938 35.605469 24.367188 34.554688 C 24.402344 33.503906 24.574219 32.476562 24.886719 31.46875 C 25.199219 30.464844 25.636719 29.519531 26.207031 28.636719 C 26.777344 27.75 27.453125 26.957031 28.238281 26.257812 C 29.023438 25.554688 29.886719 24.96875 30.828125 24.503906 C 31.007812 24.417969 31.199219 24.378906 31.398438 24.386719 C 31.601562 24.398438 31.785156 24.457031 31.957031 24.5625 C 32.128906 24.667969 32.261719 24.808594 32.359375 24.980469 C 32.457031 25.15625 32.507812 25.34375 32.511719 25.546875 L 32.511719 33.039062 L 36.003906 34.785156 L 39.496094 33.039062 L 39.496094 25.546875 C 39.5 25.34375 39.550781 25.15625 39.648438 24.980469 C 39.746094 24.808594 39.882812 24.667969 40.050781 24.5625 C 40.222656 24.457031 40.410156 24.398438 40.609375 24.386719 C 40.808594 24.378906 41 24.417969 41.179688 24.503906 C 42.125 24.96875 42.988281 25.554688 43.769531 26.257812 C 44.554688 26.957031 45.230469 27.75 45.800781 28.636719 C 46.371094 29.519531 46.8125 30.464844 47.121094 31.46875 C 47.433594 32.476562 47.609375 33.503906 47.640625 34.554688 C 47.675781 35.605469 47.566406 36.644531 47.316406 37.667969 C 47.070312 38.6875 46.6875 39.660156 46.175781 40.578125 C 45.664062 41.5 45.039062 42.332031 44.300781 43.082031 C 43.5625 43.832031 42.738281 44.46875 41.824219 44.992188 L 41.824219 51.371094 C 39.945312 52.046875 38.003906 52.382812 36.003906 52.382812 C 34.003906 52.382812 32.066406 52.046875 30.183594 51.371094 Z M 30.183594 51.371094 " fill-opacity="1" fill-rule="nonzero"/></g><g clip-path="url(#a3210eafb4)"><g transform="matrix(1, 0, 0, 1, 1, 0)"><g clip-path="url(#bb7639880e)"><g clip-path="url(#375b6ad20b)"><g mask="url(#b39f157b7e)"><g transform="matrix(1, 0, 0, 1, 0.000000000000000222, 0)"><g clip-path="url(#ee4bd61c55)"><g clip-path="url(#cb896b5708)"><path fill="url(#32667db590)" d="M 3.558594 0 L 3.558594 76.003906 L 367.425781 76.003906 L 367.425781 0 Z M 3.558594 0 " fill-rule="nonzero"/></g></g></g></g></g></g></g></g></svg>